<svg fill="none" height="50" viewBox="0 0 172 50" width="172" xmlns="http://www.w3.org/2000/svg"><path d="m158.035 0c3.127 1.34507 5.948 3.22372 8.346 5.48033l-10.086 9.44887c-2.621-2.4345-6.242-3.9574-10.215-3.9574-8.064 0-14.6 6.1806-14.6 13.7953 0 7.6146 6.536 13.7731 14.6 13.7731 3.973 0 7.57-1.5007 10.192-3.9463l10.05 9.5044c-2.398 2.2344-5.195 4.0797-8.287 5.4359h13.965v-49.5342zm-40.778 24.7671c0-11.0051 6.841-20.47621 16.798-24.7671h-21.888v49.5231h21.935c-9.922-4.302-16.845-13.7731-16.845-24.756zm-42.5301 24.756h23.757l-23.757-26.8681zm22.5109-49.5231h-23.8745l23.8745 27.0126zm-43.0235 5.48033-10.0623 9.44887c-2.6566-2.4345-6.2537-3.9574-10.2504-3.9574-8.064 0-14.588 6.1806-14.588 13.7953 0 7.6146 6.5123 13.7731 14.588 13.7731 3.985 0 7.5702-1.5007 10.2269-3.9463l10.0153 9.5044c-2.3745 2.2344-5.184 4.0797-8.2756 5.4359h13.9415v-49.5342h-13.9297c3.1268 1.34507 5.9481 3.22372 8.3343 5.48033zm-49.1126 19.28677c0-11.0051 6.8414-20.47621 16.7745-24.7671h-21.8762v49.5231h21.9349c-9.933-4.302-16.8332-13.7731-16.8332-24.756z" fill="#fff"/></svg>