<svg width="67" height="67" viewBox="0 0 67 67" fill="none" xmlns="http://www.w3.org/2000/svg">
<rect width="67" height="67" rx="10" fill="#E4EEFF"/>
<path d="M40.7428 12.0298L18.2566 24.63L12.2736 21.4385L34.7518 8.70453L40.7428 12.0298Z" fill="#D4E5F7" stroke="#2C78FD" stroke-width="0.546207" stroke-miterlimit="10"/>
<path d="M11.7068 21.4457V48.7014L18.1833 52.4095V24.9412L11.7068 21.4457Z" fill="#2C78FD"/>
<path d="M18.4565 25.1015L41.0305 12.494V39.4775L18.4565 51.9467V25.1015Z" fill="#D4E5F7" stroke="#2C78FD" stroke-width="0.546207" stroke-miterlimit="10"/>
<path d="M12.6609 24.7995V37.4287L17.0795 39.9963V27.3672L12.6609 24.7995Z" fill="white"/>
<path d="M14.7257 47.1325C15.5391 47.1325 16.1986 45.9663 16.1986 44.5277C16.1986 43.0891 15.5391 41.9229 14.7257 41.9229C13.9122 41.9229 13.2528 43.0891 13.2528 44.5277C13.2528 45.9663 13.9122 47.1325 14.7257 47.1325Z" fill="white"/>
<path d="M48.7428 16.0298L26.2566 28.63L20.2736 25.4385L42.7518 12.7045L48.7428 16.0298Z" fill="#C7EF9D" stroke="#00B242" stroke-width="0.546207" stroke-miterlimit="10"/>
<path d="M19.7068 25.4457V52.7014L26.1833 56.4095V28.9412L19.7068 25.4457Z" fill="#00B242"/>
<path d="M26.4565 29.1015L49.0305 16.494V43.4775L26.4565 55.9467V29.1015Z" fill="#C7EF9D" stroke="#00B242" stroke-width="0.546207" stroke-miterlimit="10"/>
<path d="M20.6609 28.7995V41.4287L25.0795 43.9963V31.3672L20.6609 28.7995Z" fill="white"/>
<path d="M22.7257 51.1325C23.5391 51.1325 24.1986 49.9663 24.1986 48.5277C24.1986 47.0891 23.5391 45.9229 22.7257 45.9229C21.9122 45.9229 21.2528 47.0891 21.2528 48.5277C21.2528 49.9663 21.9122 51.1325 22.7257 51.1325Z" fill="white"/>
<path d="M56.7428 20.0298L34.2566 32.63L28.2736 29.4385L50.7518 16.7045L56.7428 20.0298Z" fill="#D4E5F7" stroke="#2C78FD" stroke-width="0.546207" stroke-miterlimit="10"/>
<path d="M27.7068 29.4457V56.7014L34.1833 60.4095V32.9412L27.7068 29.4457Z" fill="#2C78FD"/>
<path d="M34.4565 33.1015L57.0305 20.494V47.4775L34.4565 59.9467V33.1015Z" fill="#D4E5F7" stroke="#2C78FD" stroke-width="0.546207" stroke-miterlimit="10"/>
<path d="M28.6609 32.7995V45.4287L33.0795 47.9963V35.3672L28.6609 32.7995Z" fill="white"/>
<path d="M30.7257 55.1325C31.5391 55.1325 32.1986 53.9663 32.1986 52.5277C32.1986 51.0891 31.5391 49.9229 30.7257 49.9229C29.9122 49.9229 29.2528 51.0891 29.2528 52.5277C29.2528 53.9663 29.9122 55.1325 30.7257 55.1325Z" fill="white"/>
</svg>
