<svg width="67" height="67" viewBox="0 0 67 67" fill="none" xmlns="http://www.w3.org/2000/svg">
<rect width="67" height="67" rx="10" fill="#ECFFD9"/>
<ellipse cx="34.5" cy="53" rx="25.5" ry="10" fill="#00B242" fill-opacity="0.18"/>
<path d="M19.1334 11.5033C18.8243 11.0294 18.9695 10.3937 19.4537 10.1011L21.9868 8.5701C22.2693 8.39938 22.6178 8.37904 22.9182 8.51574L33.8647 13.4968C33.9104 13.5176 33.9545 13.5418 33.9965 13.5693L48.1639 22.8035C48.4456 22.9871 48.6162 23.3 48.6179 23.6362L48.7279 45.2976C48.7281 45.3338 48.7268 45.3656 48.7223 45.4015C48.6162 46.2412 46.9445 57.4794 33.4405 57.7317C32.6604 57.7462 32.2057 56.8656 32.5653 56.1732C39.1261 43.5401 27.144 23.8004 26.9883 23.5448C26.9832 23.5365 26.9841 23.5382 26.9788 23.5301L19.1334 11.5033Z" fill="#00B242" stroke="#00B242" stroke-width="0.567627" stroke-miterlimit="10"/>
<path d="M45.886 24.7658L29.6082 14.5305L19.7844 10.4943C19.0551 10.1944 18.2503 10.7311 18.2692 11.5047L18.724 29.2019C18.8074 32.4672 19.2865 35.7167 20.2016 38.8583C21.7707 44.2416 25.022 51.7905 31.6564 57.7053C43.1515 54.4795 45.5415 49.6934 45.7703 45.2415C45.9991 40.7896 45.8833 24.7684 45.8833 24.7684L45.886 24.7658Z" fill="#C7EF9D" stroke="#00B242" stroke-width="0.567627" stroke-miterlimit="10"/>
<path d="M43.383 26.4366L20.0482 13.1939L21.1867 30.107C21.1867 30.107 22.2121 46.2413 32.9106 55.2557C43.2672 50.1381 43.2672 46.5755 43.496 43.5707C43.7248 40.5659 43.383 26.4339 43.383 26.4339V26.4366Z" fill="white" stroke="#00B242" stroke-width="0.567627" stroke-miterlimit="10"/>
<path d="M28.1051 29.7706L28.0029 39.5348C27.9948 40.2294 28.4039 40.8636 29.0471 41.1582L34.4596 43.6368C35.6466 44.1815 37.0138 43.35 37.0407 42.0686L37.2103 33.9988L28.1051 29.7706Z" fill="#2C78FD"/>
<mask id="path-7-inside-1_72_1156" fill="white">
<path d="M37.2103 34.9988C37.2103 34.9988 37.5521 27.7658 32.4303 26.4318C27.3085 25.0978 28.1052 30.7706 28.1052 30.7706"/>
</mask>
<path d="M37.2103 34.9988C38.2092 35.0461 38.2092 35.0457 38.2092 35.0453C38.2092 35.0451 38.2092 35.0447 38.2093 35.0443C38.2093 35.0436 38.2093 35.0428 38.2094 35.0419C38.2094 35.0401 38.2095 35.0378 38.2097 35.0351C38.2099 35.0297 38.2102 35.0226 38.2105 35.0138C38.2111 34.9961 38.2119 34.9716 38.2126 34.9408C38.2141 34.8791 38.2153 34.7918 38.215 34.6822C38.2143 34.463 38.207 34.1533 38.1813 33.7793C38.1302 33.035 38.005 32.0176 37.7037 30.9451C37.1094 28.8294 35.7505 26.2632 32.6823 25.4641L32.1783 27.3995C34.2319 27.9344 35.263 29.6517 35.7782 31.486C36.0318 32.3886 36.1412 33.2628 36.186 33.9163C36.2083 34.2413 36.2144 34.5071 36.215 34.6887C36.2153 34.7794 36.2142 34.8488 36.2132 34.8938C36.2126 34.9162 36.2121 34.9326 36.2118 34.9423C36.2116 34.9472 36.2115 34.9505 36.2114 34.9521C36.2114 34.9528 36.2113 34.9532 36.2113 34.9531C36.2113 34.9531 36.2113 34.953 36.2114 34.9527C36.2114 34.9526 36.2114 34.9523 36.2114 34.9523C36.2114 34.952 36.2114 34.9516 37.2103 34.9988ZM32.6823 25.4641C31.2467 25.0901 30.0592 25.1654 29.1232 25.6645C28.1877 26.1634 27.6773 26.9929 27.4039 27.7685C27.1328 28.5378 27.0667 29.3266 27.0608 29.8946C27.0577 30.1843 27.0703 30.4303 27.0839 30.6064C27.0907 30.6948 27.0979 30.7663 27.1036 30.8177C27.1064 30.8435 27.109 30.8643 27.1109 30.8797C27.1119 30.8874 27.1127 30.8938 27.1134 30.8988C27.1137 30.9013 27.114 30.9035 27.1143 30.9053C27.1144 30.9062 27.1145 30.907 27.1146 30.9077C27.1147 30.9081 27.1147 30.9086 27.1147 30.9087C27.1148 30.9092 27.1149 30.9096 28.1052 30.7706C29.0954 30.6315 29.0955 30.6319 29.0955 30.6323C29.0956 30.6324 29.0956 30.6327 29.0956 30.6329C29.0957 30.6333 29.0957 30.6336 29.0958 30.6338C29.0958 30.6342 29.0958 30.6343 29.0958 30.6341C29.0957 30.6337 29.0955 30.6319 29.0951 30.629C29.0944 30.623 29.0931 30.6121 29.0913 30.5967C29.0879 30.5657 29.0829 30.5166 29.078 30.4524C29.068 30.3235 29.0583 30.1368 29.0606 29.9155C29.0654 29.4615 29.1203 28.9154 29.2902 28.4333C29.4579 27.9575 29.7086 27.619 30.0642 27.4293C30.4194 27.24 31.053 27.1064 32.1783 27.3995L32.6823 25.4641Z" fill="#2C78FD" mask="url(#path-7-inside-1_72_1156)"/>
<path d="M32.0885 39.1165C32.7797 39.1165 33.34 38.1953 33.34 37.0589C33.34 35.9225 32.7797 35.0013 32.0885 35.0013C31.3973 35.0013 30.8369 35.9225 30.8369 37.0589C30.8369 38.1953 31.3973 39.1165 32.0885 39.1165Z" fill="white"/>
</svg>
