<svg width="67" height="67" viewBox="0 0 67 67" fill="none" xmlns="http://www.w3.org/2000/svg">
<rect width="67" height="67" rx="10" fill="#ECFFD9"/>
<ellipse cx="36.5" cy="49" rx="25.5" ry="13" fill="#00B242" fill-opacity="0.18"/>
<path d="M20.2184 36.518C20.206 31.6898 21.907 26.3365 24.6715 21.5794C27.4361 16.8223 31.2579 12.6706 35.4902 10.2426C39.7225 7.81464 43.5567 7.57678 46.3399 9.15219L25.7071 46.5295C22.9239 44.9572 20.2309 41.3461 20.2153 36.518" fill="#C7EF9D"/>
<path d="M20.2184 36.518C20.206 31.6898 21.907 26.3365 24.6715 21.5794C27.4361 16.8223 31.2579 12.6706 35.4902 10.2426C39.7225 7.81464 43.5567 7.57678 46.3399 9.15219L25.7071 46.5295C22.9239 44.9572 20.2309 41.3461 20.2153 36.518" stroke="#00B242" stroke-width="0.567627" stroke-miterlimit="10"/>
<path d="M47.8015 9.67734C45.0184 8.10193 41.1841 8.33979 36.9518 10.7678C32.7195 13.1958 28.8977 17.3474 26.1332 22.1045C23.3686 26.8617 21.6676 32.2149 21.6801 37.0431C21.6925 41.8713 23.4215 45.263 26.2047 46.8354C28.9879 48.4108 32.8221 48.1729 37.0513 45.7449C41.2836 43.3169 45.1054 39.1653 47.8731 34.4082C50.6345 29.6541 52.3386 24.3008 52.323 19.4696C52.3075 14.6383 50.5816 11.2527 47.8015 9.67734ZM25.8253 34.9549C25.2065 34.6059 24.824 33.8521 24.8209 32.7802C24.8209 31.7083 25.1971 30.5191 25.8097 29.4626C26.4224 28.4062 27.2713 27.4825 28.2135 26.9451C29.1527 26.4045 30.0047 26.352 30.6236 26.7041C31.2424 27.0532 31.6249 27.8069 31.628 28.8788C31.628 29.9507 31.2517 31.14 30.6391 32.1964C30.0265 33.2529 29.1744 34.1765 28.2353 34.714C27.2962 35.2515 26.4441 35.3071 25.8253 34.9549ZM34.7315 41.9423C34.1189 42.9988 33.2668 43.9224 32.3277 44.4599C31.3885 44.9974 30.5365 45.053 29.9177 44.7008C29.2988 44.3518 28.9163 43.598 28.9132 42.5262C28.9101 41.4543 29.2895 40.265 29.9021 39.2085C30.5147 38.1521 31.3668 37.2285 32.3059 36.691C33.245 36.1504 34.0971 36.0979 34.7159 36.45C35.3348 36.7991 35.7172 37.5528 35.7204 38.6247C35.7204 39.6966 35.3441 40.8859 34.7315 41.9423ZM37.2099 21.1902C36.2708 21.7277 35.4187 21.7833 34.7999 21.4311C34.1811 21.0821 33.7986 20.3283 33.7954 19.2564C33.7954 18.1845 34.1717 16.9953 34.7843 15.9388C35.3969 14.8824 36.249 13.9587 37.1881 13.4213C38.1273 12.8807 38.9793 12.8282 39.5981 13.1803C40.217 13.5294 40.5995 14.2831 40.6026 15.355C40.6026 16.4269 40.2263 17.6162 39.6137 18.6726C39.0011 19.7291 38.1521 20.6527 37.2099 21.1902ZM45.9264 34.5441C45.3138 35.6005 44.4617 36.5242 43.5226 37.0616C42.5835 37.5991 41.7314 37.6547 41.1126 37.3026C40.4937 36.9535 40.1112 36.1998 40.1081 35.1279C40.1081 34.056 40.4844 32.8667 41.097 31.8103C41.7096 30.7538 42.5617 29.8302 43.5008 29.2927C44.44 28.7521 45.292 28.6996 45.9108 29.0518C46.5297 29.4008 46.9122 30.1546 46.9153 31.2265C46.9153 32.2984 46.539 33.4876 45.9264 34.5441ZM46.6292 23.0992C45.6901 23.6367 44.838 23.6923 44.2192 23.3401C43.6003 22.9911 43.2178 22.2374 43.2147 21.1655C43.2147 20.0936 43.591 18.9043 44.2036 17.8478C44.8162 16.7914 45.6652 15.8678 46.6074 15.3303C47.5465 14.7897 48.3986 14.7372 49.0174 15.0893C49.6363 15.4384 50.0188 16.1921 50.0219 17.264C50.025 18.3359 49.6456 19.5252 49.033 20.5816C48.4204 21.6381 47.5683 22.5617 46.6292 23.0992Z" fill="#00B242"/>
<path d="M49.1246 15.6249C49.3483 15.2525 49.306 14.7783 49.02 14.4514L46.1844 11.2107C46.0638 11.0729 45.9106 10.9714 45.7313 10.9341C44.124 10.5992 35.5501 9.63923 26.6258 24.507C26.5967 24.5556 26.5697 24.6109 26.5493 24.6637C21.0146 39.0044 24.8543 40.164 24.4601 42.3161C24.0652 44.4723 23.3748 47.6571 19.5281 50.0572C17.1154 51.5627 14.1203 53.0681 12.2226 53.9813C11.4696 54.3437 11.4447 55.4238 12.1863 55.8089L17.5569 58.5979C17.8348 58.7422 18.1624 58.7488 18.4425 58.6087C20.0219 57.8188 25.3833 55.0133 27.5169 52.3122C29.052 50.369 29.4848 49.2468 29.589 48.6673C29.6472 48.3436 29.6891 47.9799 29.8584 47.698L49.1246 15.6249Z" fill="#2C78FD" stroke="#2C78FD" stroke-miterlimit="10"/>
<path d="M38.6124 32.3632C38.6124 31.2913 38.9886 30.102 39.6013 29.0456C40.2139 27.9891 41.0659 27.0655 42.005 26.528C42.9442 25.9905 43.7962 25.9349 44.4151 26.2871C45.0339 26.6362 45.4164 27.3899 45.4195 28.4618C45.4226 29.5337 45.0432 30.7229 44.4306 31.7794C43.818 32.8358 42.9659 33.7595 42.0268 34.297C41.0877 34.8345 40.2356 34.8901 39.6168 34.5379C38.998 34.1888 38.6155 33.4351 38.6124 32.3632Z" stroke="black" stroke-miterlimit="10"/>
<path d="M24.74 38.5259C24.7276 33.6977 26.4286 28.3444 29.1931 23.5873C31.9576 18.8302 35.7794 14.6785 40.0117 12.2505C44.244 9.82256 47.7168 9.92459 50.5 11.5L30.2317 48.5375C27.4485 46.9651 24.7555 43.354 24.74 38.5259Z" fill="#00B242"/>
<path d="M52 23C53.6 20.6 53 17.3333 52.5 16H48.75L35 37.5L28.5 41.5C29.8333 43.8333 32.7 48.5 33.5 48.5C34.3 48.5 39.1667 45.8333 41.5 44.5C43.8333 42.1667 48.8 37.1 50 35.5C51.5 33.5 50 26 52 23Z" fill="#2C78FD"/>
<path d="M35.1419 28.7861C34.9864 28.6965 34.8123 28.6347 34.6288 28.6008C35.1108 28.9962 35.4031 29.685 35.4062 30.6179C35.4062 31.6898 35.03 32.8791 34.4174 33.9355C33.8047 34.992 32.9558 35.9156 32.0136 36.4531C31.3108 36.8547 30.6577 36.9875 30.1166 36.8825C30.1882 36.9412 30.2628 36.9937 30.3436 37.04C30.9625 37.3891 31.8145 37.3366 32.7537 36.7991C33.6928 36.2585 34.5417 35.338 35.1575 34.2815C35.7701 33.2251 36.1495 32.0358 36.1463 30.9639C36.1463 29.892 35.7607 29.1383 35.1419 28.7892V28.7861Z" stroke="#00B242" stroke-miterlimit="10"/>
<path d="M44.1196 15.2623C43.9642 15.1727 43.79 15.1109 43.6065 15.077C44.0885 15.4724 44.3809 16.1612 44.384 17.0941C44.384 18.166 44.0077 19.3553 43.3951 20.4117C42.7825 21.4682 41.9335 22.3918 40.9913 22.9293C40.2885 23.3309 39.6354 23.4637 39.0944 23.3587C39.1659 23.4174 39.2405 23.4699 39.3214 23.5162C39.9402 23.8653 40.7923 23.8128 41.7314 23.2753C42.6705 22.7347 43.5195 21.8142 44.1352 20.7577C44.7478 19.7013 45.1272 18.512 45.1241 17.4401C45.1241 16.3682 44.7385 15.6145 44.1196 15.2654V15.2623Z" stroke="#00B242" stroke-miterlimit="10"/>
<path d="M53.5389 17.1744C53.3834 17.0848 53.2093 17.0231 53.0258 16.9891C53.5078 17.3845 53.8001 18.0733 53.8032 19.0062C53.8032 20.0781 53.4269 21.2674 52.8143 22.3238C52.2017 23.3803 51.3528 24.3039 50.4105 24.8414C49.7077 25.243 49.0547 25.3758 48.5136 25.2708C48.5851 25.3295 48.6598 25.382 48.7406 25.4283C49.3595 25.7774 50.2115 25.7249 51.1506 25.1874C52.0898 24.6468 52.9387 23.7263 53.5544 22.6698C54.167 21.6134 54.5464 20.4241 54.5433 19.3522C54.5433 18.2803 54.1577 17.5266 53.5389 17.1775V17.1744Z" stroke="#00B242" stroke-miterlimit="10"/>
<path d="M50.4323 31.1369C50.2768 31.0473 50.1027 30.9855 49.9192 30.9515C50.4012 31.3469 50.6935 32.0358 50.6966 32.9687C50.6966 34.0406 50.3204 35.2299 49.7078 36.2863C49.0951 37.3428 48.2462 38.2664 47.304 38.8039C46.6012 39.2054 45.9481 39.3383 45.407 39.2332C45.4786 39.2919 45.5532 39.3445 45.6341 39.3908C46.2529 39.7398 47.1049 39.6873 48.0441 39.1498C48.9832 38.6093 49.8321 37.6887 50.4479 36.6323C51.0605 35.5758 51.4399 34.3865 51.4368 33.3146C51.4368 32.2428 51.0511 31.489 50.4323 31.14V31.1369Z" stroke="#00B242" stroke-miterlimit="10"/>
<path d="M39.2374 38.532C39.0819 38.4424 38.9077 38.3807 38.7243 38.3467C39.2063 38.7421 39.4986 39.4309 39.5017 40.3638C39.5017 41.4357 39.1254 42.625 38.5128 43.6814C37.9002 44.7379 37.0513 45.6615 36.109 46.199C35.4062 46.6006 34.7532 46.7334 34.2121 46.6284C34.2836 46.6871 34.3583 46.7396 34.4391 46.7859C35.0579 47.135 35.91 47.0825 36.8491 46.545C37.7883 46.0044 38.6372 45.0839 39.2529 44.0274C39.8655 42.971 40.2449 41.7817 40.2418 40.7098C40.2418 39.6379 39.8562 38.8842 39.2374 38.5351V38.532Z" stroke="#00B242" stroke-miterlimit="10"/>
<path d="M52.1215 11.9976C49.3384 10.4222 45.5041 10.66 41.2718 13.088C37.0395 15.516 33.2177 19.6677 30.4532 24.4248C27.6886 29.1819 25.9876 34.5352 26.0001 39.3634C26.0125 44.1915 27.7415 47.5833 30.5247 49.1556C33.3079 50.731 37.1421 50.4932 41.3713 48.0652C45.6036 45.6372 49.4254 41.4855 52.1931 36.7284C54.9545 31.9744 56.6586 26.6211 56.6431 21.7898C56.6275 16.9586 54.9016 13.573 52.1215 11.9976ZM30.1453 37.2752C29.5265 36.9261 29.144 36.1724 29.1409 35.1005C29.1409 34.0286 29.5171 32.8393 30.1297 31.7829C30.7424 30.7264 31.5913 29.8028 32.5335 29.2653C33.4727 28.7247 34.3247 28.6722 34.9436 29.0244C35.5624 29.3734 35.9449 30.1271 35.948 31.199C35.948 32.2709 35.5717 33.4602 34.9591 34.5167C34.3465 35.5731 33.4944 36.4967 32.5553 37.0342C31.6162 37.5717 30.7641 37.6273 30.1453 37.2752ZM39.0515 44.2626C38.4389 45.319 37.5868 46.2426 36.6477 46.7801C35.7085 47.3176 34.8565 47.3732 34.2377 47.0211C33.6188 46.672 33.2363 45.9183 33.2332 44.8464C33.2301 43.7745 33.6095 42.5852 34.2221 41.5288C34.8347 40.4723 35.6868 39.5487 36.6259 39.0112C37.565 38.4706 38.4171 38.4181 39.0359 38.7703C39.6548 39.1193 40.0373 39.8731 40.0404 40.945C40.0404 42.0168 39.6641 43.2061 39.0515 44.2626ZM41.5299 23.5104C40.5908 24.0479 39.7387 24.1035 39.1199 23.7514C38.5011 23.4023 38.1186 22.6486 38.1155 21.5767C38.1155 20.5048 38.4917 19.3155 39.1043 18.2591C39.717 17.2026 40.569 16.279 41.5081 15.7415C42.4473 15.2009 43.2993 15.1484 43.9182 15.5006C44.537 15.8496 44.9195 16.6033 44.9226 17.6752C44.9226 18.7471 44.5463 19.9364 43.9337 20.9929C43.3211 22.0493 42.4721 22.9729 41.5299 23.5104ZM50.2464 36.8643C49.6338 37.9208 48.7817 38.8444 47.8426 39.3819C46.9035 39.9194 46.0514 39.975 45.4326 39.6228C44.8138 39.2738 44.4313 38.5201 44.4281 37.4482C44.4281 36.3763 44.8044 35.187 45.417 34.1305C46.0296 33.0741 46.8817 32.1505 47.8208 31.613C48.76 31.0724 49.612 31.0199 50.2309 31.372C50.8497 31.7211 51.2322 32.4748 51.2353 33.5467C51.2353 34.6186 50.859 35.8079 50.2464 36.8643ZM50.9492 25.4195C50.0101 25.9569 49.158 26.0126 48.5392 25.6604C47.9203 25.3113 47.5378 24.5576 47.5347 23.4857C47.5347 22.4138 47.911 21.2245 48.5236 20.1681C49.1362 19.1116 49.9852 18.188 50.9274 17.6505C51.8666 17.1099 52.7186 17.0574 53.3374 17.4096C53.9563 17.7586 54.3388 18.5124 54.3419 19.5843C54.345 20.6562 53.9656 21.8454 53.353 22.9019C52.7404 23.9583 51.8883 24.882 50.9492 25.4195Z" fill="#C7EF9D" stroke="#00B242" stroke-width="0.567627" stroke-miterlimit="10"/>
<path d="M14.2889 53.6056L18.0326 51.7337C18.3254 51.5873 18.6713 51.5935 18.9587 51.7502L22.3905 53.6221C23.0854 54.0011 23.0854 54.9989 22.3905 55.3779L18.9587 57.2498C18.6713 57.4065 18.3254 57.4127 18.0326 57.2663L14.2889 55.3944C13.5518 55.0259 13.5518 53.9741 14.2889 53.6056Z" fill="white"/>
<path d="M23.1539 47.1145C22.7724 47.9451 22.164 48.6466 21.5243 49.201C20.8511 49.7845 20.8996 51.1011 21.7002 51.4919C22.4079 51.8373 23.198 52.2467 23.9824 52.6965C24.3028 52.8802 24.7023 52.8868 24.9954 52.6621C26.3486 51.6244 27.2595 49.9577 27.7279 48.7835C27.9063 48.3366 27.6888 47.844 27.2555 47.6347C26.4801 47.2601 25.4637 46.7859 24.5916 46.4205C24.0249 46.1831 23.4103 46.5561 23.1539 47.1145Z" fill="white"/>
</svg>
