<svg width="67" height="67" viewBox="0 0 67 67" fill="none" xmlns="http://www.w3.org/2000/svg">
<rect width="67" height="67" rx="10" fill="#E4EEFF"/>
<ellipse cx="35.5" cy="50" rx="25.5" ry="12" fill="#B9D2FE"/>
<path d="M53.3467 50.8006L54.4772 50.1997C55.2278 49.799 55.6973 49.0251 55.6942 48.1844L55.6015 24.7749C55.6015 23.6641 54.993 22.6413 54.0108 22.095L25.6148 6.51597C25.0742 6.21854 24.4132 6.23371 23.885 6.55239L21.9946 8.05779L53.3467 50.8006Z" fill="#1982E0"/>
<path d="M21.3089 9.42662V31.5978C21.3089 32.8179 21.9699 33.9469 23.0448 34.56L51.4625 50.7915C52.5158 51.3925 53.8378 50.6459 53.8378 49.45V26.1225C53.8378 25.0117 53.2293 23.9889 52.247 23.4426L24.1414 7.80286C22.875 7.09873 21.3089 7.99711 21.3089 9.42662Z" fill="#D4E5F7" stroke="#1982E0" stroke-width="0.567627" stroke-miterlimit="10"/>
<path d="M39.2247 21.2712C36.9354 20.0848 34.4419 19.9263 32.4501 21.0287L32.45 21.0288C28.9934 22.94 28.2039 28.0485 30.8934 32.5116C33.5834 36.9754 38.612 38.8895 42.0816 36.9712L39.2247 21.2712ZM39.2247 21.2712L36.5973 30.229L36.5274 30.4675L36.7541 30.5692L44.6322 34.1034C44.107 35.3219 43.2487 36.3253 42.0817 36.9711L39.2247 21.2712Z" fill="#C7EF9D" stroke="#00B242" stroke-width="0.57" stroke-miterlimit="10"/>
<path d="M43.2863 25.2683C42.1215 23.384 40.5303 21.9274 38.7989 21L36 30.3037L44.4511 34C45.4442 31.4903 45.1093 28.2163 43.2863 25.2656V25.2683Z" fill="#00B242"/>
<path d="M16.7592 27.9445C16.0945 27.6152 15.3152 28.0987 15.3152 28.8405V47.4185C15.3152 47.785 15.5157 48.1221 15.8378 48.2971L20.0371 50.5792C20.7035 50.9413 21.5146 50.4589 21.5146 49.7006V30.9211C21.5146 30.541 21.2991 30.1938 20.9586 30.0251L16.7592 27.9445Z" fill="#EDF3F9" stroke="#1982E0" stroke-width="0.567627" stroke-miterlimit="10"/>
<path d="M27.7851 28.6785C27.7851 27.9275 26.9882 27.4445 26.3225 27.7919L22.0521 30.0201C21.7218 30.1925 21.5146 30.5342 21.5146 30.9067V49.7324C21.5146 50.4833 22.3115 50.9663 22.9772 50.619L27.2477 48.3907C27.578 48.2184 27.7851 47.8767 27.7851 47.5042V28.6785Z" fill="#EDF3F9" stroke="#1982E0" stroke-width="0.567627" stroke-miterlimit="10"/>
<path d="M17.068 28.0975C16.337 27.7353 16.3239 26.6973 17.0456 26.3168L21.4274 24.0067C21.7265 23.849 22.085 23.8532 22.3804 24.0177L26.1653 26.1263C26.8604 26.5136 26.8467 27.5184 26.1412 27.8865L21.9655 30.0653C21.6822 30.2131 21.3453 30.2166 21.0589 30.0748L17.068 28.0975Z" fill="#EDF3F9" stroke="#1982E0" stroke-width="0.567627" stroke-miterlimit="10"/>
<path d="M25.4846 40.8224C24.8181 40.4532 24 40.9352 24 41.6972V50.7918C24 51.141 24.1822 51.465 24.4807 51.6464L28.4807 54.0769C29.1471 54.4818 30 54.002 30 53.2223V43.9131C30 43.5495 29.8026 43.2145 29.4846 43.0383L25.4846 40.8224Z" fill="#EDF3F9" stroke="#1982E0" stroke-width="0.567627" stroke-miterlimit="10"/>
<path d="M36 41.7512C36 40.9772 35.1584 40.4966 34.4918 40.89L30.4918 43.2504C30.187 43.4303 30 43.7578 30 44.1116V53.2488C30 54.0228 30.8416 54.5034 31.5082 54.11L35.5082 51.7496C35.813 51.5697 36 51.2422 36 50.8884V41.7512Z" fill="#EDF3F9" stroke="#1982E0" stroke-width="0.567627" stroke-miterlimit="10"/>
<path d="M25.5423 40.5648C24.8624 40.1906 24.8495 39.2182 25.5191 38.8259L29.8239 36.3043C30.1435 36.1171 30.5403 36.1218 30.8553 36.3166L34.5807 38.6206C35.2231 39.0179 35.21 39.9568 34.5566 40.336L30.4548 42.7163C30.1514 42.8923 29.7779 42.8965 29.4706 42.7274L25.5423 40.5648Z" fill="#EDF3F9" stroke="#1982E0" stroke-width="0.567627" stroke-miterlimit="10"/>
</svg>
