<svg width="67" height="67" viewBox="0 0 67 67" fill="none" xmlns="http://www.w3.org/2000/svg">
<rect width="67" height="67" rx="10" fill="#E4EEFF"/>
<ellipse cx="35.5" cy="52" rx="25.5" ry="12" fill="#B9D2FE"/>
<path d="M55.5897 16.979V51.0017L44.7033 58V23.3598L55.5897 16.979Z" fill="#1982E0"/>
<path d="M55.5897 16.979H56.0897V16.1064L55.3369 16.5476L55.5897 16.979ZM55.5897 51.0017L55.8601 51.4223L56.0897 51.2746V51.0017H55.5897ZM44.7033 58H44.2033C44.2033 58.1829 44.3032 58.3512 44.4637 58.4389C44.6242 58.5265 44.8198 58.5195 44.9737 58.4206L44.7033 58ZM44.7033 23.3598L44.4505 22.9284L44.2033 23.0733V23.3598H44.7033ZM55.0897 16.979V51.0017H56.0897V16.979H55.0897ZM55.3194 50.5811L44.4329 57.5794L44.9737 58.4206L55.8601 51.4223L55.3194 50.5811ZM45.2033 58V23.3598H44.2033V58H45.2033ZM44.9561 23.7911L55.8426 17.4104L55.3369 16.5476L44.4505 22.9284L44.9561 23.7911Z" fill="#1982E0"/>
<path d="M28.1461 14.7688V48.9377L44.7033 58.5V23.3597L29.2896 14.1207C28.7859 13.818 28.1461 14.1817 28.1461 14.7688Z" fill="#D4E5F7"/>
<path d="M28.1461 48.9377H27.8623V49.1015L28.0042 49.1835L28.1461 48.9377ZM44.7033 58.5L44.5613 58.7458C44.6491 58.7965 44.7573 58.7965 44.8451 58.7458C44.933 58.6951 44.9871 58.6014 44.9871 58.5H44.7033ZM44.7033 23.3597H44.9871V23.199L44.8492 23.1163L44.7033 23.3597ZM29.2896 14.1207L29.1434 14.364L29.1437 14.3642L29.2896 14.1207ZM27.8623 14.7688V48.9377H28.4299V14.7688H27.8623ZM28.0042 49.1835L44.5613 58.7458L44.8452 58.2542L28.2881 48.6919L28.0042 49.1835ZM44.9871 58.5V23.3597H44.4194V58.5H44.9871ZM44.8492 23.1163L29.4355 13.8773L29.1437 14.3642L44.5573 23.6032L44.8492 23.1163ZM29.4358 13.8775C28.7421 13.4606 27.8623 13.9619 27.8623 14.7688H28.4299C28.4299 14.4015 28.8297 14.1755 29.1434 14.364L29.4358 13.8775Z" fill="#2C78FD"/>
<path d="M56 16.6866C56 16.686 55.9997 16.6854 55.9991 16.6851L39.9164 8.20808C39.3868 7.92864 38.7422 7.93065 38.2168 8.21411L29.6073 12.8287C28.9114 13.2017 28.9019 14.1961 29.5905 14.5823L44.1123 22.7274C44.4145 22.8969 44.7828 22.8979 45.0859 22.7301L55.9991 16.6881C55.9997 16.6878 56 16.6872 56 16.6866Z" fill="#EDF3F9" stroke="#1982E0" stroke-width="0.567627" stroke-miterlimit="10"/>
<path d="M30.3376 19.9631V22.8478C30.3376 22.9636 30.4006 23.0692 30.5022 23.1261L42.1035 29.6003C42.3168 29.7182 42.5788 29.5658 42.5788 29.322V26.2545C42.5788 26.1367 42.5138 26.029 42.4123 25.9742L30.8109 19.6828C30.5976 19.567 30.3397 19.7214 30.3397 19.9631H30.3376Z" fill="#1982E0" stroke="#1982E0" stroke-miterlimit="10"/>
<path d="M30.3376 28.2108V31.0955C30.3376 31.2113 30.4006 31.3169 30.5022 31.3738L42.1035 37.848C42.3168 37.9658 42.5788 37.8135 42.5788 37.5697V34.5022C42.5788 34.3844 42.5138 34.2767 42.4123 34.2219L30.8109 27.9305C30.5976 27.8147 30.3397 27.9691 30.3397 28.2108H30.3376Z" fill="#1982E0" stroke="#1982E0" stroke-miterlimit="10"/>
<path d="M30.3376 36.0725V38.9572C30.3376 39.073 30.4006 39.1786 30.5022 39.2355L42.1035 45.7097C42.3168 45.8275 42.5788 45.6752 42.5788 45.4314V42.3639C42.5788 42.2461 42.5138 42.1384 42.4123 42.0836L30.8109 35.7922C30.5976 35.6764 30.3397 35.8308 30.3397 36.0725H30.3376Z" fill="#1982E0" stroke="#1982E0" stroke-miterlimit="10"/>
<path d="M36.0713 32.3793L20.9968 24.6477L20.5459 21.9418L15.314 19.2765C14.5807 18.9027 13.7094 19.4309 13.7033 20.2557L13.5246 42.7539L35.6854 54.4165L36.0713 32.3793Z" fill="#00B242"/>
<path d="M33.0891 54.7228L11.4915 43.3566L11.6689 21.032L11.6689 21.0318C11.6734 20.4191 12.3205 20.0269 12.8651 20.3045L12.8651 20.3045L17.969 22.9045L18.3963 25.4686L18.4198 25.6099L18.5473 25.6753L33.4638 33.3259L33.0891 54.7228Z" fill="#C7EF9D" stroke="#00B242" stroke-width="0.57" stroke-miterlimit="10"/>
</svg>
