<svg width="67" height="67" viewBox="0 0 67 67" fill="none" xmlns="http://www.w3.org/2000/svg">
<rect width="67" height="67" rx="10" fill="#ECFFD9"/>
<ellipse cx="35.5" cy="49" rx="29.5" ry="15" fill="#00B242" fill-opacity="0.18"/>
<path d="M10.5068 52.7496C10.5064 52.7496 10.506 52.7495 10.5057 52.7493L9.29906 52.1006C8.49612 51.6685 7.99635 50.8335 8.00002 49.9275L8.09924 24.6742C8.09924 23.4783 8.74784 22.3735 9.79699 21.7828L39.5 5.24963C40.0769 4.92877 40.8036 4.9051 41.3677 5.24967L42.6746 6.16896C43.1292 6.48877 43.2358 7.11798 42.9118 7.56968L10.5088 52.7486C10.5083 52.7492 10.5076 52.7496 10.5068 52.7496Z" fill="#00B242" stroke="#00B242" stroke-width="0.567627" stroke-miterlimit="10"/>
<path d="M44.4224 8.28061V32.0726C44.4224 33.3838 43.7263 34.5935 42.5932 35.2536L12.641 52.6728C11.5297 53.3184 10.1374 52.5168 10.1374 51.2328V26.1985C10.1374 25.0088 10.7773 23.9098 11.8125 23.3222L41.4384 6.54141C42.7709 5.78698 44.4224 6.74997 44.4224 8.28243V8.28061Z" fill="white" stroke="#00B242" stroke-width="0.567627" stroke-miterlimit="10"/>
<path d="M42 11.4251V31.3266C42 32.422 41.4103 33.4358 40.4533 33.9877L15.1168 48.5586C14.1778 49.0989 13 48.4286 13 47.3531V26.4129C13 25.4175 13.542 24.4988 14.4167 24.0069L39.4764 9.96948C40.6032 9.33756 42 10.1429 42 11.4251Z" fill="#C7EF9D" stroke="#00B242" stroke-width="0.567627" stroke-miterlimit="10"/>
<g clip-path="url(#clip0_72_1300)">
<path d="M48.7855 53.4418C48.7852 53.4417 48.7852 53.4413 48.7855 53.4413L56.1903 51.8612C57.0283 51.6831 57.3149 50.6568 56.6933 50.0705L35.7486 30.3321C35.4908 30.0905 35.1321 29.986 34.7852 30.0571L27.0189 31.6056C26.167 31.7759 25.8726 32.8158 26.507 33.4052L47.8148 53.1739C48.0744 53.4157 48.4384 53.515 48.7855 53.4423C48.7857 53.4422 48.7857 53.4418 48.7855 53.4418Z" fill="#00B242" stroke="#00B242" stroke-width="0.567627" stroke-miterlimit="10"/>
<path d="M49.0943 52.1597L56.5002 50.5793C57.3382 50.4012 57.6248 49.3749 57.0032 48.7886L36.0585 29.0502C35.8007 28.8086 35.442 28.7042 35.0951 28.7752L27.3288 30.3238C26.4769 30.494 26.1825 31.534 26.8169 32.1234L48.1247 51.892C48.3846 52.1341 48.749 52.2333 49.0965 52.1602L49.0943 52.1597Z" fill="white" stroke="#00B242" stroke-width="0.567627" stroke-miterlimit="10"/>
<path d="M51.2506 48.6073L51.21 48.6159C51.0799 48.6312 50.9474 48.5889 50.8493 48.4984C50.8492 48.4983 50.8491 48.4982 50.849 48.4981L43.1155 41.3213C42.8639 41.0878 42.9777 40.6818 43.3166 40.6143L43.3168 40.6143L45.2671 40.225C45.2671 40.225 45.2672 40.225 45.2672 40.225C45.4114 40.1963 45.561 40.24 45.6639 40.3377L45.6639 40.3377L45.6651 40.3388L53.2781 47.5136L53.2783 47.5138C53.5243 47.7454 53.4154 48.1452 53.0794 48.2172C53.0794 48.2172 53.0794 48.2172 53.0794 48.2172C53.0793 48.2172 53.0793 48.2173 53.0792 48.2173L51.2506 48.6073Z" fill="#2C78FD" stroke="#2C78FD"/>
<path d="M38.6071 34.3631C38.5031 34.7932 38.0728 35.2042 37.2563 35.4372C36.4563 35.6656 35.3883 35.6845 34.2522 35.4098C33.116 35.1351 32.1746 34.6303 31.5673 34.0618C30.9475 33.4814 30.7525 32.9192 30.8564 32.4892C30.9604 32.0591 31.3907 31.6481 32.2073 31.4151C33.0072 31.1868 34.0752 31.1679 35.2113 31.4426C36.3475 31.7173 37.2889 32.222 37.8962 32.7905C38.5161 33.3709 38.7111 33.9331 38.6071 34.3631Z" fill="#2C78FD" stroke="#2C78FD"/>
<path d="M39.561 39.3569C39.5451 39.4228 39.455 39.5675 39.1163 39.6639C38.7944 39.7556 38.3429 39.7675 37.8483 39.6479C37.3536 39.5283 36.9574 39.3115 36.713 39.0829C36.4558 38.8424 36.4417 38.6725 36.4576 38.6066C36.4736 38.5407 36.5637 38.3959 36.9024 38.2995C37.2243 38.2079 37.6758 38.1959 38.1704 38.3155C38.665 38.4351 39.0612 38.652 39.3057 38.8806C39.5629 39.1211 39.577 39.291 39.561 39.3569Z" fill="#2C78FD" stroke="#2C78FD"/>
<path d="M43.5893 38.1551C43.5776 38.2035 43.5041 38.335 43.1897 38.4247C42.892 38.5097 42.4717 38.5214 42.0096 38.4097C41.5475 38.298 41.1789 38.0955 40.9529 37.8839C40.7143 37.6605 40.7089 37.5099 40.7206 37.4615C40.7323 37.4132 40.8058 37.2816 41.1202 37.1919C41.418 37.107 41.8383 37.0952 42.3004 37.2069C42.7625 37.3187 43.131 37.5211 43.357 37.7328C43.5957 37.9562 43.601 38.1068 43.5893 38.1551Z" fill="#2C78FD" stroke="#2C78FD"/>
</g>
<defs>
<clipPath id="clip0_72_1300">
<rect width="38.5235" height="33.9032" fill="white" transform="translate(26.9675 20) rotate(13.592)"/>
</clipPath>
</defs>
</svg>
