<svg width="67" height="67" viewBox="0 0 67 67" fill="none" xmlns="http://www.w3.org/2000/svg">
<rect width="67" height="67" rx="10" fill="#ECFFD9"/>
<ellipse cx="35.5" cy="49" rx="29.5" ry="15" fill="#00B242" fill-opacity="0.18"/>
<path d="M10.5068 52.7496C10.5064 52.7496 10.506 52.7495 10.5057 52.7493L9.29906 52.1006C8.49612 51.6685 7.99634 50.8335 8.00002 49.9275L8.09924 24.6742C8.09924 23.4783 8.74784 22.3735 9.79699 21.7828L39.5 5.24963C40.0769 4.92877 40.8036 4.9051 41.3677 5.24967L42.6746 6.16896C43.1292 6.48877 43.2358 7.11798 42.9118 7.56968L10.5088 52.7486C10.5083 52.7492 10.5076 52.7496 10.5068 52.7496V52.7496Z" fill="#00B242" stroke="#00B242" stroke-width="0.567627" stroke-miterlimit="10"/>
<path d="M44.4224 8.28061V32.0726C44.4224 33.3838 43.7263 34.5935 42.5932 35.2536L12.641 52.6728C11.5297 53.3184 10.1374 52.5168 10.1374 51.2328V26.1985C10.1374 25.0088 10.7773 23.9098 11.8125 23.3222L41.4384 6.54141C42.7709 5.78698 44.4224 6.74997 44.4224 8.28243V8.28061Z" fill="white" stroke="#00B242" stroke-width="0.567627" stroke-miterlimit="10"/>
<path d="M42 11.4251V31.3266C42 32.422 41.4103 33.4358 40.4533 33.9877L15.1168 48.5586C14.1778 49.0989 13 48.4286 13 47.3531V26.4129C13 25.4175 13.542 24.4988 14.4167 24.0069L39.4764 9.96948C40.6032 9.33756 42 10.1429 42 11.4251Z" fill="#C7EF9D" stroke="#00B242" stroke-width="0.567627" stroke-miterlimit="10"/>
<path d="M61.0994 37.0524C61.0664 36.9397 61.0317 36.8272 60.9944 36.7153C60.8587 36.3045 60.7316 35.891 60.5807 35.4849C60.3648 34.9039 60.1218 34.3309 59.8321 33.7811C59.6684 33.4696 59.4921 33.1623 59.2832 32.8772C59.239 32.8167 59.0912 32.6914 59.0759 32.6181C59.0764 32.6207 59.335 33.8798 59.335 33.8798L59.1301 34.3542C59.0375 34.2944 58.956 34.2228 58.8575 34.1694C56.6322 32.9456 54.1479 33.3223 51.7129 33.242C49.1701 33.1576 46.1275 32.1122 44.3365 30.3154C43.3647 29.3395 42.562 28.3234 41.285 27.7004C40.172 27.1575 38.914 26.8728 37.6661 26.8904C34.5745 26.9341 31.4774 27.3831 28.5235 28.3134C25.6998 29.2024 23.0121 30.531 20.6274 32.2675C20.0459 32.6906 19.3655 33.1866 18.7237 33.7461C17.8846 33.4535 17.2493 33.3935 17.0861 33.7781C16.4759 35.2197 16.4107 37.5177 16.4195 37.5168C16.4397 39.4543 19.0716 40.1061 20.6381 40.3879C22.8872 40.7924 25.1858 41.0284 27.455 41.307C31.1099 41.7566 34.8908 41.8516 38.3695 43.1269C40.15 43.7796 41.6865 44.8908 43.0869 46.1225C43.8126 46.761 44.4909 47.4369 45.2329 48.0573C47.0261 49.5555 49.3529 50.989 51.833 50.7236C54.5346 50.4331 56.8293 48.5952 58.4271 46.5392C59.9146 44.626 61.1586 42.2512 61.3934 39.8427C61.4876 38.8789 61.3621 37.9583 61.0983 37.0518L61.0994 37.0524Z" fill="#00B242"/>
<path d="M57.8509 31.6202C55.7001 30.437 53.2986 30.8009 50.9443 30.7241C48.4866 30.643 45.5459 29.632 43.8153 27.8952C42.8761 26.9524 42.0998 25.9705 40.8655 25.3681C39.7902 24.8431 38.5736 24.5678 37.3669 24.5852C34.3783 24.627 31.3843 25.0611 28.5294 25.9605C25.8004 26.8194 23.2028 28.104 20.8973 29.7819C19.3603 30.9007 17.1138 32.5407 16.8458 34.5383C16.8576 34.4475 16.8905 34.2086 16.912 34.0483C16.8984 34.1483 16.878 34.3005 16.8458 34.5383C16.8394 34.5834 16.8379 34.5942 16.8458 34.5383C16.5604 36.6622 19.3099 37.3452 20.9079 37.6323C23.0816 38.0235 25.3039 38.2508 27.4969 38.5208C31.0292 38.955 34.6848 39.0476 38.0472 40.2799C39.8963 40.9569 41.2805 42.0428 42.8125 43.2127C42.8494 43.2405 42.8865 43.2692 42.9234 43.297L46.1806 46.1582L46.1799 46.1549C46.5599 46.465 46.966 46.7394 47.4414 46.9685C51.2967 48.829 55.0304 46.6711 57.4355 43.5776C58.8726 41.7278 60.0749 39.4331 60.3028 37.104C60.5043 35.0422 59.7876 32.6833 57.8515 31.6183L57.8509 31.6202Z" fill="white"/>
<path d="M16.8458 34.5383C17.1138 32.5407 19.3603 30.9007 20.8973 29.7819C23.2028 28.104 25.8004 26.8194 28.5294 25.9605C31.3843 25.0611 34.3783 24.627 37.3669 24.5852C38.5736 24.5678 39.7902 24.8431 40.8655 25.3681C42.0998 25.9705 42.8761 26.9524 43.8153 27.8952C45.5459 29.632 48.4866 30.643 50.9443 30.7241C53.2986 30.8009 55.7001 30.437 57.8509 31.6202L57.8515 31.6183C59.7876 32.6833 60.5043 35.0422 60.3028 37.104C60.0749 39.4331 58.8726 41.7278 57.4355 43.5776C55.0304 46.6711 51.2967 48.829 47.4414 46.9685C46.966 46.7394 46.5599 46.465 46.1799 46.1549L46.1806 46.1582L42.9234 43.297C42.8865 43.2692 42.8494 43.2405 42.8125 43.2127C41.2805 42.0428 39.8963 40.9569 38.0472 40.2799C34.6848 39.0476 31.0292 38.955 27.4969 38.5208C25.3039 38.2508 23.0816 38.0235 20.9079 37.6323C19.3099 37.3452 16.5604 36.6622 16.8458 34.5383ZM16.8458 34.5383C16.8576 34.4475 16.8905 34.2086 16.912 34.0483C16.8984 34.1483 16.878 34.3005 16.8458 34.5383ZM16.8458 34.5383C16.8379 34.5942 16.8394 34.5834 16.8458 34.5383Z" stroke="#00B242" stroke-width="0.567627" stroke-miterlimit="10"/>
<path d="M36.9237 29.4216C36.8943 29.2494 36.7485 29.0974 36.4934 29.0064L36.3088 28.9402L36.4583 28.8187C36.6673 28.6486 36.7519 28.4575 36.7216 28.2854L36.7198 28.2762C36.7198 28.2762 36.7195 28.2745 36.7193 28.2736L36.717 28.2618C36.717 28.2618 36.7166 28.2601 36.7165 28.2593L36.714 28.2466C36.714 28.2466 36.7137 28.2449 36.7135 28.2441L36.7112 28.2323C36.7112 28.2323 36.7108 28.2306 36.7107 28.2297L36.7083 28.2179C36.7083 28.2179 36.708 28.2162 36.7078 28.2154L36.7053 28.2027C36.7053 28.2027 36.705 28.201 36.7048 28.2002L36.7025 28.1884C36.7025 28.1884 36.7022 28.1867 36.702 28.1858L36.6997 28.174C36.6997 28.174 36.6994 28.1723 36.6992 28.1715L36.6964 28.1571C36.6964 28.1571 36.696 28.1554 36.6959 28.1546L36.6939 28.1445C36.6939 28.1445 36.6935 28.1428 36.6934 28.1419L36.6906 28.1276C36.6906 28.1276 36.6902 28.1259 36.6901 28.1251L36.6877 28.1132C36.6877 28.1132 36.6874 28.1115 36.6872 28.1107L36.6849 28.0989C36.6849 28.0989 36.6846 28.0972 36.6844 28.0963L36.6819 28.0837C36.6819 28.0837 36.6816 28.082 36.6814 28.0812L36.6791 28.0693C36.6791 28.0693 36.6788 28.0676 36.6786 28.0668L36.6763 28.055C36.6763 28.055 36.6759 28.0533 36.6758 28.0525L36.6734 28.0406C36.6734 28.0406 36.6731 28.0389 36.6729 28.0381L36.6705 28.0254C36.6705 28.0254 36.6701 28.0237 36.67 28.0229L36.6676 28.0111C36.6676 28.0111 36.6673 28.0094 36.6671 28.0086L36.6646 27.9959C36.6646 27.9959 36.6643 27.9942 36.6641 27.9934L36.6618 27.9815C36.6618 27.9815 36.6615 27.9799 36.6613 27.979L36.659 27.9672C36.659 27.9672 36.6587 27.9655 36.6585 27.9647L36.6562 27.9528C36.6562 27.9528 36.6558 27.9511 36.6557 27.9503L36.6532 27.9376C36.6532 27.9376 36.6528 27.936 36.6527 27.9351L36.6499 27.9208C36.6499 27.9208 36.6495 27.9191 36.6494 27.9182L36.6474 27.9081C36.6474 27.9081 36.647 27.9064 36.6469 27.9056L36.644 27.8912C36.644 27.8912 36.6437 27.8895 36.6435 27.8887L36.6415 27.8785C36.6415 27.8785 36.6412 27.8769 36.641 27.876L36.6382 27.8617C36.6382 27.8617 36.6379 27.86 36.6377 27.8591L36.6352 27.8465C36.6352 27.8465 36.6349 27.8448 36.6347 27.8439L36.6324 27.8321C36.6324 27.8321 36.6321 27.8304 36.6319 27.8296L36.6294 27.8169C36.6294 27.8169 36.6291 27.8152 36.6289 27.8144L36.6266 27.8026C36.6266 27.8026 36.6263 27.8009 36.6261 27.8L36.6256 27.7975C36.5953 27.6255 36.4502 27.4725 36.196 27.3813L35.8492 27.2576C35.3418 27.0759 34.5854 27.2038 34.1688 27.5427L33.6252 27.9846L32.9612 27.747C32.4539 27.5654 31.6983 27.693 31.2817 28.0319L30.9974 28.2624C30.7892 28.4323 30.7037 28.6236 30.734 28.7956L30.7363 28.8074C30.7363 28.8074 30.7367 28.8091 30.7368 28.81L30.7393 28.8226C30.7393 28.8226 30.7397 28.8243 30.7398 28.8252L30.7422 28.837C30.7422 28.837 30.7425 28.8387 30.7427 28.8395L30.7451 28.8522C30.7451 28.8522 30.7455 28.8539 30.7456 28.8547L30.748 28.8665C30.748 28.8665 30.7483 28.8682 30.7485 28.8691L30.751 28.8817C30.751 28.8817 30.7513 28.8834 30.7515 28.8843L30.7538 28.8961C30.7538 28.8961 30.7541 28.8978 30.7543 28.8986L30.7568 28.9113C30.7568 28.9113 30.7571 28.913 30.7573 28.9138L30.7596 28.9256C30.7596 28.9256 30.7599 28.9273 30.7601 28.9282L30.7624 28.94C30.7624 28.94 30.7628 28.9417 30.7629 28.9425L30.7652 28.9543C30.7652 28.9543 30.7656 28.956 30.7657 28.9569L30.7682 28.9695C30.7682 28.9695 30.7686 28.9712 30.7687 28.9721L30.7711 28.9839C30.7711 28.9839 30.7714 28.9856 30.7716 28.9864L30.7739 28.9982C30.7739 28.9982 30.7742 28.9999 30.7744 29.0008L30.7772 29.0151C30.7772 29.0151 30.7775 29.0168 30.7777 29.0176L30.7797 29.0278C30.7797 29.0278 30.78 29.0295 30.7802 29.0303L30.783 29.0447C30.783 29.0447 30.7834 29.0464 30.7835 29.0472L30.7858 29.059C30.7858 29.059 30.7862 29.0607 30.7863 29.0615L30.7887 29.0734C30.7887 29.0734 30.789 29.0751 30.7892 29.0759L30.7917 29.0886C30.7917 29.0886 30.792 29.0902 30.7922 29.0911L30.7945 29.1029C30.7945 29.1029 30.7948 29.1046 30.795 29.1054L30.7973 29.1173C30.7973 29.1173 30.7976 29.119 30.7978 29.1198L30.8003 29.1325C30.8003 29.1325 30.8006 29.1341 30.8008 29.135L30.8031 29.1468C30.8031 29.1468 30.8035 29.1485 30.8036 29.1493L30.806 29.1612C30.806 29.1612 30.8063 29.1628 30.8064 29.1637L30.8089 29.1764C30.8089 29.1764 30.8093 29.178 30.8094 29.1789L30.8118 29.1907C30.8118 29.1907 30.8121 29.1924 30.8123 29.1932L30.8146 29.2051C30.8146 29.2051 30.8149 29.2067 30.8151 29.2076L30.8174 29.2194C30.8174 29.2194 30.8177 29.2211 30.8179 29.2219L30.8204 29.2346C30.8204 29.2346 30.8207 29.2363 30.8209 29.2371L30.8232 29.249C30.8232 29.249 30.8236 29.2506 30.8237 29.2515L30.8261 29.2633C30.8261 29.2633 30.8264 29.265 30.8266 29.2658L30.8294 29.2802C30.8294 29.2802 30.8297 29.2819 30.8299 29.2827C30.8601 29.4548 31.0051 29.6069 31.2601 29.6979L31.4456 29.764L31.2961 29.8855C31.0879 30.0553 31.0025 30.2466 31.0328 30.4187C31.0328 30.4187 31.0331 30.4204 31.0333 30.4212L31.0361 30.4356C31.0361 30.4356 31.0364 30.4373 31.0366 30.4381L31.0386 30.4482C31.0386 30.4482 31.0389 30.4499 31.0391 30.4508L31.0419 30.4651C31.0419 30.4651 31.0422 30.4668 31.0424 30.4677L31.0442 30.4769C31.0442 30.4769 31.0446 30.4786 31.0447 30.4795L31.0476 30.4938C31.0476 30.4938 31.0479 30.4955 31.0481 30.4964L31.0506 30.509C31.0506 30.509 31.0509 30.5107 31.051 30.5116L31.0534 30.5234C31.0534 30.5234 31.0537 30.5251 31.0539 30.5259L31.0562 30.5377C31.0562 30.5377 31.0565 30.5394 31.0567 30.5403L31.059 30.5521C31.059 30.5521 31.0594 30.5538 31.0595 30.5546L31.062 30.5673C31.062 30.5673 31.0623 30.569 31.0625 30.5698L31.0648 30.5816C31.0648 30.5816 31.0652 30.5833 31.0653 30.5842L31.0678 30.5968C31.0678 30.5968 31.0682 30.5985 31.0683 30.5994L31.0707 30.6112C31.0707 30.6112 31.071 30.6129 31.0712 30.6137L31.0736 30.6264C31.0736 30.6264 31.074 30.6281 31.0741 30.6289L31.0765 30.6407C31.0765 30.6407 31.0768 30.6424 31.077 30.6432L31.0795 30.6559C31.0795 30.6559 31.0798 30.6576 31.08 30.6584L31.0823 30.6703C31.0823 30.6703 31.0826 30.672 31.0828 30.6728L31.0851 30.6846C31.0851 30.6846 31.0854 30.6863 31.0856 30.6871L31.0884 30.7015C31.0884 30.7015 31.0888 30.7032 31.0889 30.704L31.0909 30.7142C31.0909 30.7142 31.0913 30.7158 31.0914 30.7167L31.0942 30.731C31.0942 30.731 31.0946 30.7327 31.0947 30.7336L31.0967 30.7437C31.0967 30.7437 31.0971 30.7454 31.0972 30.7462L31.1001 30.7606C31.1001 30.7606 31.1004 30.7623 31.1006 30.7631L31.1029 30.7749C31.1029 30.7749 31.1032 30.7766 31.1034 30.7775L31.1057 30.7893C31.1057 30.7893 31.106 30.791 31.1062 30.7918L31.1085 30.8036L31.1089 30.8053L31.1114 30.818C31.1114 30.818 31.1117 30.8197 31.1119 30.8205L31.1142 30.8323C31.1142 30.8323 31.1145 30.834 31.1147 30.8349L31.117 30.8467C31.117 30.8467 31.1173 30.8484 31.1175 30.8492L31.1198 30.861L31.1202 30.8627L31.1227 30.8754C31.1227 30.8754 31.123 30.8771 31.1232 30.8779L31.1255 30.8898C31.1255 30.8898 31.1258 30.8914 31.126 30.8923L31.1283 30.9041C31.1586 31.0762 31.3035 31.2283 31.5577 31.3194L31.9046 31.4432C32.4128 31.6247 33.1683 31.497 33.5849 31.1581L34.1286 30.7161L34.7916 30.9539C35.299 31.1356 36.0552 31.0069 36.472 30.6688L36.7563 30.4384C36.9646 30.2685 37.05 30.0772 37.0189 29.9053L37.0179 29.9002C37.0179 29.9002 37.0175 29.8986 37.0174 29.8977L37.015 29.8859L37.0147 29.8842L37.0122 29.8715L37.0119 29.8699L37.0096 29.858C37.0096 29.858 37.0092 29.8563 37.0091 29.8555L37.0067 29.8437C37.0067 29.8437 37.0064 29.842 37.0062 29.8411L37.0034 29.8268C37.0034 29.8268 37.0031 29.8251 37.0029 29.8243L37.0009 29.8141L37.0006 29.8124L36.9976 29.7973C36.9976 29.7973 36.9973 29.7956 36.9971 29.7947L36.9951 29.7846C36.9951 29.7846 36.9948 29.7829 36.9944 29.7812L36.9918 29.7677C36.9918 29.7677 36.9914 29.766 36.9911 29.7643L36.9888 29.7525C36.9888 29.7525 36.9885 29.7508 36.9881 29.7491L36.9858 29.7373C36.9858 29.7373 36.9855 29.7356 36.9853 29.7348L36.9828 29.7221C36.9828 29.7221 36.9826 29.7213 36.9825 29.7204L36.9801 29.7086C36.9801 29.7086 36.9798 29.7069 36.9796 29.7061L36.9773 29.6943C36.9773 29.6943 36.977 29.6926 36.9768 29.6917L36.9743 29.6791C36.9743 29.6791 36.974 29.6774 36.9738 29.6765L36.9713 29.6639L36.971 29.6622L36.9687 29.6504C36.9687 29.6504 36.9683 29.6487 36.9682 29.6478L36.9659 29.636C36.9659 29.636 36.9655 29.6343 36.9654 29.6335L36.9629 29.6208C36.9629 29.6208 36.9625 29.6191 36.9624 29.6183L36.9599 29.6056L36.9595 29.6039L36.9572 29.5921C36.9572 29.5921 36.9569 29.5904 36.9567 29.5896L36.9539 29.5752C36.9539 29.5752 36.9536 29.5735 36.9534 29.5727L36.9511 29.5609C36.9511 29.5609 36.9507 29.5592 36.9506 29.5583L36.9487 29.5491C36.9487 29.5491 36.9484 29.5474 36.9482 29.5465L36.9454 29.5322C36.9454 29.5322 36.9451 29.5305 36.9449 29.5296L36.9426 29.5178C36.9426 29.5178 36.9423 29.5161 36.9421 29.5153L36.9398 29.5035C36.9398 29.5035 36.9394 29.5018 36.9393 29.5009L36.9369 29.4891L36.9366 29.4874L36.9341 29.4748C36.9341 29.4748 36.9338 29.4731 36.9336 29.4722L36.9313 29.4604C36.9313 29.4604 36.931 29.4587 36.9308 29.4579L36.9285 29.4461C36.9285 29.4461 36.9281 29.4444 36.928 29.4435L36.9257 29.4317L36.9253 29.43L36.9238 29.4224L36.9237 29.4216Z" fill="#2C78FD"/>
<path d="M52.6698 33.8272C53.2352 33.3678 54.2522 33.1948 54.9412 33.4415C55.6312 33.6881 55.7314 34.2611 55.166 34.7205C54.6015 35.1797 53.5834 35.352 52.8944 35.1053C52.2053 34.8586 52.1051 34.2855 52.6696 33.8263L52.6698 33.8272Z" fill="#2C78FD"/>
<path d="M49.3387 37.3282C49.9041 36.8688 50.9211 36.6958 51.6102 36.9426C52.2993 37.1893 52.4003 37.7621 51.8351 38.2224C51.2706 38.6816 50.2526 38.8539 49.5635 38.6072C48.8736 38.3606 48.7734 37.7876 49.3387 37.3282Z" fill="#2C78FD"/>
<path d="M53.3946 36.5607C53.96 36.1013 54.9779 35.9282 55.6669 36.1749C56.356 36.4216 56.4571 36.9945 55.8917 37.4539C55.3263 37.9132 54.3091 38.0854 53.6192 37.8388C52.9301 37.5921 52.8299 37.0191 53.3944 36.5598L53.3946 36.5607Z" fill="#2C78FD"/>
<path d="M48.6209 34.6301C49.1861 34.1699 50.2033 33.9977 50.8924 34.2445C51.5814 34.4912 51.6825 35.064 51.118 35.5233C50.5526 35.9827 49.5354 36.1548 48.8465 35.9089C48.1575 35.6622 48.0566 35.0902 48.6218 34.6299L48.6209 34.6301Z" fill="#2C78FD"/>
<path d="M38.1409 33.242C38.7073 32.7833 39.7249 32.6137 40.4126 32.8625C41.102 33.1109 41.2005 33.6843 40.6348 34.142C40.0682 34.5998 39.0505 34.7694 38.3613 34.5219C37.6727 34.2733 37.5743 33.6999 38.1409 33.242Z" fill="#2C78FD"/>
<path d="M41.7639 34.5345C42.3297 34.0768 43.3472 33.9063 44.0366 34.1547C44.7251 34.4033 44.8244 34.9765 44.2579 35.4344C43.6921 35.8921 42.6738 36.0627 41.9852 35.8141C41.2967 35.5656 41.1982 34.9922 41.7648 34.5343L41.7639 34.5345Z" fill="#2C78FD"/>
<path d="M44.1518 32.7316L41.3756 31.7303C40.7722 31.5123 40.6861 31.011 41.1811 30.6093C41.6771 30.2083 42.5676 30.0594 43.1711 30.2773L45.9473 31.2787C46.5506 31.4958 46.6368 31.9979 46.1417 32.3988C45.6458 32.8006 44.7542 32.9489 44.1518 32.7316Z" fill="#2C78FD"/>
</svg>
