<svg version="1.1" id="cgwire_x5F_studio" xmlns="http://www.w3.org/2000/svg" xmlns:xlink="http://www.w3.org/1999/xlink" x="0" y="0" viewBox="0 0 800 660" xml:space="preserve"><style>.st0{fill:#333}.st1{fill:#a8a8a8}.st2{fill:#e0e0e0}.st3{fill:#33c168}.st4{fill:#e7bca2}.st5{fill:#d84f79}.st6{fill:#999}.st7{fill:#ccc}.st8{fill:#f5f5f5}.st9{fill:#fdfdfd}.st10{fill:#fff}.st11,.st12{opacity:.5;fill:#fff}.st12{opacity:.6}.st13{fill:#e5e5e5}.st14{fill:#ff195e}.st15{fill:#c149c4}.st16{fill:#2bd1b8}.st17{fill:#c4332e}.st18{fill:#8e6c57}.st19{fill:#ffebc2}.st21{fill:#4d4d4d}.st22{fill:#737373}.st24{fill:#79350c}.st26{fill:#f16918}.st27{fill:#b54f12}.st29{fill:#fce1d1}.st30{fill:#16883e}.st31{fill:#116930}.st32{fill:#0d4f24}.st33{fill:none;stroke:#ccc;stroke-linecap:round;stroke-linejoin:round;stroke-miterlimit:10}.st34{fill:#ebebeb}.st36{fill:#e58145}.st37{fill:#555b5e}.st38{fill:#666}.st50{fill:#22d160}.st51{fill:#ac4b11}.st52{fill:#d78433}.st53{fill:#cd6500}.st54{fill:#9a4c00}.st55{fill:#673b10}.st56{fill:#ebc199}.st57{fill:#f5e0cc}.st58{fill:#383434}.st59{fill:#ffab0d}.st60{fill:#ffcd6e}.st63{fill:#362b2b}.st67,.st68{fill:none;stroke:#e0e0e0;stroke-width:1.4377;stroke-miterlimit:10}.st68{stroke:#f5f5f5}.st69{fill:#e8bda3}.st70{fill:#d6d6d6}.st72,.st73,.st74{fill:#33c168;stroke:#fff;stroke-width:.3594;stroke-linejoin:bevel;stroke-miterlimit:10}.st73,.st74{fill:#e0e0e0}.st74{fill:#6e6a6a}.st75{fill:#3273dc}.st82{fill:none;stroke:#3273dc;stroke-width:2;stroke-miterlimit:10;stroke-dasharray:2,6}.st87{fill:#f7f7f7}.st88{fill:none;stroke:#1a9d48;stroke-width:2;stroke-linecap:round;stroke-miterlimit:10}.st88,.st89,.st91{stroke-linejoin:round}.st89{fill:none;stroke-width:2;stroke-linecap:round;stroke-miterlimit:10;stroke:#22d160}.st91{stroke:#ffbc3d}.st91,.st92,.st93,.st94{fill:none;stroke-width:2;stroke-linecap:round;stroke-miterlimit:10}.st92{stroke-linejoin:round;stroke:#ffab0d}.st93,.st94{stroke:#ff477e}.st94{stroke:#ff195e}.st96{fill:#25b1f3}.st97,.st98{fill:none;stroke:#25b1f3;stroke-width:2;stroke-linecap:round;stroke-miterlimit:10}.st98{stroke:#3273dc}</style><style>@keyframes Line_WIP_dashoffset{0%{stroke-dashoffset:160}to{stroke-dashoffset:0}}@keyframes Line_WIP2_dashoffset{0%{stroke-dashoffset:0}to{stroke-dashoffset:160}}@keyframes Line_DONE_dashoffset{0%{stroke-dashoffset:0}to{stroke-dashoffset:160}}@keyframes Line_RETAKE_dashoffset{0%{stroke-dashoffset:0}to{stroke-dashoffset:160}}@keyframes Line_SHIPMENT_dashoffset{0%{stroke-dashoffset:0}to{stroke-dashoffset:160}}@keyframes Line_FEEDBACK_dashoffset{0%{stroke-dashoffset:0}to{stroke-dashoffset:160}}@keyframes Label_DONE_transform{0%{transform:translate(77px,-50px);opacity:0}55.6%{transform:translate(77px,-50px);opacity:0;animation-timing-function:cubic-bezier(.2,.48,.92,.595)}62%,70%{opacity:1}66.7%{opacity:1;animation-timing-function:cubic-bezier(0,0,.58,1)}75%,to{transform:translate(-35px,19px);opacity:0}}@keyframes Label_FEEDBACK_transform{0%{transform:translate(114.3px,68.3px);opacity:0}22.2%{transform:translate(114.3px,68.3px);opacity:0;animation-timing-function:cubic-bezier(.2,.48,.92,1)}33.3%{opacity:1;animation-timing-function:cubic-bezier(0,0,.58,1)}38%{transform:translate(0,0);opacity:1}54%,to{transform:translate(-106px,-62px);opacity:0}}@keyframes SHIPMENT_transform{0%,91%,to{transform:translate(-125px,-74.4px);opacity:0}14.4%{transform:translate(-125px,-74.4px);opacity:0;animation-timing-function:cubic-bezier(.2,.48,.92,.595)}20%,75%{opacity:1;animation-timing-function:cubic-bezier(0,0,.58,1)}30%,84%{opacity:1}36.7%,68.9%{transform:translate(40px,18.2px);opacity:0}}@keyframes Label_RETAKE_transform{0%{transform:translate(-67px,-39px);opacity:0}33.3%{transform:translate(-67px,-39px);opacity:0;animation-timing-function:cubic-bezier(.2,.48,.92,.595)}40%,50%{opacity:1}45%{opacity:1;animation-timing-function:cubic-bezier(0,0,.58,1)}55.6%,to{transform:translate(96px,55px);opacity:0}}@keyframes Label_WIP_transform{0%{transform:translate(-51px,30px);opacity:0}77.8%{transform:translate(-51px,30px);opacity:0;animation-timing-function:cubic-bezier(.2,.48,.92,.595)}80%,93%{opacity:1}88.9%{opacity:1;animation-timing-function:cubic-bezier(0,0,.58,1)}to{transform:translate(70px,-40px);opacity:0}}@keyframes Label_WIP2_transform{0%{transform:translate(-52px,31px);opacity:0}4.4%{transform:translate(-52px,31px);opacity:0;animation-timing-function:cubic-bezier(.2,.48,.92,.595)}10%,18%{opacity:1}13.3%{opacity:1;animation-timing-function:cubic-bezier(0,0,.58,1)}22.2%,to{transform:translate(43px,-25px);opacity:0}}</style><g id="Freelancer_x5F_Left"><path id="Chair_1_" class="st0" d="M159.1 525.6s10.1 1.8 11.3 5c1.2 3.2 0 25.2-1.4 26.9-1.4 1.7-7.5 1.6-7.5 1.6s-3.4-31-2.4-33.5z"/><path class="st1" d="M136.8 577.9l-3.6 2.2c-1.3.7-2.8 1.6-2.5 2.6.3 1 1.5 2.2 5.1.9 3.8-1.4 4.9-2.3 5.1-3.4.2-1.1-.1-2.2-.1-2.2l-4-.1z"/><path class="st2" d="M137.2 576.9l-4 2.3c-1.3.7-2.8 1.6-2.5 2.6.3 1 1.5 2.2 5.1.9 3.8-1.4 4.9-2.3 5.1-3.4.2-1.1-.1-2.2-.1-2.2l-3.6-.2z"/><path class="st3" d="M133.1 579.3l-.9.5c.5.1.9.5 1 .6.2.2.9-.2.9-.5.1-.1-.5-.4-1-.6zM134.7 579.5c.2.2.9-.2.9-.5l-1-.6-.9.5c.3.3.9.5 1 .6z"/><path class="st1" d="M143.5 580.1s-2.7 1.7-4.1 2.4c-1.4.7-3 1.7-2.6 2.7.3 1.1 1.5 2.3 5.3.9 3.9-1.4 5.1-2.4 5.3-3.5.3-1.2-.1-2.3-.1-2.3l-3.8-.2z"/><path class="st2" d="M143.9 579.3l-4.4 2.4c-1.4.7-3 1.7-2.6 2.7.3 1.1 1.5 2.3 5.3.9 3.9-1.4 5.1-2.4 5.3-3.5.3-1.2-.1-2.3-.1-2.3l-3.5-.2z"/><path class="st3" d="M142.6 582.7l-.9.3c0 .1.6 1.4.5 2.1v.2l1-.4c.1-.6-.2-2.2-.6-2.2z"/><path class="st4" d="M138.9 559.5l-1.8 18.8s0 1.1 1.8.9c1.8-.2 1.9-1.9 2-2.7.1-.8 2.6-11.2 2.6-12.9 0-.9-4.5-5.6-4.6-4.1zM146 557.1l-.3 3.5-1.8 19.4s0 1.1 1.8.9c1.8-.2 1.9-1.9 2-2.7.1-.8 3.2-10.5 3.1-12.2-.1-2.3-4.2-16.2-4.8-8.9z"/><path class="st3" d="M153.9 522c-2.6 0-5.3.3-6.1 2.7-.8 2.4-2.1 7.7-1.1 9.2 1 1.5 1.5 9.2 1.4 11.7-.2 2.4-10.4 7.5-11.1 11.9-.3 1.7-1 4.6.3 6.6.6.9 6.7 3.5 13.4 3.6 4.1.1 3.6-2.7 7.9-5.4 2.5-1.5 5.8-6.3 5.9-10.3.1-4.5-.9-12.4-1-15.6-.2-3.2 1.3-9-1.6-11.6-3.7-3.2-5.5-2.8-8-2.8z"/><path class="st5" d="M146.1 507.3s-.7 3-.8 7.5c-.1 4.2.6 6.7 2.1 6.8 1.5.1 6.7-.5 7.4-3.9 1.4-6.4-4.9-13.7-4.3-11.1l-4.4.7z"/><path class="st4" d="M151.7 516.7l.1 5s.1 3.3 1.9 3.3c1.6 0 3-1.2 2.9-2.8 0-2.3-.4-6-.4-6l-4.5.5z"/><circle class="st4" cx="152.5" cy="514.4" r="6.6"/><path class="st5" d="M146.1 504.8c-1.6 2.6-1.6 10-.5 10.2.4.1-.4-4.9 3.1-6.6 5.9 4.8 8.1 6.6 9.4 5.4a7.4 7.4 0 001.5-8.9c-1.9-4-10.8-4.4-13.5-.1z"/><path class="st5" d="M160.2 506.2c1.9 3.2 3.6 7.2 1.2 12.1-.9 1.8-4.3 3.5-5.3 3-2.6-1.4 1.9-10.7-6.1-12.5.1 0 8.3-5.8 10.2-2.6z"/><path class="st3" d="M141.2 583.1l-.7.3c0 .1.6 1.4.5 2.1v.1l1-.3c0-.5-.4-2.2-.8-2.2z"/><g id="Desk_1_"><path class="st6" d="M182.5 567.7v28.2l-2.9-1.7V566z"/><path class="st7" d="M97.7 551.2v28.2l1.4-1v-28zM183.8 566.3v-.3l-29.6 17.1V612l1.4-1v-25.9l26.9-15.5v26.3l1.4-1z"/><path class="st6" d="M154.2 583.1L94.9 549v28.8l2.8 1.6v-26l53.7 30.9v26l2.8 1.7z"/><path class="st8" d="M94.9 546.7l29.7-17.1 59.2 34.4-29.6 16.8z"/><path class="st9" d="M154.2 583v-2.2l29.6-16.8v2z"/><path class="st2" d="M94.9 546.7l59.3 34.1v2.2l-59.3-34.1z"/></g><g id="Freelancer_x5F_Arms"><path class="st4" d="M143.9 534l-.6 4.9-7.5 7 2.7.7s6.2-2.4 7.7-4.8 1.5-7.9 1.5-7.9l-3.8.1z"/><path class="st3" d="M150.9 522.6s-3.1-.1-5.4 3.1c-2.1 3-2.4 9.1-1.7 10 .6.9 3.3 1.1 4 1.1.6-.2 3.4-10.3 3.1-14.2z"/><path class="st4" d="M140.3 546.3s-2.4 3.1-3.9 3.5c-1.5.4-2.9-1.8-2.6-2.8.3-1 3-2.4 4.2-2.1 1.1.2 2.8.4 2.3 1.4zM166.8 535s2.6 8.5 1.1 10.4a30 30 0 01-8.8 3.3c-2.8.6-6.7.8-7.8 1-1.1.3-1.1 1-2.4-.1-.2-.2-1.1-1.3-.9-1.9.1-.6 1-1.1.5-1.3-1.1-.5-2.9 2.4-3.6 1.6-.7-.8 2.6-3 3.2-3.2 1.7-.7 2.7-.1 3.7.6s2.8.9 3.7.8c.8-.1 5-2.7 8.2-4.6l-1.6-6.5 4.7-.1z"/><path class="st3" d="M163.6 526.4c-1.3-1.4-3.3-1.7-4.3 1.3s0 10 1.3 10.4c.8.3 6.4-.4 6.7-1.1.6-.9-1.4-8.1-3.7-10.6z"/></g><g id="Documents"><path class="st10" d="M141.8 567.7l17-9.8 11.9 7-17.1 9.7z"/><path class="st3" d="M141.7 566.5l17.6-8.9 11.4 7.7-17.5 8.7z"/><path class="st10" d="M143.6 567.6l16-11.5 12.5 5.9-16 11.3z"/><path class="st7" d="M155.3 565.7l-4.6-2.1-.7.5 4.6 2.1zM155.6 566.6l4.8 2.2.7-.5-4.8-2.2zM153.8 567.9l4.8 2.2.7-.5-4.8-2.2zM153.5 567l-4.6-2.1-.7.5 4.6 2.1zM151.7 568.3l-4.6-2.1-.7.6 4.6 2zM152 569.3l4.8 2.1.7-.5-4.8-2.2z"/><g><path class="st7" d="M157.1 564.4l-4.6-2.1-.7.5 4.6 2.1zM157.4 565.3l4.8 2.2.7-.5-4.8-2.2z"/></g><g><path class="st7" d="M158.9 563.1l-4.6-2.1-.7.5 4.6 2.1zM159.2 564l4.8 2.2.7-.5-4.8-2.2z"/></g><g><path class="st7" d="M161.7 562.2l-.7.5 4.8 2.2.7-.5zM160.8 561.8l-4.7-2.1-.7.5 4.6 2.1z"/></g></g><g id="Computer_1_"><path class="st7" d="M143.7 552.1c.2.1.2.3 0 .4l-7.4 4.3h-.7l-12.1-7c-.2-.1-.2-.3 0-.4l7.4-4.3h.7l12.1 7z"/><path class="st6" d="M143.9 552.3c0 .1 0 .1 0 0-.1.1-.1.1 0 0l-.1.1-7.4 4.3h-.1-.1-.1-.1-.1-.1-.1l-12.1-7-.1-.2v1.2l.1.2 12.1 7H136l7.4-4.3.5-1.3z"/><path class="st11" d="M154.4 534.1c-.1-.7-.6-1.2-1.2-1.5l-1.1-.6-31.8-18.4-5.7-3.3-.9-.6c-.6-.3-1.1-.5-1.1.3-.2 2 0 4.5 0 6.6v18c0 .6-.1 1.2.5 1.7l.3.2.6.3 13.1 7.5 26.8 15.5c.7.2.6-.7.6-1.4-.2-6 .1-22.2-.1-24.3z"/><path class="st12" d="M112.4 534.6c0 .6-.1 1.2.5 1.7l.3.2 10.8 6.2 18.2-16.5-27.7-16-.9-.6c-.6-.3-1.1-.5-1.1.3-.2 2.2-.1 22.2-.1 24.7z"/><path class="st13" d="M134.6 550.2v1.8l1.1-.6.1-1.8z"/><path class="st7" d="M154.3 558.9l-.4-.3c-.5-.3-39.8-22.9-40-23.3a543 543 0 01-.2-25.7c-.6-.3-1-.5-1.1.3-.2 2-.1 22-.1 24.6 0 .6-.1 1.2.5 1.7l22.6 13.1 18.1 10.5c.6.3.6-.3.6-.9z"/><path class="st6" d="M155.5 537.4c0-1.7.5-4.2-1.6-5.6l-1-.6-2-1.1-7.1-4.1-30.6-17.7c-1.8-1-1.8.7-1.8 2.3 0 2.9-.1 24.3 0 24.9.3 1.4 1.3 2.2 2.3 2.7l1 .6 6.1 3.5 11.3 6.5v1.8l2.5 1.4v-1.8l18.4 10.6.7.4.2.1c2 .8 1.5-2.5 1.5-4.1v-10.1l.1-9.7zm-1.2 21.1c0 .7.2 1.7-.6 1.4l-40.8-23.5c-.7-.6-.5-1.1-.5-1.7 0-2.6-.1-22.6.1-24.6.1-.7.6-.6 1.1-.3l.9.6 38.6 22.2c.6.3 1.2.8 1.2 1.5.3 2.1 0 18.3 0 24.4z"/><path class="st7" d="M156.7 536.7c0-1.7.5-4.2-1.6-5.6l-1-.6-2-1.1-7.1-4.1-30.6-17.7c-.6-.3-1.2-.4-1.5-.1 0 0-1.1.6-1.2.9l.2-.2.2-.1h.6l.5.2 30.6 17.7 7.1 4.1 2 1.1 1 .6c2.1 1.4 1.7 3.9 1.6 5.6V557.2c0 1.4.3 3.9-.7 4.2 0 0 1.7-.9 1.7-1.8.4-5.3.2-19.9.2-22.9z"/><g id="Gantt_x5F_Chart"><path class="st14" d="M140.3 538.8l-22.8-13.2a2.5 2.5 0 01-1.1-1.9c0-.7.5-1 1.1-.6l22.8 13.2c.6.4 1.1 1.2 1.1 1.9 0 .6-.5.9-1.1.6z"/><path class="st15" d="M143.7 536.4l-20.9-12a2.5 2.5 0 01-1.1-1.9c0-.7.5-1 1.1-.6l20.9 12c.6.4 1.1 1.2 1.1 1.9s-.5 1-1.1.6z"/><path class="st16" d="M149.2 548.2l-23.1-13.3a2.5 2.5 0 01-1.1-1.9c0-.7.5-1 1.1-.6l23.1 13.3c.6.4 1.1 1.2 1.1 1.9s-.5 1-1.1.6z"/></g></g></g><g id="Freelancer_x5F_Right"><path id="Chair" class="st5" d="M443.2 521.8s10.1 1.8 11.3 5 0 25.2-1.4 26.9c-1.4 1.7-7.5 1.6-7.5 1.6s-3.4-31-2.4-33.5z"/><g id="Freelander"><path class="st1" d="M420.9 574.1l-3.6 2.2c-1.3.7-2.8 1.6-2.5 2.6.3 1 1.5 2.2 5.1.9 3.8-1.4 4.9-2.3 5.1-3.4.2-1.1-.1-2.2-.1-2.2l-4-.1z"/><path class="st2" d="M421.3 573.1l-4 2.3c-1.3.7-2.8 1.6-2.5 2.6.3 1 1.5 2.2 5.1.9 3.8-1.4 4.9-2.3 5.1-3.4.2-1.1-.1-2.2-.1-2.2l-3.6-.2z"/><path class="st17" d="M417.2 575.5l-.9.5c.5.1.9.5 1 .6.2.2.9-.2.9-.5.1-.1-.5-.4-1-.6zM418.8 575.7c.2.2.9-.2.9-.5l-1-.6-.9.5c.3.3.9.5 1 .6z"/><path class="st1" d="M427.6 576.3s-2.7 1.7-4.1 2.4c-1.4.7-3 1.7-2.6 2.7.3 1.1 1.5 2.3 5.3.9 3.9-1.4 5.1-2.4 5.3-3.5.3-1.2-.1-2.3-.1-2.3l-3.8-.2z"/><path class="st2" d="M428 575.5l-4.4 2.4c-1.4.7-3 1.7-2.6 2.7.3 1.1 1.5 2.3 5.3.9 3.9-1.4 5.1-2.4 5.3-3.5.3-1.2-.1-2.3-.1-2.3l-3.5-.2z"/><path class="st17" d="M426.7 578.9l-.9.3c0 .1.6 1.4.5 2.1v.2l1-.4c.1-.6-.2-2.2-.6-2.2z"/><path class="st18" d="M423 555.7l-1.8 18.8s0 1.1 1.8.9c1.8-.2 1.9-1.9 2-2.7.1-.8 2.6-11.2 2.6-12.9 0-.9-4.5-5.6-4.6-4.1zM430.1 553.3l-.3 3.5-1.8 19.4s0 1.1 1.8.9c1.8-.2 1.9-1.9 2-2.7s3.2-10.5 3.1-12.2c-.1-2.3-4.2-16.2-4.8-8.9z"/><path class="st0" d="M438 518.2c-2.6 0-5.3.3-6.1 2.7-.8 2.4-2.1 7.7-1.1 9.2 1 1.5 1.5 9.2 1.4 11.7-.2 2.4-10.4 7.5-11.1 11.9-.3 1.7-1 4.6.3 6.6.6.9 6.7 3.5 13.4 3.6 4.1.1 3.6-2.7 7.9-5.4 2.5-1.5 5.8-6.3 5.9-10.3.1-4.5-.9-12.4-1-15.6-.2-3.2 1.3-9-1.6-11.6-3.7-3.2-5.5-2.8-8-2.8z"/><path class="st18" d="M435.8 512.9l.2 6.8s-.2 4.2 1.2 5.6c1.8-1.5 3.6-5.6 3.6-6.9 0-2.3-.4-6-.4-6l-4.6.5z"/><path class="st0" d="M426.9 504.5c-2.4-.4-2.8 5.3 0 6-2 3.5 3.8 7.6 5.3 5.1 2.2.9 0-8.5-.6-10.8 1.8 2.6 5.2 1.3 5.9-.9-.5 1.1 2.6 3.1 4.4 1.9-.4 1.6-.5 3.8 1.1 3.6-.8 1.3-4.1 3.6-2.3 6.5 1.4 1.4 8.3-1 5.2-6 2.6-.9 2.6-4.5.6-4.7 1.7-2.8-1.3-5.7-3.2-4.4.7-3.4-5.5-4.9-6.1-2.1-.4-3.1-6.4-2.4-6.3 1.6-2.3-2.2-5.5 2-4 4.2z"/><circle class="st18" cx="436.6" cy="510.6" r="6.6"/><path class="st0" d="M427.2 500.5c-4.2.3-4.9 10 1.6 10.4-3 3 3.3-3.9 2.7-6.2 1.8 2.6 5.2 1.3 5.9-.9-.5 1.1 2.6 3.1 4.4 1.9-.4 1.6.9 6.2 4 5.7 3.7.1 4-6.4 1.9-6.6 4-4.2-2.6-10.7-7.8-7.7-1.1-5.1-13-2-12.7 3.4z"/><path class="st17" d="M425.3 579.3l-.7.3c0 .1.6 1.4.5 2.1v.1l1-.3c0-.5-.4-2.2-.8-2.2z"/></g><g id="Desk"><path class="st6" d="M466.6 563.9v28.2l-2.8-1.7v-28.1z"/><path class="st7" d="M381.8 547.4v28.2l1.5-1v-28zM467.9 562.5v-.3l-29.6 17.1v28.9l1.4-1v-25.9l26.9-15.5v26.3l1.4-1z"/><path class="st6" d="M438.3 579.3L379 545.2V574l2.8 1.6v-26l53.7 30.9v26l2.8 1.7z"/><path class="st8" d="M379 542.9l29.7-17.1 59.2 34.4-29.6 16.8z"/><path class="st9" d="M438.3 579.2V577l29.6-16.8v2z"/><path class="st2" d="M379 542.9l59.3 34.1v2.2L379 545.1z"/></g><g id="Freelancer"><path class="st18" d="M450.9 531.2s2.6 8.5 1.1 10.4a30 30 0 01-8.8 3.3c-2.8.6-6.7.8-7.8 1-1.1.3-1.1 1-2.4-.1-.2-.2-1.1-1.3-.9-1.9.1-.6 1-1.1.5-1.3-1.1-.5-2.9 2.4-3.6 1.6-.7-.8 2.6-3 3.2-3.2 1.7-.7 2.7-.1 3.7.6s2.8.9 3.7.8c.8-.1 5-2.7 8.2-4.6l-1.6-6.5 4.7-.1zM428 530.2l-.6 4.9-7.5 7 2.7.7s6.2-2.4 7.7-4.8 1.5-7.9 1.5-7.9l-3.8.1z"/><path class="st0" d="M435 518.8s-3.1-.1-5.4 3.1c-2.1 3-2.4 9.1-1.7 10 .6.9 3.3 1.1 4 1.1.6-.2 3.4-10.3 3.1-14.2z"/><path class="st18" d="M424.4 542.5s-2.4 3.1-3.9 3.5c-1.5.4-2.9-1.8-2.6-2.8s3-2.4 4.2-2.1c1.1.2 2.8.4 2.3 1.4z"/><path class="st0" d="M447.7 522.6c-1.3-1.4-3.3-1.7-4.3 1.3s0 10 1.3 10.4c.8.3 6.4-.4 6.7-1.1.6-.9-1.4-8.1-3.7-10.6z"/></g><g id="Notebook_1_"><path class="st19" d="M441.2 573.2v-.8l8-5.2s.4 1.1-.5 1.6l-7.5 4.4z"/><path d="M428.5 565.2l7.6-4.4c.7-.4 1.6-.4 2.4 0l10.3 6c.5.3.5 1.1 0 1.4l-7.6 4.3-12.7-7.3z" fill="#e6a1a1"/><path class="st21" d="M428.5 565.2l12.7 7.3v.7l-12.7-7.3z"/><path class="st22" d="M430.2 564.2l-1.7 1 12.7 7.3 1.7-1z"/></g><g id="Notebook"><path class="st19" d="M440.5 572.1l.2-.7 8.9-3.4s.2 1.1-.8 1.5l-8.3 2.6z"/><path d="M429.8 561.6l8.4-2.7c.8-.3 1.7-.1 2.3.5l8.9 8c.4.4.3 1.1-.3 1.3l-8.4 2.6-10.9-9.7z" fill="#bfa673"/><path class="st21" d="M429.8 561.6l10.9 9.8-.2.7-10.9-9.8z"/><path class="st22" d="M431.6 561l-1.8.6 10.9 9.8 1.8-.6z"/></g><g id="Computer"><path class="st7" d="M427.9 552.1c.2.1.2.3 0 .4l-7.4 4.3h-.7l-12.1-7c-.2-.1-.2-.3 0-.4l7.4-4.3h.7l12.1 7z"/><path class="st6" d="M428 552.3c0 .1 0 .1 0 0 0 .1 0 .1 0 0l-.1.1-7.4 4.3h-.1-.1-.1-.1-.1-.1-.1l-12.1-7-.1-.2v1.2l.1.2 12.1 7H420.1l7.4-4.3.5-1.3z"/><path class="st11" d="M438.5 534.1c-.1-.7-.6-1.2-1.2-1.5l-1.1-.6-31.8-18.4-5.7-3.3-.9-.6c-.6-.3-1.1-.5-1.1.3-.2 2 0 4.5 0 6.6v18c0 .6-.1 1.2.5 1.7l.3.2.6.3 13.1 7.5 26.8 15.5c.7.2.6-.7.6-1.4-.2-6 .1-22.2-.1-24.3z"/><path class="st12" d="M396.6 534.6c0 .6-.1 1.2.5 1.7l.3.2 10.8 6.2 18.2-16.5-27.7-16-.9-.6c-.6-.3-1.1-.5-1.1.3-.3 2.2-.1 22.2-.1 24.7z"/><path class="st13" d="M418.7 550.2v1.8l1.2-.6v-1.8z"/><path class="st7" d="M438.4 558.9l-.4-.3c-.5-.3-39.8-22.9-40-23.3a543 543 0 01-.2-25.7c-.6-.3-1-.5-1.1.3-.2 2-.1 22-.1 24.6 0 .6-.1 1.2.5 1.7l22.6 13.1 18.1 10.5c.6.3.7-.3.6-.9z"/><path class="st6" d="M439.6 537.4c0-1.7.5-4.2-1.6-5.6l-1-.6-2-1.1-7.1-4.1-30.6-17.7c-1.8-1-1.8.7-1.8 2.3 0 2.9-.1 24.3 0 24.9.3 1.4 1.3 2.2 2.3 2.7l1 .6 6.1 3.5 11.3 6.5v1.8l2.5 1.4v-1.8l18.4 10.6.7.4.2.1c2 .8 1.5-2.5 1.5-4.1v-10.1l.1-9.7zm-1.2 21.1c0 .7.2 1.7-.6 1.4L397 536.4c-.7-.6-.5-1.1-.5-1.7 0-2.6-.1-22.6.1-24.6.1-.7.6-.6 1.1-.3l.9.6 38.6 22.2c.6.3 1.2.8 1.2 1.5.3 2.1 0 18.3 0 24.4z"/><path class="st7" d="M440.9 536.7c0-1.7.5-4.2-1.6-5.6l-1-.6-2-1.1-7.1-4.1-30.6-17.7c-.6-.3-1.2-.4-1.5-.1 0 0-1.1.6-1.2.9l.2-.2.2-.1h.6l.5.2L428 526l7.1 4.1 2 1.1 1 .6c2.1 1.4 1.7 3.9 1.6 5.6V557.2c0 1.4.3 3.9-.7 4.2 0 0 1.7-.9 1.7-1.8.3-5.3.2-19.9.2-22.9z"/><g id="Kitsu-Logo"><path class="st24" d="M422.2 546.8l1.1-1-1-1.8.7.4.5 1 .2.5.1.1v-.1-1l.6.4-.1 2.9-.6-.4v-1l-.2-.3-.7.7-.6-.4zM420.5 545.9V543l.6.3v2.9l-.6-.3zM419.3 542.3v.6l-.7-.4v2.3l-.6-.3v-2.3l-.7-.4v-.6l2 1.1zM414.7 540.4l.1-.2.2-.1h.3l.3.1.4.3.3.3.2.4.1.3-.1.3-.1.2-.2.1H415.5v.1l.1.2.2.2.2.1h.1l.1-.1.1-.1.6.5-.1.3-.2.2h-.3l-.4-.2-.4-.3-.3-.4-.2-.4-.1-.4.1-.3.2-.1.2-.1H416.2v-.1l-.1-.2-.2-.2c-.1 0-.2-.1-.2 0l-.2.2-.8-.6zM412.4 538.3v1.7l.1.6.3.3h.3l.1-.4v-1.7l.6.3v1.7l-.1.5-.2.3-.3.1a.8.8 0 01-.4-.2l-.4-.3-.3-.4a.8.8 0 01-.2-.5l-.1-.6V538l.6.3z"/><g><path fill="#f9c3a3" d="M416.6 535.4l1.7.4 1.6 1.6v1.9l-3.3-1.9z"/><path class="st26" d="M419.9 529l-3.3-2-2.4.7v1.8l2.4 5.9 1.7.4 1.6 1.6 2.4-3.2v-1.8z"/><path class="st27" d="M416.6 527l-2.4-3.7v4.4z"/><path class="st26" d="M415.2 523.2l-1 .1 2.4 3.7z"/><path class="st27" d="M419.9 529l2.4-1v4.4z"/><path class="st26" d="M421.4 526.8l.9 1.2-2.4 1z"/><ellipse transform="rotate(-30 416.5 531.7)" class="st24" cx="416.5" cy="531.6" rx=".3" ry=".5"/><ellipse transform="rotate(-30 420 533.6)" class="st24" cx="420" cy="533.6" rx=".3" ry=".5"/><path fill="#f48746" d="M419.9 537.4l-.8-4.7-1.7-1-.8 3.7 1.7.4z"/><path class="st29" d="M419.9 537.4v1.9l3.5-1.8-1.1-3.3z"/><path class="st24" d="M418.9 538.1v-.8l-.6-.6-.7-.1v.8z"/><path class="st29" d="M416.6 535.4v2l-3.5-5.9 1.1-2z"/><path class="st24" d="M424 537.3l-1.1-3.2V528l-.1-.4-.9-1.2a.8.8 0 00-.5-.2c-.2 0-.4.1-.5.3l-1.1 1.7-2.7-1.5-1.3-3.6a.7.7 0 00-.6-.4l-.9.1c-.3 0-.5.3-.5.6v6.1l-1.1 1.8v.6l3.5 5.9.2.2 3.3 1.9.3.1.3-.1 3.5-1.8c.2-.3.3-.6.2-.8zm-4.1 2l-3.3-1.9-3.5-5.9 1.1-2v-6.2l.9-.1 1.4 3.8 3.3 1.9 1.4-2.2.9 1.2v6.2l1.1 3.3-3.3 1.9z"/></g></g></g><g id="Plant_1_"><path class="st8" d="M457.6 577.9l-15 8.6 15 8.7 15-8.7z"/><path class="st6" d="M457.6 579.4l-12.4 7.1 12.4 7.2 12.4-7.2z"/><path class="st7" d="M457.6 579.4l-12.4 7.1 12.4 7.2z"/><path class="st6" d="M442.6 603.8v-17.3l15 8.7v17.3z"/><path class="st7" d="M472.6 604v-17.5l-15 8.7v17.3z"/><path class="st18" d="M457.6 582.9l-9.4 5.4 9.4 5.4 9.4-5.4z"/><path class="st30" d="M456.4 589c0 1-1.5 1-1.5 0v-41.7l1.5 41.7z"/><path class="st31" d="M454 590.1c0 1-1.5 1-1.5 0l-1-31.6 2.5 31.6z"/><path class="st30" d="M461.3 589.9c0 1-1.5 1-1.5.1l2.3-39.3-.8 39.2z"/><path class="st32" d="M451.8 588.4c0 1-1.5 1-1.5 0l-2.9-26.4 4.4 26.4z"/><path class="st31" d="M463.4 587.2c0 .7-1.4.7-1.4 0l2.6-31.4-1.2 31.4z"/><path class="st32" d="M465 588.6c0 .7-1.4.7-1.4 0l4.8-29.8-3.4 29.8zM458.1 586c0 .7-1.4.7-1.4 0l.6-32.6.8 32.6z"/><path class="st31" d="M459.1 591.9c0 .7-1.4.7-1.4 0l2.3-32.6-.9 32.6z"/></g></g><g id="Producer"><path id="Wall_x5F_Right" class="st8" d="M645.6 297.1v124.6l143.6 82.9V380l-143.6-82.9z"/><path id="Wall_x5F_Left" class="st8" d="M501.8 380.1v124.4L646 421.6V297.1l-144.2 83z"/><g id="Planning_x5F_Calendar"><path class="st10" d="M529.7 469.4l112.7-64.2v-54.5l-112.7 64.2z"/><path class="st2" d="M539.2 454.5l5.7-3.2v-7.9l-5.7 3.2zM539.2 443.3l5.7-3.2v-7.9l-5.7 3.2zM539.2 432.3l5.7-3.2v-7.9l-5.7 3.2zM551.6 445l-.2.2c-.1 0-.2.1-.2 0l-.8-.5.4-.7.6.3 1.3-2.3.4.2-1.5 2.8zM558.8 429.8l-.2.2c-.1 0-.2.1-.2 0l-.8-.5.4-.7.6.3 1.3-2.3.4.2-1.5 2.8zM549.8 423.7l-.2.2c-.1 0-.2.1-.2 0l-.8-.5.4-.7.6.3 1.3-2.3.4.2-1.5 2.8z"/><path class="st33" d="M632.2 369.6l-93.1 53.2M632.2 380.6l-93.1 53.3M632.2 391.7l-93.1 53.2M632.2 402.7L539.1 456"/></g><path class="st34" d="M503.5 504.4L646 422.3l142.5 82.1-142.8 82.1z"/><path class="st10" d="M646 423.2l141 81.3-141.3 81.3L505 504.4l141-81.2m0-1.7l-143.9 82.9 143.6 82.9 144.2-82.9L646 421.5z"/><g id="Floor"><defs><path id="SVGID_1_" d="M502.1 504.4l143.6 83 144.2-83L646 421.5z"/></defs><clipPath id="SVGID_2_"><use xlink:href="#SVGID_1_" overflow="visible"/></clipPath><g clip-path="url(#SVGID_2_)"><path class="st34" d="M642.1 585.3l9.9-1.6 1.9-1.1-12.9 2z"/><path class="st10" d="M653.9 582.6l-12.9 2 1.1.7 9.9-1.6 1.9-1.1z"/><g><path class="st34" d="M751.5 526.5l1.4-3 .5-1.1 7.2-1.1 1.9-1.1-9.6 1.5h-.1l-2.5.4-6 .9 1.6-3.5.5-1.1 26.2-4 1.9-1.1-27.7 4.3-.7.1h-.2l-8.5 1.3 1.7-3.7.4-.8 37.8-5.9 4-.6 3.3-.5 2.7-1.6 1-2.2-.7-.4-1.5 3.1-8.5 1.3.2-.4 2.3-5.1 1.2-2.6-.7-.4-1.5 3.1-8.5 1.3.2-.5 2.3-4.9 1.2-2.6-.7-.4-1.5 3.1-2.8.4-5.7.9.2-.4 2.3-5.1 1.2-2.6-.7-.4-1.4 3.1-8.5 1.3.1-.3 2.4-5.2 1.2-2.6-.7-.4-1.4 3.1-8.5 1.3.2-.3 2.4-5.1 1.2-2.6-.7-.4-1.4 3.1-8.5 1.3 3.7-8-.7-.4-1.4 3.1-8.5 1.3 3.7-8-.7-.4-1.4 3.1-8.5 1.3 3.7-8-.7-.4-1.4 3.1-8.5 1.3 3.7-8-.7-.4-1.4 3.1-2.5.4-6 .9 3.7-8-.7-.4-1.4 3.1-8.5 1.3 3.7-8-.7-.4-1.4 3.1-8.5 1.3.2-.5 2.3-4.9 1.2-2.5-.7-.4-1.4 3.1-2.8.4-5.7.9.2-.4 2.3-5.1 1.2-2.5-.7-.4-1.4 3.1-8.5 1.3.2-.4 2.3-5.1 1.2-2.5-.7-.4-1.4 3.1-8.5 1.3.2-.3 2.4-5.1 1.2-2.5-.7-.4-1.4 3.1-8.5 1.3.2-.3 2.4-5.1 1.2-2.5-.7-.4-1.4 3-2.8.4-5.7.9 3.7-8-.7-.4-1.4 3-8.5 1.3 3.7-8-.7-.4-1.4 3-8.5 1.3 3.7-7.9-.7-.4-1.4 3-2.5.4-6 .9 3.7-7.9-.7-.4-1.4 3-8.5 1.3 1.4-3.1-1.2.7-1.2 2.5-4.4.7-1.9 1.1 9.4-1.4 6-.9-1.6 3.5-.5 1.1-23.4 3.6-1.9 1.1 24.9-3.8.7-.1h.2l8.5-1.3-1.7 3.7-.4.8-37.8 5.9-4 .6-.4.1-1.9 1.1 6-.9-.2.4-2.3 5.1-9.7 21-8.5 1.3 7.4-15.9 4.2-9.1-1.2.7-3.9 8.4-4.9 10.6-8.5 1.3 6.5-14.1-1.2.7-3.7 8.1-8.5 1.3 1.5-3.2-1.2.7-1.2 2.6-4.6.7-1.9 1.1 9.5-1.5 6-.9-1.7 3.7-.4.8-23.5 3.6-1.9 1.1 25.9-4h.1l2.8-.4 5.7-.9-1.6 3.5-.5 1.1-37.8 5.9-4 .6-.6.1-1.9 1.1 6.1-1-2.1 4.6-.1.2-.3.7-6.7 14.5-3 6.5-8.5 1.3 8.3-18 3.3-7.1-1.2.7-2.5 5.3-6.4 13.8-8.5 1.3 6.6-14.2-1.2.7-2.7 5.7-1.1 2.4-8.5 1.3 1.5-3.3-1.2.7-.8 1.6-.5 1.1-4.7.7-1.9 1.1 7.1-1.1h.1l2.5-.4 6-.9-.7 1.4-1.5 3.2-22.8 3.5 1.1.6 22.2-3.4h.1l2.8-.4 5.7-.9-1.7 3.7-.4.8-22.8 3.5 1.1.6 22.2-3.4h.1l2.8-.4 5.7-.9-1.6 3.5-.5 1.1-22.8 3.5 1.1.6 22.2-3.4h.1l2.8-.4 5.7-.9-1.6 3.5-.5 1.1-22.8 3.5 1.1.6 21.3-3.3.8-.1h.2l8.5-1.3-2.1 4.6-22.8 3.5 1.1.6 22.2-3.4 4-.6 4.5-.7-2.1 4.6-22.8 3.5 1.1.6 22.2-3.4 4-.6 4.5-.7-2.1 4.6-13.5 2.1-9.3 1.4 1.1.6 11.3-1.7 10.9-1.7h.1l1.9-.3 6.6-1-2.1 4.6-22.8 3.5 1.1.6 22.2-3.4 4-.6 4.5-.7-2.1 4.6-22.8 3.5 1.1.6 22.2-3.4 4-.6 4.5-.7-1.6 3.5-.5 1.1-22.8 3.5 1.1.6 22.1-3.4h.1l2.5-.4 6-.9-2.7 4-.5 1.1-22.8 3.5 1.1.6 21.3-3.3.7-.1h.2l8.5-1.3-1.7 3.7-.4.8-22.8 3.5 1.1.6 22.2-3.4h.1l2.8-.4 5.7-.9-1.6 3.5-.5 1.1-22.8 3.5 1.1.6 22.2-3.4h.1l2.8-.4 5.7-.9-1.6 3.5-.5 1.1-22.8 3.5 1.1.6 21.3-3.3.7-.1h.2l8.5-1.3-1.7 3.7-.4.8-22.8 3.5 1.1.6 22.2-3.4 4-.6 4.5-.7-2.1 4.6-22.8 3.5 1.1.6 22.2-3.4 4-.6 4.5-.7-2.1 4.6-22.8 3.5 1.1.6 22.2-3.4 4-.6 4.5-.7-2.1 4.6-22.8 3.5 1.1.6 22.2-3.4 4-.6 4.5-.7-2.1 4.6-22.8 3.5 1.1.6 22.2-3.4 4-.6 4.5-.7-2.1 4.6-22.8 3.5 1.1.6 22.2-3.4 4-.6 2.6-.4 1.9-1.1-8.2 1.3.2-.4 2.3-5.1 9.7-21 8.5-1.3-12.2 26.3 1.2-.7 9.4-20.3 8.5-1.3-7.1 15.4 1.2-.7 4.3-9.4 8.5-1.3-2.1 4.5 1.2-.7 1.4-3.1.4-.8 6.9-1.1 1.9-1.1-9.2 1.4h-.1l-2.5.4-6 .9 1.7-3.7.4-.8 25.9-4 1.9-1.1-28.2 4.4h-.1l-2.5.4-6 .9 1.6-3.5.5-1.1L717 543l4-.6 3-.5 1.9-1.1-8.5 1.3 2.1-4.6.1-.2.3-.7 6.7-14.5 3-6.5 8.5-1.3-11.8 26.7 1.2-.7 9.5-20.4 2.5-.4 6-.9-7.2 15.6 1.2-.7 4.4-9.5 8.5-1.3-2.2 4.7 1.3-.9zm20.6-27.3l-2.1 4.6-37.8 5.8h-.1l-2.8.4-5.7.9 1.6-3.5.5-1.1 36.9-5.7.8-.1h.2l8.5-1.3zm-72.5 25.7l9.7-21 8.5-1.3-8.3 18-3.9 8.5-8.5 1.3.2-.3 2.3-5.2zm8.7-20.9l-9.7 21-2.8.4-5.7.9.1-.3 2.4-5.2 9.7-21 8.5-1.3-.2.3-2.3 5.2zm-6.9-4l-9.7 21-8.5 1.3 6-12.9 6.3-13.6 8.5-1.3-.1.3-2.5 5.2zm-6.5-4.9l-.1.2-.3.7-6.7 14.5-3 6.5-8.5 1.3 8.3-18 3.9-8.5 8.5-1.3-2.1 4.6zm-7.3-3.1l-3.3 7.2-6.4 13.8-8.5 1.3 4.3-9.2 8-17.3 8.5-1.3-.2.5-2.4 5zm-7-4l-9.7 21-8.5 1.3 12.3-26.5 8.5-1.3-.2.4-2.4 5.1zM664 505l-8.5 1.3 12.3-26.5 2.5-.4 6-.9L664 505zm-7-4l-8.5 1.3 12.3-26.5 8.5-1.3L657 501zm-6.9-4l-2.8.4-5.7.9.2-.4 2.3-5.1 4.8-10.4 4.9-10.6 8.5-1.3-12.2 26.5zm-2-14.6l-4.9 10.6-8.5 1.3.2-.4 2.3-5.1 9.7-21 7.5-1.2 1.1-.2-7.4 16zm-3.8-10.7l-8 17.3-8.5 1.3.2-.5 2.3-4.9 3.3-7.2 6.4-13.8 8.5-1.3-4.2 9.1zm-11 4.8l-3.9 8.5-2.8.4-5.7.9.1-.3 2.4-5.2 9.7-21 8.5-1.3-8.3 18zm-1.2-16.5l-9.7 21-8.5 1.3.1-.3 2.4-5.2 9.7-21 8.5-1.3-.1.3-2.4 5.2zm-6.9-4l-9.7 21-8.5 1.3 8.3-18 3.9-8.5 2.8-.4 5.7-.9-.1.3-2.4 5.2zm-18.8 21.6l-.4.8-37.8 5.9-4 .6-4.5.7 2.1-4.6 37.8-5.8h.1l2.8-.4 5.7-.9-1.8 3.7zm-37.7 7.4l37.8-5.9 4-.6 4.5-.7-2.1 4.6-37.8 5.9-4 .6-4.5.7 2.1-4.6zm6.9 4l37.8-5.9 4-.6 4.5-.7-2.1 4.6-36.9 5.7-.8.1h-.2l-8.5 1.3 2.2-4.5zm6.4 5.1l.5-1.1 36.9-5.7.8-.1h.2l8.5-1.3-2.1 4.6-37.8 5.8h-.1l-2.8.4-5.7.9 1.6-3.5zm7 4l.5-1.1 37.8-5.9 4-.6 4.5-.7-2.1 4.6-37.8 5.8h-.1l-2.8.4-5.7.9 1.7-3.4zm7 3.8l.4-.8 37.8-5.9 4-.6 4.5-.7-2.1 4.6-36.9 5.7-.7.1h-.2l-8.5 1.3 1.7-3.7zm6.8 4.2l.5-1.1 36.9-5.7.8-.1h.2l8.5-1.3-1.7 3.7-.4.8-37.8 5.8h-.1l-2.5.4-6 .9 1.6-3.4zm7 4l.5-1.1 37.8-5.8h.1l2.5-.4 6-.9-1.7 3.7-.4.8-37.8 5.8h-.1l-2.5.4-6 .9 1.6-3.4zm7 3.8l.4-.8 37.8-5.8h.1l2.5-.4 6-.9-1.6 3.5-.5 1.1-37.8 5.9-4 .6-4.5.7 1.6-3.9zm7.3 3.1l37.8-5.8h.1l2.8-.4 5.7-.9-.7 1.4-1.5 3.2-37.8 5.9-4 .6-4.5.7 2.1-4.7zm6.9 4l37.8-5.8h.1l2.8-.4 5.7-.9-1.7 3.7-.4.8-37.8 5.9-4 .6-4.5.7 2-4.6zm7 4l37.8-5.8h.1l2.8-.4 5.7-.9-1.6 3.5-.5 1.1-37.8 5.9-4 .6-4.5.7 2-4.7zm6.9 4l37.8-5.9 4-.6 4.5-.7-2.1 4.6-36.9 5.7-.8.1h-.2l-8.5 1.3 2.2-4.5zm6.9 4l36.9-5.7.8-.1h.2l8.5-1.3-2.1 4.6-37.8 5.9-4 .6-4.5.7 2-4.7zm6.5 5.1l.5-1.1 37.8-5.9 4-.6 4.5-.7-2.1 4.6-37.8 5.8h-.1l-2.8.4-5.7.9 1.7-3.4zm7 3.8l.4-.8 37.8-5.9 4-.6 4.5-.7-2.1 4.6-37.8 5.8h-.1l-2.8.4-5.7.9 1.8-3.7zm38.7-7.6l.2-.5 2.3-4.9 3.3-7.2 6.4-13.8 2.5-.4 6-.9-7.4 15.9-4.9 10.6-8.4 1.2zm56.6-38.4l4.5-.7-2.1 4.6-36.9 5.7-.7.1h-.2l-8.5 1.3 1.7-3.7.4-.8 37.8-5.9 4-.6zm-6.9-4l4.5-.7-2.1 4.6-37.8 5.9-4 .6-4.5.7 2.1-4.6 37.8-5.9 4-.6zm-6.9-4l4.5-.7-2.1 4.6-37.8 5.9-4 .6-4.5.7 2.1-4.6 37.8-5.9 4-.6zm-8.1-3.8l5.7-.9-.7 1.4-1.5 3.2-37.8 5.9-4 .6-4.5.7 2.1-4.6 37.8-5.8h.1l2.8-.5zm-7-4l5.7-.9-1.6 3.5-.5 1.1-37.8 5.9-4 .6-4.5.7 2.1-4.6 37.8-5.8h.1l2.7-.5zm-6.9-4l5.7-.9-1.7 3.7-.4.8-37.8 5.9-4 .6-4.6.8 2.1-4.6 37.8-5.8h.1l2.8-.5zm-1.2-4.9l-1.7 3.7-.4.8-37.8 5.9-4 .6-4.5.7 1.6-3.5.5-1.1 36.9-5.7.7-.1h.2l8.5-1.3zm-13-3l6-.9-1.6 3.5-.5 1.1-36.9 5.7-.7.1h-.2l-8.5 1.3 1.7-3.7.4-.8 37.8-5.8h.1l2.4-.5zm-5.4-4.3l4.5-.7-1.6 3.5-.5 1.1-37.8 5.8h-.1l-2.5.4-6 .9 1.7-3.7.4-.8 37.8-5.9 4.1-.6zm-2.4-4.7l-2.1 4.6-37.8 5.8h-.1l-2.8.4-5.7.9 1.6-3.5.5-1.1 12.2-1.9 24.7-3.8.8-.1h.2l8.5-1.3zm-11.4-3.3l4.5-.7-2.1 4.6-31.6 4.9-5.5.8-.6.1h-.2l-8.5 1.3.7-1.4 1.5-3.2 37.8-5.9 4-.5zm-7-4l4.5-.7-2.1 4.6-37.8 5.8h-.1l-2.8.4-5.7.9 1.7-3.7.4-.8 37.8-5.9 4.1-.6zm-6.9-4l4.5-.7-2.1 4.6-37.8 5.9-4 .6-4.5.7 2.1-4.6 37.8-5.9 4-.6zm-2.4-4.7l-2.1 4.6-37.8 5.9-4 .6-4.5.7 2.1-4.6 36.9-5.7.8-.1h.2l8.4-1.4zm-12.6-3.1l5.7-.9-1.6 3.5-.5 1.1-36.9 5.7-.8.1h-.2l-8.5 1.3 2.1-4.6 37.8-5.8h.1l2.8-.4zm-47.7 2.3l37.8-5.8h.1l2.8-.4 5.7-.9-1.6 3.5-.5 1.1-37.8 5.9-4 .6-4.5.7 2-4.7zm-10.5 22.7l8-17.3 8.5-1.3-.2.5-2.3 4.9-3.3 7.2-6.4 13.8-8.5 1.3 4.2-9.1zM554.8 477l37.8-5.8h.1l2.8-.4 5.7-.9-.7 1.4-1.5 3.2-37.8 5.9-4 .6-4.5.7 2.1-4.7zM540 509l6-12.9 6.3-13.6 8.5-1.3-.2.4-2.3 5.1-4.8 10.4-4.9 10.6-8.6 1.3zm12.6 3.1l-5.7.9 7.4-15.9 4.9-10.6 8.5-1.3-.2.3-2.4 5.1-9.7 21-2.8.5zm1.3 4.9l.2-.3 2.4-5.1 9.7-21 8.5-1.3-.2.3-2.4 5.1-9.7 21-8.5 1.3zm6.9 4l.2-.3 2.4-5.1 9.7-21 2.8-.4 5.7-.9-7.4 15.9-4.9 10.6-8.5 1.2zm6.9 4l.2-.4 2.3-5.1 4.8-10.4 4.9-10.6 8.5-1.3-6 12.9-6.3 13.6-8.4 1.3zm7 4l2.1-4.6.1-.2.3-.7 6.7-14.5 3-6.5 8.5-1.3-8.3 18-3.9 8.5-8.5 1.3zm6.9 4l.2-.5 2.3-4.9 3.3-7.2 6.4-13.8 2.5-.4 6-.9-12.3 26.5-8.4 1.2zm6.9 4l12.3-26.5 8.5-1.3-12.3 26.4-8.5 1.4zm13 3l-6 .9 12.3-26.5 8.5-1.3-12.3 26.5-2.5.4zm.9 5l12.3-26.5 8.5-1.3-2.1 4.6-.1.2-.3.7-6.7 14.5-3 6.5-8.6 1.3zm6.9 4l6-12.9 6.3-13.6 8.5-1.3-.2.4-2.3 5.1-4.8 10.4-4.9 10.6-8.6 1.3zm12.9 3l-6 .9 7.4-15.9 4.9-10.6 8.5-1.3-.2.5-2.3 4.9-3.3 7.2-6.4 13.8-2.6.5zm1 5l8.3-18 3.9-8.5 8.5-1.3-.2.3-2.4 5.1-9.7 21-8.4 1.4zm6.9 4l.2-.3 2.4-5.1 9.7-21 2.8-.4 5.7-.9-.1.3-2.4 5.2-9.7 21-8.6 1.2zm6.9 4l.1-.3 2.4-5.2 9.7-21 8.5-1.3-6 12.9-6.3 13.6-8.4 1.3zm7 4l2.1-4.6.1-.2.3-.7 6.7-14.5 3-6.5 8.5-1.3-8.3 18-3.9 8.5-8.5 1.3zm23.4-14.6l-8 17.3-8.5 1.3.2-.5 2.3-4.9 3.3-7.2 6.4-13.8 8.5-1.3-4.2 9.1zm49.5-11.9l-37.8 5.8h-.1l-2.8.4-5.7.9.7-1.4 1.5-3.2 37.8-5.9 4-.6 4.5-.7-2.1 4.7zm8.8-19.1l-6.3 13.6-8.5 1.3.2-.4 2.3-5.1 4.8-10.4 4.9-10.6 8.5-1.3-5.9 12.9zm10.5-9.3l-5.7.9 1.6-3.5.5-1.1 37.8-5.9 4-.6 4.5-.7-2.1 4.6-37.8 5.8h-.1l-2.7.5z"/><path class="st10" d="M649.1 423.3l-1.4 3-8.5 1.3 1.4-3.1-1.2.7-1.2 2.5-4.4.7-1.9 1.1 9.4-1.4 6-.9-1.6 3.5-.5 1.1-23.4 3.6-1.9 1.1 24.9-3.8.7-.1h.2l8.5-1.3-1.7 3.7-.4.8-37.8 5.9-4 .6-.4.1-1.9 1.1 6-.9-.2.4-2.3 5.1-9.7 21-8.5 1.3 7.4-15.9 4.2-9.1-1.2.7-3.9 8.4-4.9 10.6-8.5 1.3 6.5-14.1-1.2.7-3.7 8.1-8.5 1.3 1.5-3.2-1.2.7-1.2 2.6-4.6.7-1.9 1.1 9.5-1.5 6-.9-1.7 3.7-.4.8L562 470l-1.9 1.1 25.9-4h.1l2.8-.4 5.7-.9-1.6 3.5-.5 1.1-37.8 5.9-4 .6-.6.1-1.9 1.1 6.1-1-2.1 4.6-.1.2-.3.7-6.7 14.5-3 6.5-8.5 1.3 8.3-18 3.3-7.1-1.2.7-2.5 5.3-6.4 13.8-8.5 1.3 6.6-14.2-1.2.7-2.7 5.7-1.1 2.4-8.5 1.3 1.5-3.3-1.2.7-.8 1.6-.5 1.1-4.7.7-1.9 1.1 7.1-1.1h.1l2.5-.4 6-.9-.7 1.4-1.5 3.2-22.8 3.5 1.1.6 22.2-3.4h.1l2.8-.4 5.7-.9-1.7 3.7-.4.8-22.8 3.5 1.1.6 22.2-3.4h.1l2.8-.4 5.7-.9-1.6 3.5-.5 1.1-22.8 3.5 1.1.6 22.2-3.4h.1l2.8-.4 5.7-.9-1.6 3.5-.5 1.1-22.8 3.5 1.1.6 21.3-3.3.8-.1h.2l8.5-1.3-2.1 4.6-22.8 3.5 1.1.6 22.2-3.4 4-.6 4.5-.7-2.1 4.6-22.8 3.5 1.1.6 22.2-3.4 4-.6 4.5-.7-2.1 4.6-13.5 2.1-9.3 1.4 1.1.6 11.3-1.7 10.9-1.7h.1l1.9-.3 6.6-1-2.1 4.6-22.8 3.5 1.1.6 22.2-3.4 4-.6 4.5-.7-2.1 4.6-22.8 3.5 1.1.6 22.2-3.4 4-.6 4.5-.7-1.6 3.5-.5 1.1-22.8 3.5 1.1.6 22.1-3.4h.1l2.5-.4 6-.9-2.2 3.8-.5 1.1-22.8 3.5 1.1.6 21.3-3.3.7-.1h.2l8.5-1.3-1.7 3.7-.4.8-22.8 3.5 1.1.6 22.2-3.4h.1l2.8-.4 5.7-.9-1.6 3.5-.5 1.1-22.8 3.5 1.1.6 22.2-3.4h.1l2.8-.4 5.7-.9-1.6 3.5-.5 1.1-22.8 3.5 1.1.6 21.3-3.3.7-.1h.2l8.5-1.3-1.7 3.7-.4.8-22.8 3.5 1.1.6 22.2-3.4 4-.6 4.5-.7-2.1 4.6-22.8 3.5 1.1.6 22.2-3.4 4-.6 4.5-.7-2.1 4.6-22.8 3.5 1.1.6 22.2-3.4 4-.6 4.5-.7-2.1 4.6-22.8 3.5 1.1.6 22.2-3.4 4-.6 4.5-.7-2.1 4.6-22.8 3.5 1.1.6 22.2-3.4 4-.6 4.5-.7-2.1 4.6-22.8 3.5 1.1.6 22.2-3.4 4-.6 2.6-.4 1.9-1.1-8.2 1.3.2-.4 2.3-5.1 9.7-21 8.5-1.3-12.2 26.3 1.2-.7 9.4-20.3 8.5-1.3-7.1 15.4 1.2-.7 4.3-9.4 8.5-1.3-2.1 4.5 1.2-.7 1.4-3.1.4-.8 6.9-1.1 1.9-1.1-9.2 1.4h-.1l-2.5.4-6 .9 1.7-3.7.4-.8 25.9-4 1.9-1.1-28.2 4.4h-.1l-2.5.4-6 .9 1.6-3.5.5-1.1L717 543l4-.6 3-.5 1.9-1.1-8.5 1.3 2.1-4.6.1-.2.3-.7 6.7-14.5 3-6.5 8.5-1.3-11.8 26.7 1.2-.7 9.5-20.4 2.5-.4 6-.9-7.2 15.6 1.2-.7 4.4-9.5 8.5-1.3-2.2 4.7 1.2-.7 1.4-3 .5-1.1 7.2-1.1 1.9-1.1-9.6 1.5h-.1l-2.5.4-6 .9 1.6-3.5.5-1.1 26.2-4 1.9-1.1-27.7 4.3-.7.1h-.2l-8.5 1.3 1.7-3.7.4-.8 37.8-5.9 4-.6 3.3-.5 2.7-1.6 1-2.2-.7-.4-1.5 3.1-8.5 1.3.2-.4 2.3-5.1 1.2-2.6-.7-.4-1.5 3.1-8.5 1.3.2-.5 2.3-4.9 1.2-2.6-.7-.4-1.5 3.1-2.8.4-5.7.9.2-.4 2.3-5.1 1.2-2.6-.7-.4-1.4 3.1-8.5 1.3.1-.3 2.4-5.2 1.2-2.6-.7-.4-1.4 3.1-8.5 1.3.2-.3 2.4-5.1 1.2-2.6-.7-.4-1.4 3.1-8.5 1.3 3.7-8-.7-.4-1.4 3.1-8.5 1.3 3.7-8-.7-.4-1.4 3.1-8.5 1.3 3.7-8-.7-.4-1.4 3.1-8.5 1.3 3.7-8-.7-.4-1.4 3.1-2.5.4-6 .9 3.7-8-.7-.4-1.4 3.1-8.5 1.3 3.7-8-.7-.4-1.4 3.1-8.5 1.3.2-.5 2.3-4.9 1.2-2.5-.7-.4-1.4 3.1-2.8.4-5.7.9.2-.4 2.3-5.1 1.2-2.5-.7-.4-1.4 3.1-8.5 1.3.2-.4 2.3-5.1 1.2-2.5-.7-.4-1.4 3.1-8.5 1.3.2-.3 2.4-5.1 1.2-2.5-.7-.4-1.4 3.1-8.5 1.3.2-.3 2.4-5.1 1.2-2.5-.7-.4-1.4 3-2.8.4-5.7.9 3.7-8-.7-.4-1.4 3-8.5 1.3 3.7-8-.7-.4-1.4 3-8.5 1.3 3.7-7.9-.7-.4-1.4 3-2.5.4-6 .9 3.7-7.9-1.1-.4zM612.7 447l2.1-4.6 37.8-5.8h.1l2.8-.4 5.7-.9-1.6 3.5-.5 1.1-37.8 5.9-4 .6-4.6.6zm6.9 4l2.1-4.6 37.8-5.8h.1l2.8-.4 5.7-.9-1.6 3.5-.5 1.1-36.9 5.7-.8.1h-.2l-8.5 1.3zm46-6.3l.8-.1h.2l8.5-1.3-2.1 4.6-37.8 5.9-4 .6-4.5.7 2.1-4.6 36.8-5.8zM600 474.3l4.3-9.2 8-17.3 8.5-1.3-.2.5-2.3 4.9-3.3 7.2-6.4 13.8-8.6 1.4zm33.5-15.3l2.1-4.6 37.8-5.9 4-.6 4.5-.7-2.1 4.6-37.8 5.9-4 .6-4.5.7zm-5.8-8.5l-.1.3-2.4 5.2-9.7 21-8.5 1.3 8.3-18 3.9-8.5 2.8-.4 5.7-.9zm12.7 12.5l1.7-3.7.4-.8 37.8-5.9 4-.6 4.5-.7-2.1 4.6-37.8 5.8h-.1l-2.8.4-5.6.9zm-5.7-8.5l-.1.3-2.4 5.2-9.7 21-8.5 1.3.1-.3 2.4-5.2 9.7-21 8.5-1.3zm12.6 12.5l.7-1.4 1.5-3.2 37.8-5.9 4-.6 4.5-.7-2.1 4.6-31.6 4.9-5.5.8-.6.1h-.2l-8.5 1.4zm-24 13.8l9.7-21 8.5-1.3-8.3 18-3.9 8.5-2.8.4-5.7.9.1-.3 2.4-5.2zm70-20.1l.8-.1h.2l8.5-1.3-2.1 4.6-37.8 5.8h-.1l-2.8.4-5.7.9 1.6-3.5.5-1.1 12.2-1.9 24.7-3.8zm-63 24.1l3.3-7.2 6.4-13.8 8.5-1.3-4.3 9.2-8 17.3-8.5 1.3.2-.5 2.4-5zm30.9-9.8l1.7-3.7.4-.8 37.8-5.9 4-.6 4.5-.7-1.6 3.5-.5 1.1-37.8 5.8h-.1l-2.5.4-5.9.9zm-24 13.8l9.7-21 7.5-1.2 1.1-.2-7.4 15.9-4.9 10.6-8.5 1.3.2-.4 2.3-5zm30.9-9.8l1.7-3.7.4-.8 37.8-5.8h.1l2.5-.4 6-.9-1.6 3.5-.5 1.1-36.9 5.7-.7.1h-.2l-8.6 1.2zm-115.4 2.6l2.1-4.6 37.8-5.8h.1l2.8-.4 5.7-.9-.7 1.4-1.5 3.2-37.8 5.9-4 .6-4.5.6zm91.4 11.2l4.8-10.4 4.9-10.6 8.5-1.3-12.2 26.5-2.8.4-5.7.9.2-.4 2.3-5.1zm70-20.1l.7-.1h.2l8.5-1.3-1.7 3.7-.4.8-37.8 5.9-4 .6-4.5.7 1.6-3.5.5-1.1 36.9-5.7zm-154.5 12.9l2.1-4.6 37.8-5.8h.1l2.8-.4 5.7-.9-1.7 3.7-.4.8-37.8 5.9-4 .6-4.6.7zm88.9 16.7l12.3-26.5 8.5-1.3L657 501l-8.5 1.3zM682 487l2.1-4.6 37.8-5.8h.1l2.8-.4 5.7-.9-1.7 3.7-.4.8-37.8 5.9-4 .6-4.6.7zm-115.4 2.6l2.1-4.6 37.8-5.9 4-.6 4.5-.7-2.1 4.6-37.8 5.9-4 .6-4.5.7zm88.8 16.7l12.3-26.5 2.5-.4 6-.9L664 505l-8.6 1.3zm33.5-15.3l2.1-4.6 37.8-5.8h.1l2.8-.4 5.7-.9-1.6 3.5-.5 1.1-37.8 5.9-4 .6-4.6.6zm-128.1-9.8l-.2.4-2.3 5.1-4.8 10.4-4.9 10.6-8.6 1.3 6-12.9 6.3-13.6 8.5-1.3zm12.7 12.4l2.1-4.6 37.8-5.9 4-.6 4.5-.7-2.1 4.6-36.9 5.7-.8.1h-.2l-8.4 1.4zm109.7-11.1l-.2.4-2.3 5.1-9.7 21-8.5 1.3 12.3-26.5 8.4-1.3zm12.6 12.5l2.1-4.6 37.8-5.8h.1l2.8-.4 5.7-.9-.7 1.4-1.5 3.2-37.8 5.9-4 .6-4.5.6zm-128.1-9.8l-.2.3-2.4 5.1-9.7 21-2.8.4-5.7.9 7.4-15.9 4.9-10.6 8.5-1.2zm61.2.7l-2.1 4.6-37.8 5.8h-.1l-2.8.4-5.7.9 1.6-3.5.5-1.1 36.9-5.7.8-.1h.2l8.5-1.3zm61.2.6l-.2.5-2.3 4.9-3.3 7.2-6.4 13.8-8.5 1.3 4.3-9.2 8-17.3 8.4-1.2zm12.7 12.5l2.1-4.6 37.8-5.9 4-.6 4.5-.7-2.1 4.6-37.8 5.9-4 .6-4.5.7zm-128.1-9.8l-.2.3-2.4 5.1-9.7 21-8.5 1.3.2-.3 2.4-5.1 9.7-21 8.5-1.3zm12.6 12.4l1.6-3.5.5-1.1 37.8-5.9 4-.6 4.5-.7-2.1 4.6-37.8 5.8h-.1l-2.8.4-5.6 1zm88.9 16.7l8.3-18 3.9-8.5 8.5-1.3-2.1 4.6-.1.2-.3.7-6.7 14.5-3 6.5-8.5 1.3zm33.5-15.3l2.1-4.6 37.8-5.9 4-.6 4.5-.7-2.1 4.6-37.8 5.9-4 .6-4.5.7zm-146.4 12.5l9.7-21 2.8-.4 5.7-.9-7.4 15.9-4.9 10.6-8.5 1.3.2-.3 2.4-5.2zm31-9.9l1.7-3.7.4-.8 37.8-5.9 4-.6 4.5-.7-2.1 4.6-36.9 5.7-.7.1h-.2l-8.5 1.3zM704 494.5l-.1.3-2.4 5.2-9.7 21-8.5 1.3 6-12.9 6.3-13.6 8.4-1.3zm12.6 12.5l1.7-3.7.4-.8 37.8-5.9 4-.6 4.5-.7-2.1 4.6-36.9 5.7-.7.1h-.2l-8.5 1.3zm-146.3 12.5l4.8-10.4 4.9-10.6 8.5-1.3-6 12.9-6.3 13.6-8.5 1.3.2-.4 2.4-5.1zm79.4-21.6l-1.7 3.7-.4.8-37.8 5.8h-.1l-2.5.4-6 .9 1.6-3.5.5-1.1 36.9-5.7.8-.1h.2l8.5-1.2zm61.2.6l-.2.3-2.4 5.1-9.7 21-2.8.4-5.7.9.1-.3 2.4-5.2 9.7-21 8.6-1.2zm51.7 2.2l.8-.1h.2l8.5-1.3-2.1 4.6-37.8 5.8h-.1l-2.8.4-5.7.9 1.6-3.5.5-1.1 36.9-5.7zm-185.4 22.8l6.7-14.5 3-6.5 8.5-1.3-8.3 18-3.9 8.5-8.5 1.3 2.1-4.6.1-.2.3-.7zm30.9-9.9l1.6-3.5.5-1.1 37.8-5.8h.1l2.5-.4 6-.9-1.7 3.7-.4.8-37.8 5.8h-.1l-2.5.4-6 1zm109.7-11.1l-8.3 18-3.9 8.5-8.5 1.3.2-.3 2.4-5.1 9.7-21 8.4-1.4zm12.7 12.5l1.6-3.5.5-1.1 37.8-5.9 4-.6 4.5-.7-2.1 4.6-37.8 5.8h-.1l-2.8.4-5.6 1zm-146.4 12.5l3.3-7.2 6.4-13.8 2.5-.4 6-.9-12.3 26.5-8.5 1.3.2-.5 2.4-5zm31-9.9l1.7-3.7.4-.8 37.8-5.8h.1l2.5-.4 6-.9-1.6 3.5-.5 1.1-37.8 5.9-4 .6-4.6.5zm91.4 11.3l3.3-7.2 6.4-13.8 2.5-.4 6-.9-7.4 15.9-4.9 10.6-8.5 1.3.2-.5 2.4-5zm-118 8.1l12.3-26.5 8.5-1.3-12.3 26.4-8.5 1.4zm33.5-15.4l2.1-4.6 37.8-5.8h.1l2.8-.4 5.7-.9-.7 1.4-1.5 3.2-37.8 5.9-4 .6-4.5.6zm91.4 11.3l4.8-10.4 4.9-10.6 8.5-1.3-6 12.9-6.3 13.6-8.5 1.3.2-.4 2.4-5.1zm-118 8.1l12.3-26.5 8.5-1.3-12.2 26.4-2.5.4-6.1 1zm33.5-15.4l2.1-4.6 37.8-5.8h.1l2.8-.4 5.7-.9-1.7 3.7-.4.8-37.8 5.9-4 .6-4.6.7zm-5.7-8.4l-2.1 4.6-.1.2-.3.7-6.7 14.5-3 6.5-8.5 1.3 12.3-26.5 8.4-1.3zm12.6 12.4l2.1-4.6 37.8-5.8h.1l2.8-.4 5.7-.9-1.6 3.5-.5 1.1-37.8 5.9-4 .6-4.6.6zm-5.7-8.4l-.2.4-2.3 5.1-4.8 10.4-4.9 10.6-8.5 1.3 6-12.9 6.3-13.6 8.4-1.3zm12.7 12.4l2.1-4.6 37.8-5.9 4-.6 4.5-.7-2.1 4.6-36.9 5.7-.8.1h-.2l-8.4 1.4zm-5.8-8.4l-.2.5-2.3 4.9-3.3 7.2-6.4 13.8-2.5.4-6 .9 7.4-15.9 4.9-10.6 8.4-1.2zm61.2.7l-2.1 4.6-37.8 5.9-4 .6-4.5.7 2.1-4.6 36.9-5.7.8-.1h.2l8.4-1.4zm-54.2 3.3l-.2.3-2.4 5.1-9.7 21-8.5 1.3 8.3-18 3.9-8.5 8.6-1.2zm12.6 12.4l1.6-3.5.5-1.1 37.8-5.9 4-.6 4.5-.7-2.1 4.6-37.8 5.8h-.1l-2.8.4-5.6 1zm-5.7-8.4l-.1.3-2.4 5.2-9.7 21-8.5 1.3.2-.3 2.4-5.1 9.7-21 2.8-.4 5.6-1zm12.7 12.4l1.7-3.7.4-.8 37.8-5.9 4-.6 4.5-.7-2.1 4.6-37.8 5.8h-.1l-2.8.4-5.6.9zm-24 13.9l9.7-21 8.5-1.3-6 12.9-6.3 13.6-8.5 1.3.1-.3 2.5-5.2zm30.9-9.9l.7-1.4 1.5-3.2 37.8-5.9 4-.6 4.5-.7-2.1 4.6-37.8 5.8h-.1l-2.8.4-5.7 1zm-24 13.9l6.7-14.5 3-6.5 8.5-1.3-8.3 18-3.9 8.5-8.5 1.3 2.1-4.6.1-.2.3-.7zm6.9 4l3.3-7.2 6.4-13.8 8.5-1.3-4.3 9.2-8 17.3-8.5 1.3.2-.5 2.4-5z"/></g></g></g><g id="Employer2"><path class="st0" d="M619.4 461s10.1 1.8 11.3 5c1.2 3.2 0 25.2-1.4 26.9s-7.5 1.6-7.5 1.6-3.5-31-2.4-33.5z"/><path class="st4" d="M604.2 469.3l-.6 4.9-7.5 7 2.7.7s6.2-2.4 7.7-4.8 1.5-7.9 1.5-7.9l-3.8.1zM598.9 495.1c-.3 7.9.1 16.8.1 16.8s.1 1.1 1.9.8c1.8-.3 1.8-2 1.8-2.8.1-.8 1.1-9.2 1-10.9-.1-1-4.8-5.4-4.8-3.9zM604.4 493.1l.2 3.5c.4 7.9 2 17.5 2 17.5s.1 1.1 1.9.6c1.8-.5 1.6-2.2 1.6-2.9 0-.8.6-8.9.4-10.6-.4-2.2-6.6-15.4-6.1-8.1z"/><path class="st15" d="M611.1 457.9s-3.1-.1-5.4 3.1c-2.1 3-2.4 9.1-1.7 10 .7.9 3.3 1.1 4 1.1.7-.1 3.5-10.3 3.1-14.2z"/><path class="st15" d="M614.1 457.3c-2.6 0-5.3.3-6.1 2.7-.8 2.4-2.1 7.7-1.1 9.2 1 1.5 1.5 9.2 1.4 11.7-.2 2.4-10.4 7.5-11.1 11.9-.3 1.7-1 4.6.3 6.6.6.9 6.7 3.5 13.4 3.6 4.1.1 3.6-2.7 7.9-5.4 2.5-1.5 5.8-6.3 5.9-10.3.1-4.5-.9-12.4-1-15.6-.2-3.2 1.3-9-1.6-11.6-3.6-3.1-5.4-2.8-8-2.8z"/><path class="st36" d="M606.4 442.7s-.7 3-.8 7.5c-.1 4.2.6 6.7 2.1 6.8 1.5.1 6.7-.5 7.4-3.9 1.4-6.4-4.9-13.7-4.3-11.1l-4.4.7z"/><path class="st4" d="M612 452.1l.1 5s.1 3.3 1.9 3.3c1.6 0 3-1.2 2.9-2.8 0-2.3-.4-6-.4-6l-4.5.5z"/><circle class="st4" cx="612.8" cy="449.8" r="6.6"/><path class="st36" d="M606.4 440.1c-1.6 2.6-1.6 10-.5 10.2.4.1-.4-4.9 3.1-6.6 5.9 4.8 8.1 6.6 9.4 5.4a7.4 7.4 0 001.5-8.9c-1.9-4-10.8-4.4-13.5-.1z"/><path class="st36" d="M620.5 441.6c1.9 3.2 3.6 7.2 1.2 12.1-.9 1.8-4.3 3.5-5.3 3-2.6-1.4 1.9-10.7-6.1-12.5 0 0 8.3-5.9 10.2-2.6z"/><path class="st4" d="M600.6 481.6s-2.4 3.1-3.9 3.5-2.9-1.8-2.6-2.8 3-2.4 4.2-2.1c1.1.2 2.8.4 2.3 1.4z"/><path class="st37" d="M602.8 508.5c-1.5.2-2.7.2-4.2.1.1 2.3 0 3.3-1.8 4.1-1.5.7-4 2.3-3.5 3.4.5 1 2.4.6 3.5.3 1.4-.4 2.9-1.9 3.3-1.9.4 0 .3.3.5.4.2.1 1.6-.6 1.6-.6.7-2.5.6-4.2.6-5.8zM610.3 510.2c-1.4.3-3.2.3-4.5 0 .2 2.3.3 3.9-1.4 4.7-1.5.7-3.9 2.5-3.3 3.5.5.9 2.4.5 3.5.2 1.4-.5 2.8-2 3.2-2.1.4-.1.3.3.5.4.2.1 1.6-.7 1.6-.7.6-2.3.5-4.4.4-6z"/><g><path class="st6" d="M645.7 502v28.2l-2.8-1.6v-28.2z"/><path class="st7" d="M561 485.6v28.2l1.4-1v-28zM647.1 500.6v-.3l-29.6 17.1v28.9l1.4-1v-25.8l26.8-15.5v26.2l1.4-1z"/><path class="st6" d="M617.5 517.4l-59.3-34v28.7l2.8 1.7v-26l53.7 30.9v26l2.8 1.6z"/><path class="st8" d="M558.2 481.1l29.6-17.1 59.3 34.3-29.6 16.8z"/><path class="st9" d="M617.5 517.4v-2.3l29.6-16.8v2z"/><path class="st2" d="M558.2 481.1l59.3 34v2.3l-59.3-34.1z"/></g><path class="st4" d="M627.1 470.4s2.6 8.5 1.1 10.4a30 30 0 01-8.8 3.3c-2.8.6-6.7.8-7.8 1-1.1.3-1.1 1-2.4-.1-.2-.2-1.1-1.3-.9-1.9.1-.6 1-1.1.5-1.3-1.1-.5-2.9 2.4-3.6 1.6-.7-.8 2.6-3 3.2-3.2 1.7-.7 2.7-.1 3.7.6s2.8.9 3.7.8c.8-.1 5-2.7 8.2-4.6l-1.6-6.5 4.7-.1z"/><path class="st15" d="M623.9 461.8c-1.3-1.4-3.3-1.7-4.3 1.3s0 10 1.3 10.4c.8.3 6.4-.4 6.7-1.1.6-1-1.4-8.2-3.7-10.6z"/><g><path class="st10" d="M605.1 502.1l17-9.9 11.9 7.1-17.1 9.6z"/><path class="st3" d="M605 500.8l17.6-8.8 11.4 7.7-17.5 8.6z"/><path class="st10" d="M606.9 501.9l16-11.4 12.5 5.8-16 11.3z"/><path class="st3" d="M611.8 500.9l.4-.4 8.4 3.9-.4.3z"/><path class="st7" d="M612.7 500l.4-.4 8.4 3.9-.4.3zM613.7 499.2l.4-.3 8.4 3.9-.4.2zM614.9 498.2l.4-.3 8.4 3.9-.4.2z"/></g><g id="Computer_2_"><path class="st7" d="M607 490.3c.2.1.2.3 0 .4l-7.4 4.3h-.7l-12.1-7c-.2-.1-.2-.3 0-.4l7.4-4.3h.7l12.1 7z"/><path class="st6" d="M607.2 490.5c-.1.1-.1.1 0 0-.1.1-.1.1 0 0l-.1.1-7.4 4.3h-.1-.1-.1-.1-.1-.1-.1l-12.1-7-.1-.2v1.2l.1.2 12.1 7H599.3l7.4-4.3.5-1.3z"/><path class="st11" d="M617.6 472.3c-.1-.7-.6-1.2-1.2-1.5l-1.1-.6-31.8-18.4-5.7-3.3-.9-.6c-.6-.3-1.1-.5-1.1.3-.2 2 0 4.5 0 6.6v18c0 .6-.1 1.2.5 1.7l.3.2.6.3 13.1 7.5 26.8 15.5c.7.2.6-.7.6-1.4-.1-6 .2-22.2-.1-24.3z"/><path class="st12" d="M575.7 472.8c0 .6-.1 1.2.5 1.7l.3.2 10.8 6.2 18.2-16.5-27.7-16-.9-.6c-.6-.3-1.1-.5-1.1.3-.2 2.2-.1 22.2-.1 24.7z"/><path class="st13" d="M597.9 488.4v1.8l1.1-.6v-1.9z"/><path class="st7" d="M617.6 497.1l-.4-.3c-.5-.3-39.8-22.9-40-23.3a543 543 0 01-.2-25.7c-.6-.3-1-.5-1.1.3-.2 2-.1 22-.1 24.6 0 .6-.1 1.2.5 1.7l22.6 13.1L617 498c.6.3.6-.3.6-.9z"/><path class="st6" d="M618.8 475.6c0-1.7.5-4.2-1.6-5.6l-1-.6-2-1.1-7.1-4.1-30.6-17.7c-1.8-1-1.8.7-1.8 2.3 0 2.9-.1 24.3 0 24.9.3 1.4 1.3 2.2 2.3 2.7l1 .6 6.1 3.5 11.3 6.5v1.8l2.5 1.4v-1.8l18.4 10.6.7.4.2.1c2 .8 1.5-2.5 1.5-4.1v-10.1l.1-9.7zm-1.2 21.1c0 .7.2 1.7-.6 1.4l-40.8-23.5c-.7-.6-.5-1.1-.5-1.7 0-2.6-.1-22.6.1-24.6.1-.7.6-.6 1.1-.3l.9.6 38.6 22.2c.6.3 1.2.8 1.2 1.5.3 2.1 0 18.3 0 24.4z"/><path class="st7" d="M620 474.9c0-1.7.5-4.2-1.6-5.6l-1-.6-2-1.1-7.1-4.1-30.6-17.7c-.6-.3-1.2-.4-1.5-.1 0 0-1.1.6-1.2.9l.2-.2.2-.1h.6l.5.2 30.6 17.7 7.1 4.1 2 1.1 1 .6c2.1 1.4 1.7 3.9 1.6 5.6V495.4c0 1.4.3 3.9-.7 4.2 0 0 1.7-.9 1.7-1.8.4-5.3.2-19.9.2-22.9z"/><g id="Gantt_x5F_Chart_1_"><path class="st14" d="M603.6 477l-22.8-13.2a2.5 2.5 0 01-1.1-1.9c0-.7.5-1 1.1-.6l22.8 13.2c.6.4 1.1 1.2 1.1 1.9 0 .6-.5.9-1.1.6z"/><path class="st15" d="M607 474.6l-20.9-12a2.5 2.5 0 01-1.1-1.9c0-.7.5-1 1.1-.6l20.9 12c.6.4 1.1 1.2 1.1 1.9s-.5 1-1.1.6z"/><path class="st16" d="M612.5 486.4l-23.1-13.3a2.5 2.5 0 01-1.1-1.9c0-.7.5-1 1.1-.6l23.1 13.3c.6.4 1.1 1.2 1.1 1.9s-.5 1-1.1.6z"/></g></g></g><g id="Artist"><path class="st36" d="M692.3 405.7c.8-1.8-.9-4-2.6-3.4.1-1.7-2.9-3.2-5-.8v-1.4c-.1-.1-1.3.6-1.7 1.4v-1.7c-.1-.2-1.4.2-2 1.5-1.3-1.6-4.4.3-4.1 2.1-2-.2-3.7 2.4-1.9 4.2-1.5 1.5-1.4 4.4.5 5.3 1.1 2.8 4.1 2.1 9.8 1.1 5.6-1 6.7-1.7 6.6-4.4 2.2-.4 1.8-3.5.4-3.9z"/><path class="st21" d="M693.7 499.7l3.1 2.8c1.1.9 2.5 2 2 2.9-.4.9-1.7 1.9-5.1 0-3.4-1.9-4.3-3-4.3-4.1-.1-1.1.4-2.1.4-2.1l3.9.5z"/><path class="st38" d="M696.6 462.1s2.7 11.3 3 18.1c-.7 7.7-4.2 20.9-4.2 20.9s-1.7 1.1-3.5.6c-1.9-.5-2.3-1.2-2.3-2s1.1-14.7 1.5-16.4c.4-2.3-5.3-18.9-5.3-18.9l10.8-2.3z"/><path class="st21" d="M682 501.8l3.1 2.8c1.1.9 2.5 2 2 2.9-.4.9-1.8 1.9-5.1 0-3.4-1.9-4.3-3-4.4-4.1-.1-1.1.4-2.1.4-2.1l4 .5z"/><path class="st38" d="M689 462.5s-1.4 11.8-2.1 19.5c-.7 7.7-3.8 20.8-3.8 20.8s-1.4 1.1-3.2.6-2.4-.8-2.4-1.6 1.1-17.1 1.4-18.8c.4-2.3-2.3-20.5-2.3-20.5H689z"/><path class="st4" d="M700.4 432c.8 1.3 3.7 5.9 3.7 8.4 0 3.7-3.5 10-3.5 10l-2.4-.9 1.5-8.7-4.9-9.2c0 .1 3.6-2.7 5.6.4z"/><path class="st0" d="M688.3 425.6s4-2.2 7.3.2c3.1 2.2 7 7 6.6 8.1-.3 1.1-4.1 4.6-4.8 4.8-.7 0-8.1-9.2-9.1-13.1z"/><path class="st0" d="M686.7 424.3c2.7 0 5.7.3 6.4 2.8 5.8 22.1 5.7 23.9 5.1 33.8-.3 4.6-22.2 7.5-22.6 5.3-.4-2.2-.9-18.2 1.1-27 .8-3.3-4.9-8.1-1.8-10.8 3.8-3.1 9.1-4.1 11.8-4.1z"/><path class="st4" d="M687.3 419.2s1.5 7.2.7 7.8c-.8.6-5.7.2-5.7-2.2 0-2.4.6-6.2.6-6.2l4.4.6z"/><ellipse transform="rotate(-88.7 685 413.6) scale(.99997)" class="st4" cx="685.1" cy="413.6" rx="8.2" ry="7"/><g fill="none" stroke-linecap="round" stroke-linejoin="round" stroke-miterlimit="10"><path d="M677.2 411.1c.1-5.1 2.2-7.9 6.4-8.5 3.3-.4 7.7-.3 8.8 5.5" stroke="#ac4b11"/><path d="M677.9 411.7c.1-5.1 1.8-7.6 6-8.2 3.3-.4 6.8.1 8 5.2" stroke="#79350c"/></g><linearGradient id="SVGID_3_" gradientUnits="userSpaceOnUse" x1="2514.2" y1="-967.9" x2="2519.4" y2="-965.2" gradientTransform="rotate(-34.5 3888 2673.2)"><stop offset="0" stop-color="#5196e5"/><stop offset=".7" stop-color="#80e3d4"/></linearGradient><path fill="url(#SVGID_3_)" stroke="#333" stroke-width=".5" stroke-linecap="round" stroke-linejoin="round" stroke-miterlimit="10" d="M699.5 449.9l-3.9-5.6-2.9 6.1 3.8 5.6z"/><linearGradient id="SVGID_4_" gradientUnits="userSpaceOnUse" x1="2507.8" y1="-971.7" x2="2519.6" y2="-971.7" gradientTransform="rotate(-34.5 3888 2673.2)"><stop offset=".1" stop-color="#ffab0d"/><stop offset="1" stop-color="#ff195e"/></linearGradient><path fill="url(#SVGID_4_)" stroke="#333" stroke-width=".5" stroke-linecap="round" stroke-linejoin="round" stroke-miterlimit="10" d="M688.9 444.8l-3 6.2 6.8-.6 2.9-6.1z"/><linearGradient id="SVGID_5_" gradientUnits="userSpaceOnUse" x1="2513.2" y1="-967.9" x2="2507.9" y2="-965.2" gradientTransform="rotate(-34.5 3888 2673.2)"><stop offset="0" stop-color="#80e3d4"/><stop offset="1" stop-color="#ff195e"/></linearGradient><path fill="url(#SVGID_5_)" stroke="#333" stroke-width=".4" stroke-linecap="round" stroke-linejoin="round" stroke-miterlimit="10" d="M689.8 456.6l-3.9-5.6 6.8-.6 3.9 5.6z"/><path class="st4" d="M672.7 440.5s-1.3 7.4-.8 8.5c.5 1 4.1 3.4 6.9 4.4 2.8 1 5 1.2 6.1 1.7 1.1.4 2.6 1.1 4.1.1 1.5-1 3-3.8 1.3-4.8s-3.3-.5-4.4.1c-1.1.6-1.8.4-2.6.1-.9-.2-3.2-2.6-6-3.9l1.4-4.9-6-1.3z"/><path class="st0" d="M673.6 429.9c1-1.8 3.9-2.9 5.7 0 1.8 2.8 1.9 12.7.7 13.5-.8.5-2.7.2-4.1 0a7.4 7.4 0 01-4-1.9c-.9-1 .1-8.6 1.7-11.6z"/><path class="st4" d="M699.5 449s-2.7.4-3.6 1.8c-.9 1.3.7 3.5 1.8 3.6 1.1.1 2.8-.5 3-1.7 0-1.3-.1-3.9-1.2-3.7z"/><path class="st36" d="M677.9 409c1-2.5 2-4.8 5.3-5 .5-.7 4.4-2.1 6.1.3 1.3.9 2.3.8 2.7 1.8 2.7 5.7 0 6.2 0 6.2-.7-.2-1.4-2.2-1.2-2.9-1.2.6-3-.6-3.2-1.7-.6 1.2-2.6.8-3.2 0-1.2 1.9-3.2 1.6-3.7 1.2-1.8 1.1.8 4.6-.5 4.7s-.2-1.2-1.6-.6c-.5.2-.6 1.7 0 3.3.6 1.6-1.2.8-1.8 0-.8-1.1-1.2-1.6 1.1-7.3z"/><g><path class="st6" d="M759.8 464.6v28.2l-2.9-1.6V463z"/><path class="st8" d="M672.6 478l59-34.3 29.5 17.2-59 34z"/><path class="st9" d="M702.1 497.2v-2.3l59-34v2z"/><path class="st2" d="M672.6 478l29.5 16.9v2.3l-29.5-17z"/><path class="st7" d="M675.4 482.5v28.2l1.4-1v-28zM761.1 463.2v-.3l-59 34.3v28.9l1.4-1v-25.8l56.3-32.7v26.2l1.4-1z"/><path class="st6" d="M702.1 497.2l-29.5-16.9v28.8l2.8 1.6v-26l23.9 13.8v26l2.8 1.6z"/></g><g><path class="st13" d="M695.5 485.7l.1-.7 8.5-4.3s.3 1.1-.6 1.5l-8 3.5z"/><linearGradient id="SVGID_6_" gradientUnits="userSpaceOnUse" x1="683.7" y1="478.8" x2="704.1" y2="478.8"><stop offset="0" stop-color="#5196e5"/><stop offset=".9" stop-color="#80e3d4"/></linearGradient><path d="M683.7 476.5l8-3.6c.8-.3 1.7-.3 2.3.2l9.7 7c.5.4.4 1.1-.1 1.4l-8 3.5-11.9-8.5z" opacity=".7" fill="url(#SVGID_6_)"/><path class="st21" d="M683.7 476.5l11.9 8.5-.1.7-11.8-8.5z"/><path class="st6" d="M685.5 475.7l-1.8.8 11.9 8.5 1.8-.8z"/></g><g><path class="st7" d="M736.7 449.6l-11.9 12.7 12.9.4 11.9-12.6z"/><path class="st2" d="M724.8 462.3l12.9.4 1.1 4.8z"/><path class="st6" d="M750.7 455l-1.1-4.9-11.9 12.6 1.1 4.8z"/><path class="st8" d="M749.7 455l-.7-3.3-6.1 6.5.8 3.1z"/><ellipse transform="rotate(-73.2 740.6 462.7)" class="st38" cx="740.6" cy="462.7" rx="1.4" ry=".8"/></g><g><path class="st13" d="M727.6 471.1l-12.5-.3a.6.6 0 00-.6 0l-9.1 3.2c-.4.2-.4.8 0 1.1l8.1 4.7h.6l13.5-7.7c.4-.2.4-.8 0-1z"/><path class="st13" d="M727.9 471.5l-22.8 3.1v-1.4l22.8-2.7z"/><path class="st7" d="M727.6 469.8l-8.1-4.7a.6.6 0 00-.6 0l-13.5 7.7c-.4.2-.4.8 0 1.1l8.1 4.7h.6l13.5-7.7c.4-.2.4-.8 0-1.1z"/><path class="st13" d="M719.7 471.9l-3.2 1.9V469l3.2-1.9z"/><path class="st6" d="M714.3 472.5l2.2 1.3V469l-2.2 1.3z"/><path class="st11" d="M696.9 452l35.4-20.4c1.4-.8 3.2.2 3.2 1.8l.1 25.6c0 .8-.4 1.5-1.1 1.8L699 481.2c-1.4.8-3.2-.2-3.2-1.8v-25.6c0-.8.4-1.5 1.1-1.8z"/><path class="st12" d="M732.3 431.5l-13.2 7.6-8.9 35.7 24.3-14c.7-.4 1.1-1.1 1.1-1.8l-.1-25.6c-.1-1.7-1.8-2.7-3.2-1.9z"/><path class="st6" d="M732 432.1c.2 0 .5.2.5.5l.1 25.6c0 .2-.1.4-.3.5l-35.5 20.4-.3.1c-.2 0-.5-.2-.5-.5V453c0-.2.1-.4.3-.5l35.4-20.4h.3m0-1.6c-.4 0-.7.1-1.1.3l-35.4 20.4c-.7.4-1.1 1.1-1.1 1.8v25.6a2.1 2.1 0 003.2 1.8l35.5-20.4c.7-.4 1.1-1.1 1.1-1.8l-.1-25.6a2 2 0 00-2.1-2.1z"/><path class="st6" d="M731 431.5l1.8-.9 1.7 1-3.5.8zM695.7 480.6l1.4.8-.5-4.5-.8.1z"/><path class="st13" d="M733.3 432.8c.2 0 .5.2.5.5l.2 25.7c0 .2-.1.4-.3.5l-35.5 20.4-.3.1c-.2 0-.5-.2-.5-.5v-25.6c0-.2.1-.4.3-.5l35.4-20.4c0-.2.1-.2.2-.2m0-1.6c-.4 0-.7.1-1.1.3L696.9 452c-.7.4-1.1 1.1-1.1 1.8v25.6a2.1 2.1 0 003.2 1.8l35.5-20.4c.7-.4 1.1-1.1 1.1-1.8l-.1-25.6c-.1-1.3-1.1-2.2-2.2-2.2z"/><linearGradient id="SVGID_7_" gradientUnits="userSpaceOnUse" x1="707" y1="453.2" x2="702.5" y2="461.7"><stop offset=".1" stop-color="#80e3d4"/><stop offset="1" stop-color="#ff195e"/></linearGradient><path opacity=".7" fill="url(#SVGID_7_)" d="M701 454.7l8.1-4.8v9.1l-8.1 5.1z"/><linearGradient id="SVGID_8_" gradientUnits="userSpaceOnUse" x1="714" y1="447.7" x2="714.6" y2="457.3"><stop offset=".1" stop-color="#80e3d4"/><stop offset="1" stop-color="#fff"/></linearGradient><path opacity=".7" fill="url(#SVGID_8_)" d="M710.2 449.4l8.2-4.7v9l-8.2 5.1z"/><linearGradient id="SVGID_9_" gradientUnits="userSpaceOnUse" x1="716.1" y1="457.4" x2="712.6" y2="466.3"><stop offset="0" stop-color="#c149c4"/><stop offset=".9" stop-color="#80e3d4"/></linearGradient><path opacity=".7" fill="url(#SVGID_9_)" d="M710.2 459.9l8.2-4.7v9.1l-8.2 5.1z"/><linearGradient id="SVGID_10_" gradientUnits="userSpaceOnUse" x1="722.2" y1="448.3" x2="727.1" y2="441.8"><stop offset=".1" stop-color="#ffab0d"/><stop offset="1" stop-color="#ff195e"/></linearGradient><path opacity=".7" fill="url(#SVGID_10_)" d="M719.7 444.1l8.1-4.7v9l-8.1 5.1z"/><linearGradient id="SVGID_11_" gradientUnits="userSpaceOnUse" x1="720.4" y1="455.4" x2="727.8" y2="458.9"><stop offset="0" stop-color="#5196e5"/><stop offset=".9" stop-color="#80e3d4"/></linearGradient><path opacity=".7" fill="url(#SVGID_11_)" d="M719.7 454.7l8.1-4.8v9.1l-8.1 5.1z"/><path class="st50" d="M705.3 463.8a6.4 6.4 0 00-2.9 5c0 1.8 1.3 2.6 2.9 1.7a6.4 6.4 0 002.9-5c0-1.9-1.3-2.6-2.9-1.7zm-.1 4.5l-.2.2c-.1 0-.2.1-.2 0l-.8-.5.4-.7.6.3 1.3-2.3.4.2-1.5 2.8z"/></g><g><ellipse transform="matrix(.996 -.08916 .08916 .996 -34.2 62)" class="st24" cx="677.3" cy="414.2" rx="2" ry="3.5"/><path class="st24" d="M675.5 411.2l1.3-.4.6 6.9-1.5-.1z"/><ellipse transform="matrix(.996 -.08916 .08916 .996 -34.3 62)" class="st51" cx="675.8" cy="414.4" rx="1.8" ry="3.2"/></g><g><ellipse transform="scale(1.00001) rotate(-2 692.5 411)" class="st24" cx="692.5" cy="411.1" rx="1.3" ry="3.1"/><path class="st24" d="M693.7 413.7l-1 .4-.3-6.1 1.1.1z"/><ellipse transform="rotate(-2.1 693.4 411) scale(.99998)" class="st51" cx="693.5" cy="410.9" rx=".6" ry="2.8"/></g></g><g id="Kitsu"><path class="st52" d="M672.1 500.5h-10l.7 8.5 4.3 5.3 4.4-5.3z"/><path class="st53" d="M660.9 492l3.7-2.8h5.1l3.6 2.8v2.4l-3.6 6h-5.1l-3.7-6z"/><path class="st54" d="M664.6 489.2l-3.7-3.1v5.9z"/><path class="st53" d="M662.4 485.2l-1.5.9 3.7 3.1z"/><path class="st54" d="M669.7 489.2l3.6-3.1v5.9z"/><path class="st53" d="M671.9 485.2l1.4.9-3.6 3.1z"/><circle class="st55" cx="664.5" cy="495.4" r=".6"/><circle class="st55" cx="669.8" cy="495.4" r=".6"/><path class="st52" d="M664.6 500.4h5.1l-1.3-5.6h-2.5z"/><path class="st56" d="M664.6 500.4l2.5-.7 2.6.7v2.6h-5.1z"/><path class="st57" d="M669.7 500.4v2.6l5.4-5.1-1.8-3.5z"/><path class="st58" d="M668.1 502.2v-1.1l-1-.3-.9.3v1.1z"/><path class="st53" d="M660.9 499.5l1.2 1 .7 8.5 4.3 5.3-4.3 9.4-12.8-2.9 2.3-13.4z"/><path class="st57" d="M664.6 500.4v2.6l-5.4-5.1 1.7-3.5z"/><path class="st54" d="M671.5 509l-4.4 5.3 3 12.5h1.4zM662.8 509l4.3 5.3-3 12.5h-1.3z"/><path class="st54" d="M668 530l.1-6.6-18.1-2.6z"/><path class="st57" d="M676.7 523.4L668 530l.1-6.6z"/></g><path class="st9" d="M645.7 462.9l-.4 124.4 144.2-82.9V380l-143.8 82.9zm135.1 36.5l-126.9 73V467.9l126.9-73v104.5z"/><path class="st2" d="M502.1 380v124.4l143.6 82.9V463l-143.6-83zm135 192.4l-126.4-73V395l126.4 73v104.4z"/><path class="st8" d="M501.7 380l144 82.9L789.5 380l-143.9-82.9z"/><g id="Producer_x5F_Logo"><path class="st59" d="M562.5 354.6c.2-1.5.2-3.1-.1-4.7a13 13 0 00-1.8-4.6 23.2 23.2 0 00-17.3-11.1c-1-.1-3.5.4-4.5 2.5-.3.7 3.3 1 3.8 1.6.4.5 1 .8 1.5.9 1.1.1 2.2.3 3.3.7l-1.5 4.2c-.6 1.9-1.6 4.9-2.7 8.9l-.1.3c-1.2 4.2-2.5 9.6-4 16.1-.3 1.1-1 5.5 0 6.4.2.2 3.2-1.4 3.7-3 1.4-4.8 2.2-9.7 3.6-14.5 1.6.8 3.5 4.4 6.8 4.6 4.4.3 8.5-3.9 9.3-8.3zm-10.9-12.9l.7.4c2.6 1.5 6.7 7.9 6.5 9.4-.9 5.2-6.4 4.6-11.2 2.5l1.8-6.1a59 59 0 012.2-6.2z"/><path class="st59" d="M664.7 431.9c-.4-.6-1-1-1.5-1.1-1-.4-3.5 1.8-3.7 2.2-1.6 2.6-1.8 2.2-3.5 1.3h-.1c0-.5.2-1.5.9-3 .8-1.8 1.5-3.6 1.2-6-.3-2.2-1.3-4.5-3.2-7.2l.1-.9a6 6 0 00-1.3-4c-.5-.6-1.1-1.1-1.6-1.1-2.1-.1-4 2.2-4.4 2.9-.4.8 2.3-.1 2.6 1.2l.2.8-3 7-.1.2c-1.8 3.2-4.8 3-6.6 2-.9-.5-2-1.7-2.4-2.9l-.2-.9c8.1 2.5 10-.9 10.4-3.2.2-1.1.1-2.2-.2-3.3a11 11 0 00-1.4-3.3c-.4-.6-2-2.7-4.3-3.1-1.9-.3-5.1 1.1-6.8 3.3-1.3 1.7-1 3.1-1.3 4.9v.4c-1.6 2.6-3.7 3.4-6.1 2-.4-.2-1.1-1.1-1.6-2.5-.8-2.6 0-5.7 2.2-8.4 1.3-1.5 1.3 2 1.8 3.5.3.8.7 1.5 1.2 2 .5.4.9.6 1.4.6.9-.1 1.6-.6 2-1.4.4-.8.6-1.8.5-3.1-.1-1.2-.4-2.4-.9-3.5a8.7 8.7 0 00-2.2-3.1 4.6 4.6 0 00-3.6-1.5c-1.1.1-4.4 2.2-5.5 3.5-1 1.2.5 1-.1 2.2l-.2.2c-1.8 2.5-3.1 3.3-3.8 3.6l-.9.3c0-.3-.1-.9 0-1.6.1-1.2.4-3.3 1.6-6.4.4-1 0-2.6-1-3.7-.5-.5-1-.9-1.4-.9-1.5-.2-3.7 2.2-3.9 2.7-.8 1.9.6 2-.8 3.6-1.7 1.8-2.9 2-3.2 1.9-.1-.5-.7-3.2 2.3-9.8.4-.9.1-2.6-.9-3.8-.5-.5-1-.9-1.4-.9-1.6-.2-3.7 2.2-3.9 2.7-.9 1.9 1.2 1.7.7 3.3l-.1.2c-2.3 4.4-3.6 4.1-4.5 3.6-.1-.8-.3-3.7 2-10.9 2.2-4.1 4-8.6 5-10.9l.6-1.4.3-.8.8-1.9c.3-1 .3-2-.1-3a4.1 4.1 0 00-1.8-2.2c-1.4-.4-3.9 1.4-4.2 2.1l.8 1.5c-.9 2.1-2.6 6-4.1 10.2-2-2.3-5-3.3-7.4-2.3-1.4.6-3.6 2.5-3.6 2.5s-1.4 2.6-1.7 2.9c-.3.4-1.5-.3-1.5-.3a13.4 13.4 0 00-2.4-12.4c-1.2-1.2-3-2.3-5.1-.9-.7.4-2.3 1.7-2.5 1.9-1.2.8-2.1 2-2.8 3.5-1.6 2.6-4.3 3.9-6 3.1h-.1c0-.5.2-1.5.9-3 .8-1.8 1.5-3.6 1.2-6-.3-2.2-1.3-4.5-3.2-7.2l.1-.9c.1-2.1-.6-3.1-1.6-3.8a3.8 3.8 0 00-5.1.9c-.4.8 1.7.6 2 1.9l.2.8-3 7-.1.2c-1.5 2.8-2.3 4.9-5.4 3.1-2.1-1.2-3.8-2.9-4.2-4.6-.9-3.5-4.8-2.6-5.4-1.2.4 2.9 5.7 7.8 9.5 10 5.7 3.3 8.6-1.8 9.6-4.4l.1-.2.3-.7c.5-1.2.6-2 1.2-3.3.8 1.2.8 1.8.9 2 .1.9.2 1.3-.3 2.5-.7 1.5-1.1 2.8-1.2 4.1-.2 1.4 0 2.8.5 4.1.4.9 1.2 2.7 3.1 3.7l.4.2c1.7.8 3.4.8 5.1 0 .2.7 0 2.6.3 3.2.7 1.5 2.2 1.5 3.4 2.2l.9.4.2.1c1.3.4 2.9.2 4.5-.6l1.6-1.1c1.1.7 2.1 1.1 3.1 1.2h.1c.1 2.3.5 4.6 1 5.5.9 1.5 2.3 2.1 3.4 2.7.4.2.7.4 1.1.4 1.7.5 3.3-.2 5.1-2l.1-.1c.1 1.2.3 2.2.7 3.2a6.9 6.9 0 003 3.8c1.7 1 2.8 2 4.1 1.3.1 0 2.5 2.7 3.8 3.5l.3.2c1.5.7 3.1.4 4.9-1.1a9 9 0 001.7 3.8c1 1.3 2.7 2.6 5.1 1.7.4-.2 1.4 4.3 2.3 5.6.8 1.2 3.2 1.5 4.1 2.1 2.2 1.3 5.7 1.9 6 1.7 1.3 3 6.7 7.4 8.5 7.5 3.3.1 7.3-4.4 8.4-7l.1-.2.3-.7c.5-1.2 2.2 0 1.7 1.1-.7 1.5-.8 2.9-1.2 4.1-2.6 8.3 2.9 10.9 4.8 10.7 2.6-.3 7.4-4.8 8.3-6.4.2-1.4-.1-3-1-4.2zm-24.3-15.1c1.5-2 2.8-2.2 3.5-2.1.3.1 1.1.9 1 1.2-.2 1.3-1.7 2.3-5.1 1.7l.6-.8zm-40.5-27.6v.7l-.3.5c-4.3 7.3-6.5 7.3-7.1 7.1-.3-.1-.4-.2-.7-.6-.1-.2-.2-.5-.2-1.2 0-1.3.6-2.8 1.7-4.3a8 8 0 013.2-2.8c.8-.3 1.6-.3 2.4 0l.6.3.4.3z"/><g><path class="st60" d="M559.7 356.6c.2-1.5.2-3.1-.1-4.7a13 13 0 00-1.8-4.6c-2.3-4-5.7-6.6-8.2-8.1a24 24 0 00-9.7-3.4c-1-.1-1.5 1-1.1 2.4.2.8.5 1.5 1 2 .4.5 1 .8 1.5.9 1.1.1 2.2.3 3.3.7l-1.5 4.2c-.6 1.9-1.6 4.9-2.7 8.9l-.1.3c-1.2 4.2-2.5 9.6-4 16.1-.3 1.1.3 2.8 1.3 3.8l.5.4c.8.5 1.6.2 1.8-.8a236 236 0 013.6-14.5c1.6.8 4.9 2.3 8.2 2.5 4.5.4 7.2-1.7 8-6.1zm-10.8-12.9l.7.4c2.6 1.5 4.6 3.5 5.7 5.4.8 1.4 1 2.6.7 4-.9 5.2-6.4 4.6-11.2 2.5l1.8-6.1 2.3-6.2z"/><path class="st60" d="M662 434c-.4-.6-1-1-1.5-1.1-.5-.1-.9 0-1.2.4-1.6 2.6-4.3 4-6 3.1h-.1c0-.5.2-1.5.9-3 .8-1.8 1.5-3.6 1.2-6-.3-2.2-1.3-4.5-3.2-7.2l.1-.9a6 6 0 00-1.3-4 3 3 0 00-1.6-1.1c-.7-.1-1.3.2-1.6.8-.4.8-.5 1.9-.2 3.2l.2.8-3 7-.1.2c-1.8 3.2-4.8 3-6.6 2-.9-.5-2-1.7-2.4-2.9l-.2-.9c8.1 2.5 10-.9 10.4-3.2.2-1.1.1-2.2-.2-3.3a11 11 0 00-1.4-3.3c-.4-.6-2-2.7-4.3-3.1-1.9-.3-3.8.6-5.5 2.9a13.5 13.5 0 00-2.6 5.4v.4c-1.6 2.6-3.7 3.4-6.1 2-.4-.2-1.1-1.1-1.6-2.5-.8-2.6 0-5.7 2.2-8.4 1.3-1.5 2.4-1.5 2.8-1.1.2.2.3.6.4.9 0 .3 0 .7-.6.8-.9.1-1.2 1.4-.8 2.8.3.8.7 1.5 1.2 2 .5.4.9.6 1.4.6.9-.1 1.6-.6 2-1.4.4-.8.6-1.8.5-3.1-.1-1.2-.4-2.4-.9-3.5a8.7 8.7 0 00-2.2-3.1 4.6 4.6 0 00-3.6-1.5c-1.1.1-2.2.8-3.3 2-1 1.2-1.8 2.4-2.3 3.7l-.2.2c-1.8 2.5-3.1 3.3-3.8 3.6l-.9.3c0-.3-.1-.9 0-1.6.1-1.2.4-3.3 1.6-6.4.4-1 0-2.6-1-3.7-.5-.5-1-.9-1.4-.9-.5-.1-.9.2-1.1.7-.8 1.9-2.1 4.1-3.6 5.6-1.7 1.8-2.9 2-3.2 1.9-.1-.5-.7-3.2 2.3-9.8.4-.9.1-2.6-.9-3.8-.5-.5-1-.9-1.4-.9-.5-.1-.9.1-1.2.6-.9 1.9-1.5 3.7-2 5.4l-.1.2c-2.3 4.4-3.6 4.1-4.5 3.6-.1-.8-.3-3.7 2-10.9 2.2-4.1 4-8.6 5-10.9l.6-1.4.3-.8.8-1.9c.3-1 .3-2-.1-3a4.1 4.1 0 00-1.8-2.2c-.7-.4-1.4-.2-1.9.6-.3.4-.6.9-.8 1.6l-.6 1.4c-.9 2.1-2.6 6-4.1 10.2-2-2.3-5-3.3-7.4-2.3-1.4.6-3.2 2.1-4.6 4.2-.5-.2-1-.2-1.3.2-.3.4-.6.6-1 .8a13.4 13.4 0 00-2.4-12.4c-1.2-1.2-3-2.3-5.1-.9-.7.4-1.2 1-1.5 1.8-.4-.1-.7-.1-1 .1-1.2.8-2.1 2-2.8 3.5-1.6 2.6-4.3 3.9-6 3.1h-.1c0-.5.2-1.5.9-3 .8-1.8 1.5-3.6 1.2-6-.3-2.2-1.3-4.5-3.2-7.2l.1-.9a6 6 0 00-1.3-4 3 3 0 00-1.6-1.1c-.7-.1-1.3.2-1.6.8-.4.8-.5 1.9-.2 3.2l.2.8-3 7-.1.2c-1.5 2.8-2.3 4.9-5.4 3.1a7 7 0 01-3.6-4.8c-.5-2.8-4-5.3-3.4-1.3.4 2.9 3 8.2 6.8 10.4 5.7 3.3 8.6-1.8 9.6-4.4l.1-.2.3-.7a130 130 0 011.8-4.1c.8 1.2.8 1.8.9 2 .1.9-.4 2.1-.9 3.2-.7 1.5-1.1 2.8-1.2 4.1-.2 1.4 0 2.8.5 4.1.4.9 1.2 2.7 3.1 3.7l.4.2c1.7.8 3.4.8 5.1 0l.7 2a7.7 7.7 0 003 3.4l.9.4.2.1c1.3.4 2.9.2 4.5-.6l1.6-1.1c1.1.7 2.1 1.1 3.1 1.2h.1c.1 2.3.9 4 1.4 4.9a9.7 9.7 0 003 3.3c.4.2.7.4 1.1.4 1.7.5 3.3-.2 5.1-2l.1-.1c.1 1.2.3 2.2.7 3.2a6.9 6.9 0 003 3.8c1.7 1 3.2 1.1 4.5.4l.2-.1.1.2c.8 2 1.9 3.6 3.2 4.3l.3.2c1.5.7 3.1.4 4.9-1.1a9 9 0 001.7 3.8c1 1.3 2.7 2.6 5.1 1.7l1.2-.6.3 1.1c.5 1.7 1.2 3.2 2.1 4.4.8 1.2 1.9 2.2 2.8 2.8 2.2 1.3 4.4 1.5 6.3.6l.9-.5c1.3 3 3.5 5.1 5.2 6a7.4 7.4 0 005.7.9c2.2-.5 3.9-2.2 4.9-4.9l.1-.2.3-.7a130 130 0 011.8-4.1c.8 1.2.8 1.8.9 2 .1.9-.4 2.1-.9 3.2-.7 1.5-1.1 2.8-1.2 4.1-.2 1.4 0 2.8.5 4.1.4.9 1.2 2.7 3.1 3.7l.4.2c1.7.8 3.5.8 5.2-.1 1.6-.7 3-2.1 3.9-3.7a8.8 8.8 0 00-1.2-3.9zm-24.4-15.2c1.5-2 2.8-2.2 3.5-2.1l.6.2.3.2c0 .1.1.4 0 .8-.2 1.3-1.7 2.3-5.1 1.7l.7-.8zm-59.8-27.9c-1.5.7-2.4.6-2.8.5a.8.8 0 01-.4-.2c-.2-.5-.3-1.6 0-2.9.2-.9.5-1.7 1-2.4.5 1.7 1.3 3.4 2.3 4.9l-.1.1zm2.6-2.4a8.3 8.3 0 01-1.5-3.5c-.3-1.3 0-2.1.7-2.6.6-.4 1.1-.4 1.2-.3.1.1.3.6.4 1.4a7 7 0 01-.8 5zm16.8 2.8v.7l-.3.5c-4.3 7.3-6.5 7.3-7.1 7.1-.3-.1-.4-.2-.7-.6-.1-.2-.2-.5-.2-1.2 0-1.3.6-2.8 1.7-4.3a8 8 0 013.2-2.8c.8-.3 1.6-.3 2.4 0l.6.3.4.3z"/></g></g></g><g id="Studio_1_"><path id="Floor_2_" fill="#f5f5f5" stroke="#fff" stroke-width="1.4" stroke-miterlimit="10" d="M69.6 419.9L212.1 502l285.6-164.4-142.8-82z"/><g id="Flooring" opacity=".5"><path transform="rotate(-60 158.5 453.4)" class="st10" d="M157.8 370.5h1.4v165.8h-1.4z"/><path transform="rotate(-60 173.9 444.5)" class="st10" d="M173.2 361.6h1.4v165.8h-1.4z"/><path transform="rotate(-60 189.3 435.6)" class="st10" d="M188.6 352.6h1.4v165.8h-1.4z"/><path transform="rotate(-60 204.8 426.6)" class="st10" d="M204.1 343.7h1.4v165.8h-1.4z"/><path transform="rotate(-60 220.2 417.7)" class="st10" d="M219.5 334.8h1.4v165.8h-1.4z"/><path transform="rotate(-60 235.6 408.8)" class="st10" d="M234.9 325.8h1.4v165.8h-1.4z"/><path transform="rotate(-60 251 399.8)" class="st10" d="M250.4 316.9h1.4v165.8h-1.4z"/><path transform="rotate(-60 266.5 390.9)" class="st10" d="M265.8 308h1.4v165.8h-1.4z"/><path transform="rotate(-60 282 382)" class="st10" d="M281.2 299h1.4v165.8h-1.4z"/><path transform="rotate(-60 297.4 373)" class="st10" d="M296.7 290.1h1.4v165.8h-1.4z"/><path transform="rotate(-60 312.8 364)" class="st10" d="M312.1 281.2h1.4V447h-1.4z"/><path transform="rotate(-60 328.3 355.2)" class="st10" d="M327.6 272.2h1.4V438h-1.4z"/><path transform="rotate(-60 343.7 346.2)" class="st10" d="M343 263.3h1.4v165.8H343z"/><path transform="rotate(-60 359.1 337.3)" class="st10" d="M358.4 254.4h1.4v165.8h-1.4z"/><path transform="rotate(-60 374.6 328.4)" class="st10" d="M373.9 245.4h1.4v165.8h-1.4z"/><path transform="rotate(-60 390 319.4)" class="st10" d="M389.3 236.5h1.4v165.8h-1.4z"/><path transform="rotate(-60 405.4 310.5)" class="st10" d="M404.7 227.6h1.4v165.8h-1.4z"/><path transform="rotate(-60 420.9 301.6)" class="st10" d="M420.2 218.6h1.4v165.8h-1.4z"/></g><path id="Wall_3_" class="st8" d="M356.7 6.7v248.8l143.6 82.9V89.6L356.7 6.7z"/><g id="Stool-3"><path class="st8" d="M398.7 259.5l-18 10.3 18 10.4 18-10.4z"/><path class="st2" d="M380.7 290.6v-20.8l18 10.4v20.7z"/><path class="st9" d="M416.7 290.8v-21l-18 10.4v20.7z"/></g><g id="Stool-2"><path class="st8" d="M419.5 271.4l-18 10.4 18 10.3 18-10.3z"/><path class="st2" d="M401.5 302.5v-20.7l18 10.3v20.8z"/><path class="st9" d="M437.5 302.7v-20.9l-18 10.3v20.8z"/></g><g id="Stool-1"><path class="st8" d="M440.3 283.4l-18 10.3 18 10.4 18-10.4z"/><path class="st2" d="M422.3 314.5v-20.8l18 10.4v20.7z"/><path class="st9" d="M458.3 314.7v-21l-18 10.4v20.7z"/></g><g id="Man_x5F_downstairs"><path class="st18" d="M309.6 329s-1.1 9.9-1.3 13v7.2c.1 1.3-1.7 4.2-.1 5.9 2.1 2.3 4 .5 3.6-2.5-.4-3 .4-4.9.5-6.6.1-1.8-.1-17.2-.1-17.2l-2.6.2z"/><path class="st63" d="M323.2 385.4c-.7.5-5.4 1.7-4.9 4.3.5 2.6 9.7-.3 9.5-3.3-.2-2.1-3.9-1.5-4.6-1z"/><path class="st63" d="M320.6 381.3c-.6.6-4.9 2.8-3.9 5.2 1 2.5 9.4-2.3 8.6-5.2-.6-2.1-4.1-.7-4.7 0z"/><path class="st0" d="M312.7 350.3s-.2 10.4 1.2 15.8a60 60 0 007.5 16c1.5.4 3.9-.6 3.9-.6l-4.8-16.2-.6-16.4-7.2 1.4z"/><path class="st0" d="M319.9 350.2s1.3 8.6 2.1 17.4c.8 8.9 1.1 18 1.9 18.5 1.4 1 3.9.2 3.9.2l1-18-.3-18-8.6-.1z"/><path class="st3" d="M323.5 317.8s6.3.7 6.6 6.3c.2 5.6.3 25.8.3 26.5 0 .8-2.7 3.1-11 2.7-7.9-.4-8.1-1.8-8.1-3.2 0-2.9.2-23 1.7-27.6 1.4-4.7 5.8-5 10.5-4.7z"/><path class="st18" d="M318.8 314.1s0 6.1.5 6.6 3.3-.2 3.3-2.3v-4.9l-3.8.6z"/><path class="st3" d="M316.1 318.7s-4.6-.3-5.9 2.8c-1.2 3.1-3.2 8.5-1.7 9 1.5.5 2.8.9 3.5.9.6-.2 4.4-9.1 4.1-12.7z"/><path class="st18" d="M332.2 327s1.6 4.7 1.9 9.5c.2 2.8-.7 13.2-.7 13.2l.5 2.5c.6 1.9 1.4 5.5-1.8 6.4-2.7.8-2.3-3.6-1.7-7.1.1-.6-.4-11.4-.8-14.9-.6-4.3-2.9-8.5-2.9-8.5l5.5-1.1z"/><path class="st3" d="M329.4 319.9c-1.4-1.2-5.1-1.1-5.7 1.7-.5 2.9 2.2 11.5 3.4 11.7.8.2 2.6 0 3.9-.4a3 3 0 002.2-2.3c.5-1-1.5-8.8-3.8-10.7z"/><circle class="st18" cx="320.7" cy="309.9" r="7"/><path class="st21" d="M328.3 308c0 2.8-15 2.1-15 0a7.5 7.5 0 1115 0z"/></g><g id="Frame"><path fill="#717171" d="M408.1 207.9l2.5-1.4 52.4 30.2-2.5 1.4z"/><path class="st7" d="M463 284l-2.5 1.3v-47.4l2.5-1.3z"/><path class="st6" d="M408.1 255.3v-47.4l52.4 30.2v47.4z"/><path class="st2" d="M412.5 252.8v-37.4l43.7 25.2V278z"/><path opacity=".3" fill="#fff" d="M412.5 215.4l43.7 25.2V278z"/></g><g id="Desk_3_"><path class="st6" d="M330.4 368.1v28.2l-2.8-1.6v-28.2z"/><path class="st7" d="M245.7 351.6v28.2l1.4-1v-28zM331.8 366.7v-.3l-29.7 17.1v28.9l1.4-1v-25.9l26.9-15.4v26.2l1.4-1z"/><path class="st6" d="M302.1 383.5l-59.3-34.1v28.8l2.9 1.6v-26l53.6 30.9v26.1l2.8 1.6z"/><path class="st8" d="M242.8 347.1l29.7-17 59.3 34.3-29.7 16.8z"/><path class="st9" d="M302.1 383.5v-2.3l29.7-16.8v2z"/><path class="st2" d="M242.8 347.1l59.3 34.1v2.3l-59.3-34.2z"/></g><g id="Desk_2_"><path class="st6" d="M299.3 386.3v28.2l-2.8-1.6v-28.2z"/><path class="st7" d="M214.6 369.8V398l1.4-.9V369zM300.7 384.9v-.3l-29.6 17.1v28.9l1.4-1v-25.9l26.8-15.4v26.2l1.4-1z"/><path class="st6" d="M271.1 401.7l-59.3-34.1v28.8l2.8 1.6v-25.9l53.7 30.8V429l2.8 1.6z"/><path class="st8" d="M211.8 365.3l29.6-17 59.3 34.3-29.6 16.8z"/><path class="st9" d="M271.1 401.7v-2.3l29.6-16.8v2z"/><path class="st2" d="M211.8 365.3l59.3 34.1v2.3l-59.3-34.1z"/></g><g id="Documents_1_"><path class="st10" d="M279.4 358l17-9.9 11.9 7.1-17 9.6z"/><path class="st7" d="M279.3 356.7l17.6-8.8 11.5 7.7-17.6 8.6z"/><path class="st10" d="M281.2 357.8l16-11.4 12.5 5.8-16 11.3z"/><path class="st7" d="M286.1 356.8l.4-.4 8.4 3.9-.4.3zM287 355.9l.4-.4 8.5 3.9-.5.3zM288 355.1l.5-.3 8.4 3.9-.5.2zM289.3 354.1l.4-.3 8.4 3.9-.5.2z"/></g><g id="Folder"><path class="st7" d="M276.5 373.2l-14.5 9.6 12.5 3.4 14.5-9.6z"/><path class="st2" d="M262 382.8l12.5 3.4v4.9z"/><path class="st6" d="M289 381.7v-5.1l-14.5 9.6v4.9z"/><path class="st8" d="M288 381.4v-3.3l-7.4 4.9v3.2z"/><ellipse transform="rotate(-59.9 277.4 386.9)" class="st38" cx="277.3" cy="386.9" rx="1.4" ry=".8"/></g><path id="Wall_2_" class="st8" d="M69 297v124.4l144.2-82.9V214L69 297z"/><g id="Cabinet"><path class="st9" d="M114.3 416.9l107.9-62.2V248.6l-107.9 62.2z"/><defs><path id="SVGID_12_" d="M114.3 416.9l107.9-62.2V248.6l-107.9 62.2z"/></defs><clipPath id="SVGID_13_"><use xlink:href="#SVGID_12_" overflow="visible"/></clipPath><g clip-path="url(#SVGID_13_)"><path class="st67" d="M136.7 333.9v78.3M159.2 320.6v78.3M181.7 307.3v78.2M204.2 293.9v78.3"/></g><path class="st68" d="M111.3 394.3l110.8-63.4M111.3 367.4L222.1 304M111.3 340.5L222.1 277"/><path class="st2" d="M114.3 416.9V310.8l-18-10.3v106.1z"/><path class="st8" d="M204.2 238.2l18 10.4-107.9 62.2-18-10.3z"/><path class="st38" d="M123.4 374v1.8l-1.5-.9v-1.8zM130.5 369.8v1.8l-1.4-.8V369z"/><path class="st6" d="M123.4 375.8l7.1-4.2v-1.8l-7.1 4.2z"/><g><path class="st38" d="M123.4 399.5v1.8l-1.5-.9v-1.8zM130.5 395.3v1.8l-1.4-.8v-1.8z"/><path class="st6" d="M123.4 401.3l7.1-4.2v-1.8l-7.1 4.2z"/></g><g><path class="st38" d="M146.7 360.6v1.8l-1.4-.8v-1.8zM153.9 356.4v1.8l-1.5-.8v-1.8z"/><path class="st6" d="M146.7 362.4l7.2-4.1v-1.9l-7.2 4.2z"/></g><g><path class="st38" d="M146.7 386.1v1.8l-1.4-.8v-1.9zM153.9 381.9v1.8l-1.5-.8v-1.8z"/><path class="st6" d="M146.7 387.9l7.2-4.1v-1.9l-7.2 4.2z"/></g><g><path class="st38" d="M169.4 373.3v1.8l-1.4-.9v-1.8zM176.6 369.1v1.8l-1.4-.8v-1.8z"/><path class="st6" d="M169.4 375.1l7.2-4.2v-1.8l-7.2 4.2z"/></g><g><path class="st38" d="M123.4 347.5v1.8l-1.5-.9v-1.8zM130.5 343.3v1.8l-1.4-.8v-1.8z"/><path class="st6" d="M123.4 349.3l7.1-4.2v-1.8l-7.1 4.2z"/></g></g><g id="Woman_x5F_downstairs"><path class="st1" d="M171.3 451.9l-3.2 2.7c-1.2.9-2.5 2.1-2.1 3 .5 1 1.8 1.9 5.2 0 3.5-2 4.4-3.1 4.5-4.2.1-1.1-.5-2.2-.5-2.2l-3.9.7z"/><path class="st2" d="M171.6 450.9l-3.6 2.9c-1.2.9-2.5 2.1-2.1 3 .5 1 1.8 1.9 5.2 0 3.5-2 4.4-3.1 4.5-4.2.1-1.1-.5-2.2-.5-2.2l-3.5.5z"/><path class="st17" d="M167.9 453.9l-.8.7 1.1.4c.2.2.9-.4.8-.6.1-.2-.6-.4-1.1-.5zM169.5 453.9c.2.2.9-.4.8-.6l-1.1-.5-.8.7 1.1.4z"/><path class="st1" d="M178.3 453l-3.7 3.1c-1.2 1-2.6 2.1-2.2 3.1.5 1 1.9 2 5.4 0 3.7-2 4.6-3.2 4.7-4.3.1-1.2-.5-2.3-.5-2.3l-3.7.4z"/><path class="st2" d="M178.6 452.1l-4 3.1c-1.2 1-2.6 2.1-2.2 3.1.5 1 1.9 2 5.4 0 3.7-2 4.6-3.2 4.7-4.3.1-1.2-.5-2.3-.5-2.3l-3.4.4z"/><path class="st17" d="M177.9 455.7l-.8.4c0 .1.9 1.3.9 2v.2l1-.6c-.3-.5-.8-2-1.1-2z"/><path class="st4" d="M165.1 391.2l-.6 6.1 3.6 1.3.8-7.4zM169.4 414.4s0 7.6.6 15l1.7 22.9s.2 1.1 1.9.6c1.8-.5 1.5-2.2 1.5-3s.7-11.4.4-13.1c-.4-2.2.3-21.6.3-21.6l-6.4-.8zM176.3 414.9s0 7.6.6 15l1.7 22.9s.2 1.1 1.9.6c1.8-.5 1.5-2.2 1.5-3s1.4-10.9 1.1-12.6c-.4-2.2-.3-22.2-.3-22.2l-6.5-.7z"/><path class="st0" d="M172 379.8s-3.1-.1-5.4 3.1c-2.1 3-2.4 9.1-1.7 10 .6.9 3.3 1.1 4 1.1a39 39 0 003.1-14.2z"/><path class="st0" d="M175 379.2c-2.6 0-5.3.3-6.1 2.7-.8 2.4-2.1 7.7-1.1 9.2 1 1.5 1.5 9.2 1.4 11.7-.2 2.4-3.3 17-3.4 21.4v5.4s2 2.7 8.7 3.1c9.3.6 13.1-3.3 13.9-5.2a86 86 0 00-2.7-19.6c-1-3.9-.9-11.1-1.1-14.4-.2-3.2 1.3-9-1.6-11.6-3.7-3.1-5.4-2.7-8-2.7zM167.3 364.5s-.7 3-.8 7.5c-.1 4.2.6 6.7 2.1 6.8 1.5.1 6.7-.5 7.4-3.9 1.4-6.4-4.9-13.7-4.3-11.1l-4.4.7z"/><path class="st69" d="M172.8 373.9l.2 6.8s-.2 4.2 1.2 5.6c1.8-1.5 3.6-5.6 3.6-6.9 0-2.3-.4-6-.4-6l-4.6.5z"/><circle class="st69" cx="173.6" cy="371.6" r="6.6"/><path class="st0" d="M167.3 362c-1.6 2.6-1.6 10-.5 10.2.4.1-.4-4.9 3.1-6.6 5.9 4.8 8.1 6.6 9.4 5.4a7.4 7.4 0 001.5-8.9c-1.9-4-10.8-4.4-13.5-.1z"/><path class="st0" d="M181.4 363.4c1.9 3.2 3.6 7.2 1.2 12.1-.9 1.8-4.3 3.5-5.3 3-2.6-1.4 1.9-10.7-6.1-12.5 0 0 8.3-5.8 10.2-2.6z"/><path class="st38" d="M168 395.6l-9.8-3.7c-.7-.1-1.3.5-1.1 1.2l6 12.9c.1.4.3.7.7.8l10.3 4.9c.7.2 1.5-.4 1.3-1.2l-6.6-14.1a1 1 0 00-.8-.8z"/><path class="st4" d="M160.4 398.2s2.5.6 3.4 1.9c.8 1.3-.8 3.3-1.9 3.4-1.1.1-2.7-.6-2.7-1.8-.2-1.3.1-3.7 1.2-3.5zM188 392.2s2.6 8.5 1.1 10.4c-.7.8-7.1.8-9.9-.1-2.7-.9-6-3.5-7.1-3.8-1.1-.3-1.4.4-2-1.3-.1-.3-.2-1.7.1-2.1.4-.5 1.4-.5 1.1-.9-.7-1-3.8.6-3.9-.4-.2-1 3.8-1.3 4.4-1.2 1.9.2 2.4 1.2 2.9 2.4.5 1.1 2 2.2 2.8 2.6.8.3 4.6.3 7.5 1l-1.6-6.5 4.6-.1z"/><path class="st0" d="M184.8 383.6c-1.3-1.4-3.3-1.7-4.3 1.3s0 10 1.3 10.4c.8.3 6.4-.4 6.7-1.1.6-.9-1.5-8.1-3.7-10.6z"/><path class="st17" d="M176.5 456.3l-.7.4c0 .1.9 1.3.9 2v.1l1-.5c-.2-.4-.8-2-1.2-2z"/></g><path id="Wall_x5F_Back" class="st8" d="M212.9 89.7v124.4l144.2-82.9V6.8L212.9 89.7z"/><g id="Calendar"><path class="st70" d="M231.6 122.4l41.3-23.8v40.9l-41.3 23.7z"/><path class="st10" d="M233 123.4l41.4-23.8v40.9L233 164.3z"/><path class="st34" d="M236.6 125.5V158l34.2-19.6v-32.6l-34.2 19.7z"/><path class="st10" d="M247.5 139.6v-10.9l-1.5.9v-2.8l3.8-2.2v13.7l-2.3 1.3zM252.2 136.9l4.8-10.6c.4-.8.5-1.5.5-2 0-.9-.5-1.3-1.2-.9s-1.3 1.6-1.3 2.8l-2.3 1.3c0-1.3.3-2.6 1-4a6.3 6.3 0 012.5-2.8c1-.6 1.8-.6 2.4-.1.7.5 1 1.3 1 2.5 0 1.1-.3 2.2-.8 3.4l-2.4 5.3 3.5-2v2.8l-7.7 4.3zM240.5 147.3v4.1l4.3-2.5v-4.1l-4.3 2.5z"/><path class="st70" d="M246.3 144v4.1l4.3-2.5v-4.1l-4.3 2.5z"/><path class="st10" d="M252 140.8v4.1l4.3-2.5v-4.1l-4.3 2.5zM257.7 137.5v4.1l4.3-2.5V135l-4.3 2.5zM263.4 134.3v4.1l4.3-2.5v-4.1l-4.3 2.5z"/></g><path id="Floor_x5F_Top_1_" fill="#ebebeb" stroke="#fff" stroke-width="1.4" stroke-miterlimit="10" d="M212.8 214.3l143.6 83 144.2-83-143.9-82.9z"/><path id="Wall_x5F_Front" class="st2" d="M69.2 297v124.4l143.6 82.9V379.9L69.2 297zm135 192.4l-126.4-73V311.9l126.4 73v104.5z"/><path id="Toof_x5F_Front" class="st8" d="M69.2 297l143.6 82.9L357 297l-143.9-83z"/><g id="Cube"><path class="st72" d="M297 359.5l-2.4 1.4 2.4 1.5 2.5-1.5zM299.6 360.9l-2.5 1.5 2.5 1.4 2.4-1.4z"/><path class="st72" d="M302 362.4l-2.4 1.4 2.4 1.4 2.5-1.4zM299.5 358.1l-2.4 1.4 2.4 1.4 2.5-1.4zM302 359.5l-2.4 1.4 2.4 1.5 2.5-1.5z"/><path class="st73" d="M304.5 361l-2.5 1.4 2.5 1.4 2.5-1.4z"/><path class="st72" d="M302 356.7l-2.5 1.4 2.5 1.4 2.4-1.4zM304.5 358.1l-2.5 1.4 2.5 1.5 2.4-1.5zM306.9 359.6l-2.4 1.4 2.4 1.4 2.5-1.4z"/><path class="st74" d="M299.5 372.3v-2.8l2.5 1.4v2.8z"/><path class="st74" d="M299.5 369.5v-2.9l2.5 1.5v2.8zM299.5 366.6v-2.8l2.5 1.4v2.8zM297 370.9v-2.8l2.5 1.4v2.8z"/><path class="st74" d="M297 368.1v-2.8l2.5 1.4v2.8zM297 365.2v-2.8l2.5 1.4v2.8zM294.6 369.5v-2.8l2.4 1.4v2.8z"/><path class="st74" d="M294.6 366.7v-2.8l2.4 1.4v2.8zM294.6 363.8V361l2.4 1.4v2.8z"/><path class="st73" d="M304.4 372.3v-2.8l-2.4 1.4v2.8z"/><path class="st73" d="M304.4 369.5v-2.9L302 368v2.9z"/><path class="st73" d="M304.4 366.7v-2.9l-2.4 1.4v2.9zM306.9 370.9V368l-2.4 1.5v2.8z"/><path class="st73" d="M306.9 368.1v-2.9l-2.4 1.4v2.9z"/><path class="st72" d="M306.9 365.3v-2.9l-2.4 1.4v2.9z"/><path class="st73" d="M309.4 369.5v-2.9l-2.5 1.4v2.9z"/><path class="st73" d="M309.4 366.7v-2.9l-2.5 1.4v2.8z"/><path class="st73" d="M309.4 363.8V361l-2.5 1.4v2.8z"/></g><g id="Man_x5F_upstairs"><path class="st36" d="M419.9 127.1c.8-1.8-.9-4-2.6-3.4.1-1.7-2.9-3.2-5-.8v-1.4c-.1-.1-1.3.6-1.7 1.4v-1.7c-.1-.2-1.4.2-2 1.5-1.3-1.6-4.4.3-4.1 2.1-2-.2-3.7 2.4-1.9 4.2-1.5 1.5-1.4 4.4.5 5.3 1.1 2.8 4.1 2.1 9.8 1.1 5.6-1 6.7-1.7 6.6-4.4 2.2-.5 1.8-3.5.4-3.9z"/><path class="st21" d="M421.3 221.1l3.1 2.8c1.1.9 2.5 2 2 2.9-.4.9-1.7 1.9-5.1 0-3.4-1.9-4.3-3-4.3-4.1-.1-1.1.4-2.1.4-2.1l3.9.5z"/><path class="st0" d="M424.2 183.5s2.7 11.3 3 18.1c-.7 7.7-4.2 20.9-4.2 20.9s-1.7 1.1-3.5.6c-1.9-.5-2.3-1.2-2.3-2s1.1-14.7 1.5-16.4c.4-2.3-5.3-18.9-5.3-18.9l10.8-2.3z"/><path class="st21" d="M409.6 223.2l3.1 2.8c1.1.9 2.5 2 2 2.9-.4.9-1.8 1.9-5.1 0-3.4-1.9-4.3-3-4.4-4.1-.1-1.1.4-2.1.4-2.1l4 .5z"/><path class="st0" d="M416.6 183.9s-1.4 11.8-2.1 19.5c-.7 7.7-3.8 20.8-3.8 20.8s-1.4 1.1-3.2.6c-1.9-.5-2.4-.8-2.4-1.6s1.1-17.1 1.4-18.8c.4-2.3-2.3-20.5-2.3-20.5h12.4z"/><path class="st75" d="M414.2 145.7c2.7 0 5.7.3 6.4 2.8 5.8 22.1 5.7 23.9 5.1 33.8-.3 4.6-22.2 7.5-22.6 5.3-.4-2.2-.9-18.2 1.1-27 .8-3.3-4.9-8.1-1.8-10.8 3.9-3.2 9.2-4.1 11.8-4.1z"/><path class="st4" d="M414.9 140.6s1.5 7.2.7 7.8c-.8.6-5.7.2-5.7-2.2 0-2.4.6-6.2.6-6.2l4.4.6z"/><ellipse transform="rotate(-88.7 412.6 135) scale(.99997)" class="st4" cx="412.6" cy="134.9" rx="8.2" ry="7"/><path class="st4" d="M423.3 171.3s-2.7.4-3.6 1.8c-.9 1.3.7 3.5 1.8 3.6s2.8-.5 3-1.7c.1-1.4 0-3.9-1.2-3.7z"/><path class="st36" d="M405.5 130.4c1-2.5 2-4.8 5.3-5 .5-.7 4.4-2.1 6.1.3 1.3.9 2.3.8 2.7 1.8 2.7 5.7 0 6.2 0 6.2-.7-.2-1.4-2.2-1.2-2.9-1.2.6-3-.6-3.2-1.7-.6 1.2-2.6.8-3.2 0-1.2 1.9-3.2 1.6-3.7 1.2-1.8 1.1.8 4.6-.5 4.7-1.3.1-.2-1.2-1.6-.6-.5.2-.6 1.7 0 3.3.6 1.6-1.2.8-1.8 0-.8-1.1-1.3-1.6 1.1-7.3z"/><path class="st4" d="M400.5 163.1s-.7 9.2-.3 12.2c.4 3.1 2.6 8 2.9 9.2.3 1.2-.5 4.4 1.2 5.9 2.3 1.9 4.3-.5 3.4-3.4a35.1 35.1 0 01-2.5-11.2c-.2-1.8 1.2-14.1 1.2-14.1l-5.9 1.4z"/><path class="st75" d="M401.2 151.3c1-1.8 3.9-2.9 5.7 0 1.8 2.8 1.9 12.7.7 13.5-.8.5-2.7.2-4.1 0a7.4 7.4 0 01-4-1.9c-.9-1 .1-8.6 1.7-11.6z"/><path class="st4" d="M428.1 155.9a24 24 0 011.8 9c-.8 3.6-5.6 9-5.6 9l-2.1-1.4 3.4-8.1-2.7-10.1c-.1 0 4-1.9 5.2 1.6z"/><path class="st75" d="M417.8 146.9s4.4-1.3 7.1 1.8c2.5 2.9 5.3 8.3 4.7 9.3-.6 1-5.1 3.6-5.8 3.6-.7 0-5.9-10.6-6-14.7z"/><g><path class="st6" d="M474.9 177.6v28.2l-2.8-1.6V176z"/><path class="st8" d="M387.7 191.1l59.1-34.3 29.5 17.2-59 34z"/><path class="st9" d="M417.3 210.3V208l59-34v1.9z"/><path class="st2" d="M387.7 191.1l29.6 16.9v2.3l-29.6-17z"/><path class="st7" d="M390.6 195.6v28.2l1.4-1v-26.5zM476.3 176.3v-.4l-59 34.4v28.9l1.4-1v-25.9l56.2-32.7v26.2l1.4-1z"/><path class="st6" d="M417.3 210.3l-29.6-16.9v28.8l2.9 1.6v-26l23.9 13.7v26.1l2.8 1.6z"/></g><g><path class="st13" d="M409.1 199.2l.1-.7 8.5-4.3s.3 1.1-.6 1.5l-8 3.5z"/><path class="st7" d="M397.3 190l8-3.6c.8-.3 1.7-.3 2.3.2l9.7 7c.5.4.4 1.1-.1 1.4l-8 3.5-11.9-8.5z"/><path class="st21" d="M397.3 190l11.9 8.5-.1.7-11.9-8.5z"/><path class="st6" d="M399.1 189.2l-1.8.8 11.9 8.5 1.8-.8z"/></g><g><path class="st13" d="M442.7 184.1l-12.5-.3a.6.6 0 00-.6 0l-9.1 3.2c-.4.2-.4.8 0 1.1l8.1 4.7h.6l13.5-7.7c.4-.2.4-.7 0-1z"/><path class="st13" d="M443 184.6l-22.8 3v-1.3l22.8-2.8z"/><path class="st7" d="M442.7 182.9l-8.1-4.7a.6.6 0 00-.6 0l-13.5 7.7c-.4.2-.4.8 0 1.1l8.1 4.7h.6l13.5-7.7c.4-.3.4-.9 0-1.1z"/><path class="st13" d="M434.8 185l-3.2 1.9V182l3.2-1.8z"/><path class="st6" d="M429.4 185.6l2.2 1.3V182l-2.2 1.4z"/><g><path class="st11" d="M412 165l35.4-20.4c1.4-.8 3.2.2 3.2 1.8l.1 25.6c0 .8-.4 1.5-1.1 1.8l-35.5 20.4c-1.4.8-3.2-.2-3.2-1.8v-25.6c0-.7.4-1.4 1.1-1.8z"/><path class="st12" d="M447.4 144.6l-13.2 7.6-8.9 35.7 24.3-14c.7-.4 1.1-1.1 1.1-1.8l-.1-25.6c0-1.7-1.8-2.7-3.2-1.9z"/><path class="st6" d="M447.1 145.1c.2 0 .5.2.5.5l.1 25.6c0 .2-.1.4-.3.5L412 192.2l-.3.1c-.2 0-.5-.2-.5-.5v-25.6c0-.2.1-.4.3-.5l35.4-20.4.2-.2m0-1.6c-.4 0-.7.1-1.1.3l-35.4 20.4c-.7.4-1.1 1.1-1.1 1.8v25.6a2.1 2.1 0 003.2 1.8l35.5-20.4c.7-.4 1.1-1.1 1.1-1.8l-.1-25.6c.1-1.2-1-2.1-2.1-2.1z"/><path class="st6" d="M446.1 144.5l1.8-.8 1.7.9-3.5.8zM410.8 193.6l1.4.8-.5-4.4-.8.1z"/><path class="st13" d="M412 165l35.4-20.4c1.4-.8 3.2.2 3.2 1.8l.1 25.6c0 .8-.4 1.5-1.1 1.8l-35.5 20.4c-1.4.8-3.2-.2-3.2-1.8v-25.6c0-.7.4-1.4 1.1-1.8z"/></g><path class="st8" d="M433.2 167l-2.4 1.4-1.2 3.1 1.2 1.7 2.4-1.4 1.2-3.1z"/></g></g><path id="Wall_x5F_Facade" class="st9" d="M500.6 89.6l-144.2 82.9v124.7l-143.6 82.6v124.4L501 338.4l-.4-248.8zm-135.5 87.9l126.9-73V209l-126.9 73V177.5zm-16.8 238.9l-126.9 73V384.9l126.9-73v104.5zm144.1-82.9l-126.9 73V301.9l126.9-73v104.6z"/><g id="Table"><path class="st6" d="M322.1 158.6v27.6l-1.3-.8v-27.6z"/><path class="st7" d="M253.2 168.8v25.5l2.1-1.4v-25.3zM324.2 156.8v-.3l-43.8 25.3v28.3l2.1-1.4v-25.3l39.7-22.9v25.7l2.1-1.4z"/><path class="st6" d="M280.4 181.8l-28.7-16.6v28.2l1.5.8v-25.5l25.9 15.1v25.5l1.3.8z"/><path class="st8" d="M251.7 162.9l43.8-25.3 28.7 16.9-43.8 25z"/><path class="st9" d="M280.4 181.7v-2.2l43.8-25v2z"/><path class="st2" d="M251.7 162.9l28.7 16.6v2.2l-28.7-16.6z"/></g><g id="Woman_x5F_upstairs"><path class="st5" d="M327.2 249.6l2.8 2.5c1 .8 2.2 1.8 1.8 2.6-.4.8-1.6 1.7-4.5 0-3-1.7-3.8-2.7-3.9-3.6 0-1 .4-1.9.4-1.9l3.4.4z"/><path class="st21" d="M329.8 210.8s0 7.9-.7 15.6c-.7 7.7-1.7 23.9-1.7 23.9s-.2 1.1-2 .6c-1.9-.5-1.6-2.3-1.6-3.1s-.8-11.9-.4-13.7c.4-2.3 1.1-4.1.6-5.6-.4-1.4-1-17-1-17l6.8-.7z"/><path class="st5" d="M319.2 251.6l2.8 2.5c1 .8 2.2 1.8 1.8 2.6-.4.8-1.6 1.7-4.5 0-3-1.7-3.8-2.7-3.9-3.6 0-1 .4-1.9.4-1.9l3.4.4z"/><path class="st21" d="M321.8 212.9s0 7.9-.7 15.6c-.7 7.7-1.7 23.9-1.7 23.9s-.2 1.1-2 .6c-1.9-.5-1.6-2.3-1.6-3.1s-.8-11.9-.4-13.7c.4-2.3 1.1-4.1.6-5.6-.4-1.4-1-17-1-17l6.8-.7z"/><path class="st5" d="M327 174.7s3.3-.1 5.6 3.2c2.2 3.1 2.5 9.5 1.8 10.4-.7.9-3.4 1.2-4.2 1.1-.6 0-3.5-10.6-3.2-14.7z"/><path class="st5" d="M323.9 174.1c2.7 0 5.6.3 6.4 2.8.8 2.5 2.2 8 1.2 9.6-1 1.6-1.6 9.6-1.4 12.2.2 2.5.9 10.9 1 15.6.1 4.7-.6 11.4-.6 11.4s-2 1.5-7.7 1.5c-5.9 0-11-1.1-11-1.1-.8-1.9-.9-11.6.1-20 .5-4.2 2-13.7 2.2-17 .2-3.4-1.4-9.4 1.7-12.1 3.6-3.2 5.4-2.9 8.1-2.9z"/><path class="st4" d="M324.6 169s.2 6.9-.5 7.5c-.8.6-4.4.4-4.4-2s.6-6.2.6-6.2l4.3.7z"/><path class="st10" d="M323 192.2l21-12.2v22.1l-21 12.1z"/><path class="st4" d="M343.7 191.2s-2.6.6-3.5 2c-.9 1.4.9 3.4 2 3.5s2.8-.7 2.8-1.9c0-1.3-.2-3.8-1.3-3.6zM309.9 190.3s-1.3 7.4-.8 8.5c.5 1 4.1 3.4 6.9 4.4 2.8 1 5 1.2 6.1 1.7 1.1.4 2.6 1.1 4.1.1 1.5-1 3-3.8 1.3-4.8s-3.3-.5-4.4.1c-1.1.6-1.8.4-2.6.1-.9-.2-3.2-2.6-6-3.9l1.4-4.9-6-1.3z"/><path class="st5" d="M313.2 177.9c1.4-1.5 4.5-1.8 5.5 1.4s-1.4 12.8-2.7 13.2c-.9.3-2 .3-3.6-.1-1.9-.4-2.4-2-2.8-2.6-.6-1.1 1.2-9.3 3.6-11.9z"/><path class="st53" d="M316.4 160.6s-4.6.6-5-2.2c-.5-2.8 1.8-5.9 3.7-5.9 1.8 0 4 3.4 3.9 4.6-.1 1.1-2.6 3.5-2.6 3.5z"/><circle class="st4" cx="323.1" cy="162.6" r="8.1"/><path class="st53" d="M317.2 157.1a8 8 0 00-.4 10.4c.9 1.2 2 2 3.3 2.5a8 8 0 00.4-10.4 10 10 0 00-3.3-2.5z"/><path class="st53" d="M327.9 159.9c.7-.6 1.3-1.2 1.8-1.9l-.2-.3a8 8 0 00-11.3-1.4c-1 .8-1.7 1.7-2.3 2.8a9.2 9.2 0 0012 .8z"/></g><path id="Wall" class="st2" d="M213.2 89.6V214l143.6 83V172.6l-143.6-83zm135 192.4l-126.4-73V104.6l126.4 73V282z"/><path id="Roof_x5F_Top" class="st8" d="M212.8 89.6l143.6 83 144.2-83L356.7 6.7z"/><g id="Papers"><path class="st10" d="M277.9 154.5l17 9.9-12.2 6.8-16.7-9.8z"/><path class="st7" d="M280.1 154.5l15.3 10.1-13.3 6.6-15.1-10.1z"/><path class="st10" d="M278.1 155.6l19.9 9.2-10.1 7.2-19.6-9.2z"/><path class="st7" d="M279.9 158.4l.7.3-6.8 4.8-.4-.2zM281.5 159l.6.2-6.7 4.8-.5-.2zM282.8 159.5l.7.3-6.8 4.8-.4-.2zM284.5 160.2l.7.3-6.8 4.8-.4-.2z"/></g><g id="Plant"><path class="st8" d="M465.7 306.8l-15 8.6 15 8.7 15-8.7z"/><path class="st6" d="M465.7 308.3l-12.4 7.1 12.4 7.2 12.5-7.2z"/><path class="st7" d="M465.7 308.3l-12.4 7.1 12.4 7.2z"/><path class="st2" d="M450.7 332.7v-17.3l15 8.7v17.3z"/><path class="st9" d="M480.7 332.9v-17.5l-15 8.7v17.3z"/><path class="st18" d="M465.7 311.8l-9.4 5.4 9.4 5.4 9.4-5.4z"/><path class="st30" d="M464.5 317.9c0 1-1.5 1-1.5 0v-41.7l1.5 41.7z"/><path class="st31" d="M462.2 319c0 1-1.5 1-1.5 0l-1-31.6 2.5 31.6z"/><path class="st30" d="M469.5 318.8c0 1-1.5 1-1.5.1l2.3-39.3-.8 39.2z"/><path class="st32" d="M459.9 317.3c0 1-1.5 1-1.5 0l-2.9-26.4 4.4 26.4z"/><path class="st31" d="M471.6 316.1c0 .7-1.4.7-1.4 0l2.6-31.4-1.2 31.4z"/><path class="st32" d="M473.2 317.5c0 .7-1.4.7-1.4 0l4.8-29.8-3.4 29.8zM466.2 314.9c0 .7-1.4.7-1.4 0l.6-32.6.8 32.6z"/><path class="st31" d="M467.3 320.8c0 .7-1.4.7-1.4 0l2.3-32.6-.9 32.6z"/></g><g id="Pancarte"><path class="st9" d="M417.7 56.7v12.8l4.7-2.6V54z"/><path class="st2" d="M410.2 52.6l7.5 4.1v12.8l-7.5-4.5z"/><path class="st6" d="M306 121.2V76.6l-7.6-4.1v44.6z"/><path fill="#adadad" d="M306 121.1l116.3-67V9.4L306 76.4z"/><path fill="#bdbdbd" d="M414.7 5.4l7.6 4.1L306 76.6l-7.6-4.1z"/><path class="st9" d="M306 121.2V134l4.7-2.6v-13z"/><path class="st2" d="M298.4 117.1l7.6 4.1V134l-7.6-4.6z"/><path class="st10" d="M326.4 89.5c1.1.6 2.3.5 3.9-.4 1.3-.7 2-1.8 2-2.7 0-.5-.2-.8-.5-.9h-2c-2 .2-3.1-.5-3.1-2.8 0-1.3.4-2.6 1.2-3.8.8-1.2 1.8-2.2 2.9-2.9s2.2-.9 3.1-.7v3.4c-.8-.4-1.8-.3-3 .4-1.1.6-1.7 1.4-1.7 2.1 0 .4.1.7.6.8l.6.1h1.5c1.1 0 1.9.1 2.3.6.5.4.7 1.2.7 2.4 0 2.7-1.6 5.5-4.4 7.1-1.5.8-2.8 1.2-4 .9v-3.6zM342.3 85V72.8l-3.1 1.8v-3.1l8.7-5v3.1l-3.1 1.8v12.3l-2.5 1.3zM353.3 63.4l2.5-1.5v8.8c0 2.5.8 3.3 2.4 2.4 1.6-.9 2.3-2.6 2.3-5.1v-8.8l2.5-1.5v9.1c0 2.1-.5 3.9-1.4 5.6a9 9 0 01-3.5 3.7c-1.4.8-2.6.9-3.5.4-.9-.6-1.4-1.9-1.4-4v-9.1zM369.4 69.4V54.1l4.4-2.5c2-1.1 3.5-1.3 4.5-.5 1.1.8 1.6 2.3 1.6 4.6s-.5 4.5-1.6 6.5c-1 2-2.5 3.5-4.5 4.7l-4.4 2.5zm2.5-4.5l1.7-1a7.2 7.2 0 003.7-6.7c0-1.4-.3-2.4-.8-2.9s-1.5-.4-2.9.4l-1.7 1v9.2zM385.8 60V44.7l2.5-1.5v15.3l-2.5 1.5zM396 40.8c1.2-2.2 2.7-3.8 4.4-4.8 1.7-1 3.2-1 4.3-.2 1.2.8 1.8 2.4 1.8 4.6a14 14 0 01-1.8 6.7 11.5 11.5 0 01-4.4 4.8c-1.7 1-3.2 1-4.4.2-1.2-.9-1.8-2.4-1.8-4.6s.7-4.5 1.9-6.7zm1.8 8.1c.7.5 1.6.5 2.6-.1a6 6 0 002.5-2.9c.7-1.4 1.1-2.7 1.1-4.1s-.3-2.3-1-2.8-1.6-.5-2.6 0a8.5 8.5 0 00-3.6 6.9c0 1.5.3 2.4 1 3z"/></g><g id="Fox"><path class="st52" d="M416.5 48.5h16.9l-1.2 14.3-7.3 8.9-7.2-8.9z"/><path class="st53" d="M435.4 34.2l-6.1-4.6h-8.7l-6.1 4.6v4l6.1 10.2h8.7l6.1-10.2z"/><path class="st54" d="M429.3 29.6l6.1-5.3v9.9z"/><path class="st53" d="M432.9 22.8l2.5 1.5-6.1 5.3z"/><path class="st54" d="M420.6 29.6l-6.1-5.3v9.9z"/><path class="st53" d="M416.9 22.8l-2.4 1.5 6.1 5.3z"/><circle class="st55" cx="429.4" cy="40" r="1"/><circle class="st55" cx="420.5" cy="40" r="1"/><path class="st52" d="M429.3 48.4h-8.7l2.2-9.4h4.3z"/><path class="st56" d="M429.3 48.4l-4.4-1.2-4.3 1.2v4.3h8.7z"/><path class="st57" d="M420.6 48.4v4.3l-9.1-8.6 3-5.9z"/><path class="st58" d="M423.3 51.5v-1.9l1.6-.5 1.6.5v1.9z"/><path class="st53" d="M435.4 46.9l-2 1.6-1.2 14.3-7.3 8.9 7.4 15.8 21.5-4.8-3.9-22.6z"/><path class="st57" d="M429.3 48.4v4.3l9.1-8.6-3-5.9z"/><path class="st54" d="M417.7 62.8l7.2 8.9-5 21.1h-2.2zM432.2 62.8l-7.2 8.9 5 21.1h2.2z"/><path class="st54" d="M423.4 98.1l-.1-11.1 30.5-4.3z"/><path class="st57" d="M408.8 87l14.6 11.1-.1-11.1z"/></g></g><path d="M108.2 534l-64.4-36.7a10 10 0 01.2-17.4L162 412" style="animation:Line_DONE_dashoffset 9000ms linear infinite normal forwards" fill="none" stroke="#22d160" stroke-width="2" stroke-miterlimit="10" stroke-dasharray="2,6"/><path class="st82" d="M431.3 546.3L285 631.8a10 10 0 01-10 0l-112.8-64.3" style="animation:Line_WIP2_dashoffset 9000ms linear infinite normal forwards"/><path style="animation:Line_RETAKE_dashoffset 9000ms linear infinite normal forwards" fill="none" stroke="#ff195e" stroke-width="2" stroke-miterlimit="10" stroke-dasharray="2,6" d="M388.6 517.3l-159.8-91.7"/><path style="animation:Line_SHIPMENT_dashoffset 9000ms linear infinite normal forwards" fill="none" stroke="#c149c4" stroke-width="2" stroke-miterlimit="10" stroke-dasharray="2,6" d="M497.5 450.3l-160.4-94.2"/><path class="st82" d="M179.6 332.1v-51.9a10 10 0 015.1-8.7l121.5-69" style="animation:Line_WIP_dashoffset 9000ms linear infinite normal forwards"/><path d="M440.7 170l228.5 131.6a10 10 0 015 8.7v32" style="animation:Line_FEEDBACK_dashoffset 9000ms linear infinite normal forwards" fill="none" stroke="#ffab0d" stroke-width="2" stroke-miterlimit="10" stroke-dasharray="2,6"/><g style="animation:Label_DONE_transform 9000ms linear infinite normal forwards"><path d="M93.3 463.3l-36 20.8c-6.5 3.8-11.8.7-11.8-6.8s5.3-16.7 11.8-20.5l36-20.8c6.5-3.8 11.8-.7 11.8 6.8.1 7.5-5.2 16.7-11.8 20.5z" fill="#1a9d48"/><path class="st50" d="M96.1 464.7l-36 20.8c-6.5 3.8-11.8.7-11.8-6.8s5.3-16.7 11.8-20.5l36-20.8c6.5-3.8 11.8-.7 11.8 6.8a26 26 0 01-11.8 20.5z"/><path class="st87" d="M69.1 467.5a9 9 0 01-1.2 4.5l-1.4 1.9c-.5.6-1.2 1-1.8 1.4l-3.4 1.9v-10.3l3.4-1.9a6 6 0 011.8-.7c.5-.1 1 0 1.4.2.4.2.7.6.9 1.1s.3 1.1.3 1.9zm-1.5.9l-.2-1.5c-.1-.4-.3-.7-.6-.8l-.9-.2c-.3 0-.8.2-1.2.5l-1.9 1.1v7.6l1.9-1.1c.5-.3.9-.6 1.2-1s.7-.8.9-1.3l.6-1.5.2-1.8zM79.1 461.8a9 9 0 01-1.2 4.5l-1.4 1.9c-.5.6-1.2 1.1-1.8 1.4a6 6 0 01-1.8.7c-.5.1-1 0-1.4-.3-.4-.2-.7-.6-.9-1.1s-.3-1.2-.3-1.9l.3-2.3s.5-1.5.9-2.2l1.4-1.9c.5-.6 1.2-1.1 1.8-1.4a6 6 0 011.8-.7c.5-.1 1 0 1.4.3.4.2.7.6.9 1.1.1.5.3 1.1.3 1.9zm-1.5.8a6 6 0 00-.2-1.5c-.1-.4-.3-.7-.6-.9-.3-.2-.6-.3-.9-.2a2 2 0 00-1.2.5 4 4 0 00-1.2 1c-.4.4-.7.8-.9 1.3l-.6 1.5-.2 1.7.2 1.5c.1.4.3.7.6.9.3.2.6.2.9.2.4 0 .8-.2 1.2-.4a4 4 0 001.2-1c.4-.4.7-.8.9-1.3l.6-1.5.2-1.8zM88 451.4v10.3l-.7.4-.3.1-.2-.1-4.9-4.4v7.6l-1.3.7v-10.3l.8-.4.2-.1h.2l.1.1 4.9 4.4v-.4V452.2l1.2-.8zM95.7 455.9v1.4l-5.6 3.2v-10.3l5.6-3.2v1.4l-4.1 2.4v3.1l3.3-1.9v1.3l-3.3 1.9v3.2l4.1-2.5"/><g><path class="st88" d="M149 429.1l-19.6 11.3M123.8 443.7l-12.6 7.2M133.1 428.5l-15.8 9.1M143.8 422.3l-5.6 3.2M144.3 412.2l-32.6 18.9M153.6 406.8l-4.6 2.7"/><g><path class="st89" d="M150.4 429.8l-19.6 11.3M125.2 444.3l-12.6 7.3M134.5 429.1l-15.8 9.2M145.3 422.9l-5.6 3.3M145.7 412.9l-32.6 18.8M155.1 407.5l-4.7 2.7"/></g></g></g><g style="animation:Label_FEEDBACK_transform 9000ms linear infinite normal forwards"><path d="M579.6 261.2l-58.3-33.6a22.9 22.9 0 01-10.4-18.1c0-6.7 4.7-9.4 10.4-6l58.3 33.6a22.9 22.9 0 0110.4 18.1c0 6.6-4.6 9.3-10.4 6z" fill="#ffbc3d"/><path class="st59" d="M576.7 262.7l-58.3-33.6A22.9 22.9 0 01508 211c0-6.7 4.7-9.4 10.4-6l58.3 33.6a22.9 22.9 0 0110.4 18.1c.1 6.7-4.6 9.4-10.4 6z"/><path class="st87" d="M520.9 215.9v2.9l3.1 1.8v1.2l-3.1-1.8v3.8l-1.3-.7V214l4.9 2.8v1.2l-3.6-2.1zM530.8 228.3v1.2l-4.9-2.8v-9.1l4.9 2.8v1.2l-3.6-2.1v2.7l2.9 1.7v1.2l-2.9-1.7v2.8l3.6 2.1zM537 231.9v1.2l-4.9-2.8v-9.1l4.9 2.8v1.2l-3.6-2.1v2.7l2.9 1.7v1.2l-2.9-1.7v2.8l3.6 2.1zM545.3 233.4c0 .7-.1 1.2-.3 1.7s-.5.8-.8 1c-.3.2-.8.3-1.2.2l-1.6-.6-3-1.7v-9.1l3 1.7c.6.3 1.1.8 1.6 1.3s.9 1 1.2 1.6l.8 1.9c.2.6.3 1.3.3 2zm-1.3-.8l-.2-1.5-.5-1.4-.8-1.1-1.1-.9-1.7-1v6.7l1.7 1c.4.2.8.4 1.1.4.3 0 .6 0 .8-.2.2-.2.4-.4.5-.8l.2-1.2zM549.4 231.1l1.3.9c.4.3.7.6.9 1l.5 1 .2 1.1-.1.6-.3.4-.4.2h-.6c1.1.9 1.7 1.9 1.7 3l-.2 1-.5.5h-.9c-.4-.1-.8-.2-1.2-.5l-2.9-1.7v-9.1l2.5 1.6zm-1.4.4v2.8l1.3.7c.5.3 1 .4 1.2.3s.4-.4.4-.8a2 2 0 00-.4-1.3 3 3 0 00-1.2-1l-1.3-.7zm1.6 7.7l.7.3h.5l.3-.3.1-.5a2 2 0 00-.4-1.2l-1.2-1.1-1.6-.9v2.9l1.6.8zM560.4 246.6l-1-.6-.3-.3-.2-.3-.7-2.4-3.4-2-.7 1.6-.2.1h-.3l-1-.6 3.1-7.3 1.3.7 3.4 11.1zm-2.5-4.8l-1.1-3.9-.3-1.1-.1.5-.1.4-1.1 2.7 2.7 1.4zM566.5 248.1l.2.2.5.9c-.3.3-.7.4-1.2.4s-1-.2-1.7-.6c-.6-.3-1.1-.7-1.6-1.2s-.9-1-1.2-1.6l-.8-1.9a7 7 0 01-.3-2c0-.7.1-1.3.3-1.7.2-.5.5-.8.8-1s.7-.3 1.2-.2c.5 0 1 .2 1.6.6.6.3 1.1.7 1.5 1.2l1.1 1.5-.4.4-.1.1h-.2c-.1 0-.2-.1-.2-.3l-.4-.5-.5-.6-.8-.6-1-.4c-.3 0-.6 0-.8.2-.2.2-.4.4-.5.8l-.2 1.3.2 1.5.5 1.4.8 1.1 1 .8.6.3.5.1h.4l.4-.1.3-.1zM569.6 246.7l.4.2.3.1.2-.1 2.4-1.9.3-.1.3.1 1.1.6-2.8 2.2-.2.1h-.2l.3.4.3.5 2.9 6-1.1-.6-.2-.1-.1-.1-.1-.2-.1-.2-2.5-4.9-.1-.2-.1-.2-.2-.2-.2-.1-.5-.3v4.1l-1.3-.7V242l1.3.7v4z"/><g><path class="st91" d="M594.7 249.3l23.2 13.4M623.5 265.9l12.6 7.3M614.2 270.3l15.8 9.2M599.8 262l9.2 5.4M603 273.7l32.6 18.8M593.7 268.3l4.6 2.7"/><g><path class="st92" d="M593.2 250.1l23.2 13.4M622 266.7l12.6 7.3M612.7 271.2l15.8 9.1M598.3 262.9l9.2 5.3M601.5 274.5l32.6 18.8M592.2 269.1l4.6 2.7"/></g></g></g><g style="animation:Label_RETAKE_transform 9000ms linear infinite normal forwards"><path class="st93" d="M286.5 467.8l-19.6-11.3M261.3 453.3l-12.6-7.3M270.7 448.8l-15.9-9.1M281.4 455l-5.6-3.2M281.8 445.5l-32.6-18.8M291.2 450.9l-4.7-2.7"/><g><path class="st94" d="M285.7 468.8l-19.6-11.3M260.5 454.3l-12.6-7.3M269.8 449.8l-15.8-9.1M280.6 456l-5.6-3.2M281 446.5l-32.6-18.8M290.4 451.9l-4.7-2.7"/></g><g><path d="M350.5 505.5l-41.1-23.9a22.9 22.9 0 01-10.4-18.1c0-6.7 4.7-9.4 10.4-6l41.1 23.9a22.9 22.9 0 0110.4 18.1c.1 6.7-4.6 9.4-10.4 6z" fill="#ff477e"/></g><g><path class="st14" d="M347.7 507.1l-41.1-23.9a22.9 22.9 0 01-10.4-18.1c0-6.7 4.7-9.4 10.4-6l41.1 23.9a22.9 22.9 0 0110.4 18.1c0 6.6-4.7 9.3-10.4 6z"/><path class="st87" d="M314 480.6l-1.1-.7a1 1 0 01-.5-.6l-1.8-4.1-.2-.3-.3-.3-.7-.4v3.7l-1.3-.7v-9.1l2.3 1.3c.5.3 1 .6 1.3 1l.9 1.1.5 1.1.2 1.2-.1.8-.4.5-.6.3-.8-.1.4.7 2.2 4.6zm-3.7-6.9c.3.2.5.3.8.3h.5l.3-.3.1-.6c0-.5-.1-1-.4-1.4-.3-.4-.7-.8-1.3-1.1l-1-.6v3.2l1 .5zM319.9 482.8v1.2l-4.9-2.8v-9.1l4.9 2.8v1.2l-3.6-2.1v2.7l2.9 1.7v1.2l-2.9-1.7v2.8l3.6 2.1zM326.7 480.1l-2.5-1.4v7.9l-1.3-.7V478l-2.5-1.4v-1.2l6.2 3.6v1.1zM333.6 491.9l-1-.6-.3-.3-.2-.3-.7-2.4-3.4-2-.7 1.6-.2.1h-.3l-1-.6 3.1-7.3 1.3.7 3.4 11.1zm-2.4-4.8l-1.1-3.9-.3-1.1-.1.5-.1.4-1.1 2.7 2.7 1.4zM335.8 488l.4.2.3.1.2-.1 2.4-1.9.3-.1.3.1 1.1.6-2.8 2.2-.2.1h-.2l.3.4.3.5 2.9 6-1.1-.6-.2-.1-.1-.1-.1-.2-.1-.2-2.5-4.9-.1-.2-.1-.2-.2-.2-.2-.1-.5-.3v4.1l-1.3-.7v-9.1l1.3.7v4zM346.8 498.3v1.2l-4.9-2.8v-9.1l4.9 2.8v1.2l-3.6-2.1v2.7l2.9 1.7v1.2l-2.9-1.7v2.8l3.6 2.1z"/></g></g><g style="animation:Label_WIP2_transform 9000ms linear infinite normal forwards"><path class="st96" d="M389.3 583.1l-23 13.2c-6.3 3.7-11.5.7-11.5-6.6s5.1-16.2 11.5-19.9l23-13.2c6.3-3.7 11.5-.7 11.5 6.6s-5.2 16.2-11.5 19.9z"/><path class="st75" d="M392.1 584.5l-23 13.2c-6.3 3.7-11.5.7-11.5-6.6s5.1-16.2 11.5-19.9l23-13.2c6.3-3.7 11.5-.7 11.5 6.6a25.6 25.6 0 01-11.5 19.9z"/><path class="st87" d="M381.5 573l-2.7 11.5-1.3.7-2-6-.1-.2-.1-.3-.1.3-.1.3-2 8.4-1.3.7-2.7-8.4 1.2-.7.3-.1.2.2 1.6 5.5.1.4.1.5.1-.6.1-.5 1.9-7.5.2-.4.3-.3.4-.2.3-.1.2.2 1.9 5.3.1.4.1.4.1-.5.1-.5 1.6-7.3.2-.4.3-.3 1-.5zM384 581.5l-1.4.8v-10l1.4-.8v10zM388.8 568.8l1.5-.6h1c.3.1.5.3.6.6l.2 1.2a5.9 5.9 0 01-.8 2.8l-1 1.3-1.4 1.1-1.3.7v3.6l-1.4.8v-10l2.6-1.5zm0 5.1l.8-.6.6-.7.4-.8.1-.9-.1-.7a.8.8 0 00-.4-.4.6.6 0 00-.6 0l-.8.4-1.3.7v3.8l1.3-.8z"/><g><path class="st97" d="M345.4 606.1l-19.6 11.3M320.2 620.6l-12.6 7.3M329.5 605.4l-15.8 9.2M340.2 599.2l-5.5 3.3M340.7 589.2L308.1 608M350 583.8l-4.6 2.7"/></g><g><path class="st98" d="M346.8 606.7L327.2 618M321.6 621.3l-12.6 7.2M331 606.1l-15.9 9.1M341.7 599.9l-5.6 3.2M342.1 589.8l-32.6 18.9M351.5 584.4l-4.7 2.7"/></g></g><g style="animation:Label_WIP_transform 9000ms linear infinite normal forwards"><path class="st96" d="M274.4 231l-23 13.2c-6.3 3.7-11.5.7-11.5-6.6s5.1-16.2 11.5-19.9l23-13.2c6.3-3.7 11.5-.7 11.5 6.6a25.6 25.6 0 01-11.5 19.9z"/><path class="st75" d="M277.1 232.5l-23 13.2c-6.3 3.7-11.5.7-11.5-6.6s5.1-16.2 11.5-19.9l23-13.2c6.3-3.7 11.5-.7 11.5 6.6s-5.1 16.2-11.5 19.9z"/><path class="st87" d="M266.5 221l-2.7 11.5-1.3.7-2-6-.1-.2-.1-.3-.1.3-.1.3-2 8.4-1.3.7-2.7-8.4 1.2-.7.3-.1.2.2 1.6 5.5.1.4.1.5.1-.6.1-.5 1.9-7.5.2-.4.3-.3.4-.2.3-.1.2.2 1.9 5.3.1.4.1.4.1-.5.1-.5 1.6-7.3.2-.4.3-.3 1-.5zM269.1 229.5l-1.4.8v-10l1.4-.8v10zM273.9 216.8l1.5-.6h1c.3.1.5.3.6.6l.2 1.2a5.9 5.9 0 01-.8 2.8l-1 1.3-1.4 1.1-1.3.7v3.6l-1.4.8v-10l2.6-1.5zm0 5.1l.8-.6.6-.7.4-.8.1-.9-.1-.7a.8.8 0 00-.4-.4.6.6 0 00-.6 0l-.8.4-1.3.7v3.8l1.3-.8z"/><g><path class="st97" d="M230.5 254l-19.6 11.3M205.3 268.6l-12.6 7.2M214.6 253.4l-15.8 9.1M225.3 247.2l-5.6 3.2M225.8 237.1L193.2 256M235.1 231.8l-4.6 2.6"/></g><g><path class="st98" d="M231.9 254.7L212.3 266M206.7 269.2l-12.6 7.3M216.1 254l-15.9 9.2M226.8 247.8l-5.6 3.3M227.2 237.8l-32.6 18.8M236.6 232.4l-4.7 2.7"/></g></g><g style="animation:SHIPMENT_transform 9000ms linear infinite normal forwards"><path class="st2" d="M465.9 422.1v-11.9l-11.6-6.7v32.9l21.9 12.6v-20.9z"/><path class="st10" d="M477.3 450.9L453.2 437v-35.5l13.8 7.9 10.3 17.9v23.6zm-23-14.5l21.8 12.6v-20.9l-10.3-6v-11.9l-11.5-6.6v32.8z"/><path class="st7" d="M475.4 426.3l-8.4-14.6v9.7z"/><path class="st34" d="M459.7 426.5v-11.9l-11.5-6.6v32.8l21.8 12.6v-20.9z"/><path class="st10" d="M471.1 455.4L447 441.5V406l13.8 7.9 10.3 17.9v23.6zm-22.9-14.6l21.8 12.6v-20.9l-10.3-6v-11.9l-11.5-6.6v32.8z"/><path class="st2" d="M469.2 430.7l-8.4-14.5v9.7z"/><g><path class="st10" d="M467.1 436.9l-15.9-9.2v-1.8l15.9 9.2z"/></g><g><path class="st10" d="M467.1 442.6l-15.9-9.2v-1.8l15.9 9.2z"/></g><g><path class="st10" d="M467.1 448.2l-15.9-9.1v-1.8l15.9 9.1z"/></g></g></svg>