<svg fill="none" height="122" viewBox="0 0 128 122" width="128" xmlns="http://www.w3.org/2000/svg"><path d="m57.5999 95.9999 7.1001 16.6001h-21.3001l7.2-16.7001" fill="#fff"/><g stroke="#4d4d4d" stroke-linejoin="round" stroke-miterlimit="10" stroke-width="3"><path d="m57.5999 95.9999 7.1001 16.6001h-21.3001l7.2-16.7001"/><path d="m69.3999 61.8 4.4-4.3"/><path d="m76.1003 58.4999c1.8778 0 3.4001-1.5222 3.4001-3.4 0-1.8777-1.5223-3.3999-3.4001-3.3999s-3.4001 1.5222-3.4001 3.3999c0 1.8778 1.5223 3.4 3.4001 3.4z" fill="#ff195e"/><path d="m54.1003 96.5c3.2585 0 5.9001-2.6415 5.9001-5.9s-2.6416-5.9-5.9001-5.9-5.9001 2.6415-5.9001 5.9 2.6416 5.9 5.9001 5.9z" fill="#ff195e"/><path d="m86.4998 78.9c1 1 .9 2.7-.2 3.6-10.5 8.6-25.9 8-35.7-1.8-9.7999-9.8-10.3999-25.2001-1.8-35.7001.9-1.1 2.6-1.2 3.6-.2z" fill="#d0c8c4"/><path d="m102.3 26.0001 5.7-5.7001" stroke-linecap="round"/><path d="m74.2002 9.69998 2.1001-7.69998" stroke-linecap="round"/><path d="m41.7002 9.69998-2-7.69998" stroke-linecap="round"/><path d="m126.3 88.6-7.8-2.1" stroke-linecap="round"/><path d="m126.3 52-7.8 2.1" stroke-linecap="round"/><path d="m76.7 112.6h-45.7v7.1h45.7z" fill="#d0c8c4"/></g></svg>