<svg fill="none" height="94" viewBox="0 0 205 94" width="205" xmlns="http://www.w3.org/2000/svg"><path d="m86.4382 15.2003-12.7278-12.72777-70.70995 70.70997 12.72785 12.7278z" fill="#ffa20d" stroke="#4d4d4d" stroke-linejoin="round" stroke-miterlimit="10" stroke-width="3"/><path d="m86.4148 15.2-12.7278-12.72783-17.6775 17.67753 12.7278 12.7278z" fill="#bf7a0a" opacity=".5"/><path d="m3 73.2 4.2 4.3" stroke="#4d4d4d" stroke-linecap="round" stroke-linejoin="round" stroke-miterlimit="10" stroke-width="3"/><path d="m8.8999 67.3 4.2 4.3" stroke="#4d4d4d" stroke-linecap="round" stroke-linejoin="round" stroke-miterlimit="10" stroke-width="3"/><path d="m14.8 61.4 4.2 4.3" stroke="#4d4d4d" stroke-linecap="round" stroke-linejoin="round" stroke-miterlimit="10" stroke-width="3"/><path d="m20.7 55.5 4.2 4.3" stroke="#4d4d4d" stroke-linecap="round" stroke-linejoin="round" stroke-miterlimit="10" stroke-width="3"/><path d="m26.6001 49.6 4.2 4.3" stroke="#4d4d4d" stroke-linecap="round" stroke-linejoin="round" stroke-miterlimit="10" stroke-width="3"/><path d="m32.5 43.7 4.2 4.3" stroke="#4d4d4d" stroke-linecap="round" stroke-linejoin="round" stroke-miterlimit="10" stroke-width="3"/><path d="m38.3999 37.9 4.2 4.2" stroke="#4d4d4d" stroke-linecap="round" stroke-linejoin="round" stroke-miterlimit="10" stroke-width="3"/><path d="m44.2 32 4.3 4.2" stroke="#4d4d4d" stroke-linecap="round" stroke-linejoin="round" stroke-miterlimit="10" stroke-width="3"/><path d="m50.1001 26.1 4.3 4.2" stroke="#4d4d4d" stroke-linecap="round" stroke-linejoin="round" stroke-miterlimit="10" stroke-width="3"/><path d="m56 20.2 4.3 4.2" stroke="#4d4d4d" stroke-linecap="round" stroke-linejoin="round" stroke-miterlimit="10" stroke-width="3"/><path d="m61.8999 14.3 4.3 4.2" stroke="#4d4d4d" stroke-linecap="round" stroke-linejoin="round" stroke-miterlimit="10" stroke-width="3"/><path d="m67.8 8.40002 4.3 4.19998" stroke="#4d4d4d" stroke-linecap="round" stroke-linejoin="round" stroke-miterlimit="10" stroke-width="3"/><path d="m73.7 2.5 4.3 4.2" stroke="#4d4d4d" stroke-linecap="round" stroke-linejoin="round" stroke-miterlimit="10" stroke-width="3"/><path d="m86.4382 15.2003-12.7278-12.72777-70.70995 70.70997 12.72785 12.7278z" stroke="#4d4d4d" stroke-linejoin="round" stroke-miterlimit="10" stroke-width="3"/><path d="m131.709 85.9501 12.728-12.7278-70.71-70.71001-12.7278 12.72781z" fill="#ffa20d" stroke="#4d4d4d" stroke-linejoin="round" stroke-miterlimit="10" stroke-width="3"/><path d="m131.733 85.9503 12.728-12.7278-17.678-17.6775-12.727 12.7278z" fill="#bf7a0a" opacity=".5"/><g stroke="#4d4d4d" stroke-linejoin="round" stroke-miterlimit="10" stroke-width="3"><path d="m73.7 2.5-4.2 4.2" stroke-linecap="round"/><path d="m79.5999 8.40002-4.2 4.19998" stroke-linecap="round"/><path d="m85.5 14.3-4.2 4.2" stroke-linecap="round"/><path d="m91.4001 20.2-4.3 4.2" stroke-linecap="round"/><path d="m97.3 26.1-4.3 4.2" stroke-linecap="round"/><path d="m103.2 32-4.3001 4.2" stroke-linecap="round"/><path d="m109.1 37.9-4.3 4.2" stroke-linecap="round"/><path d="m115 43.7-4.3 4.3" stroke-linecap="round"/><path d="m120.9 49.6-4.3 4.3" stroke-linecap="round"/><path d="m126.7 55.5-4.2 4.3" stroke-linecap="round"/><path d="m132.6 61.4-4.2 4.3" stroke-linecap="round"/><path d="m138.5 67.3-4.2 4.3" stroke-linecap="round"/><path d="m144.4 73.2-4.2 4.3" stroke-linecap="round"/><path d="m131.709 85.9501 12.728-12.7278-70.71-70.71001-12.7278 12.72781z"/><path d="m202.427 15.2239-12.728-12.72781-70.71 70.71001 12.728 12.7278z" fill="#ffa20d"/><path d="m119 73.2 4.2 4.3"/><path d="m124.9 67.2999 4.2 4.3"/><path d="m130.8 61.3999 4.2 4.3"/><path d="m136.6 55.5 4.3 4.3"/><path d="m142.5 49.6 4.3 4.3"/><path d="m148.4 43.7 4.3 4.3"/><path d="m154.3 37.8999 4.3 4.2"/><path d="m160.2 32 4.3 4.2"/><path d="m166.1 26.1 4.2 4.2"/><path d="m172 20.2 4.2 4.2"/><path d="m177.9 14.2999 4.2 4.2"/><path d="m183.8 8.39996 4.2 4.20004"/><path d="m189.7 2.49994 4.2 4.2"/><path d="m86.5 70.7999c2.9 0 2.9 21 0 21l-23.8-10.5z" fill="#dfba97"/><path d="m166.7 70.7999v21h8c3.3 0 6-2.8 6-6.3v-8.4c0-3.5-2.7-6.3-6-6.3z" fill="#ffad9a"/><path d="m86.5 70.7999v21h80.2v-21z" fill="#25b1f3" stroke-linecap="round"/><path d="m86.5 77.7999v7h80.2v-7z" stroke-linecap="round"/></g><path d="m70.9 84.9c.5-1.1.7999-2.3.7999-3.6s-.2999-2.5-.7999-3.6l-8.2 3.6z" fill="#4d4d4d"/></svg>