<svg fill="none" height="280" viewBox="0 0 1440 280" width="1440" xmlns="http://www.w3.org/2000/svg"><path d="m1264.47 83h-122.89c-4.71 0-8.58 3.8001-8.58 8.5883v13.3327c0 4.712 3.8 8.588 8.58 8.588h23.3l-3.34 14.365 19.13-14.365h55.71l17.77 14.365-1.75-14.365h12.15c4.7 0 8.58-3.8 8.58-8.588v-13.3327c-.08-4.7122-3.88-8.5883-8.66-8.5883z" fill="#880abf"/><path d="m1157.9 96.925v4.095c-.51.378-1.06.656-1.64.833-.58.173-1.2.259-1.87.259-.82 0-1.57-.128-2.24-.385s-1.24-.614-1.72-1.071c-.47-.457-.83-1.0033-1.09-1.638s-.39-1.3277-.39-2.079c0-.7607.13-1.4583.38-2.093.24-.6347.59-1.1807 1.05-1.638.45-.4573 1.01-.812 1.65-1.064.65-.252 1.38-.378 2.19-.378.41 0 .79.0327 1.15.098s.69.1563.99.273c.31.112.59.2497.84.413s.48.343.69.539l-.54.854c-.08.1353-.19.2193-.32.252-.14.028-.29-.007-.45-.105-.15-.0887-.3-.1773-.46-.266-.15-.0887-.32-.1657-.52-.231-.18-.0653-.39-.119-.63-.161s-.51-.063-.81-.063c-.5 0-.96.084-1.36.252s-.75.4083-1.03.721c-.29.3127-.51.6883-.66 1.127s-.23.9287-.23 1.47c0 .5787.08 1.0967.24 1.554.17.4527.41.8377.7 1.155.31.3127.67.553 1.1.721.42.163.9.245 1.42.245.37 0 .7-.04 1-.119.29-.079.58-.187.86-.322v-1.834h-1.27c-.13 0-.22-.0327-.29-.098-.07-.07-.1-.154-.1-.252v-1.064zm6.09.658c0-.224-.04-.434-.1-.63-.06-.2007-.16-.3757-.28-.525-.13-.1493-.29-.266-.48-.35-.2-.0887-.42-.133-.68-.133-.5 0-.89.1423-1.18.427-.28.2847-.47.6883-.55 1.211zm-3.3 1.043c.03.3687.09.6883.2.959.1.266.23.488.4.665.17.173.37.303.6.392.23.084.49.126.77.126s.52-.033.72-.098.38-.138.53-.217.29-.152.4-.217c.12-.065.23-.098.33-.098.15 0 .26.054.33.161l.49.63c-.19.224-.4.413-.64.567-.24.149-.49.271-.75.364-.26.089-.52.152-.79.189s-.53.056-.78.056c-.5 0-.96-.082-1.39-.245-.43-.168-.8-.413-1.12-.735-.32-.327-.57-.728-.75-1.204-.18-.4807-.27-1.036-.27-1.666 0-.49.08-.9497.24-1.379.15-.434.38-.8097.67-1.127.3-.322.67-.5763 1.09-.763.43-.1867.91-.28 1.45-.28.45 0 .87.0723 1.25.217s.71.357.99.637c.27.2753.49.616.64 1.022.16.4013.24.861.24 1.379 0 .2613-.03.4387-.08.532-.06.0887-.17.133-.33.133zm8.47 3.486c-.62 0-1.1-.175-1.44-.525-.33-.355-.49-.842-.49-1.463v-4.011h-.74c-.09 0-.17-.0303-.24-.091-.06-.0607-.1-.1517-.1-.273v-.686l1.16-.189.36-1.96c.03-.0933.07-.1657.14-.217.06-.0513.15-.077.25-.077h.89v2.261h1.92v1.232h-1.92v3.892c0 .224.06.399.17.525s.26.189.45.189c.11 0 .2-.012.27-.035.07-.028.13-.056.19-.084.05-.028.1-.054.14-.077.04-.028.09-.042.13-.042.05 0 .09.014.12.042.04.023.07.061.11.112l.52.84c-.25.21-.54.369-.87.476s-.67.161-1.02.161zm12.39-7.294-3.91 9.156c-.05.121-.12.212-.2.273-.08.065-.21.098-.38.098h-1.28l1.34-2.884-2.9-6.643h1.51c.14 0 .25.0327.32.098.08.0653.14.14.17.224l1.53 3.724c.05.126.09.252.13.378.03.126.07.2543.1.385.04-.1307.09-.259.13-.385.04-.1307.09-.259.14-.385l1.44-3.717c.04-.0933.1-.1703.18-.231.09-.0607.19-.091.3-.091zm3.82-.112c.53 0 1.01.0863 1.45.259s.81.4177 1.12.735.55.7047.72 1.162.25.9683.25 1.533c0 .5693-.08 1.0827-.25 1.54-.17.457-.41.847-.72 1.169s-.68.569-1.12.742-.92.259-1.45.259c-.54 0-1.02-.086-1.46-.259s-.82-.42-1.13-.742-.55-.712-.72-1.169c-.17-.4573-.25-.9707-.25-1.54 0-.5647.08-1.0757.25-1.533s.41-.8447.72-1.162.69-.5623 1.13-.735.92-.259 1.46-.259zm0 6.069c.6 0 1.04-.201 1.32-.602.29-.4013.44-.9893.44-1.764s-.15-1.365-.44-1.771c-.28-.406-.72-.609-1.32-.609-.61 0-1.06.2053-1.35.616-.29.406-.44.994-.44 1.764s.15 1.358.44 1.764c.29.401.74.602 1.35.602zm11.05-5.957v7.182h-1.06c-.23 0-.37-.105-.43-.315l-.12-.574c-.3.299-.62.541-.97.728-.36.182-.78.273-1.26.273-.39 0-.74-.065-1.04-.196-.3-.135-.55-.324-.76-.567-.2-.243-.36-.53-.47-.861-.1-.336-.15-.7047-.15-1.106v-4.564h1.73v4.564c0 .4387.1.779.3 1.022.21.238.51.357.92.357.3 0 .58-.065.84-.196.26-.135.51-.32.74-.553v-5.194zm3.34 1.246c.23-.4293.49-.7653.8-1.008.31-.2473.67-.371 1.09-.371.34 0 .6.0723.8.217l-.11 1.295c-.02.084-.06.1447-.1.182-.05.0327-.11.049-.18.049s-.17-.0117-.31-.035-.27-.035-.4-.035c-.2 0-.37.028-.51.084-.15.056-.29.1377-.41.245-.12.1027-.22.2287-.32.378-.08.1493-.17.3197-.25.511v4.424h-1.73v-7.182h1.02c.18 0 .3.0327.37.098.07.0607.12.1727.14.336zm7.2 5.936v-5.88l-.62-.098c-.13-.028-.24-.0747-.33-.14-.08-.07-.12-.168-.12-.294v-.707h1.07v-.532c0-.4107.06-.7793.19-1.106.12-.3267.3-.6043.53-.833s.51-.4037.84-.525c.34-.1213.71-.182 1.12-.182.34 0 .64.0443.93.133l-.04.868c0 .0653-.02.119-.05.161-.04.0373-.08.0677-.14.091-.05.0187-.11.0327-.18.042-.07.0047-.14.007-.22.007-.21 0-.39.0233-.55.07-.16.042-.3.119-.41.231-.11.1073-.2.252-.26.434-.06.1773-.08.399-.08.665v.476h1.87v1.232h-1.82v5.887zm6.15-5.936c.22-.4293.49-.7653.8-1.008.3-.2473.67-.371 1.09-.371.33 0 .6.0723.8.217l-.12 1.295c-.02.084-.05.1447-.1.182-.04.0327-.1.049-.18.049-.07 0-.17-.0117-.31-.035s-.27-.035-.4-.035c-.19 0-.36.028-.51.084s-.29.1377-.41.245c-.11.1027-.22.2287-.31.378s-.17.3197-.25.511v4.424h-1.73v-7.182h1.01c.18 0 .3.0327.37.098.07.0607.12.1727.14.336zm8.01 1.519c0-.224-.03-.434-.1-.63-.06-.2007-.15-.3757-.28-.525-.12-.1493-.28-.266-.48-.35-.19-.0887-.41-.133-.67-.133-.5 0-.9.1423-1.18.427-.29.2847-.47.6883-.55 1.211zm-3.3 1.043c.03.3687.1.6883.2.959.1.266.24.488.41.665.16.173.36.303.59.392.23.084.49.126.77.126s.52-.033.72-.098c.21-.065.39-.138.53-.217.16-.079.29-.152.4-.217.12-.065.23-.098.34-.098.14 0 .25.054.32.161l.5.63c-.19.224-.41.413-.65.567-.23.149-.48.271-.74.364-.26.089-.52.152-.8.189-.26.037-.52.056-.77.056-.5 0-.97-.082-1.4-.245-.42-.168-.8-.413-1.12-.735-.31-.327-.56-.728-.74-1.204-.19-.4807-.28-1.036-.28-1.666 0-.49.08-.9497.24-1.379.16-.434.39-.8097.68-1.127.3-.322.66-.5763 1.08-.763.43-.1867.92-.28 1.45-.28.46 0 .87.0723 1.26.217.38.1447.71.357.98.637.28.2753.49.616.65 1.022.16.4013.24.861.24 1.379 0 .2613-.03.4387-.09.532-.05.0887-.16.133-.32.133zm10.78-1.043c0-.224-.03-.434-.1-.63-.06-.2007-.15-.3757-.28-.525-.12-.1493-.28-.266-.48-.35-.19-.0887-.42-.133-.67-.133-.5 0-.9.1423-1.19.427-.28.2847-.46.6883-.54 1.211zm-3.3 1.043c.03.3687.1.6883.2.959.1.266.24.488.41.665.16.173.36.303.59.392.23.084.49.126.77.126s.52-.033.72-.098c.21-.065.38-.138.53-.217.16-.079.29-.152.4-.217.12-.065.23-.098.34-.098.14 0 .25.054.32.161l.5.63c-.19.224-.41.413-.65.567-.23.149-.48.271-.75.364-.25.089-.52.152-.79.189-.26.037-.52.056-.77.056-.5 0-.97-.082-1.4-.245-.43-.168-.8-.413-1.12-.735-.31-.327-.56-.728-.75-1.204-.18-.4807-.27-1.036-.27-1.666 0-.49.08-.9497.24-1.379.16-.434.38-.8097.68-1.127.3-.322.66-.5763 1.08-.763.43-.1867.92-.28 1.45-.28.45 0 .87.0723 1.26.217.38.1447.71.357.98.637.28.2753.49.616.65 1.022.15.4013.23.861.23 1.379 0 .2613-.02.4387-.08.532-.06.0887-.16.133-.32.133zm11.95 3.486c-.63 0-1.11-.175-1.44-.525-.33-.355-.5-.842-.5-1.463v-4.011h-.73c-.1 0-.18-.0303-.24-.091-.07-.0607-.1-.1517-.1-.273v-.686l1.15-.189.37-1.96c.02-.0933.07-.1657.13-.217.07-.0513.15-.077.25-.077h.9v2.261h1.92v1.232h-1.92v3.892c0 .224.05.399.16.525s.26.189.46.189c.1 0 .19-.012.26-.035.08-.028.14-.056.19-.084.06-.028.11-.054.15-.077.04-.028.08-.042.12-.042.06 0 .1.014.13.042.03.023.07.061.1.112l.52.84c-.25.21-.54.369-.87.476-.32.107-.66.161-1.01.161zm4.45-6.048c.22-.4293.49-.7653.79-1.008.31-.2473.68-.371 1.1-.371.33 0 .59.0723.79.217l-.11 1.295c-.02.084-.06.1447-.1.182-.05.0327-.1.049-.18.049-.07 0-.17-.0117-.31-.035s-.27-.035-.4-.035c-.19 0-.36.028-.51.084s-.29.1377-.41.245c-.12.1027-.22.2287-.31.378s-.18.3197-.26.511v4.424h-1.73v-7.182h1.02c.18 0 .3.0327.37.098.07.0607.12.1727.14.336zm5.38-1.246v7.182h-1.74v-7.182zm.24-2.093c0 .1493-.03.2893-.09.42s-.15.245-.25.343-.21.1773-.35.238c-.13.056-.28.084-.43.084s-.29-.028-.43-.084c-.13-.0607-.24-.14-.34-.238s-.18-.2123-.24-.343-.08-.2707-.08-.42c0-.154.02-.2987.08-.434s.14-.252.24-.35.21-.175.34-.231c.14-.0607.28-.091.43-.091s.3.0303.43.091c.14.056.25.133.35.231s.19.2147.25.35.09.28.09.434zm5.32 6.209c-.5.0233-.92.0677-1.26.133-.34.0607-.62.14-.82.238-.21.098-.36.2123-.44.343-.09.1307-.14.273-.14.427 0 .303.09.52.27.651s.42.196.71.196c.35 0 .66-.063.91-.189.26-.131.52-.327.77-.588zm-3.97-3.115c.83-.756 1.82-1.134 2.99-1.134.42 0 .79.07 1.12.21.33.1353.61.3267.84.574.23.2427.4.5343.52.875s.18.714.18 1.12v4.536h-.78c-.16 0-.29-.023-.38-.07-.09-.051-.16-.152-.21-.301l-.15-.518c-.18.163-.36.308-.53.434-.18.121-.36.224-.54.308-.19.084-.39.147-.61.189-.21.047-.44.07-.7.07-.3 0-.58-.04-.84-.119-.25-.084-.47-.208-.66-.371s-.33-.366-.43-.609c-.11-.243-.16-.525-.16-.847 0-.182.03-.3617.09-.539.06-.182.16-.3547.3-.518s.32-.3173.54-.462c.21-.1447.48-.2707.8-.378s.7-.1937 1.12-.259c.42-.07.91-.112 1.46-.126v-.42c0-.4807-.11-.8353-.31-1.064-.21-.2333-.5-.35-.89-.35-.28 0-.51.0327-.7.098-.18.0653-.34.14-.48.224-.14.0793-.27.1517-.39.217-.11.0653-.24.098-.38.098-.12 0-.22-.0303-.3-.091-.09-.0653-.16-.14-.21-.224zm9.03-4.221v10.402h-1.73v-10.402z" fill="#fff"/><path d="m1066.41 100.475 70.84 85.274 29.6-35.721 110.15 110.972h-363z" fill="#33c168"/><path d="m1066.41 100.475-44.41 47.025 176.5 113z" fill="#fff" opacity=".15"/><path d="m1287.94 121.907-83.82 101.007-25.43 30.629h50.79 167.63z" fill="#33c168"/><path d="m1204.12 222.914 83.82-101.007 62.78 75.698z" fill="#fff" opacity=".12"/><path d="m1397.11 253.543-108.95-131.636-38.34 45.83z" fill="#fff" opacity=".2"/><path d="m1265.82 266.084h-348.936v-15.049h29.955c66.161 0 99.161-43.035 145.161-43.035s84 43.035 149.18 43.035h24.72z" fill="#349d4e"/><path d="m1446.76 266.084h-1446.26v-15.504h1106c54 0 93.64-45.08 143-45.08s68 45.08 151 45.08h46.26z" fill="#00b242"/><path d="m1353.58 214.099-1.21 9.348 5.62 8.512-2.66 27.665-4.94-1.976 1.07-2.584 2.05-19.305-4.63-7.22-11.77-13.528z" fill="#715133"/><path d="m1308.18 257.648 1.9-1.749 2.28-17.176-2.43-12.844-1.9-10.641 10.78 2.964-2.12 8.893v9.88l-2.74 20.977-.83 1.672z" fill="#715133"/><path d="m1298.47 215.086.07.152 18.83 6.46 24.22-2.508 11.23-.608 10.56-3.496z" fill="#af8258"/><path d="m1365.28 192.057-15.64-5.016-22.55 3.8h-20.8l-8.89-5.852-4.63-7.98-11.08 6.536 8.35 21.661 8.5 10.032 1.98 10.64 2.35 12.845-2.28 17.176-1.82 1.748 4.86 1.976.83-1.672 2.81-20.976v-9.881l2.66-11.02h-.15l29.15-.684 12.98 3.344 11.16-3.116 5.01-9.12.46-11.249z" fill="#715133"/><path d="m1363.07 215.618 2.21 8.284 4.63 8.057-3.27 27.664-4.93-1.976 1.52-1.9 2.27-22.268-2.96-4.94-12.07-11.249z" fill="#715133"/><path d="m1307.88 132.016-.99 5.472-3.49 1.14z" fill="#4e2600"/><path d="m1304.31 158.921-1.37 7.448-2.65 3.116-8.73 4.712-.38-.684-3.12-.988z" fill="#dcd4cc"/><path d="m1268.93 158.921 1.37 7.448 2.66 3.116 8.73 4.712.3-.684 3.19-.988z" fill="#dcd4cc"/><path d="m1268.93 158.921 13.06 14.592 3.19-.988z" fill="#b8a899"/><path d="m1288.06 172.525 3.12.988 13.13-14.592z" fill="#b8a899"/><path d="m1293.23 168.193-1.22 1.064h-10.78l-1.21-1.064-1.29 1.064 1.06 6.993.68.76h12.3l.68-.76 1.07-6.993z" fill="#f5eacc"/><path d="m1293.08 173.893c.62 0 1.13-.51 1.13-1.14 0-.629-.51-1.14-1.13-1.14-.63 0-1.14.511-1.14 1.14 0 .63.51 1.14 1.14 1.14z" fill="#271300"/><path d="m1280.17 173.893c.63 0 1.14-.51 1.14-1.14 0-.629-.51-1.14-1.14-1.14s-1.14.511-1.14 1.14c0 .63.51 1.14 1.14 1.14z" fill="#271300"/><path d="m1288.06 172.525 5.17-4.332-1.75-1.824h-9.72l-1.74 1.824 5.16 4.332-3.19.988-1.52 3.496 1.22 6.537 2.43 2.128h5.01l2.43-2.128 1.21-6.537-1.59-3.496z" fill="#4e2600"/><path d="m1289.73 181.57c0 1.064-2.04 2.736-3.11 2.736-1.06 0-3.11-1.672-3.11-2.736 0-1.065 2.05-1.673 3.11-1.673 1.07 0 3.11.608 3.11 1.673z" fill="#fbf7eb"/><path d="m1290.57 181.722-3.95-.684-3.95.684.76-4.409h6.38z" fill="#f5eacc"/><path d="m1288.82 178.073-2.2.684-2.2-.684.15 1.672 1.9.836v.988h.3v-.988l1.9-.836z" fill="#4e2600"/><path d="m1286.62 182.406c-.68 0-1.36-.381-1.74-.913l1.74-.304 1.75.304c-.38.608-1.06.913-1.75.913z" fill="#271300"/><path d="m1302.79 147.52c-.45.988-.91 1.368-1.44 1.672-.61.456-1.21.76-1.75 1.9-.53 1.216-.38 1.9-.22 2.66-.38-.076-.84-.152-1.29-.152-.91 0-1.75.152-2.59.456-.15-.608-.22-1.216-.22-1.824 0-3.116 1.97-5.7 4.78-6.612.68-.228 1.44-.38 2.2-.38.31 0 .53 0 .84.076.07.684.07 1.292-.31 2.204z" fill="#9b632e"/><path d="m1306.51 139.16c-.91 2.128-2.2 1.52-3.19 3.648-.53 1.216-.38 1.9-.22 2.661-.31 0-.53-.076-.84-.076-.76 0-1.52.152-2.2.38 0-.304-.08-.532-.08-.836 0-3.953 3.04-7.145 6.91-7.449 0 .456-.07.988-.38 1.672z" fill="#af8258"/><path d="m1299 155.881c-.46.912-.91 1.368-1.37 1.672-.61.456-1.21.76-1.75 1.9-.53 1.216-.38 1.9-.3 2.66-.61-.152-1.29-.304-1.97-.304-.84 0-1.6.152-2.36.38-.15-.532-.15-.988-.15-1.596 0-2.964 1.82-5.472 4.4-6.536.76-.304 1.68-.456 2.59-.456.45 0 .83.076 1.29.152 0 .608 0 1.216-.38 2.128z" fill="#af8258"/><path d="m1295.58 162.113c-.61-.152-1.29-.304-1.97-.304-.84 0-1.6.152-2.36.38-1.97.684-3.49 2.204-4.17 4.104h4.4l.91.912c.38-.608.84-.912 1.22-1.216.53-.38 1.14-.76 1.59-1.824.46-.836.46-1.444.38-2.052z" fill="#c3a182"/><path d="m1265.36 132.016.99 5.472 3.49 1.14z" fill="#4e2600"/><path d="m1270.45 147.52c.46.988.91 1.368 1.44 1.672.61.456 1.22.76 1.75 1.9.53 1.216.38 1.9.23 2.66.38-.076.83-.152 1.29-.152.91 0 1.74.152 2.58.456.15-.608.23-1.216.23-1.824 0-3.116-1.98-5.7-4.79-6.612-.68-.228-1.44-.38-2.2-.38-.3 0-.53 0-.83.076-.08.684-.08 1.292.3 2.204z" fill="#9b632e"/><path d="m1266.73 139.16c.91 2.128 2.2 1.52 3.19 3.648.53 1.216.38 1.9.23 2.661.3 0 .53-.076.83-.076.76 0 1.52.152 2.2.38 0-.304.08-.532.08-.836 0-3.953-3.04-7.145-6.91-7.449 0 .456.08.988.38 1.672z" fill="#af8258"/><path d="m1274.25 155.881c.45.912.91 1.368 1.36 1.672.61.456 1.22.76 1.75 1.9.53 1.216.38 1.9.3 2.66.61-.152 1.29-.304 1.98-.304.83 0 1.59.152 2.35.38.15-.532.15-.988.15-1.596 0-2.964-1.82-5.472-4.4-6.536-.76-.304-1.67-.456-2.58-.456-.46 0-.84.076-1.29.152 0 .608 0 1.216.38 2.128z" fill="#af8258"/><path d="m1277.66 162.113c.61-.152 1.29-.304 1.98-.304.83 0 1.59.152 2.35.38 1.97.684 3.49 2.204 4.18 4.104h-4.41l-.91.912c-.38-.608-.83-.912-1.21-1.216-.53-.38-1.14-.76-1.6-1.824-.45-.836-.45-1.444-.38-2.052z" fill="#c3a182"/><path d="m1368.08 206.498 3.95 5.244.38-9.88-3.87-6.612z" fill="#4e2600"/><path d="m1347.36 261.448 3.03-3.801 4.94 1.977-2.13 1.824z" fill="#4e2600"/><path d="m1358.67 261.448 3.04-3.801 4.93 1.977-2.12 1.824z" fill="#4e2600"/><path d="m1295.13 261.448 3.64-3.801 4.86 1.977-2.05 1.824z" fill="#4e2600"/><path d="m1305.15 261.448 3.03-3.801 4.94 1.977-2.13 1.824z" fill="#4e2600"/><path d="m1149.11 219.242h-20.45l1.44 17.327 8.78 10.863 8.88-10.863z" fill="#d78433"/><path d="m1126.24 201.825 7.44-5.656h10.5l7.44 5.656v4.848l-7.44 12.389h-10.5l-7.44-12.389z" fill="#cd6500"/><path d="m1133.68 196.17-7.44-6.464v12.12z" fill="#9a4c00"/><path d="m1129.2 188-2.96 1.706 7.44 6.464z" fill="#cd6500"/><path d="m1144.18 196.17 7.44-6.464v12.12z" fill="#9a4c00"/><path d="m1148.66 188 2.96 1.706-7.44 6.464z" fill="#cd6500"/><path d="m1133.5 209.995c.65 0 1.17-.522 1.17-1.167 0-.644-.52-1.167-1.17-1.167-.64 0-1.16.523-1.16 1.167 0 .645.52 1.167 1.16 1.167z" fill="#673b10"/><path d="m1144.36 209.995c.64 0 1.16-.522 1.16-1.167 0-.644-.52-1.167-1.16-1.167-.65 0-1.17.523-1.17 1.167 0 .645.52 1.167 1.17 1.167z" fill="#673b10"/><path d="m1133.68 219.063h10.5l-2.6-11.402h-5.3z" fill="#d78433"/><path d="m1133.68 219.062 5.2-1.526 5.3 1.526v5.207h-10.5z" fill="#ebc199"/><path d="m1144.18 219.063v5.207l11.03-10.414-3.59-7.182z" fill="#f5e0cc"/><path d="m1140.86 222.833v-2.334l-1.98-.539-1.88.539v2.334z" fill="#331d08"/><path d="m1126.24 217.267 2.42 1.975 1.44 17.326 8.79 10.863-8.88 19.213-26.01-5.926 4.66-27.381z" fill="#cd6500"/><path d="m1133.68 219.063v5.207l-11.03-10.414 3.59-7.182z" fill="#f5e0cc"/><path d="m1147.76 236.569-8.87 10.863 6.09 25.676h2.78z" fill="#9a4c00"/><path d="m1130.1 236.569 8.78 10.863-6.09 25.676h-2.69z" fill="#9a4c00"/><path d="m1140.77 279.482.18-13.466-36.95-5.297z" fill="#9a4c00"/><path d="m1158.52 266.016-17.75 13.466.18-13.466z" fill="#f5e0cc"/><g stroke-miterlimit="10" stroke-width="3"><path d="m1363.38 33.4417c2.14 0 3.87-1.7354 3.87-3.8761 0-2.1408-1.73-3.8761-3.87-3.8761s-3.87 1.7353-3.87 3.8761c0 2.1407 1.73 3.8761 3.87 3.8761z" stroke="#2dffc0"/><path d="m1341.51 75.7747c2.14 0 3.87-1.7354 3.87-3.8761s-1.73-3.8761-3.87-3.8761-3.87 1.7354-3.87 3.8761 1.73 3.8761 3.87 3.8761z" stroke="#b788ff"/><path d="m966.872 95.7522c2.138 0 3.872-1.7354 3.872-3.8761s-1.734-3.8761-3.872-3.8761-3.872 1.7354-3.872 3.8761 1.734 3.8761 3.872 3.8761z" stroke="#39bfd8"/><path d="m1011.19 29.5657c2.13 0 3.87-1.7354 3.87-3.8761s-1.74-3.8761-3.87-3.8761c-2.14 0-3.88 1.7354-3.88 3.8761s1.74 3.8761 3.88 3.8761z" stroke="#b788ff"/><path d="m1362.28 133.916-4.29-4.299-4.3 4.299 4.3 4.3z" stroke="#39bfd8"/><path d="m1130.59 58.2993-4.3-4.2993-4.29 4.2993 4.29 4.2993z" stroke="#b788ff"/><path d="m1287.81 37.4009-4.29-4.2993-4.3 4.2993 4.3 4.2992z" stroke="#39bfd8"/><path d="m1219.36 12.9967 6.15-5.85217" stroke="#b788ff" stroke-linecap="round" stroke-linejoin="round"/><path d="m1121.39 138.864-5.39-4.864" stroke="#2dffc0" stroke-linecap="round" stroke-linejoin="round"/><path d="m1406.12 104.276-7.36-3.421" stroke="#2dffc0" stroke-linecap="round" stroke-linejoin="round"/><path d="m928.661 174.654 7.592-2.965" stroke="#b788ff" stroke-linecap="round" stroke-linejoin="round"/><path d="m1029 78.6882 2.81-6.6882" stroke="#2dffc0" stroke-linecap="round" stroke-linejoin="round"/><path d="m1286.77 87.0234-3.87 6.0802" stroke="#2dffc0" stroke-linecap="round" stroke-linejoin="round"/><path d="m1419.86 170.777-4.4 5.168" stroke="#b788ff" stroke-linecap="round" stroke-linejoin="round"/></g></svg>