<svg fill="none" height="131" viewBox="0 0 224 131" width="224" xmlns="http://www.w3.org/2000/svg"><path d="m119.4 129 46.2-46.2001-24-24-9.4 9.4h-41.1001l-16.2 16.3s44.6001 44.3001 44.5001 44.5001z" fill="#e8be98"/><path d="m141.6 58.7999-4.3 4.3 18.9 27.4 8.5-8.6z" fill="#b88f77" opacity=".16"/><path d="m119.4 129 46.2-46.2001-24-24-9.4 9.4h-41.1001l-16.2 16.3s44.6001 44.3001 44.5001 44.5001z" stroke="#4d4d4d" stroke-linejoin="round" stroke-miterlimit="10" stroke-width="3"/><path d="m170.5 84.3 50.4-50.4c.9-.9 1-2.4.1-3.3l-27.4-27.40004c-.9-.9-2.3-.80001-3.3.09999l-50.4 50.40005c-.9.9-1 2.4-.1 3.3l27.4 27.4c.9.9 2.4.9 3.3-.1z" style="fill:#2bd1b8;stroke:#4d4d4d;stroke-width:3;stroke-miterlimit:10;stroke-linecap:round;stroke-linejoin:round"/><path d="m168.995 84.5492 16.263-16.2633-29.981-29.981-16.263 16.2633z" fill="#88dccf"/><path d="m171.5 52.8999-17.1 17.1" stroke="#4d4d4d" stroke-linecap="round" stroke-linejoin="round" stroke-miterlimit="10" stroke-width="3"/><path d="m181.8 63.2-17.1 17.1" stroke="#4d4d4d" stroke-linecap="round" stroke-linejoin="round" stroke-miterlimit="10" stroke-width="3"/><path d="m176.6 58-17.1 17.1" stroke="#4d4d4d" stroke-linecap="round" stroke-linejoin="round" stroke-miterlimit="10" stroke-width="3"/><path d="m166.4 47.7999-17.1 17.1" stroke="#4d4d4d" stroke-linecap="round" stroke-linejoin="round" stroke-miterlimit="10" stroke-width="3"/><path d="m186.1 67.4999-30-30" stroke="#4d4d4d" stroke-linecap="round" stroke-linejoin="round" stroke-miterlimit="10" stroke-width="3"/><path d="m161.2 42.6-17.1 17.1" stroke="#4d4d4d" stroke-linecap="round" stroke-linejoin="round" stroke-miterlimit="10" stroke-width="3"/><path d="m170.5 84.3 50.4-50.4c.9-.9 1-2.4.1-3.3l-27.4-27.40004c-.9-.9-2.3-.80001-3.3.09999l-50.4 50.40005c-.9.9-1 2.4-.1 3.3l27.4 27.4c.9.9 2.4.9 3.3-.1z" stroke="#4d4d4d" stroke-linecap="round" stroke-linejoin="round" stroke-miterlimit="10" stroke-width="3"/><path d="m152.3 109.7c2.1-2.1 2.1-5.6 0-7.7l-.4-.4-8.6-8.6-2.6-2.6-10.8-10.8001c-.8.3-1.6.6-2.5.6h-24.6c-3.4 0-6.1-2.6999-6.1-6.1 0-2.8 1.9-5.2 4.6-5.9h-2.2l-8.3-8.1999c-1.9-1.9-5-1.9-6.8 0l-14.2 14.1999c-1.9 1.9-1.9 5.0001 0 6.8001l32.9 32.9 9.8 9.8 3.8 3.8c2.1 2.1 5.6 2.1 7.7 0s2.1-5.6 0-7.7l1.7 1.7c2.1 2.1 5.6 2.1 7.7 0s2.1-5.6 0-7.7l1.7 1.7c2.1 2.1 5.6 2.1 7.7 0s2.1-5.6 0-7.7l1.7 1.7c2.2 2.4 5.7 2.4 7.8.2z" fill="#fcc5af" stroke="#4d4d4d" stroke-linejoin="round" stroke-miterlimit="10" stroke-width="3"/><path d="m68 79.4 10.3 10.2 16.3-26.5-5.2-5.1z" fill="#cd7652" opacity=".2"/><g stroke="#4d4d4d" stroke-linejoin="round" stroke-miterlimit="10" stroke-width="3"><path d="m152.3 109.7c2.1-2.1 2.1-5.6 0-7.7l-.4-.4-8.6-8.6-2.6-2.6-10.8-10.8001c-.8.3-1.6.6-2.5.6h-24.6c-3.4 0-6.1-2.7-6.1-6.1 0-2.8 1.9-5.2 4.6-5.9h-2.2l-8.3-8.1999c-1.9-1.9-5-1.9-6.8 0l-14.2 14.1999c-1.9 1.9-1.9 5.0001 0 6.8001l32.9 32.9 9.8 9.8 3.8 3.8c2.1 2.1 5.6 2.1 7.7 0s2.1-5.6 0-7.7l1.7 1.7c2.1 2.1 5.6 2.1 7.7 0s2.1-5.6 0-7.7l1.7 1.7c2.1 2.1 5.6 2.1 7.7 0s2.1-5.6 0-7.7l1.7 1.7c2.2 2.4 5.7 2.4 7.8.2z"/><path d="m142.9 108-9-9" stroke-linecap="round"/><path d="m133.5 114-5.6-5.5" stroke-linecap="round"/><path d="m124.1 120-2.2-2.1" stroke-linecap="round"/><path d="m99.4 117.6-1.2-1.2c-1.6-1.6-1.6-4.1 0-5.7l5.5-5.5c1.6-1.6 4.1-1.6 5.7 0l1.2 1.2c1.6 1.6 1.6 4.1 0 5.7l-5.5 5.5c-1.6 1.6-4.1 1.6-5.7 0z" fill="#e8be98"/><path d="m106.3 124.4-1.2-1.2c-1.6-1.6-1.6-4.1 0-5.7l3.8-3.8c1.6-1.6 4.1-1.6 5.7 0l1.2 1.2c1.6 1.6 1.6 4.1 0 5.7l-3.8 3.8c-1.6 1.6-4.2 1.6-5.7 0z" fill="#e8be98"/><path d="m85.7 103.9-1.2-1.2c-1.6-1.6-1.6-4.1 0-5.7l3.8001-3.8c1.6-1.6 4.0999-1.6 5.6999 0l1.2 1.2c1.6 1.6 1.6 4.1 0 5.7l-3.7999 3.8c-1.6 1.6-4.1001 1.6-5.7001 0z" fill="#e8be98"/><path d="m92.5999 110.8-1.1999-1.2c-1.6-1.6-1.6-4.1 0-5.7l6.2999-6.3c1.6-1.6 4.1001-1.6 5.7001 0l1.2 1.2c1.6 1.6 1.6 4.1 0 5.7l-6.3 6.3c-1.6 1.5-4.1001 1.5-5.7001 0z" fill="#e8be98"/><path d="m54.8 89.7-52.7-52.7c-.8-.8-.8-2 0-2.8l32-32.00002c.8-.8 2-.8 2.8 0l52.7 52.70002c.8.8.8 2 0 2.8l-32 32c-.7.8-2 .8-2.8 0z" fill="#8a53d1"/><path d="m54.7999 89.7-22.8-22.8c-.8-.8-.8-2 0-2.8l32-32c.8-.8 2-.8 2.8 0l22.8 22.8c.8.8.8 2 0 2.8l-32 32c-.7.8-2 .8-2.8 0z" fill="#ab79eb" stroke-linecap="round"/><path d="m51.8 74.8c2.651 0 4.8-2.1491 4.8-4.8 0-2.651-2.149-4.8-4.8-4.8s-4.8 2.149-4.8 4.8c0 2.6509 2.149 4.8 4.8 4.8z" fill="#e6cf8a"/></g></svg>