<svg fill="none" height="29" viewBox="0 0 120 29" width="120" xmlns="http://www.w3.org/2000/svg"><path clip-rule="evenodd" d="m79.8089.311255.0817-.077814c.0817 0 .1633-.077813.3267-.233441h18.3798v28.5577h-6.535v-10.894c-.5008 0-.9589-.0203-1.4071-.0401h-.0001c-.4291-.0191-.849-.0377-1.2885-.0377h-2.7774v11.0496h-6.7801zm12.0081 6.302915h-5.3097v4.43543h5.3097zm-70.823 22.02103h7.2702v-10.8938h4.8196c0 1.1846-.0089 2.7783-.018 4.3834-.0182 3.2448-.0367 6.5362.018 6.5883h6.6984v-18.0527-10.504842h-18.7882zm7.2702-22.02113h4.6562v4.59103h-4.6562c-.0821.1956-.061-.4547-.0301-1.40695.0306-.94153.0707-2.17822.0301-3.18408zm88.2228 7.62613s2.369-1.8676 3.513-2.6457v-11.360764h-18.788v28.401964h18.788v-11.3608zm-3.267 8.5595h-5.31v-5.0579h5.31zm.082-11.6721h-5.392c-.093-.7974-.08-1.61996-.067-2.46778.01-.64142.021-1.29727-.015-1.96756h5.474zm-101.784-.0003h-4.81959c0-1.18461.00895-2.77831.01796-4.3834v-.00002-.00001-.00002-.00002-.00002-.00004c.01821-3.24483.03669-6.536151-.01796-6.588212h-6.69841v28.635442h6.69841c0-1.8364.06179-4.6147.11298-6.916.04968-2.2337.08936-4.018.05285-4.0557h4.73546v10.8939h7.2702v-10.9717l-3.5943-2.7235s2.6141-2.4122 3.5943-3.346v-11.283h-7.3519zm53.4243 11.672h12.1715c0 .5269.0221 1.0327.0434 1.5173v.0004c.0195.4457.0383.8735.0383 1.2836v3.0347h-18.9516v-11.4386c-.708-.5187-1.4159-1.1066-2.1238-1.6945l-.0001-.0001c-.354-.294-.708-.5879-1.062-.8732.7352-.7782 2.7774-2.7235 3.1859-3.0348v-11.438542h6.6984v11.205142zm-16.0927-5.6804c-.4901 0-.9803.0194-1.4704.0389-.4901.0194-.9803.0389-1.4704.0389v11.5941h6.1266v-11.6719c-.3907 0-.7718-.0091-1.1434-.018h-.0002c-.7162-.017-1.3969-.0333-2.0422.018zm-1.0621-11.12712h4.1661c.0409.4669.0613.93379.0817 1.40068.0204.46687.0408.93374.0817 1.40062v3.03472h-3.1042-2.4506v-5.83602z" fill="#fff" fill-rule="evenodd"/></svg>