<svg enable-background="new 0 0 79 37.372" height="37.372" viewBox="0 0 79 37.372" width="79" xmlns="http://www.w3.org/2000/svg" xmlns:xlink="http://www.w3.org/1999/xlink"><clipPath id="a"><path d="m0 0h79v37.372h-79z"/></clipPath><clipPath id="b"><path d="m0 0h79v37.372h-79z"/></clipPath><clipPath id="c"><path d="m0 0h79v37.372h-79z"/></clipPath><clipPath id="d"><path d="m0 0h79v37.372h-79z"/></clipPath><clipPath id="e"><path d="m0 0h79v37.372h-79z"/></clipPath><clipPath id="f"><path d="m0 0h79v37.372h-79z"/></clipPath><g fill="#fff"><path d="m44.754 0v21.85h5.922v-15.34l-5.892-1.418 13.614.042v16.716h5.894v-16.716h10.61v-5.134z"/><path clip-path="url(#a)" d="m27.013 11.731-3.804-7.204 4.831 6.312 8.571 11.01h5.194v-21.849h-5.831v9.697l3.331 6.483-4.48-5.768.003.001-8.105-10.413h-5.699v12.312c0 3-1.483 4.653-4.178 4.653-2.657 0-4.188-1.753-4.188-4.811v-12.154h-5.983v12.282c0 6.528 3.495 9.978 10.107 9.978 6.272 0 9.775-3.079 10.188-8.925z"/><path clip-path="url(#b)" d="m0 29.243h1.119v8h-1.119z" opacity=".5"/><path clip-path="url(#c)" d="m20.276 35.392h.021l2.362-6.147h1.738v8h-1.117v-6.688h-.022l-2.655 6.688h-.712l-2.642-6.688h-.024v6.688h-1.082v-8h1.738z" opacity=".5"/><path clip-path="url(#d)" d="m37.445 37.245h-1.244l3.469-8h1.016l3.434 8h-1.263l-.817-1.968h-3.794zm1.197-2.952h2.995l-1.492-3.751z" opacity=".5"/><path clip-path="url(#e)" d="m61.794 31.133c-.229-.252-.521-.452-.876-.601-.354-.153-.751-.228-1.188-.228-.446 0-.847.083-1.206.241-.357.161-.662.386-.913.663-.251.278-.445.604-.579.973-.14.371-.207.763-.207 1.176 0 .423.067.823.207 1.194.134.375.328.7.579.976.251.274.559.492.925.649.363.16.774.24 1.227.24.357 0 .688-.033.99-.101.298-.062.562-.154.784-.278v-2.119h-1.688v-.904h2.742v3.69c-.402.217-.839.379-1.311.494-.475.116-.991.172-1.55.172-.595 0-1.142-.099-1.641-.296-.496-.197-.925-.473-1.285-.827-.358-.356-.638-.777-.84-1.271-.201-.491-.3-1.03-.3-1.618 0-.596.102-1.14.306-1.629.206-.491.488-.911.852-1.259.36-.347.789-.619 1.285-.811.494-.194 1.033-.29 1.613-.29.607 0 1.153.09 1.629.266.476.184.872.423 1.188.723z" opacity=".5"/><path clip-path="url(#f)" d="m74.821 36.249h4.179v.996h-5.296v-8h5.128v.983h-4.011v2.396h3.772v.96h-3.772z" opacity=".5"/></g></svg>