<svg id="Layer_1" data-name="Layer 1" xmlns="http://www.w3.org/2000/svg" viewBox="0 0 1536 512"><path d="M185.8,226V142a4,4,0,0,0-2-3.46l-72-42a4,4,0,0,0-4,0l-72,42a4,4,0,0,0-2,3.46v84a4,4,0,0,0,2,3.46l72,42a4,4,0,0,0,4,0l72-42A4,4,0,0,0,185.8,226Zm-8-2.3-68,39.67-68-39.67V144.3l68-39.67,68,39.67Z"/><path d="M351.82,138.54l-72-42a4,4,0,0,0-4,0l-72,42a4,4,0,0,0-2,3.46v84a4,4,0,0,0,2,3.46l72,42a4,4,0,0,0,4,0l72-42a4,4,0,0,0,2-3.46V142A4,4,0,0,0,351.82,138.54Zm-6,85.16-68,39.67-68-39.67V144.3l68-39.67,68,39.67Z"/><path d="M267.82,282.54l-72-42a4,4,0,0,0-4,0l-72,42a4,4,0,0,0-2,3.46v84a4,4,0,0,0,2,3.46l72,42a4,4,0,0,0,4,0l72-42a4,4,0,0,0,2-3.46V286A4,4,0,0,0,267.82,282.54Zm-6,85.16-68,39.67-68-39.67V288.3l68-39.67,68,39.67Z"/><path d="M517.49,337q-12.39,5.85-28.37,5.84a69.32,69.32,0,0,1-29.95-6.28,65.2,65.2,0,0,1-22.73-17.69A79.88,79.88,0,0,1,422,291.24a122.76,122.76,0,0,1-5-36.39q0-20.17,5-36.26a77.06,77.06,0,0,1,14.58-27.33,65.09,65.09,0,0,1,23.2-17.39,73.54,73.54,0,0,1,30.57-6.14,58.13,58.13,0,0,1,25.4,5.4,64.31,64.31,0,0,1,19.44,14.18l8.78-8.77q-8.16-9.06-22-16.08t-31.67-7a92,92,0,0,0-36.06,6.87,76.88,76.88,0,0,0-27.9,19.88,92.09,92.09,0,0,0-18,31.42Q401.94,232,402,254.85q0,23.09,6.27,41.65a91.26,91.26,0,0,0,17.72,31.58,77.47,77.47,0,0,0,27.43,20,86.42,86.42,0,0,0,35.12,7q20.06,0,34.8-7.31a91.72,91.72,0,0,0,26.65-20.17l-8.78-8.48Q529.88,331.16,517.49,337Z"/><path d="M669.72,268.29h49.54v59.93q-7.53,7-19.91,10.82a89.68,89.68,0,0,1-26.5,3.8q-17.55,0-31.51-6.28a65.15,65.15,0,0,1-23.51-17.69,78.32,78.32,0,0,1-14.58-27.63,122.76,122.76,0,0,1-5-36.39q0-20.17,5.33-36.26a78.12,78.12,0,0,1,15.21-27.33,67.06,67.06,0,0,1,24-17.39q14.12-6.15,32-6.14,16.93,0,28.22,5.7a74.64,74.64,0,0,1,19.44,13.88l8.47-8.77a88.34,88.34,0,0,0-9.56-8.18,77.91,77.91,0,0,0-12.39-7.46,76,76,0,0,0-15.36-5.41,80.47,80.47,0,0,0-18.82-2q-20.68,0-37.46,6.87a80.42,80.42,0,0,0-28.85,19.88,90,90,0,0,0-18.65,31.42q-6.59,18.42-6.59,41.23,0,23.09,6.43,41.65a91.82,91.82,0,0,0,18,31.58,78.32,78.32,0,0,0,27.9,20,90.25,90.25,0,0,0,36.06,7q20.7,0,36.21-6.14t25.24-15.79v-76.3H669.72Z"/><path d="M961.34,250.17q-2.19,14.91-4.23,29.82t-4.23,30.4h-1.26q-3.14-15.5-6.11-30.55t-6.11-29.67L917.45,161h-39.2l-21.94,89.17q-3.15,14.91-6.12,30t-6.11,30.26h-1.26q-1.87-15.19-4.07-30.26t-4.08-30L820.56,161H773.22l37.94,190.61h57.06l19.13-86.53q2.5-11.11,4.54-22.37t3.92-21.78h1.26q1.56,10.53,3.6,21.78t4.55,22.37l20.07,86.53h58L1019.66,161H975.45Z"/><rect x="1059.79" y="161" width="46.09" height="190.61"/><path d="M1308.58,255q9.89-13.59,9.88-34.64,0-16.95-6.27-28.36a50.09,50.09,0,0,0-16.93-18.27,72.44,72.44,0,0,0-24.93-9.79,152.07,152.07,0,0,0-30.57-2.93h-73.68V351.61h46.09v-68.7h25.4l39.19,68.7h51.73l-46.4-76.3A59.48,59.48,0,0,0,1308.58,255Zm-44.83-13.45q-9.57,7.17-27.75,7.17h-23.83v-53.5H1236q18.18,0,27.75,5.55t9.56,19.59Q1273.31,234.38,1263.75,241.54Z"/><polygon points="1417.23 315.36 1417.23 271.51 1486.83 271.51 1486.83 235.55 1417.23 235.55 1417.23 197.25 1499.06 197.25 1499.06 161 1371.13 161 1371.13 351.61 1502.2 351.61 1502.2 315.36 1417.23 315.36"/></svg>