<svg fill="none" height="77" viewBox="0 0 80 77" width="80" xmlns="http://www.w3.org/2000/svg"><path clip-rule="evenodd" d="m0 76.2063h63.0718l16.9282-37.6259v-38.5804h-80zm59.8022-4.7221h-54.89778v-66.81236h70.13838v32.90386zm-11.0747-7.6355h2.0039l-.9492-2.7127zm6.0646 2.5118v.1005h-3.0587l-.5274-1.3564h-3.0059l-.5273 1.3564h-1.8985v-.1005l3.2168-7.2339h2.8478zm-16.559-2.5118h2.0567l-1.002-2.7127zm6.1173 2.5118v.1005h-3.0587l-.5273-1.3564h-3.006l-.5273 1.3564h-1.8985v-.1005l3.2169-7.2339h2.8477zm-13.764-4.7724c1.2129.3517 3.0059.9043 3.0059 2.562 0 1.8085-1.9512 2.562-3.9024 2.562-2.0567 0-3.3224-.854-3.8497-1.4568l1.1074-.9042c.5274.5526 1.6876 1.1554 2.7423 1.1554.4219 0 1.3711-.0502 1.3711-.5526 0-.5472-.7776-.7417-1.6813-.9677-.1747-.0437-.3541-.0886-.5336-.1375-.0227-.0062-.0457-.0124-.0689-.0187-1.1113-.3017-2.8315-.7688-2.8315-2.3926 0-2.0094 2.2676-2.562 3.7969-2.562 1.5294 0 2.5841.4019 3.4806 1.1554l-1.1075.854c-.6328-.5525-1.7402-.854-2.3731-.854-.6328 0-1.3711.1005-1.3711.6029 0 .3786.4794.5004 1.3027.7095.269.0684.5746.146.9122.2449zm-10.5999-2.4615h2.795v7.3344h-2.795zm-2.3731 5.978v.1005l-.5801 1.2056h-5.3263v-7.3343h2.795v6.0282z" fill="#fff" fill-rule="evenodd"/></svg>