<?xml version="1.0" ?><!DOCTYPE svg  PUBLIC '-//W3C//DTD SVG 1.1//EN'  'http://www.w3.org/Graphics/SVG/1.1/DTD/svg11.dtd'><svg enable-background="new 0 0 64 64" height="64px" id="Layer_1" version="1.1" viewBox="0 0 64 64" width="64px" stroke="#54656F" xml:space="preserve" xmlns="http://www.w3.org/2000/svg" xmlns:xlink="http://www.w3.org/1999/xlink"><path d="M50.506,16.93h-6.674V2.083c0-0.829-0.672-1.5-1.5-1.5s-1.5,0.671-1.5,1.5V16.93H23.168V2.083c0-0.829-0.671-1.5-1.5-1.5  s-1.5,0.671-1.5,1.5V16.93h-6.674c-0.829,0-1.5,0.671-1.5,1.5v18.503c0,3.889,3.164,7.053,7.052,7.053H30.5v17.93  c0,0.828,0.671,1.5,1.5,1.5s1.5-0.672,1.5-1.5v-17.93h11.453c3.889,0,7.053-3.164,7.053-7.053V18.43  C52.006,17.602,51.334,16.93,50.506,16.93z M44.953,40.986H19.046c-2.234,0-4.052-1.818-4.052-4.053V19.93h34.011v17.003  C49.006,39.168,47.188,40.986,44.953,40.986z"/></svg>
