<svg enable-background="new 0 0 345.834 345.834" viewBox="0 0 345.834 345.834" xmlns="http://www.w3.org/2000/svg"><path d="m339.798 260.429c.13-.026.257-.061.385-.094.109-.028.219-.051.326-.084.125-.038.247-.085.369-.129.108-.039.217-.074.324-.119.115-.048.226-.104.338-.157.109-.052.22-.1.327-.158.107-.057.208-.122.312-.184.107-.064.215-.124.319-.194.111-.074.214-.156.321-.236.09-.067.182-.13.27-.202.162-.133.316-.275.466-.421.027-.026.056-.048.083-.075.028-.028.052-.059.079-.088.144-.148.284-.3.416-.46.077-.094.144-.192.216-.289.074-.1.152-.197.221-.301.074-.111.139-.226.207-.34.057-.096.118-.19.171-.289.062-.115.114-.234.169-.351.049-.104.101-.207.146-.314.048-.115.086-.232.128-.349.041-.114.085-.227.12-.343.036-.118.062-.238.092-.358.029-.118.063-.234.086-.353.028-.141.045-.283.065-.425.014-.1.033-.199.043-.3.025-.249.038-.498.038-.748v-160.308c0-4.143-3.357-7.5-7.5-7.5h-236.25c-.066 0-.13.008-.196.01-.143.004-.285.01-.427.022-.113.009-.225.022-.337.037-.128.016-.255.035-.382.058-.119.021-.237.046-.354.073-.119.028-.238.058-.356.092-.117.033-.232.069-.346.107-.117.04-.234.082-.349.128-.109.043-.216.087-.322.135-.118.053-.235.11-.351.169-.099.051-.196.103-.292.158-.116.066-.23.136-.343.208-.093.06-.184.122-.274.185-.106.075-.211.153-.314.235-.094.075-.186.152-.277.231-.09.079-.179.158-.266.242-.099.095-.194.194-.288.294-.047.05-.097.094-.142.145-.027.03-.048.063-.074.093-.094.109-.182.223-.27.338-.064.084-.13.168-.19.254-.078.112-.15.227-.222.343-.059.095-.12.189-.174.286-.063.112-.118.227-.175.342-.052.105-.106.21-.153.317-.049.113-.092.23-.135.345-.043.113-.087.225-.124.339-.037.115-.067.232-.099.349-.032.12-.066.239-.093.36-.025.113-.042.228-.062.342-.022.13-.044.26-.06.39-.013.108-.019.218-.027.328-.01.14-.019.28-.021.421-.001.041-.006.081-.006.122v46.252c0 4.143 3.357 7.5 7.5 7.5s7.5-3.357 7.5-7.5v-29.595l66.681 59.037c-.348.245-.683.516-.995.827l-65.687 65.687v-49.288c0-4.143-3.357-7.5-7.5-7.5s-7.5 3.357-7.5 7.5v9.164h-38.75c-4.143 0-7.5 3.357-7.5 7.5s3.357 7.5 7.5 7.5h38.75v43.231c0 4.143 3.357 7.5 7.5 7.5h236.25c.247 0 .494-.013.74-.037.115-.011.226-.033.339-.049.13-.018.258-.033.386-.058zm-8.964-25.462-65.688-65.687c-.042-.042-.087-.077-.13-.117l49.383-41.897c3.158-2.68 3.546-7.412.866-10.571-2.678-3.157-7.41-3.547-10.571-.866l-84.381 71.59-98.444-87.158h208.965zm-144.956-55.079c.535-.535.969-1.131 1.308-1.765l28.051 24.835c1.418 1.255 3.194 1.885 4.972 1.885 1.726 0 3.451-.593 4.853-1.781l28.587-24.254c.26.38.553.743.89 1.08l65.687 65.687h-200.035z"/><path d="m7.5 170.676h126.667c4.143 0 7.5-3.357 7.5-7.5s-3.357-7.5-7.5-7.5h-126.667c-4.143 0-7.5 3.357-7.5 7.5s3.357 7.5 7.5 7.5z"/><path d="m20.625 129.345h56.875c4.143 0 7.5-3.357 7.5-7.5s-3.357-7.5-7.5-7.5h-56.875c-4.143 0-7.5 3.357-7.5 7.5s3.357 7.5 7.5 7.5z"/><path d="m62.5 226.51h-55c-4.143 0-7.5 3.357-7.5 7.5s3.357 7.5 7.5 7.5h55c4.143 0 7.5-3.357 7.5-7.5s-3.357-7.5-7.5-7.5z"/></svg>