<?xml version="1.0" ?><svg id="Line" style="enable-background:new 0 0 128 128;" version="1.1" viewBox="0 0 128 128" xml:space="preserve" xmlns="http://www.w3.org/2000/svg" xmlns:xlink="http://www.w3.org/1999/xlink"><g><path d="M108.455,19.096l-38.027-18c-0.012-0.006-0.025-0.004-0.037-0.009c-0.018-0.008-0.032-0.021-0.05-0.028   c-0.094-0.034-0.191-0.051-0.287-0.056c-0.004,0-0.008-0.002-0.011-0.002c-0.119-0.005-0.235,0.017-0.348,0.053   c-0.031,0.01-0.057,0.025-0.087,0.038c-0.079,0.034-0.151,0.076-0.22,0.13C69.356,1.247,69.328,1.272,69.3,1.3   c-0.022,0.022-0.049,0.036-0.068,0.06c-0.824,0.989-20.215,24.439-22.226,42.53C47.002,43.926,47,43.963,47,44v7H34   c-2.51,0-4.735,1.035-6.466,3H22c-3.859,0-7,3.14-7,7v6c0,3.86,3.141,7,7,7h1.727c-0.469,2.363-1.486,3.864-2.555,5.438   C19.613,81.735,18,84.109,18,89c0,4.864,1.6,7.486,3.146,10.021C22.614,101.426,24,103.698,24,108c0,4.276-1.373,6.298-2.827,8.438   C19.613,118.734,18,121.109,18,126c0,0.552,0.447,1,1,1s1-0.448,1-1c0-4.276,1.373-6.298,2.827-8.438   C24.387,115.266,26,112.891,26,108c0-4.864-1.6-7.486-3.146-10.021C21.386,95.574,20,93.302,20,89c0-4.275,1.373-6.298,2.827-8.438   c1.194-1.759,2.417-3.586,2.925-6.562h1.782c1.73,1.965,3.956,3,6.466,3h2v10.184c-1.161,0.414-2,1.514-2,2.816v8   c0,1.302,0.839,2.402,2,2.816V126c0,0.552,0.447,1,1,1h6c0.553,0,1-0.448,1-1v-25.184c1.161-0.414,2-1.514,2-2.816v-8   c0-1.302-0.839-2.402-2-2.816V77h3v1c0,0.037,0.002,0.074,0.006,0.11c2.011,18.091,21.401,41.541,22.226,42.53   c0.003,0.004,0.008,0.005,0.011,0.009c0.086,0.1,0.191,0.176,0.305,0.234c0.026,0.013,0.051,0.024,0.078,0.035   c0.119,0.048,0.243,0.082,0.372,0.082c0.001,0,0.001,0,0.002,0c0,0,0,0,0,0c0,0,0,0,0.001,0c0.001,0,0.002-0.001,0.003-0.001   c0.113,0,0.227-0.019,0.336-0.059c0.019-0.007,0.034-0.021,0.053-0.029c0.011-0.005,0.023-0.003,0.034-0.008l38.027-18   c0.35-0.166,0.572-0.517,0.572-0.904V20C109.027,19.613,108.805,19.262,108.455,19.096z M17,67v-6c0-2.414,1.721-4.434,4-4.899   v15.798C18.721,71.434,17,69.414,17,67z M38,125v-24h4v24H38z M44,98c0,0.551-0.448,1-1,1h-6c-0.552,0-1-0.449-1-1v-8   c0-0.551,0.448-1,1-1h6c0.552,0,1,0.449,1,1V98z M42,87h-4V77h4V87z M34,75c-2.066,0-3.822-0.883-5.22-2.626   C28.59,72.138,28.304,72,28,72h-5V56h5c0.304,0,0.59-0.138,0.78-0.374C30.178,53.883,31.934,53,34,53h13v22H34z M69,117.136   c-4.897-6.32-18.376-24.839-20-39.191V44.056c1.623-14.346,15.103-32.87,20-39.19V117.136z M107.027,101.367L71,118.42V3.58   l36.027,17.053V101.367z"/><path d="M73.466,114.845C73.628,114.948,73.813,115,74,115c0.146,0,0.293-0.032,0.43-0.097l30-14.269   c0.349-0.166,0.57-0.517,0.57-0.903V22.269c0-0.386-0.222-0.737-0.57-0.903l-30-14.269c-0.312-0.147-0.675-0.126-0.964,0.058   C73.176,7.338,73,7.657,73,8v106C73,114.343,73.176,114.662,73.466,114.845z M75,9.583l28,13.318v76.198l-28,13.318V9.583z"/><path d="M34,61h10c0.553,0,1-0.448,1-1s-0.447-1-1-1H34c-0.553,0-1,0.448-1,1S33.447,61,34,61z"/><path d="M44,63H34c-0.553,0-1,0.448-1,1s0.447,1,1,1h10c0.553,0,1-0.448,1-1S44.553,63,44,63z"/><path d="M44,67H34c-0.553,0-1,0.448-1,1s0.447,1,1,1h10c0.553,0,1-0.448,1-1S44.553,67,44,67z"/></g></svg>