<svg fill="none" height="35" viewBox="0 0 34 35" width="34" xmlns="http://www.w3.org/2000/svg"><g fill="#54656f"><path d="m31.2 4c1.1 0 2-.9 2-2s-.9-2-2-2-2 .9-2 2l-12.8 7.7-6.2-5.4c0-.1 0-.2 0-.4 0-1.1-.9-2-2-2s-2 .9-2 2 .9 2 2 2c.2 0 .4 0 .6-.1l4.8 4.1h-8.6c-2.8 0-5 2.2-5 5v12.6c0 2.8 2.2 5 5 5h1.5l-.9 1.3c-.2.3 0 .8.4.8h2.8c.1 0 .2 0 .2-.1l3.3-2h7.9l3.3 2c.1 0 .2.1.2.1h2.8c.4 0 .6-.4.4-.8l-.9-1.2h1.5c2.8 0 5-2.2 5-5v-12.7c0-2.8-2.2-5-5-5h-7.7l10.3-6.2c.4.2.7.3 1.1.3zm-.6 10.9v12.6c0 1.7-1.3 3-3 3h-22.6c-1.7 0-3-1.3-3-3v-12.6c0-1.7 1.3-3 3-3h22.6c1.6 0 3 1.4 3 3z"/><path d="m10.8 19.5h-2.5v-2h7.4v2h-2.5v6.4h-2.3v-6.4z"/><path d="m16 17.5h2.6l1.9 5.3 1.9-5.3h2.6l-3.4 8.5h-2.2z"/></g></svg>