<svg xmlns="http://www.w3.org/2000/svg" width="70" height="70" viewBox="0 0 70 70" style="width: 100%; height: 100%;"><desc>Made with illustrio</desc>
  
<g class="shadow"><g fill="none" fill-rule="evenodd" stroke="none">
    
    
  </g><g fill="none" transform="translate(19.727 19.09)" stroke="none">
      <path d="M23.5454545 16.5454545L.636363636 16.5454545C.285090909 16.5454545 0 16.8299091 0 17.1818182L0 27.3636364C0 27.7155455.285090909 28 .636363636 28L3.81818182 28 3.81818182 31.1818182C3.81818182 31.423 3.95436364 31.6431818 4.17009091 31.7513636 4.25981818 31.7959091 4.35781818 31.8181818 4.45454545 31.8181818 4.58945455 31.8181818 4.72372727 31.7755455 4.83636364 31.6909091L9.75736364 28 23.5454545 28C23.8973636 28 24.1818182 27.7155455 24.1818182 27.3636364L24.1818182 17.1818182C24.1818182 16.8299091 23.8973636 16.5454545 23.5454545 16.5454545L23.5454545 16.5454545zM29.9090909 0L7 0C6.64872727 0 6.36363636.285090909 6.36363636.636363636L6.36363636 10.8181818C6.36363636 11.1694545 6.64872727 11.4545455 7 11.4545455L23.3335455 11.4545455 28.2545455 15.1454545C28.3665455 15.2294545 28.5014545 15.2727273 28.6363636 15.2727273 28.7330909 15.2727273 28.8310909 15.2504545 28.9208182 15.2059091 29.1365455 15.0977273 29.2727273 14.8775455 29.2727273 14.6363636L29.2727273 11.4545455 29.9090909 11.4545455C30.261 11.4545455 30.5454545 11.1694545 30.5454545 10.8181818L30.5454545.636363636C30.5454545.285090909 30.261 0 29.9090909 0L29.9090909 0zM13.3636364 6.36363636L12.0909091 6.36363636C11.7396364 6.36363636 11.4545455 6.07854545 11.4545455 5.72727273 11.4545455 5.376 11.7396364 5.09090909 12.0909091 5.09090909L13.3636364 5.09090909C13.7149091 5.09090909 14 5.376 14 5.72727273 14 6.07854545 13.7149091 6.36363636 13.3636364 6.36363636L13.3636364 6.36363636zM18.4545455 6.36363636L17.1818182 6.36363636C16.8299091 6.36363636 16.5454545 6.07854545 16.5454545 5.72727273 16.5454545 5.376 16.8299091 5.09090909 17.1818182 5.09090909L18.4545455 5.09090909C18.8064545 5.09090909 19.0909091 5.376 19.0909091 5.72727273 19.0909091 6.07854545 18.8064545 6.36363636 18.4545455 6.36363636L18.4545455 6.36363636zM23.5454545 6.36363636L22.2727273 6.36363636C21.9208182 6.36363636 21.6363636 6.07854545 21.6363636 5.72727273 21.6363636 5.376 21.9208182 5.09090909 22.2727273 5.09090909L23.5454545 5.09090909C23.8973636 5.09090909 24.1818182 5.376 24.1818182 5.72727273 24.1818182 6.07854545 23.8973636 6.36363636 23.5454545 6.36363636L23.5454545 6.36363636z" fill="none" stroke="none"></path>
    </g></g><g class="clone"><g fill="none" fill-rule="evenodd" stroke="none" style="stroke-width: 2;" class="main-fill main-stroke">
    
    
  </g><g fill="none" transform="translate(19.727 19.09)" stroke="none" style="stroke-width: 2;" class="main-fill main-stroke">
      <path d="M23.5454545 16.5454545L.636363636 16.5454545C.285090909 16.5454545 0 16.8299091 0 17.1818182L0 27.3636364C0 27.7155455.285090909 28 .636363636 28L3.81818182 28 3.81818182 31.1818182C3.81818182 31.423 3.95436364 31.6431818 4.17009091 31.7513636 4.25981818 31.7959091 4.35781818 31.8181818 4.45454545 31.8181818 4.58945455 31.8181818 4.72372727 31.7755455 4.83636364 31.6909091L9.75736364 28 23.5454545 28C23.8973636 28 24.1818182 27.7155455 24.1818182 27.3636364L24.1818182 17.1818182C24.1818182 16.8299091 23.8973636 16.5454545 23.5454545 16.5454545L23.5454545 16.5454545zM29.9090909 0L7 0C6.64872727 0 6.36363636.285090909 6.36363636.636363636L6.36363636 10.8181818C6.36363636 11.1694545 6.64872727 11.4545455 7 11.4545455L23.3335455 11.4545455 28.2545455 15.1454545C28.3665455 15.2294545 28.5014545 15.2727273 28.6363636 15.2727273 28.7330909 15.2727273 28.8310909 15.2504545 28.9208182 15.2059091 29.1365455 15.0977273 29.2727273 14.8775455 29.2727273 14.6363636L29.2727273 11.4545455 29.9090909 11.4545455C30.261 11.4545455 30.5454545 11.1694545 30.5454545 10.8181818L30.5454545.636363636C30.5454545.285090909 30.261 0 29.9090909 0L29.9090909 0zM13.3636364 6.36363636L12.0909091 6.36363636C11.7396364 6.36363636 11.4545455 6.07854545 11.4545455 5.72727273 11.4545455 5.376 11.7396364 5.09090909 12.0909091 5.09090909L13.3636364 5.09090909C13.7149091 5.09090909 14 5.376 14 5.72727273 14 6.07854545 13.7149091 6.36363636 13.3636364 6.36363636L13.3636364 6.36363636zM18.4545455 6.36363636L17.1818182 6.36363636C16.8299091 6.36363636 16.5454545 6.07854545 16.5454545 5.72727273 16.5454545 5.376 16.8299091 5.09090909 17.1818182 5.09090909L18.4545455 5.09090909C18.8064545 5.09090909 19.0909091 5.376 19.0909091 5.72727273 19.0909091 6.07854545 18.8064545 6.36363636 18.4545455 6.36363636L18.4545455 6.36363636zM23.5454545 6.36363636L22.2727273 6.36363636C21.9208182 6.36363636 21.6363636 6.07854545 21.6363636 5.72727273 21.6363636 5.376 21.9208182 5.09090909 22.2727273 5.09090909L23.5454545 5.09090909C23.8973636 5.09090909 24.1818182 5.376 24.1818182 5.72727273 24.1818182 6.07854545 23.8973636 6.36363636 23.5454545 6.36363636L23.5454545 6.36363636z" fill="none" stroke="none" style="stroke-width: 2;" class="main-fill main-stroke"></path>
    </g></g><g class="base"><g fill="none" fill-rule="evenodd" stroke="none" class="secondary-fill">
    
    
  </g><g fill="none" transform="translate(19.727 19.09)" stroke="none" class="secondary-fill">
      <path d="M23.5454545 16.5454545L.636363636 16.5454545C.285090909 16.5454545 0 16.8299091 0 17.1818182L0 27.3636364C0 27.7155455.285090909 28 .636363636 28L3.81818182 28 3.81818182 31.1818182C3.81818182 31.423 3.95436364 31.6431818 4.17009091 31.7513636 4.25981818 31.7959091 4.35781818 31.8181818 4.45454545 31.8181818 4.58945455 31.8181818 4.72372727 31.7755455 4.83636364 31.6909091L9.75736364 28 23.5454545 28C23.8973636 28 24.1818182 27.7155455 24.1818182 27.3636364L24.1818182 17.1818182C24.1818182 16.8299091 23.8973636 16.5454545 23.5454545 16.5454545L23.5454545 16.5454545zM29.9090909 0L7 0C6.64872727 0 6.36363636.285090909 6.36363636.636363636L6.36363636 10.8181818C6.36363636 11.1694545 6.64872727 11.4545455 7 11.4545455L23.3335455 11.4545455 28.2545455 15.1454545C28.3665455 15.2294545 28.5014545 15.2727273 28.6363636 15.2727273 28.7330909 15.2727273 28.8310909 15.2504545 28.9208182 15.2059091 29.1365455 15.0977273 29.2727273 14.8775455 29.2727273 14.6363636L29.2727273 11.4545455 29.9090909 11.4545455C30.261 11.4545455 30.5454545 11.1694545 30.5454545 10.8181818L30.5454545.636363636C30.5454545.285090909 30.261 0 29.9090909 0L29.9090909 0zM13.3636364 6.36363636L12.0909091 6.36363636C11.7396364 6.36363636 11.4545455 6.07854545 11.4545455 5.72727273 11.4545455 5.376 11.7396364 5.09090909 12.0909091 5.09090909L13.3636364 5.09090909C13.7149091 5.09090909 14 5.376 14 5.72727273 14 6.07854545 13.7149091 6.36363636 13.3636364 6.36363636L13.3636364 6.36363636zM18.4545455 6.36363636L17.1818182 6.36363636C16.8299091 6.36363636 16.5454545 6.07854545 16.5454545 5.72727273 16.5454545 5.376 16.8299091 5.09090909 17.1818182 5.09090909L18.4545455 5.09090909C18.8064545 5.09090909 19.0909091 5.376 19.0909091 5.72727273 19.0909091 6.07854545 18.8064545 6.36363636 18.4545455 6.36363636L18.4545455 6.36363636zM23.5454545 6.36363636L22.2727273 6.36363636C21.9208182 6.36363636 21.6363636 6.07854545 21.6363636 5.72727273 21.6363636 5.376 21.9208182 5.09090909 22.2727273 5.09090909L23.5454545 5.09090909C23.8973636 5.09090909 24.1818182 5.376 24.1818182 5.72727273 24.1818182 6.07854545 23.8973636 6.36363636 23.5454545 6.36363636L23.5454545 6.36363636z" fill="none" stroke="none" class="secondary-fill"></path>
    </g></g><style>
          .main-fill {fill: #3d3d3d;}
          .main-stroke {stroke: #3d3d3d;}
          .secondary-fill {fill: #39e478;}
          .secondary-stroke {stroke: #39e478;}

          .main-fill--darken {fill: #171717;}
          .main-stroke--darken {stroke: #171717;}
          .secondary-fill--darken {fill: #19b753;}
          .secondary-stroke--darken {stroke: #19b753;}

          .main-fill--darkener {fill: #000000;}
          .main-stroke--darkener {stroke: #000000;}
          .secondary-fill--darkener {fill: #138b3f;}
          .secondary-stroke--darkener {stroke: #138b3f;}
        </style></svg>