<svg width="126" height="123" viewBox="0 0 126 123" fill="none" xmlns="http://www.w3.org/2000/svg">
<path d="M62 83.6999L94 65.1999L62 46.7L29.8999 65.1999L62 83.6999L53.5999 102.2L29.8999 88.4999V102.2L62 120.7L94 102.2V88.4999L70.4 102.2L62 83.6999Z" fill="#257CDE"/>
<path d="M62 83.6999L94 65.1999L62 46.7L29.8999 65.1999L62 83.6999ZM62 83.6999L53.5999 102.2L29.8999 88.4999V102.2L62 120.7L94 102.2V88.4999L70.4 102.2L62 83.6999Z" stroke="#4D4D4D" stroke-width="3" stroke-miterlimit="10" stroke-linecap="round" stroke-linejoin="round"/>
<path d="M63.2002 10V2" stroke="#4D4D4D" stroke-width="3" stroke-miterlimit="10" stroke-linecap="round" stroke-linejoin="round"/>
<path d="M31.8999 18.4L27.8999 11.5" stroke="#4D4D4D" stroke-width="3" stroke-miterlimit="10" stroke-linecap="round" stroke-linejoin="round"/>
<path d="M8.90002 41.3998L2 37.3999" stroke="#4D4D4D" stroke-width="3" stroke-miterlimit="10" stroke-linecap="round" stroke-linejoin="round"/>
<path d="M124.5 37.3999L117.5 41.3998" stroke="#4D4D4D" stroke-width="3" stroke-miterlimit="10" stroke-linecap="round" stroke-linejoin="round"/>
<path d="M98.6001 11.5L94.6001 18.4" stroke="#4D4D4D" stroke-width="3" stroke-miterlimit="10" stroke-linecap="round" stroke-linejoin="round"/>
<path d="M102.4 83.7L70.4 102.2L62 83.7L94 65.2L102.4 83.7Z" fill="#257CDE" stroke="#4D4D4D" stroke-width="3" stroke-miterlimit="10" stroke-linecap="round" stroke-linejoin="round"/>
<path d="M21.5 83.7L53.6 102.2L62 83.7L29.9 65.2L21.5 83.7Z" fill="#257CDE" stroke="#4D4D4D" stroke-width="3" stroke-miterlimit="10" stroke-linecap="round" stroke-linejoin="round"/>
<path d="M62 83.7L53.5999 102.2L29.8999 88.4999V102.2L62 120.7L94 102.2V88.4999L70.4 102.2L62 83.7Z" fill="#25B1F3" stroke="#4D4D4D" stroke-width="3" stroke-miterlimit="10" stroke-linecap="round" stroke-linejoin="round"/>
<path d="M62 83.7L29.8999 65.1999L62 46.7L94 65.1999L62 83.7Z" stroke="#4D4D4D" stroke-width="3.2493" stroke-miterlimit="10" stroke-linecap="round" stroke-linejoin="round"/>
<path d="M62 120.7V46.7" stroke="#4D4D4D" stroke-width="3" stroke-miterlimit="10" stroke-linecap="round" stroke-linejoin="round"/>
</svg>
