<svg fill="none" height="123" viewBox="0 0 126 123" width="126" xmlns="http://www.w3.org/2000/svg"><path d="m62 83.6999 32-18.5-32-18.4999-32.1001 18.4999 32.1001 18.5-8.4001 18.5001-23.7-13.7001v13.7001l32.1001 18.5 32-18.5v-13.7001l-23.6 13.7001z" fill="#257cde"/><g stroke="#4d4d4d" stroke-linecap="round" stroke-linejoin="round" stroke-miterlimit="10"><path d="m62 83.6999 32-18.5-32-18.4999-32.1001 18.4999zm0 0-8.4001 18.5001-23.7-13.7001v13.7001l32.1001 18.5 32-18.5v-13.7001l-23.6 13.7001z" stroke-width="3"/><path d="m63.2002 10v-8" stroke-width="3"/><path d="m31.8999 18.4-4-6.9" stroke-width="3"/><path d="m8.90002 41.3998-6.90002-3.9999" stroke-width="3"/><path d="m124.5 37.3999-7 3.9999" stroke-width="3"/><path d="m98.6001 11.5-4 6.9" stroke-width="3"/><path d="m102.4 83.7-32 18.5-8.4-18.5 32-18.5z" fill="#257cde" stroke-width="3"/><path d="m21.5 83.7 32.1 18.5 8.4-18.5-32.1-18.5z" fill="#257cde" stroke-width="3"/><path d="m62 83.7-8.4001 18.5-23.7-13.7001v13.7001l32.1001 18.5 32-18.5v-13.7001l-23.6 13.7001z" fill="#25b1f3" stroke-width="3"/><path d="m62 83.7-32.1001-18.5001 32.1001-18.4999 32 18.4999z" stroke-width="3.2493"/><path d="m62 120.7v-74" stroke-width="3"/></g></svg>