<svg width="99" height="122" viewBox="0 0 99 122" fill="none" xmlns="http://www.w3.org/2000/svg">
<path d="M28.5999 95.9999L35.7 112.6H14.3999L21.5999 95.8999" fill="white"/>
<path d="M28.5999 95.9999L35.7 112.6H14.3999L21.5999 95.8999" stroke="#4D4D4D" stroke-width="3" stroke-miterlimit="10" stroke-linejoin="round"/>
<path d="M40.3999 61.8L44.7999 57.5" stroke="#4D4D4D" stroke-width="3" stroke-miterlimit="10" stroke-linejoin="round"/>
<path d="M47.1003 58.4999C48.9781 58.4999 50.5004 56.9777 50.5004 55.0999C50.5004 53.2222 48.9781 51.7 47.1003 51.7C45.2225 51.7 43.7002 53.2222 43.7002 55.0999C43.7002 56.9777 45.2225 58.4999 47.1003 58.4999Z" fill="#FF195E" stroke="#4D4D4D" stroke-width="3" stroke-miterlimit="10" stroke-linejoin="round"/>
<path d="M25.1003 96.5C28.3588 96.5 31.0004 93.8585 31.0004 90.6C31.0004 87.3415 28.3588 84.7 25.1003 84.7C21.8418 84.7 19.2002 87.3415 19.2002 90.6C19.2002 93.8585 21.8418 96.5 25.1003 96.5Z" fill="#FF195E" stroke="#4D4D4D" stroke-width="3" stroke-miterlimit="10" stroke-linejoin="round"/>
<path d="M57.4998 78.9C58.4998 79.9 58.3998 81.6 57.2998 82.5C46.7998 91.1 31.3998 90.5 21.5998 80.7C11.7999 70.9 11.1999 55.4999 19.7998 44.9999C20.6998 43.8999 22.3998 43.7999 23.3998 44.7999L57.4998 78.9Z" fill="#D0C8C4" stroke="#4D4D4D" stroke-width="3" stroke-miterlimit="10" stroke-linejoin="round"/>
<path d="M73.3003 26.0001L79.0004 20.3" stroke="#4D4D4D" stroke-width="3" stroke-miterlimit="10" stroke-linecap="round" stroke-linejoin="round"/>
<path d="M45.2002 9.69998L47.3003 2" stroke="#4D4D4D" stroke-width="3" stroke-miterlimit="10" stroke-linecap="round" stroke-linejoin="round"/>
<path d="M12.7002 9.69998L10.7002 2" stroke="#4D4D4D" stroke-width="3" stroke-miterlimit="10" stroke-linecap="round" stroke-linejoin="round"/>
<path d="M97.3 88.6L89.5 86.5" stroke="#4D4D4D" stroke-width="3" stroke-miterlimit="10" stroke-linecap="round" stroke-linejoin="round"/>
<path d="M97.3 52L89.5 54.1" stroke="#4D4D4D" stroke-width="3" stroke-miterlimit="10" stroke-linecap="round" stroke-linejoin="round"/>
<path d="M47.7 112.6H2V119.7H47.7V112.6Z" fill="#D0C8C4" stroke="#4D4D4D" stroke-width="3" stroke-miterlimit="10" stroke-linejoin="round"/>
</svg>
