<svg width="205" height="94" viewBox="0 0 205 94" fill="none" xmlns="http://www.w3.org/2000/svg">
<path d="M86.4382 15.2003L73.7104 2.47253L3.00045 73.1825L15.7283 85.9103L86.4382 15.2003Z" fill="#FFA20D" stroke="#4D4D4D" stroke-width="3" stroke-miterlimit="10" stroke-linejoin="round"/>
<path opacity="0.5" d="M86.4148 15.2L73.687 2.47217L56.0095 20.1497L68.7373 32.8775L86.4148 15.2Z" fill="#BF7A0A"/>
<path d="M3 73.2L7.2 77.5" stroke="#4D4D4D" stroke-width="3" stroke-miterlimit="10" stroke-linecap="round" stroke-linejoin="round"/>
<path d="M8.8999 67.3L13.0999 71.6" stroke="#4D4D4D" stroke-width="3" stroke-miterlimit="10" stroke-linecap="round" stroke-linejoin="round"/>
<path d="M14.8 61.4L19 65.7" stroke="#4D4D4D" stroke-width="3" stroke-miterlimit="10" stroke-linecap="round" stroke-linejoin="round"/>
<path d="M20.7 55.5L24.9 59.8" stroke="#4D4D4D" stroke-width="3" stroke-miterlimit="10" stroke-linecap="round" stroke-linejoin="round"/>
<path d="M26.6001 49.6L30.8001 53.9" stroke="#4D4D4D" stroke-width="3" stroke-miterlimit="10" stroke-linecap="round" stroke-linejoin="round"/>
<path d="M32.5 43.7L36.7 48" stroke="#4D4D4D" stroke-width="3" stroke-miterlimit="10" stroke-linecap="round" stroke-linejoin="round"/>
<path d="M38.3999 37.9L42.5999 42.1" stroke="#4D4D4D" stroke-width="3" stroke-miterlimit="10" stroke-linecap="round" stroke-linejoin="round"/>
<path d="M44.2 32L48.5 36.2" stroke="#4D4D4D" stroke-width="3" stroke-miterlimit="10" stroke-linecap="round" stroke-linejoin="round"/>
<path d="M50.1001 26.1L54.4001 30.3" stroke="#4D4D4D" stroke-width="3" stroke-miterlimit="10" stroke-linecap="round" stroke-linejoin="round"/>
<path d="M56 20.2L60.3 24.4" stroke="#4D4D4D" stroke-width="3" stroke-miterlimit="10" stroke-linecap="round" stroke-linejoin="round"/>
<path d="M61.8999 14.3L66.1999 18.5" stroke="#4D4D4D" stroke-width="3" stroke-miterlimit="10" stroke-linecap="round" stroke-linejoin="round"/>
<path d="M67.8 8.40002L72.1 12.6" stroke="#4D4D4D" stroke-width="3" stroke-miterlimit="10" stroke-linecap="round" stroke-linejoin="round"/>
<path d="M73.7 2.5L78 6.7" stroke="#4D4D4D" stroke-width="3" stroke-miterlimit="10" stroke-linecap="round" stroke-linejoin="round"/>
<path d="M86.4382 15.2003L73.7104 2.47253L3.00045 73.1825L15.7283 85.9103L86.4382 15.2003Z" stroke="#4D4D4D" stroke-width="3" stroke-miterlimit="10" stroke-linejoin="round"/>
<path d="M131.709 85.9501L144.437 73.2223L73.727 2.51229L60.9992 15.2401L131.709 85.9501Z" fill="#FFA20D" stroke="#4D4D4D" stroke-width="3" stroke-miterlimit="10" stroke-linejoin="round"/>
<path opacity="0.5" d="M131.733 85.9503L144.461 73.2225L126.783 55.545L114.056 68.2728L131.733 85.9503Z" fill="#BF7A0A"/>
<path d="M73.7 2.5L69.5 6.7" stroke="#4D4D4D" stroke-width="3" stroke-miterlimit="10" stroke-linecap="round" stroke-linejoin="round"/>
<path d="M79.5999 8.40002L75.3999 12.6" stroke="#4D4D4D" stroke-width="3" stroke-miterlimit="10" stroke-linecap="round" stroke-linejoin="round"/>
<path d="M85.5 14.3L81.3 18.5" stroke="#4D4D4D" stroke-width="3" stroke-miterlimit="10" stroke-linecap="round" stroke-linejoin="round"/>
<path d="M91.4001 20.2L87.1001 24.4" stroke="#4D4D4D" stroke-width="3" stroke-miterlimit="10" stroke-linecap="round" stroke-linejoin="round"/>
<path d="M97.3 26.1L93 30.3" stroke="#4D4D4D" stroke-width="3" stroke-miterlimit="10" stroke-linecap="round" stroke-linejoin="round"/>
<path d="M103.2 32L98.8999 36.2" stroke="#4D4D4D" stroke-width="3" stroke-miterlimit="10" stroke-linecap="round" stroke-linejoin="round"/>
<path d="M109.1 37.9L104.8 42.1" stroke="#4D4D4D" stroke-width="3" stroke-miterlimit="10" stroke-linecap="round" stroke-linejoin="round"/>
<path d="M115 43.7L110.7 48" stroke="#4D4D4D" stroke-width="3" stroke-miterlimit="10" stroke-linecap="round" stroke-linejoin="round"/>
<path d="M120.9 49.6L116.6 53.9" stroke="#4D4D4D" stroke-width="3" stroke-miterlimit="10" stroke-linecap="round" stroke-linejoin="round"/>
<path d="M126.7 55.5L122.5 59.8" stroke="#4D4D4D" stroke-width="3" stroke-miterlimit="10" stroke-linecap="round" stroke-linejoin="round"/>
<path d="M132.6 61.4L128.4 65.7" stroke="#4D4D4D" stroke-width="3" stroke-miterlimit="10" stroke-linecap="round" stroke-linejoin="round"/>
<path d="M138.5 67.3L134.3 71.6" stroke="#4D4D4D" stroke-width="3" stroke-miterlimit="10" stroke-linecap="round" stroke-linejoin="round"/>
<path d="M144.4 73.2L140.2 77.5" stroke="#4D4D4D" stroke-width="3" stroke-miterlimit="10" stroke-linecap="round" stroke-linejoin="round"/>
<path d="M131.709 85.9501L144.437 73.2223L73.727 2.51229L60.9992 15.2401L131.709 85.9501Z" stroke="#4D4D4D" stroke-width="3" stroke-miterlimit="10" stroke-linejoin="round"/>
<path d="M202.427 15.2239L189.699 2.49609L118.989 73.2061L131.717 85.9339L202.427 15.2239Z" fill="#FFA20D" stroke="#4D4D4D" stroke-width="3" stroke-miterlimit="10" stroke-linejoin="round"/>
<path d="M119 73.2L123.2 77.5" stroke="#4D4D4D" stroke-width="3" stroke-miterlimit="10" stroke-linejoin="round"/>
<path d="M124.9 67.2999L129.1 71.5999" stroke="#4D4D4D" stroke-width="3" stroke-miterlimit="10" stroke-linejoin="round"/>
<path d="M130.8 61.3999L135 65.6999" stroke="#4D4D4D" stroke-width="3" stroke-miterlimit="10" stroke-linejoin="round"/>
<path d="M136.6 55.5L140.9 59.8" stroke="#4D4D4D" stroke-width="3" stroke-miterlimit="10" stroke-linejoin="round"/>
<path d="M142.5 49.6L146.8 53.9" stroke="#4D4D4D" stroke-width="3" stroke-miterlimit="10" stroke-linejoin="round"/>
<path d="M148.4 43.7L152.7 48" stroke="#4D4D4D" stroke-width="3" stroke-miterlimit="10" stroke-linejoin="round"/>
<path d="M154.3 37.8999L158.6 42.0999" stroke="#4D4D4D" stroke-width="3" stroke-miterlimit="10" stroke-linejoin="round"/>
<path d="M160.2 32L164.5 36.2" stroke="#4D4D4D" stroke-width="3" stroke-miterlimit="10" stroke-linejoin="round"/>
<path d="M166.1 26.1L170.3 30.3" stroke="#4D4D4D" stroke-width="3" stroke-miterlimit="10" stroke-linejoin="round"/>
<path d="M172 20.2L176.2 24.4" stroke="#4D4D4D" stroke-width="3" stroke-miterlimit="10" stroke-linejoin="round"/>
<path d="M177.9 14.2999L182.1 18.4999" stroke="#4D4D4D" stroke-width="3" stroke-miterlimit="10" stroke-linejoin="round"/>
<path d="M183.8 8.39996L188 12.6" stroke="#4D4D4D" stroke-width="3" stroke-miterlimit="10" stroke-linejoin="round"/>
<path d="M189.7 2.49994L193.9 6.69994" stroke="#4D4D4D" stroke-width="3" stroke-miterlimit="10" stroke-linejoin="round"/>
<path d="M86.5 70.7999C89.4 70.7999 89.4 91.7999 86.5 91.7999L62.7 81.2999L86.5 70.7999Z" fill="#DFBA97" stroke="#4D4D4D" stroke-width="3" stroke-miterlimit="10" stroke-linejoin="round"/>
<path d="M166.7 70.7999V91.7999H174.7C178 91.7999 180.7 88.9999 180.7 85.4999V77.0999C180.7 73.5999 178 70.7999 174.7 70.7999H166.7Z" fill="#FFAD9A" stroke="#4D4D4D" stroke-width="3" stroke-miterlimit="10" stroke-linejoin="round"/>
<path d="M86.5 70.7999V91.7999H166.7V70.7999H86.5Z" fill="#25B1F3" stroke="#4D4D4D" stroke-width="3" stroke-miterlimit="10" stroke-linecap="round" stroke-linejoin="round"/>
<path d="M86.5 77.7999V84.7999H166.7V77.7999H86.5Z" stroke="#4D4D4D" stroke-width="3" stroke-miterlimit="10" stroke-linecap="round" stroke-linejoin="round"/>
<path d="M70.9 84.9C71.4 83.8 71.6999 82.6 71.6999 81.3C71.6999 80 71.4 78.8 70.9 77.7L62.7 81.3L70.9 84.9Z" fill="#4D4D4D"/>
</svg>
