<svg fill="none" height="108" viewBox="0 0 114 108" width="114" xmlns="http://www.w3.org/2000/svg"><path d="m2 33.3 55-31.8 55 31.8-54.8 33.6z" style="fill:#abe891;stroke:#4d4d4d;stroke-width:3;stroke-miterlimit:10;stroke-linecap:round;stroke-linejoin:round"/><path d="m57 106.5 55-31.6999v-41.5001l-54.8 33.6001z" style="fill:#92d277;stroke:#4d4d4d;stroke-width:3;stroke-miterlimit:10;stroke-linecap:round;stroke-linejoin:round"/><path d="m2 74.8001 55 31.6999.2-39.5999-55.2-33.6001z" style="fill:#6fc14d;stroke:#4d4d4d;stroke-width:3;stroke-miterlimit:10;stroke-linecap:round;stroke-linejoin:round"/><path d="m48.2 42.5v5.5c0 1.3.8999 2.6 2.5999 3.6 3.4 2 9.0001 2 12.4001 0 1.7-1 2.6-2.3 2.6-3.6v-5.5" fill="#6fc14d"/><path d="m48.2 42.5v5.5c0 1.3.8999 2.6 2.5999 3.6 3.4 2 9.0001 2 12.4001 0 1.7-1 2.6-2.3 2.6-3.6v-5.5" stroke="#4d4d4d" stroke-linecap="round" stroke-linejoin="round" stroke-miterlimit="10" stroke-width="3"/><path d="m22.5 27.7v5.5c0 1.3.9 2.5999 2.6 3.5999 3.4 2 9 2 12.4 0 1.7-1 2.6-2.2999 2.6-3.5999v-5.5" fill="#6fc14d"/><path d="m22.5 27.7v5.5c0 1.3.9 2.5999 2.6 3.5999 3.4 2 9 2 12.4 0 1.7-1 2.6-2.2999 2.6-3.5999v-5.5" stroke="#4d4d4d" stroke-linecap="round" stroke-linejoin="round" stroke-miterlimit="10" stroke-width="3"/><path d="m48.2 12.9v5.5c0 1.3.8999 2.6 2.5999 3.6 3.4 2 9.0001 2 12.4001 0 1.7-1 2.6-2.3 2.6-3.6v-5.5" fill="#6fc14d"/><path d="m48.2 12.9v5.5c0 1.3.8999 2.6 2.5999 3.6 3.4 2 9.0001 2 12.4001 0 1.7-1 2.6-2.3 2.6-3.6v-5.5" stroke="#4d4d4d" stroke-linecap="round" stroke-linejoin="round" stroke-miterlimit="10" stroke-width="3"/><path d="m73.8999 27.7v5.5c0 1.3.9 2.5999 2.6 3.5999 3.4 2 9 2 12.4 0 1.7-1 2.6-2.2999 2.6-3.5999v-5.5" fill="#6fc14d"/><g stroke="#4d4d4d" stroke-linecap="round" stroke-linejoin="round" stroke-miterlimit="10" stroke-width="3"><path d="m73.8999 27.7v5.5c0 1.3.9 2.5999 2.6 3.5999 3.4 2 9 2 12.4 0 1.7-1 2.6-2.2999 2.6-3.5999v-5.5"/><path d="m63.0999 39c3.4 2 3.4 5.2 0 7.1-3.4 2-9 2-12.4 0s-3.4-5.2 0-7.1c3.4-2 9-2 12.4 0z" fill="#92d277"/><path d="m37.5 24.2c3.4 2 3.4 5.2 0 7.1-3.4 2-9 2-12.4 0s-3.4-5.2 0-7.1 9-2 12.4 0z" fill="#92d277"/><path d="m63.2 9.3c3.4 2 3.4 5.2 0 7.1-3.4 2-9 2-12.4 0s-3.4-5.2 0-7.1 9-1.9 12.4 0z" fill="#92d277"/><path d="m88.8001 24.1c3.4 2 3.4 5.2 0 7.1-3.4 2-9 2-12.4 0s-3.4-5.2 0-7.1 9-1.9 12.4 0z" fill="#92d277"/></g></svg>