<svg fill="none" height="119" viewBox="0 0 126 119" width="126" xmlns="http://www.w3.org/2000/svg"><g stroke="#4d4d4d" stroke-linecap="round" stroke-linejoin="round" stroke-miterlimit="10" stroke-width="3"><path d="m97.0001 73.6c8.0999-5.1 1.2-16.9-4.7-15.3 3-7.7-3.6-15.1-9.1-13.6-.1001-4.9-4.5001-6.2-8.0001-6.2-4.9 0-8.9 4.3-8.9 9.7v54c0 8 6 14.5 13.4 14.5 7.6001 0 14.7001-7.4 9.3001-16.3 8.8 4 11.5999-5.7 7.4-9.8 7.3999-3.1 8.6999-14.4.6-17z" fill="#2bd1b8"/><path d="m92.5004 57.8c-1.9 4.9001-7.1001 7.3001-11.7001 5.2001"/><path d="m82.4999 56.8001c-4.7-1.5-8.3 1.2-9 4.7-.9 4.1 3.7 8.8 8.3 8.5"/><path d="m88.2 73.6001c-.7999 4.6 3.3 7.4 7.2 7.1"/><path d="m89.4 94.9c-2.8-1.6-6.1-2.1001-8.1.5-2.1999 2.9-.6 6.2 3 8.7"/><path d="m76.8999 89.3001c4.4-5 13.5-5.4 19.4 1.2"/><path d="m29.5001 73.6c-8.1-5.1-1.2-16.9 4.7-15.3-3-7.7 3.6-15.1 9.1-13.6.1-4.9 4.5-6.2 8-6.2 4.9 0 8.9 4.3 8.9 9.7v54c0 8-6 14.5-13.4 14.5-7.6 0-14.7-7.4-9.3-16.3-8.8 4-11.6-5.7-7.4-9.8-7.5-3.1-8.7-14.4-.6-17z" fill="#c149c4"/><path d="m33.8999 57.8c1.9 4.9001 7.1 7.3001 11.7 5.2001"/><path d="m43.8999 56.8001c4.7-1.5 8.3 1.2 9 4.7.9 4.1-3.7 8.8-8.3 8.5"/><path d="m38.3001 73.6001c.8 4.6-3.3 7.4-7.2 7.1"/><path d="m37 94.9c2.8-1.6 6.1-2.1001 8.1.5 2.2 2.9.6 6.2-3 8.7"/><path d="m49.6002 89.3001c-4.4-5-13.5-5.4-19.4 1.2"/><path d="m63.2002 10.0001v-8.0001"/><path d="m31.8999 18.4001-4-6.9001"/><path d="m8.90002 41.4001-6.90002-4"/><path d="m124.5 37.4001-7 4"/><path d="m98.6001 11.5-4 6.9001"/></g></svg>