<?xml version="1.0" encoding="UTF-8"?>
<svg id="a" data-name="Ebene 1" xmlns="http://www.w3.org/2000/svg" viewBox="0 0 1435.25 918.16">
  <defs>
    <style>
      .b {
        fill: #6eff40;
      }
    </style>
  </defs>
  <path class="b" d="M88.28,913.11H27.74L0,5H56.74l6.31,484.31v312.81l8.83-312.79L85.74,5h50.43l11.36,485.57,10.1,315.32V490.59L166.49,5h54.25l-27.77,908.11h-60.55l-18.9-464.11-3.78-261.11-3.8,261.11-17.66,464.11Z"/>
  <path class="b" d="M249.74,902.39c-12.61-10.5-18.91-27.53-18.91-51.08V65.55c0-21.85,6.3-38.24,18.91-49.17S279.58,0,301.43,0C324.1,0,341.12,5.47,352.51,16.41s17.05,27.33,17,49.17V851.31c0,23.55-6.1,40.58-18.3,51.08-12.2,10.5-29.23,15.76-51.08,15.77-21.01,0-37.8-5.26-50.39-15.77Zm58-46c1.69-3.33,2.53-7.96,2.54-13.88V74.38c0-5.88-.85-10.29-2.54-13.24-2.36-4.18-7.65-5.65-11.82-3.3-1.38,.78-2.52,1.92-3.3,3.3-1.69,2.94-2.52,7.36-2.52,13.24V842.48c0,5.9,.83,10.52,2.52,13.88s4.19,5,7.56,5,5.86-1.64,7.56-5v.03Z"/>
  <path class="b" d="M408.62,902.39c-12.59-10.5-18.88-27.53-18.88-51.08V65.55c0-21.85,6.3-38.24,18.91-49.17C421.26,5.45,438.48,0,460.33,0,483.04,0,500.06,5.47,511.41,16.41c11.35,10.94,17.01,27.33,17,49.17V851.31c0,23.55-6.1,40.58-18.29,51.08-12.19,10.5-29.22,15.76-51.08,15.77-21.01,0-37.82-5.26-50.42-15.77Zm58-46c1.69-3.33,2.54-7.96,2.53-13.88V74.38c0-5.88-.84-10.29-2.53-13.24-2.36-4.18-7.65-5.65-11.82-3.3-1.38,.78-2.52,1.92-3.3,3.3-1.69,2.94-2.52,7.36-2.52,13.24V842.48c0,5.9,.83,10.52,2.52,13.88s4.18,5,7.56,5,5.88-1.64,7.57-5v.03Z"/>
  <path class="b" d="M548.62,5h69.36c21.86,0,38.88,4.62,51.07,13.87,12.19,9.25,18.29,26.06,18.3,50.44V848.78c0,24.39-6.52,41.21-19.55,50.45s-30.48,13.87-52.34,13.88h-66.84V5Zm59.28,55.48V857.61h7.56c4.2,0,7.36-1.47,9.45-4.41s3.16-6.93,3.16-12V74.38c0-5.04-1.05-8.61-3.16-10.72-2.09-2.1-5.67-3.16-10.71-3.16l-6.3-.02Z"/>
  <path class="b" d="M708.79,913.11V5h75.68c23.53,0,39.71,4.83,48.54,14.5s13.24,22.91,13.25,39.73V403.56c0,10.1-1.67,18.72-5,25.86-3.27,7.03-8.53,12.94-15.13,17,7.56,4.21,13.02,9.46,16.39,15.77,3.47,6.83,5.18,14.41,5,22.06v374.6c0,17.65-5.26,31.1-15.77,40.35s-26.7,13.87-48.56,13.88l-74.4,.03ZM768.07,60.5V417.44h6.3c5,0,8.63-1.67,10.72-5.05s3.16-8,3.16-13.87V74.38c0-5-1.07-8.61-3.16-10.72s-5.67-3.16-10.72-3.16h-6.3Zm0,412.44v384.67h7.57c4.2,0,7.36-1.25,9.45-3.78s3.16-6.3,3.16-11.35V486.81c0-5-1.07-8.62-3.16-10.72s-5.25-3.15-9.45-3.15h-7.57Z"/>
  <path class="b" d="M867.74,913.11V5h59.28V853.83h36.56v59.28h-95.84Z"/>
  <path class="b" d="M993.82,902.39c-12.61-10.5-18.91-27.53-18.91-51.08V65.55c0-21.85,6.3-38.24,18.91-49.17S1023.67,0,1045.54,0C1068.21,0,1085.23,5.47,1096.62,16.41c11.39,10.94,17.05,27.33,17,49.17V851.31c0,23.55-6.1,40.58-18.3,51.08-12.2,10.5-29.23,15.76-51.08,15.77-21,0-37.81-5.26-50.42-15.77Zm58-46c1.68-3.33,2.52-7.96,2.53-13.88V74.38c0-5.88-.84-10.29-2.53-13.24-2.35-4.18-7.64-5.66-11.82-3.31-1.39,.78-2.53,1.92-3.31,3.31-1.69,2.94-2.51,7.36-2.51,13.24V842.48c0,5.9,.82,10.52,2.51,13.88s4.19,5,7.56,5,5.9-1.64,7.59-5l-.02,.03Z"/>
  <path class="b" d="M1150.21,902.39c-10.93-10.5-16.4-27.95-16.39-52.34V64.3c0-22.71,6.09-39.11,18.28-49.19C1164.29,5.03,1180.9,0,1201.93,0,1222.95,0,1239.55,5.05,1251.74,15.14c12.19,10.09,18.28,26.49,18.29,49.19V409.88h-58V73.12c0-5.87-.84-10.07-2.52-12.6-1.66-2.53-4.54-3.98-7.56-3.8-2.53,0-4.64,1.26-6.31,3.8s-2.52,6.73-2.52,12.6V845c0,5,.83,9,2.52,12s3.78,4.41,6.31,4.41c4.19,0,6.92-1.05,8.19-3.14,1.25-2.09,1.89-6.52,1.89-13.25V479.23h58v370.82c0,24.39-5.89,41.84-17.66,52.34-11.77,10.5-28.59,15.76-50.44,15.77-23.56,0-40.8-5.26-51.72-15.77Z"/>
  <path class="b" d="M1353.27,500.69l-3.78,26.48v385.94h-59.28V5h59.28V194.2l-13.88,278.74,25.22-263.61,18.91-204.33h55.5l-39.1,375.86,39.11,532.25h-60.51l-21.47-412.42Z"/>
</svg>