<svg fill="none" height="65" viewBox="0 0 180 65" width="180" xmlns="http://www.w3.org/2000/svg"><path clip-rule="evenodd" d="m55.0246 16.0755c1.7568-.8218 3.5212-1.6472 6.134-3.1 2.0936 2.9477 2.5984 9.7528 2.6801 15.1475 1.8114-3.4272 4.0089-16.2969 3.0809-18.63817 2.7833-1.73315 3.253-2.59016 3.8302-3.6435.1156-.21099.2355-.42986.3792-.66522-.6602.05375-1.2625.09861-1.8183.14001-2.2879.17041-3.7872.28207-5.2864.71327-4.6177-2.70089-14.1724-5.458185-21.9749-6.02939 2.4647.959061 12.3237 6.05054 13.5487 7.64428-5.2562.66993-15.2191 3.51892-20.26 6.05762 5.7907-1.22 13.868-1.8476 19.4434-2.1297-2.1901 3.0323-3.4076 4.5626-6.9043 8.1802 3.1836-1.8227 5.1606-2.7475 7.1474-3.6769zm-42.5375 38.3935c2.5167 2.2425 4.8182 3.5542 8.0253 4.6754-3.363-.0987-5.8798-.5077-8.8419-1.3398-.2079 1.9745-.0743 3.4907.49 5.3735-2.36829-2.2072-3.83823-4.1747-5.24136-7.059-2.65778-1.1565-4.56574-2.2284-6.91914-3.6105 1.67782-.7193 3.13291-1.1989 5.18193-1.7278-.65331-3.4201-.46771-6.4877.03712-10.7682.928 4.0478 1.73721 6.9532 3.57093 9.9925 2.23462-.4231 4.12032-.6911 6.73352-1.0437-1.418 1.9675-2.2791 3.5331-3.0364 5.5076zm13.8754-33.5742c.3044-1.0578 1.4477-3.3426 2.4573-4.5696-1.4922.2186-5.7387 1.9957-8.5524 4.1042-.0003 0-.0037-.0003-.0101-.0009-.1527-.0135-2.0173-.1787-5.0233-.0908-3.1404.127-7.23096.8604-8.82712 1.4809 3.0661.134 7.25322.8956 8.85682 2.4118 0 0-4.6474 3.9914-9.22801 12.7216.00048 0 .03628-.0316.10381-.0912.96902-.8553 8.4703-7.4769 11.871-9.2173 0 .0071 1.8932 6.0012 3.2072 8.9912 0-.007 1.1507-6.9532 3.0884-10.9516 0 0 .5419-.3033 3.2145-.5571 2.6801-.2186 6.4441-.3667 13.6676.8392 0 0-6.6222-3.9914-14.8257-5.0704zm6.8449 37.897c1.6184-1.7136 2.8508-3.1945 4.3133-5.0492.052 1.1566.1411 2.299.2599 3.4484 2.6281-1.1847 4.6103-2.3341 6.8968-3.8503-2.1381 2.0592-4.0237 3.7798-6.6221 5.6909.1951.9798.3641 1.5557.5806 2.2935.0141.0481.0284.0968.043.1464-.9874.1622-2.3386.2469-3.7566.2116-2.7468 1.5232-6.4588 2.6656-9.2651 3.3074 1.6704-1.0085 3.1404-2.0733 4.8553-3.5683-1.7075-.3244-3.3185-.8251-4.9666-1.6361 2.6949-.0141 4.8924-.282 7.6615-.9943zm1.1276-16.779c0-1.0175-.074-3.7881-.1851-4.9019v-.1169l7.2636.0069c2.5101.0413 5.2053.7013 5.2053 2.4338 0 1.0656-1.2217 1.9868-3.0062 2.3375 2.436.5431 3.7318 1.5331 3.7318 2.8668 0 2.1244-3.4356 2.8875-6.6491 2.8875h-6.5824l.0222-.11c.1851-1.3475.1999-4.4687.1999-5.4037zm8.6705-2.2963c0-1.1068-1.0218-1.5331-3.7688-1.54-.4369-.0068-.8663.0207-1.2958.0619-.0666 1.3956-.1111 3.0319-.1111 3.7606 0 .6188.0074 2.7157.1037 4.2557.4739.0275 1.2069.0275 1.666.0275 2.71 0 4.0872-.5982 4.0872-1.7738 0-.3437-.1555-.6669-.4665-.9487-.6738-.6119-1.9844-.9694-3.5023-.9282h-.77l.7552-1.4781h.0667c1.2957.0413 2.3471-.1925 2.8728-.66.2444-.2131.3629-.4744.3629-.7769zm16.3117-2.7156h3.1912l.1185.0069-.0148.1031c-.1037 1.1-.1851 3.8775-.1851 4.9019 0 .9281.0148 4.0494.2147 5.4037l.0148.1032h-2.6582l-.0296-.0344c-.2961-.3713-5.9678-6.5313-6.0271-6.5931-.5183-.5707-.6738-.8525-.7848-1.1482v.0069c0 2.4956 0 5.0875.1925 7.6656l.0074.0963h-3.3171l.0148-.1031c.1925-1.3475.2073-4.4757.2073-5.4038 0-1.0175-.0741-3.795-.1851-4.9019l-.0074-.1031h3.7243l.0371.0344c1.155 1.0794 4.4722 4.8812 4.5018 4.9225.9551 1.045 1.1402 1.265 1.355 1.6637-.1131-1.1672-.1664-2.3734-.2191-3.5635-.0059-.1347-.0118-.2691-.0179-.4033zm7.2266 5.0119c0-1.0244-.0815-3.795-.1851-4.9088l-.0223-.0962h6.19c2.9618.055 6.501.6187 6.501 3.0525 0 2.1312-2.5174 3.1694-7.7153 3.1694l-.5479-.0207s-.5627-.0206-.7256-.0275c.0148 1.4232.0592 3.2725.1999 4.235l.0148.11h-3.9391l.0148-.11c.2-1.3475.2148-4.4756.2148-5.4037zm8.4113-2.915c-.622-.5775-1.9252-.8594-3.7688-.8319-.3703.0069-.7331.0344-1.0959.0688-.037.7425-.0444 1.5056-.0444 2.1793 0 .5294.0074.9832.0222 1.3338.1185.0137.311.0344.311.0344l.7774.0137c1.9252 0 4.2205-.3162 4.2205-1.8425 0-.3781-.1481-.7012-.422-.9556zm11.8024 2.915c0-1.0244-.0814-3.795-.1925-4.9088v-.0962h6.1826c2.9617.055 6.501.6187 6.501 3.0525 0 2.1312-2.5249 3.1694-7.7153 3.1694l-.5553-.0207-.7182-.0275c.0148 1.4232.0666 3.2725.1999 4.235l.0148.11h-3.9391l.0148-.11c.1925-1.3475.2073-4.4756.2073-5.4037zm8.3965-2.915c-.6145-.5775-1.9177-.8594-3.7614-.8319-.422.0138-.8515.0413-1.1032.0688-.0296.7425-.0444 1.5056-.0444 2.1793 0 .5225.0074.9832.0222 1.3338.1184.0137.3109.0344.3109.0344l.7775.0137c1.9325 0 4.2279-.3162 4.2279-1.8425 0-.3781-.1481-.7012-.4295-.9556zm9.307-2.09h.067l2.651.0069 6.308 10.5187h-3.917l-.022-.0619c-.2-.4262-.644-1.2787-1.259-2.4131-.096 0-.503-.0069-.503-.0069l-2.303-.0206-2.799.0344c-.444.8731-.822 1.6912-1.118 2.4062l-.022.0619h-3.3838l.0888-.1512c.733-1.1688 5.45-8.8207 6.183-10.3125zm3.058 6.655c-.918-1.6569-1.725-3.0663-2.036-3.5613-.718 1.1757-1.407 2.3582-2.073 3.5613.281.0069 2.073.0275 2.073.0275l1.733-.0206zm7.708-1.6569c0-1.0175-.089-3.795-.192-4.9019l-.008-.11 6.183.0069c2.969.0481 6.508.6119 6.508 3.0456 0 1.3819-1.059 2.2894-3.198 2.7707.029.0343.074.0825.074.0825.317.3469.751.8195 1.217 1.328 1.263 1.376 2.767 3.0152 2.87 3.1407l.126.1581h-4.221l-.037-.0412c-.881-1.265-2.984-3.905-4.361-5.4244l-.178-.1925.267.0344c.274.0344.555.0481.837.0344 1.429-.055 2.969-.6669 2.969-1.8838 0-.3712-.141-.6944-.43-.9487-.622-.5707-1.925-.8525-3.761-.825-.363.0137-.718.0343-1.074.0618-.066 1.3063-.111 2.9425-.111 3.6713 0 .9281.015 4.0494.215 5.4037l.015.1032h-3.939l.014-.11c.193-1.3475.215-4.4757.215-5.4038zm15.401-5.0119h3.776.104l-.007.1032c-.104 1.1068-.186 3.8843-.186 4.9087 0 .9281.015 4.0563.208 5.4038l.022.11h-3.939l.015-.11c.192-1.3544.207-4.4825.207-5.4038 0-1.0244-.074-3.795-.185-4.9087zm7.649 5.0188c0-1.0244-.082-3.795-.193-4.9019v-.1169l7.256.0069c2.518.0413 5.206.7013 5.206 2.4338 0 1.0656-1.222 1.9868-3.006 2.3375 2.443.5431 3.746 1.5331 3.746 2.8668 0 2.1244-3.443 2.8875-6.656 2.8875h-6.575l.014-.11c.193-1.3475.208-4.4687.208-5.4037zm8.67-2.2963c0-1.1068-1.022-1.5331-3.776-1.54-.429-.0068-.859.0207-1.281.0619-.074 1.3956-.111 3.0181-.111 3.7606 0 .6188 0 2.7157.096 4.2557.467.0275 1.207.0275 1.666.0275 2.71 0 4.08-.5982 4.08-1.7738 0-.3437-.156-.6669-.467-.9487-.681-.6119-1.984-.9694-3.502-.9282h-.77l.755-1.4781h.067c1.303.0413 2.355-.1925 2.873-.66.244-.2131.37-.4744.37-.7769zm11.484-2.7225h2.651l.067-.0068 6.301 10.5256h-3.91l-.029-.0619c-.2-.4262-.645-1.2856-1.259-2.4131-.104 0-.504-.0069-.504-.0069l-2.302-.0275s-2.673.0344-2.792.0344c-.407.7906-.777 1.5881-1.118 2.4062l-.022.0688h-3.384l.089-.1444c.415-.6669 5.405-8.7312 6.183-10.3194zm3.066 6.6619c-.918-1.6569-1.718-3.0662-2.037-3.5612-.725 1.1687-1.414 2.3581-2.065 3.5543l2.065.0344 1.74-.0206zm11.654-.6737c-2.214-.66-4.717-1.4094-4.717-3.2588s2.399-3.0937 5.961-3.08c1.392 0 2.732.1925 3.532.3094l.807.1031v1.9113l.015.3918-.822-.2406c-.844-.2612-2.407-.7425-4.006-.7425-2.132 0-2.132.7013-2.132.935 0 .8074 1.709 1.3152 3.367 1.808l.024.007.001.0003c2.258.6668 4.819 1.4231 4.819 3.3203 0 2.035-2.48 3.2588-6.634 3.2588-1.592 0-3.162-.275-3.991-.4263l-.274-.0412-.452-.0756v-1.8907-.4056l.696.2406c1.644.5707 3.14.88 4.435.9282 1.326.0481 2.177-.1032 2.577-.4675.193-.1719.281-.385.281-.6532 0-.88-1.769-1.4162-3.487-1.9318z" fill="#fff" fill-rule="evenodd"/></svg>