<?xml version="1.0" encoding="UTF-8" standalone="no"?>
<svg
   xmlns:dc="http://purl.org/dc/elements/1.1/"
   xmlns:cc="http://creativecommons.org/ns#"
   xmlns:rdf="http://www.w3.org/1999/02/22-rdf-syntax-ns#"
   xmlns:svg="http://www.w3.org/2000/svg"
   xmlns="http://www.w3.org/2000/svg"
   xmlns:sodipodi="http://sodipodi.sourceforge.net/DTD/sodipodi-0.dtd"
   xmlns:inkscape="http://www.inkscape.org/namespaces/inkscape"
   inkscape:version="1.0beta2 (2b71d25, 2019-12-03)"
   sodipodi:docname="logo-single.svg"
   id="svg32"
   version="1.1"
   width="512"
   viewBox="0 0 512 512"
   height="512"
   enable-background="new 0 0 512 512">
  <metadata
     id="metadata38">
    <rdf:RDF>
      <cc:Work
         rdf:about="">
        <dc:format>image/svg+xml</dc:format>
        <dc:type
           rdf:resource="http://purl.org/dc/dcmitype/StillImage" />
        <dc:title></dc:title>
      </cc:Work>
    </rdf:RDF>
  </metadata>
  <defs
     id="defs36" />
  <sodipodi:namedview
     inkscape:current-layer="svg32"
     inkscape:window-maximized="1"
     inkscape:window-y="25"
     inkscape:window-x="0"
     inkscape:cy="256"
     inkscape:cx="768"
     inkscape:zoom="0.71354167"
     showgrid="false"
     id="namedview34"
     inkscape:window-height="1387"
     inkscape:window-width="2560"
     inkscape:pageshadow="2"
     inkscape:pageopacity="0"
     guidetolerance="10"
     gridtolerance="10"
     objecttolerance="10"
     borderopacity="1"
     inkscape:document-rotation="0"
     bordercolor="#666666"
     pagecolor="#ffffff" />
  <g
     id="g16"
     transform="translate(-46)"
     style="clip-rule:evenodd;fill:none;stroke:#000000;stroke-width:7.9999;stroke-linecap:round;stroke-linejoin:round;stroke-miterlimit:2.6131">
    <path
       inkscape:connector-curvature="0"
       id="path10"
       d="m 244,142 v 42 42 l -36,21 -36,21 -36,-21 -36,-21 v -42 -42 l 36,-21 36,-21 36,21 z" />
    <path
       inkscape:connector-curvature="0"
       id="path12"
       d="m 412,142 v 42 42 l -36,21 -36,21 -36,-21 -36,-21 v -42 -42 l 36,-21 36,-21 36,21 z" />
    <path
       inkscape:connector-curvature="0"
       id="path14"
       d="m 328,286 v 42 42 l -36,21 -36,21 -36,-21 -36,-21 v -42 -42 l 36,-21 36,-21 36,21 z" />
  </g>
</svg>
