<svg xmlns="http://www.w3.org/2000/svg" height="40" width="180" viewBox="0 0 861.84 200.33"><path d="M183.22,70.05c0-.06,0-.09,0,0Z" style="fill:#fff"/><path d="M185.24,72.16c-1.05-.23-1-1.07-1.61-1.14s.17,1.47-.11,1.42c-.78-.14-1.1-.65-1.28-1.44A1.46,1.46,0,0,0,181,69.77c-.89-.17-.52,1.72-1.25,2.06a2,2,0,0,0-.89,2.76,2,2,0,0,1-.06,1.89c-.09.17-.23.34-.51.17-1.1-.68-1-.1-.51-1.05.37-.78.26-1.06-.63-1.35a2.73,2.73,0,0,0-1.79-.14c-.91.35-1,.79,0,1.59.69.59.66-.43,1,.41.14.33.22.65-.08.72-.48.1-.9.52-1.44.25-1.25-.63-1.13,1.16-1.45,2.13-.24.72-.71,1-1.36.77-1.57-.65-2.58.2-3.71.7-.32.14,1.18,2.43.82,2.33-1.5-.41-2,.57-2.29,1.82a3,3,0,0,1-.18.52c-.16.35-.19.91-.74.75s-.67-.62-.8-1.09a3.11,3.11,0,0,0-.11-.6c-.26-.49-.61-1-1.11-1s-.38.66-.35,1.15.43,1.22.16,1.77c-1.31-.7-1.31-.71-2.34.47a2.59,2.59,0,0,1-1,.57c-.27.12-.62.2-.5.68a1.31,1.31,0,0,0,.79.93c.31.12.74-.16,1,.72-1.4-.06-2.52.68-3.81,1-.59.12-1,.75-1.75.44a1.36,1.36,0,0,0-1.69.5c-.27.32-.6.68-1,.6-1.29-.25-1.85.16-1.74,1.72.07,1-1.23.14-1.49.73s.15,1.52-.84,1.54a5.94,5.94,0,0,1-1.56-.3c-1.4-.35-1.5-.27-1.84,1.17-.13.56.09,1.44-.55,1.62-1.65.46-2.42,2.06-3.53,3.23-.47.5-.82.69-1.46.31s-1.34-.39-1.57.18c-.49,1.24-1.22,1.24-2,.9a1.6,1.6,0,0,0-1.89.41c-.65.59-1.92,4.21-2.8,4.15a2.37,2.37,0,0,0-2.37,1.5L77.17,0H51L4.69,161.39C0,177.53-3,191.64,4.89,198.09c5.27,4.28,16.19,1.93,27.73-2.87h0a156.22,156.22,0,0,0,15.62-7.65c1.37-.68,2.73-1.54,4-2.17,3.51-1.76,7.84-3.18,11.23-5.09,2.19-1.24,2.18-1.43,4.54-2,.61-.15,2.14-.34,2.57-.88,1.61-2,1.78-3,4-3.49,1.69-.38,3.71-.78,4.47-2.83a9.3,9.3,0,0,1,2.47-1.9c2.25-1.13,3.32-2.89,5-5.28a3.38,3.38,0,0,1,1.18-1.06c1.76-.58,4.47-1.37,5.48-2.88a10,10,0,0,1,4.24-3.19c2-1,5.39-1.75,7-3.35.78-.76,1.33-1.88,2.06-2.72,1.63-1.89,2.08-3.11,4.14-4.2a3.06,3.06,0,0,0,1-1.33l22,52.79h38.46l-35.69-74.38a5.23,5.23,0,0,1,.9-1.29c.83-.64.72-2,1.72-2.29.55-.16,1.31-.35,1.33-1.06,0-1,.66-.94,1.11-1.22a11.37,11.37,0,0,1,1.28-.67,4.16,4.16,0,0,0,2.55-3.11c.14-1.77,1.2-1.73,2.06-2.25.12-.07.26-.12.37-.2a.78.78,0,0,0,.37-.93c-.46-1.17.26-1.33.86-1.56a20.11,20.11,0,0,0,4.24-2.59c1-.75,1.72-2.06,3.26-2.05,2.15,0,3.84-1.25,5.69-2,.41-.16.69-.45.35-1.07-.56-1-.08-1.44.51-1.83a3.57,3.57,0,0,1,2.41-.92c.63.07.74-.56.71-1.15a1.12,1.12,0,0,0-.9-1.16c-.91-.16-1.79-1-2.73-.68a.8.8,0,0,1-1-.56.72.72,0,0,1,.25-.91c.48-.45,1.41-.16,1.94-.53,1-.68,1.47-.13,2.38,1a2.6,2.6,0,0,1,2.2-.28c1,.49,1.31-.84,1.19-1.77-.16-1.2.15-2,1.21-2.1,2.45-.23,3.75-2.45,5.43-4.09a1.36,1.36,0,0,0,.29-1.86c-.49-1.08.07-3.28.83-3.26,1.71,0,1.85-2.56,3.13-3.31a4.24,4.24,0,0,1,1.78-.42c1.49-.14,2.07-3.39,3.3-4.18.22-.14.58-.2.48-.63S185.53,72.22,185.24,72.16Zm-83,56.18c-1.74.36-3.71.13-4.32,2.67,0,.09-.17.13-.27.19-1.83,1.13-4.17.89-5.89,2.43-.09.08-.32-.05-.48-.08-1.74-.32-2.57.31-3.07,2.34-.39,1.61-1.89,2.44-3.1,1.46-1.06-.85-1.76-.38-2.71.38-.58.47-.93,1.34-1.78.81-1.24-.78-1.18-.35-1.49.43s-.7.19-1,1.12c-.63,2.18,0,1.8,1.84,1.28.44-.13.74.88,1.15.2.14-.23.49-.31.94-.31a.17.17,0,0,0,0,.1c.47,1.1,1.11,2.64-.12,2.6s-1-1-1.78-.07-1.22,1.84-2.2.6c-.21-.27-.48-.65-.74-1a1.55,1.55,0,0,0-.78-1h0c-.15-.16-.28-.25-.37-.23s-.27.21-.32.45a1.8,1.8,0,0,0-.21.31c-.33.59-2.14,1-2.74,1-1.57,0,.47,1.78-.88,1.81-1,0-.26,1.55-1,.66-.31-.36-1.51.15-1.87.41-.88.65-1,.6-1.87.33-1.5-.46-1.24,1.35-2.73.89a4.71,4.71,0,0,0-1.74.42c-1,1.63-2.19.46-4,2.71-.94,1.2-4.2,2.43-5.07,3.06l-2.61,1.19c-3.59,1.55-10.75,4.24-12.89,2.1-1.91-1.91-1.28-6.38-.19-10.76l1.74-6.33h0L58.29,73c3-11.37,6.52-22.68,8.69-33.38h.62l36.66,87.83A4.23,4.23,0,0,1,102.21,128.34Zm43.73-17.58a2.73,2.73,0,0,1-.5.19,4.75,4.75,0,0,1-2,.08c-.66-.1-1.6-.08-1.82-.58s.52-.9,1.29-1c.46-.07,1,.06,1.4-.19a1.38,1.38,0,0,1,2,0C147.08,110,146.59,110.4,145.94,110.76ZM160.31,96.7c-.34.23-1.45-.58-1.74-1.28a.92.92,0,0,1,.39-1.25c.65-.39,1,.3,1.33.9S160.92,96.3,160.31,96.7Zm15.45-16.93a2.42,2.42,0,0,1-.17.42,3.1,3.1,0,0,1-1,1.1c-.4.27-.89.79-1.25.51s-.16-1,.19-1.49c.21-.3.56-.49.65-.9s.25-1.19,1.07-1S175.93,79.14,175.76,79.77Z" style="fill:#fff"/><path d="M326.41,175.14H309l-5.65-16.84h-33l-5.65,16.84H247.27L277.7,95H296Zm-39.57-66.63-12,36.44h24.05Z" style="fill:#fff"/><path d="M421.54,119.45a21.84,21.84,0,0,1-4.81,14.37q-4.81,5.84-13.83,9L430,175.14H409l-23.21-29.23h-5.41v29.23H363.57V95H387.5a58.69,58.69,0,0,1,13.71,1.5A32.48,32.48,0,0,1,412,101.11a22.07,22.07,0,0,1,7,7.64A21.78,21.78,0,0,1,421.54,119.45Zm-16.84.36q0-6.13-4.81-8.9t-12.51-2.77h-7v25h5.05q8.66,0,14-3.37A11.07,11.07,0,0,0,404.7,119.81Z" style="fill:#fff"/><path d="M517.63,95v13.35H495.5v66.75H478.67V108.39H456.54V95Z" style="fill:#fff"/><path d="M571.63,95v66.75h29.83v13.35H554.8V95Z" style="fill:#fff"/><path d="M656.54,175.14H639.7V95h16.84Z" style="fill:#fff"/><path d="M754,175.14l-37.4-52.44v52.44H700.44V95h16.12L754,147.47V95h16.12v80.1Z" style="fill:#fff"/><path d="M813.37,95h48.11v13.35H830.21v19.36H860V141.1H830.21v20.69h31.63v13.35H813.37Z" style="fill:#fff"/><path d="M353.2,60.67h-3.67V24.74h3.67Z" style="fill:#fff"/><path d="M417.66,60.67l-21.31-30v30h-3.51V24.74h3.51l21.31,30v-30h3.51V60.67Z" style="fill:#fff"/><path d="M480.56,51.5a9,9,0,0,1-.89,4,9.19,9.19,0,0,1-2.48,3.1,11.41,11.41,0,0,1-3.8,2,16,16,0,0,1-4.85.7,25.34,25.34,0,0,1-5.26-.57,21.43,21.43,0,0,1-4.72-1.54l.81-3a24.61,24.61,0,0,0,4.42,1.51,19.93,19.93,0,0,0,4.64.54,9.93,9.93,0,0,0,6.2-1.78,5.79,5.79,0,0,0,2.32-4.85,6,6,0,0,0-.67-2.91,7.63,7.63,0,0,0-1.83-2.21,14.62,14.62,0,0,0-2.67-1.75q-1.51-.78-3.13-1.54-1.78-.86-3.48-1.81a16.44,16.44,0,0,1-3-2.13,9.85,9.85,0,0,1-2.13-2.7,7.31,7.31,0,0,1-.81-3.51,8.52,8.52,0,0,1,.86-3.91,8.28,8.28,0,0,1,2.32-2.83,10,10,0,0,1,3.43-1.7,15.26,15.26,0,0,1,4.23-.57,23.4,23.4,0,0,1,4.8.49A18.12,18.12,0,0,1,479,26l-.76,3.07a19.79,19.79,0,0,0-4-1.43,17.85,17.85,0,0,0-4.18-.51,9,9,0,0,0-5.31,1.4,4.94,4.94,0,0,0-2,4.32,6.17,6.17,0,0,0,.4,2.37,4.66,4.66,0,0,0,1.27,1.73,12.39,12.39,0,0,0,2.18,1.48q1.32.73,3.16,1.65T473.55,42A19.39,19.39,0,0,1,477,44.3a11.57,11.57,0,0,1,2.56,3A8.17,8.17,0,0,1,480.56,51.5Z" style="fill:#fff"/><path d="M539.74,24.74v3H528.89V60.67h-3.67V27.76H514.38v-3Z" style="fill:#fff"/><path d="M579.76,60.67h-3.67V24.74h3.67Z" style="fill:#fff"/><path d="M641.47,24.74v3H630.63V60.67H627V27.76H616.12v-3Z" style="fill:#fff"/><path d="M701.19,24.74h3.67V48.21a14.72,14.72,0,0,1-.86,5.07,11.57,11.57,0,0,1-2.59,4.15,12.49,12.49,0,0,1-4.29,2.83,17.42,17.42,0,0,1-11.92,0,12.47,12.47,0,0,1-4.29-2.83,11.56,11.56,0,0,1-2.59-4.15,14.69,14.69,0,0,1-.86-5.07V24.74h3.67V48.42a10,10,0,0,0,2.56,7.15q2.56,2.72,7.47,2.72t7.47-2.72a10,10,0,0,0,2.56-7.15Z" style="fill:#fff"/><path d="M766.19,24.74v3H755.35V60.67h-3.67V27.76H740.84v-3Z" style="fill:#fff"/></svg>
