<?xml version="1.0" encoding="utf-8"?>
<!-- Generator: Adobe Illustrator 16.0.0, SVG Export Plug-In . SVG Version: 6.00 Build 0)  -->
<!DOCTYPE svg PUBLIC "-//W3C//DTD SVG 1.1//EN" "http://www.w3.org/Graphics/SVG/1.1/DTD/svg11.dtd">
<svg version="1.1" id="Calque_1" xmlns="http://www.w3.org/2000/svg" xmlns:xlink="http://www.w3.org/1999/xlink" x="0px" y="0px"
	 width="79px" height="37.372px" viewBox="0 0 79 37.372" enable-background="new 0 0 79 37.372" xml:space="preserve">
<polygon fill="#FFFFFF" points="44.754,0 44.754,21.85 50.676,21.85 50.676,6.51 44.784,5.092 58.398,5.134 58.398,21.85 
	64.292,21.85 64.292,5.134 74.902,5.134 74.902,0 "/>
<g>
	<g>
		<defs>
			<rect id="SVGID_1_" width="79" height="37.372"/>
		</defs>
		<clipPath id="SVGID_2_">
			<use xlink:href="#SVGID_1_"  overflow="visible"/>
		</clipPath>
		<path clip-path="url(#SVGID_2_)" fill="#FFFFFF" d="M27.013,11.731l-3.804-7.204l4.831,6.312l8.571,11.01h5.194V0h-5.831v9.697
			l3.331,6.483l-4.48-5.768l0.003,0.001L26.723,0h-5.699v12.312c0,3-1.483,4.653-4.178,4.653c-2.657,0-4.188-1.753-4.188-4.811V0
			H6.675v12.282c0,6.528,3.495,9.978,10.107,9.978c6.272,0,9.775-3.079,10.188-8.925L27.013,11.731z"/>
	</g>
	<g>
		<defs>
			<rect id="SVGID_3_" width="79" height="37.372"/>
		</defs>
		<clipPath id="SVGID_4_">
			<use xlink:href="#SVGID_3_"  overflow="visible"/>
		</clipPath>
		
			<rect y="29.243" opacity="0.5" clip-path="url(#SVGID_4_)" fill="#FFFFFF" enable-background="new    " width="1.119" height="8"/>
	</g>
	<g>
		<defs>
			<rect id="SVGID_5_" width="79" height="37.372"/>
		</defs>
		<clipPath id="SVGID_6_">
			<use xlink:href="#SVGID_5_"  overflow="visible"/>
		</clipPath>
		<polygon opacity="0.5" clip-path="url(#SVGID_6_)" fill="#FFFFFF" enable-background="new    " points="20.276,35.392 
			20.297,35.392 22.659,29.245 24.397,29.245 24.397,37.245 23.28,37.245 23.28,30.557 23.258,30.557 20.603,37.245 19.891,37.245 
			17.249,30.557 17.225,30.557 17.225,37.245 16.143,37.245 16.143,29.245 17.881,29.245 		"/>
	</g>
	<g>
		<defs>
			<rect id="SVGID_7_" width="79" height="37.372"/>
		</defs>
		<clipPath id="SVGID_8_">
			<use xlink:href="#SVGID_7_"  overflow="visible"/>
		</clipPath>
		<path opacity="0.5" clip-path="url(#SVGID_8_)" fill="#FFFFFF" enable-background="new    " d="M37.445,37.245h-1.244l3.469-8
			h1.016l3.434,8h-1.263l-0.817-1.968h-3.794L37.445,37.245z M38.642,34.293h2.995l-1.492-3.751L38.642,34.293z"/>
	</g>
	<g>
		<defs>
			<rect id="SVGID_9_" width="79" height="37.372"/>
		</defs>
		<clipPath id="SVGID_10_">
			<use xlink:href="#SVGID_9_"  overflow="visible"/>
		</clipPath>
		<path opacity="0.5" clip-path="url(#SVGID_10_)" fill="#FFFFFF" enable-background="new    " d="M61.794,31.133
			c-0.229-0.252-0.521-0.452-0.876-0.601c-0.354-0.153-0.751-0.228-1.188-0.228c-0.446,0-0.847,0.083-1.206,0.241
			c-0.357,0.161-0.662,0.386-0.913,0.663c-0.251,0.278-0.445,0.604-0.579,0.973c-0.14,0.371-0.207,0.763-0.207,1.176
			c0,0.423,0.067,0.823,0.207,1.194c0.134,0.375,0.328,0.7,0.579,0.976c0.251,0.274,0.559,0.492,0.925,0.649
			c0.363,0.16,0.774,0.24,1.227,0.24c0.357,0,0.688-0.033,0.99-0.101c0.298-0.062,0.562-0.154,0.784-0.278v-2.119h-1.688v-0.904
			h2.742v3.69c-0.402,0.217-0.839,0.379-1.311,0.494c-0.475,0.116-0.991,0.172-1.55,0.172c-0.595,0-1.142-0.099-1.641-0.296
			c-0.496-0.197-0.925-0.473-1.285-0.827c-0.358-0.356-0.638-0.777-0.84-1.271c-0.201-0.491-0.3-1.03-0.3-1.618
			c0-0.596,0.102-1.14,0.306-1.629c0.206-0.491,0.488-0.911,0.852-1.259c0.36-0.347,0.789-0.619,1.285-0.811
			c0.494-0.194,1.033-0.29,1.613-0.29c0.607,0,1.153,0.09,1.629,0.266c0.476,0.184,0.872,0.423,1.188,0.723L61.794,31.133z"/>
	</g>
	<g>
		<defs>
			<rect id="SVGID_11_" width="79" height="37.372"/>
		</defs>
		<clipPath id="SVGID_12_">
			<use xlink:href="#SVGID_11_"  overflow="visible"/>
		</clipPath>
		<polygon opacity="0.5" clip-path="url(#SVGID_12_)" fill="#FFFFFF" enable-background="new    " points="74.821,36.249 79,36.249 
			79,37.245 73.704,37.245 73.704,29.245 78.832,29.245 78.832,30.228 74.821,30.228 74.821,32.624 78.593,32.624 78.593,33.584 
			74.821,33.584 		"/>
	</g>
</g>
</svg>
