<svg fill="none" height="327" viewBox="0 0 437 327" width="437" xmlns="http://www.w3.org/2000/svg"><path d="m298 107h-207c-8.3 0-15-6.7-15-15s6.7-15 15-15h207c8.3 0 15 6.7 15 15s-6.7 15-15 15z" fill="#7b3c96"/><path d="m366 217h-144c-8.3 0-15-6.7-15-15s6.7-15 15-15h144c8.3 0 15 6.7 15 15s-6.7 15-15 15z" fill="#b344e3" opacity=".6"/><path d="m390 162h-375c-8.3 0-15-6.7-15-15s6.7-15 15-15h375c8.3 0 15 6.7 15 15 0 8.2-6.7 15-15 15z" fill="#f3f5f4"/><path d="m422 272h-262c-8.3 0-15-6.7-15-15s6.7-15 15-15h262c8.3 0 15 6.7 15 15s-6.7 15-15 15z" fill="#f3f5f4"/><path d="m272 327h-232c-8.3 0-15-6.7-15-15s6.7-15 15-15h232c8.3 0 15 6.7 15 15s-6.7 15-15 15z" fill="#f3f5f4"/><g style="opacity:.6;stroke:#b344e3;stroke-width:3;stroke-miterlimit:10;stroke-linecap:round;stroke-linejoin:round"><path d="m158 190h21.2" opacity=".6"/><path d="m185.3 190h13.6" opacity=".6"/><path d="m175.2 202h17.2" opacity=".6"/><path d="m163.6 202h6.1" opacity=".6"/><path d="m163.1 214h35.3" opacity=".6"/><path d="m153 214h5" opacity=".6"/></g><path d="m61.4 104h-27.7" stroke="#7b3c96" stroke-linecap="round" stroke-linejoin="round" stroke-miterlimit="10" stroke-width="3"/><path d="m25.8 104h-17.8" stroke="#7b3c96" stroke-linecap="round" stroke-linejoin="round" stroke-miterlimit="10" stroke-width="3"/><path d="m39.0001 92h-22.4" stroke="#7b3c96" stroke-linecap="round" stroke-linejoin="round" stroke-miterlimit="10" stroke-width="3"/><path d="m54.2 92h-8" stroke="#7b3c96" stroke-linecap="round" stroke-linejoin="round" stroke-miterlimit="10" stroke-width="3"/><path d="m54.7999 80h-46.09995" stroke="#7b3c96" stroke-linecap="round" stroke-linejoin="round" stroke-miterlimit="10" stroke-width="3"/><path d="m67.9999 80h-6.6" stroke="#7b3c96" stroke-linecap="round" stroke-linejoin="round" stroke-miterlimit="10" stroke-width="3"/><path d="m291.7 259.302v-21.7h-11.4v21.7c0 1.7-1.3 3-3 3h-2.5c0 5 5 9.1 11.1 9.1 6.2 0 11.1-4.1 11.1-9.1h-2.4c-1.5 0-2.9-1.3-2.9-3z" fill="#f8d3c4" stroke="#4d4d4d" stroke-linejoin="round" stroke-miterlimit="10" stroke-width="3"/><path d="m291.7 255.002c-2.5 0-11.3-4.6-11.2-5.8.2-2.2-.1-1.3-.1-1.3l11.4.3c0 .1.2 6.7-.1 6.8z" fill="#ba9e93" opacity=".5"/><path d="m291.7 259.302v-21.7h-11.4v21.7c0 1.7-1.3 3-3 3h-2.5c0 5 5 9.1 11.1 9.1 6.2 0 11.1-4.1 11.1-9.1h-2.4c-1.5 0-2.9-1.3-2.9-3z" stroke="#4d4d4d" stroke-linejoin="round" stroke-miterlimit="10" stroke-width="3"/><path d="m319.3 245.502c2.1-9.8 17.5-74.1-34.1-74.5-43.7-.4-36.8 55.4-34 72 .4 2.6 2.9 4.2 5.4 3.7 6.2-1.2 17.1-4.7 28.9-3.9 14.4 1.1 24.4 4.5 29.4 5.5 2 .5 3.9-.8 4.4-2.8z" fill="#666" stroke="#4d4d4d" stroke-linejoin="round" stroke-miterlimit="10" stroke-width="3"/><path d="m258 224.902c3.203 0 5.8-2.597 5.8-5.8s-2.597-5.8-5.8-5.8-5.8 2.597-5.8 5.8 2.597 5.8 5.8 5.8z" fill="#f8d3c4" stroke="#4d4d4d" stroke-linejoin="round" stroke-miterlimit="10" stroke-width="3"/><path d="m314.2 224.902c3.203 0 5.8-2.597 5.8-5.8s-2.597-5.8-5.8-5.8-5.8 2.597-5.8 5.8 2.597 5.8 5.8 5.8z" fill="#f8d3c4" stroke="#4d4d4d" stroke-linejoin="round" stroke-miterlimit="10" stroke-width="3"/><path d="m258 219.502c.1 13.9 12 28.3 27.4 28.7 15.9.4 28.8-12.3 28.8-28.1l-.2-8.4c-24.5 1-34.2-17.7-34.2-17.7-4.2 8.9-15 11.5-20.5 13.8-.8 3-1.3 7.1-1.3 11.7z" fill="#f8d3c4" stroke="#4d4d4d" stroke-linejoin="round" stroke-miterlimit="10" stroke-width="3"/><path d="m272.7 218.702c1.215 0 2.2-.985 2.2-2.2s-.985-2.2-2.2-2.2-2.2.985-2.2 2.2.985 2.2 2.2 2.2z" fill="#4d4d4d"/><path d="m299.4 218.702c1.215 0 2.2-.985 2.2-2.2s-.985-2.2-2.2-2.2-2.2.985-2.2 2.2.985 2.2 2.2 2.2z" fill="#4d4d4d"/><path d="m283.8 220.002v2.5c0 1.1.9 2 2 2h2.4" stroke="#4d4d4d" stroke-linecap="round" stroke-linejoin="round" stroke-miterlimit="10" stroke-width="3"/><path d="m255.1 229.302c1.933 0 3.5-1.567 3.5-3.5s-1.567-3.5-3.5-3.5-3.5 1.567-3.5 3.5 1.567 3.5 3.5 3.5z" fill="#22d160" stroke="#4d4d4d" stroke-miterlimit="10" stroke-width="3"/><path d="m317.2 229.302c1.933 0 3.5-1.567 3.5-3.5s-1.567-3.5-3.5-3.5-3.5 1.567-3.5 3.5 1.567 3.5 3.5 3.5z" fill="#22d160" stroke="#4d4d4d" stroke-miterlimit="10" stroke-width="3"/><path d="m305.1 228.402c2.154 0 3.9-1.746 3.9-3.9s-1.746-3.9-3.9-3.9-3.9 1.746-3.9 3.9 1.746 3.9 3.9 3.9z" fill="#fcadad"/><path d="m267.1 228.402c2.154 0 3.9-1.746 3.9-3.9s-1.746-3.9-3.9-3.9-3.9 1.746-3.9 3.9 1.746 3.9 3.9 3.9z" fill="#fcadad"/><path d="m275.2 187.402s.4 12.5 14.2 19.9c12.4 6.6 27.4 3.8 27.4 3.8" fill="#666"/><path d="m275.2 187.402s.4 12.5 14.2 19.9c12.4 6.6 27.4 3.8 27.4 3.8" stroke="#4d4d4d" stroke-linecap="round" stroke-linejoin="round" stroke-miterlimit="10" stroke-width="3"/><path d="m283.3 235.502c1.8.5 3.7.5 5.5 0" stroke="#4d4d4d" stroke-linecap="round" stroke-linejoin="round" stroke-miterlimit="10" stroke-width="3"/><path d="m316.5 269.402c0-6.6-5.4-12-12-12h-10.8l-7.8 7-7.9-7h-10.4c-6.6 0-12 5.4-12 12v2c8 7.3 18.6 11.7 30.3 11.7 11.8 0 22.6-4.6 30.6-12z" fill="#fd9697"/><path d="m316.5 269.402c0-6.6-5.4-12-12-12h-10.8l-7.8 7-7.9-7h-10.4c-6.6 0-12 5.4-12 12v2c8 7.3 18.6 11.7 30.3 11.7 11.8 0 22.6-4.6 30.6-12z" stroke="#4d4d4d" stroke-linejoin="round" stroke-miterlimit="10" stroke-width="3"/><path d="m265.2 273.902v3.6" stroke="#4d4d4d" stroke-linecap="round" stroke-linejoin="round" stroke-miterlimit="10" stroke-width="3"/><path d="m307.1 273.902v3.6" stroke="#4d4d4d" stroke-linecap="round" stroke-linejoin="round" stroke-miterlimit="10" stroke-width="3"/><path d="m181.5 156.3c0-6.6-5.4-12-12-12h-36.9c-6.6 0-12 5.4-12 12v1.9c8 7.3 18.7 11.8 30.4 11.8 11.8 0 22.5-4.5 30.5-11.9z" fill="#fff" stroke="#4d4d4d" stroke-linejoin="round" stroke-miterlimit="10" stroke-width="3"/><path d="m156.6 141.3v-21.7h-11.4v21.7c0 1.7-1.3 3-3 3h-2.5c0 5 5 9.1 11.1 9.1 6.2 0 11.1-4.1 11.1-9.1h-2.4c-1.5 0-2.9-1.3-2.9-3z" fill="#f8d3c4" stroke="#4d4d4d" stroke-linejoin="round" stroke-miterlimit="10" stroke-width="3"/><path d="m161.2 147.2c-10.4.8-16.1-4.3-16-5.4.2-2.2-.2-.8-.2-.8l11.4.3s.6 3.1 2.8 3c.1-.1 4.6-2.2 2 2.9z" fill="#b0968b" opacity=".5"/><g stroke-miterlimit="10" stroke-width="3"><path d="m156.6 141.3v-21.7h-11.4v21.7c0 1.7-1.3 3-3 3h-2.5c0 5 5 9.1 11.1 9.1 6.2 0 11.1-4.1 11.1-9.1h-2.4c-1.5 0-2.9-1.3-2.9-3z" stroke="#4d4d4d" stroke-linejoin="round"/><path d="m122.8 104.9c3.203 0 5.8-2.597 5.8-5.8 0-3.2033-2.597-5.8-5.8-5.8s-5.8 2.5967-5.8 5.8c0 3.203 2.597 5.8 5.8 5.8z" fill="#f8d3c4" stroke="#4d4d4d" stroke-linejoin="round"/><path d="m179 104.9c3.203 0 5.8-2.597 5.8-5.8 0-3.2033-2.597-5.8-5.8-5.8s-5.8 2.5967-5.8 5.8c0 3.203 2.597 5.8 5.8 5.8z" fill="#f8d3c4" stroke="#4d4d4d" stroke-linejoin="round"/><path d="m179 75.7c0 16.9-56.2 17-56.2 0 0-12.4 11.4-23.7 27.6-23.7 19.3 0 28.6 9.7 28.6 23.7z" fill="#808080" stroke="#4d4d4d" stroke-linejoin="round"/><path d="m122.8 78.2v27.4c0 15.3 12 28.3 27.4 28.7 15.9.4 28.8-12.3 28.8-28.1v-28z" fill="#f8d3c4" stroke="#4d4d4d" stroke-linejoin="round"/><path d="m177.6 86.2h-53.3c-2.2 0-4-1.8-4-4v-6c0-2.2 1.8-4 4-4h53.3c2.2 0 4 1.8 4 4v6c0 2.2-1.8 4-4 4z" fill="#808080" stroke="#4d4d4d" stroke-linejoin="round"/><path d="m176.6 73.6v14.1" stroke="#4d4d4d" stroke-linejoin="round"/><path d="m170.9 73.5v14.1" stroke="#4d4d4d" stroke-linejoin="round"/><path d="m165.2 73.5v14.1" stroke="#4d4d4d" stroke-linejoin="round"/><path d="m159.5 73.4v14.1" stroke="#4d4d4d" stroke-linejoin="round"/><path d="m153.8 73.4v14.1" stroke="#4d4d4d" stroke-linejoin="round"/><path d="m148.1 73.3v14.1" stroke="#4d4d4d" stroke-linejoin="round"/><path d="m142.4 73.3v14" stroke="#4d4d4d" stroke-linejoin="round"/><path d="m136.7 73.2v14.1" stroke="#4d4d4d" stroke-linejoin="round"/><path d="m131 73.2v14" stroke="#4d4d4d" stroke-linejoin="round"/><path d="m125.3 73.1v14.1" stroke="#4d4d4d" stroke-linejoin="round"/><path d="m122.8 93.3 4.1 4.2h48.4l3.7-4.2" stroke="#4d4d4d" stroke-linejoin="round"/><path d="m171.5 103.4h-12.6c-1.7 0-3-1.3-3-3v-6.2c0-1.7 1.3-3 3-3h12.6c1.7 0 3 1.3 3 3v6.2c0 1.7-1.4 3-3 3z" fill="#fef6f3" stroke="#4d4d4d" stroke-linejoin="round"/><path d="m143 103.4h-12.6c-1.7 0-3-1.3-3-3v-6.2c0-1.7 1.3-3 3-3h12.6c1.7 0 3 1.3 3 3v6.2c0 1.7-1.4 3-3 3z" fill="#fef6f3" stroke="#4d4d4d" stroke-linejoin="round"/></g><path d="m137.6 99.7c1.215 0 2.2-.985 2.2-2.2s-.985-2.2-2.2-2.2-2.2.985-2.2 2.2.985 2.2 2.2 2.2z" fill="#4d4d4d"/><path d="m164.3 99.7c1.215 0 2.2-.985 2.2-2.2s-.985-2.2-2.2-2.2-2.2.985-2.2 2.2.985 2.2 2.2 2.2z" fill="#4d4d4d"/><path d="m166.1 121.4h-4.4l-1.1-2.5c-.5-1.7-2.1-2.8-3.8-2.8h-10.9c-1.7 0-3.3 1.1-3.8 2.8l-1.1 2.5h-5.2c-1.6 0-3.2-.8-4.1-2.2l-8.8-13.7.8 6.6c0 16.6 10.2 28.5 25.6 28.5 16.7 0 29.2-11.5 29.2-28.5l.4-8.7-8.5 15.5c-.9 1.6-2.6 2.5-4.3 2.5z" fill="#b06445" stroke="#4d4d4d" stroke-linejoin="round" stroke-miterlimit="10" stroke-width="3"/><path d="m148.7 106v2.5c0 1.1.9 2 2 2h2.4" stroke="#4d4d4d" stroke-linecap="round" stroke-linejoin="round" stroke-miterlimit="10" stroke-width="3"/><path d="m130.1 160.9v3.8" stroke="#4d4d4d" stroke-linecap="round" stroke-linejoin="round" stroke-miterlimit="10" stroke-width="3"/><path d="m172 160.9v3.8" stroke="#4d4d4d" stroke-linecap="round" stroke-linejoin="round" stroke-miterlimit="10" stroke-width="3"/><path d="m148.1 125c1.8.5 3.7.5 5.5 0" stroke="#4d4d4d" stroke-linecap="round" stroke-linejoin="round" stroke-miterlimit="10" stroke-width="3"/><path d="m173.747 145.874-2.121-2.122-2.405 2.403 2.121 2.122z" fill="#4d4d4d"/><path d="m170.551 155.234-2.12-2.122-2.406 2.403 2.121 2.123z" fill="#4d4d4d"/><path d="m181.044 155.251-2.12-2.122-2.406 2.403 2.121 2.123z" fill="#4d4d4d"/><path d="m128.642 155.235-2.121-2.121-2.404 2.404 2.121 2.122z" fill="#4d4d4d"/><path d="m131.838 145.875-2.121-2.121-2.404 2.404 2.121 2.121z" fill="#4d4d4d"/><path d="m139.135 155.253-2.121-2.122-2.404 2.404 2.121 2.122z" fill="#4d4d4d"/><path d="m142.26 145.821-2.121-2.121-2.404 2.404 2.121 2.122z" fill="#4d4d4d"/><path d="m160.058 155.217-2.12-2.122-2.406 2.403 2.121 2.123z" fill="#4d4d4d"/><path d="m152.713 165.324-2.122-2.12-2.404 2.405 2.123 2.12z" fill="#4d4d4d"/><path d="m149.628 155.27-2.122-2.122-2.404 2.405 2.122 2.121z" fill="#4d4d4d"/><path d="m163.205 165.341-2.122-2.12-2.403 2.405 2.122 2.121z" fill="#4d4d4d"/><path d="m142.22 165.307-2.122-2.121-2.403 2.405 2.122 2.121z" fill="#4d4d4d"/><path d="m337 100c4.418 0 8-3.5817 8-8s-3.582-8-8-8-8 3.5817-8 8 3.582 8 8 8z" fill="#7b3c96"/><path d="m405 210c4.418 0 8-3.582 8-8s-3.582-8-8-8-8 3.582-8 8 3.582 8 8 8z" fill="#b344e3" opacity=".6"/><path d="m381.8 243.202h-30.9c-.6 0-1-.4-1-1v-9.2c0-.6.4-1 1-1h30.9c.6 0 1 .4 1 1v9.2c0 .5-.4 1-1 1z" style="fill:#e0e5e4;stroke:#4d4d4d;stroke-width:3;stroke-miterlimit:10;stroke-linecap:round;stroke-linejoin:round"/><path d="m396.7 237.102h-13.9v5c0 .6-.4 1-1 1h-30.9c-.6 0-1-.4-1-1v-5h-13.9c-1.1 0-2 .9-2 2v77.3c0 1.1.9 2 2 2h60.7c1.1 0 2-.9 2-2v-77.3c0-1.1-.9-2-2-2z" fill="#fffdfd" stroke="#4d4d4d" stroke-linejoin="round" stroke-miterlimit="10" stroke-width="3"/><path d="m374.5 232.002c0-.1 0-.3 0-.4v-3.5c0-1.7-1.3-3-3-3h-10.3c-1.7 0-3 1.3-3 3v3.5.4z" stroke="#4d4d4d" stroke-linejoin="round" stroke-miterlimit="10" stroke-width="3"/><path d="m367.1 276.402h21.1" stroke="#4d4d4d" stroke-linejoin="round" stroke-miterlimit="10" stroke-width="3"/><path d="m367.1 282.902h10.6" stroke="#4d4d4d" stroke-linejoin="round" stroke-miterlimit="10" stroke-width="3"/><path d="m348.5 284.802c-.4 0-.8-.2-1.1-.4l-4-4 2.1-2.1 2.9 2.9 6.8-6.8 2.1 2.1-7.8 7.8c-.2.3-.6.5-1 .5z" fill="#22d160"/><path d="m367.1 255.802h21.1" stroke="#4d4d4d" stroke-linejoin="round" stroke-miterlimit="10" stroke-width="3"/><path d="m367.1 262.302h10.6" stroke="#4d4d4d" stroke-linejoin="round" stroke-miterlimit="10" stroke-width="3"/><path d="m348.5 264.202c-.4 0-.8-.2-1.1-.4l-4-4 2.1-2.1 2.9 2.9 6.8-6.8 2.1 2.1-7.8 7.8c-.2.3-.6.5-1 .5z" fill="#22d160"/><path d="m367.1 297.002h21.1" stroke="#4d4d4d" stroke-linejoin="round" stroke-miterlimit="10" stroke-width="3"/><path d="m367.1 303.502h10.6" stroke="#4d4d4d" stroke-linejoin="round" stroke-miterlimit="10" stroke-width="3"/><path d="m292 0h-76.8c-3.3 0-6 2.7-6 6v40.3c0 3.3 2.7 6 6 6h26.1l12.4 12.4 12.3-12.4h26c3.3 0 6-2.7 6-6v-40.3c0-3.3-2.7-6-6-6zm-26 36.5h-40c-1.7 0-3-1.3-3-3s1.3-3 3-3h40c1.7 0 3 1.3 3 3s-1.3 3-3 3zm15.2-15h-55.2c-1.7 0-3-1.3-3-3s1.3-3 3-3h55.2c1.7 0 3 1.3 3 3s-1.4 3-3 3z" fill="#e0e5e4"/><path d="m112.8 224.102h-76.8c-3.3 0-6 2.7-6 6v40.3c0 3.3 2.7 6 6 6h26.1l12.4 12.4 12.3-12.4h26c3.3 0 6-2.7 6-6v-40.3c0-3.3-2.7-6-6-6zm-26 36.5h-40c-1.7 0-3-1.3-3-3s1.3-3 3-3h40c1.7 0 3 1.3 3 3s-1.3 3-3 3zm15.2-15h-55.2c-1.7 0-3-1.3-3-3s1.3-3 3-3h55.2c1.7 0 3 1.3 3 3s-1.4 3-3 3z" fill="#e0e5e4"/><path d="m229.6 165.8c11.929 0 21.6-9.671 21.6-21.6s-9.671-21.6-21.6-21.6-21.6 9.671-21.6 21.6 9.671 21.6 21.6 21.6z" fill="#fff"/><path d="m229.6 122.6c-11.9 0-21.6 9.7-21.6 21.6s9.7 21.6 21.6 21.6 21.6-9.7 21.6-21.6c0-12-9.7-21.6-21.6-21.6zm-1.3 28.6c-.4.4-1 .7-1.6.7s-1.1-.2-1.6-.7l-5.9-5.9 3.2-3.2 4.3 4.3 10.1-10.1 3.2 3.2z" fill="#22d160"/></svg>