<svg fill="none" height="30" viewBox="0 0 42 30" width="42" xmlns="http://www.w3.org/2000/svg"><g fill="#54656f"><path d="m9.06736 22.4h-2.98925v3h2.98925z"/><path d="m8.96774 16.6h-2.98925v3h2.98925z"/><path d="m35.871 22.4h-2.9893v3h2.9893z"/><path d="m35.871 16.6h-2.9893v3h2.9893z"/><path d="m25.7076 11.2h-2.9893v3h2.9893z"/><path d="m25.6078 5.5h-2.9892v3h2.9892z"/><path d="m19.2309 11.2h-2.9893v3h2.9893z"/><path d="m19.2309 16.6h-2.9893v3h2.9893z"/><path d="m25.7076 16.6h-2.9893v3h2.9893z"/><path d="m19.1311 5.5h-2.9892v3h2.9892z"/><path d="m40.853 11.7h-9.9641v-9.7h.9964c.5979 0 .9964-.4.9964-1s-.3985-1-.9964-1h-1.9928-17.9355-1.99284c-.59785 0-.99642.4-.99642 1s.39857 1 .99642 1h.99644v9.7h-9.964184c-.59785 0-.996416.4-.996416 1s.398566 1 .996416 1h.996414v15.3c0 .6.39857 1 .99642 1h8.96775 4.9821 7.9713 4.9821 8.9677c.5979 0 .9964-.4.9964-1v-15.3h.9964c.5979 0 .9965-.4.9965-1s-.3986-1-.9965-1zm-36.86734 2.3h6.97494v14h-6.97494zm8.96774-1v-11h15.9427v11 15h-2.9893v-4h.9964c.5979 0 .9964-.4.9964-1s-.3985-1-.9964-1h-1.9928-7.9713-1.9929c-.5978 0-.9964.4-.9964 1s.3986 1 .9964 1h.9965v4h-2.9893zm4.9821 15v-4h5.9785v4zm19.9283 0h-6.9749v-14h6.9749z"/></g></svg>