<svg fill="none" height="517" viewBox="0 0 417 517" width="417" xmlns="http://www.w3.org/2000/svg" xmlns:xlink="http://www.w3.org/1999/xlink"><clipPath id="a"><path d="m0 0h416.5v516.6h-416.5z"/></clipPath><g clip-path="url(#a)"><path d="m208.3 336.7c43.631 0 79-35.369 79-79 0-43.63-35.369-79-79-79-43.63 0-79 35.37-79 79 0 43.631 35.37 79 79 79z" style="fill:#8a95fa;stroke:#4d4d4d;stroke-width:3;stroke-miterlimit:10;stroke-linecap:round;stroke-linejoin:round"/><path d="m287.3 257.7c0-21.9-9-41.8-23.4-56.1-2.7 4.3-6.5 7.7-12.1 7.9-15.6.7-28.3 17.9-25.8 36.3s22.9 19.9 22.6 36.3-12.6 20.9-10.6 44.3c.1 1.6.4 2.9.8 4.2 28.5-12 48.5-40.1 48.5-72.9z" style="fill:#82d5bf;stroke:#4d4d4d;stroke-width:3;stroke-miterlimit:10;stroke-linecap:round;stroke-linejoin:round"/><path d="m190.2 273.9c-1.3-12.5-33.8-19.7-40-34-3.4-7.8-10.8-6.9-18.2-2.8-1.8 6.6-2.7 13.5-2.7 20.6 0 36.8 25.1 67.7 59.1 76.5-3-7.7-10.8-14.3-9.2-27.2 2.1-17.5 12.3-20.5 11-33.1z" style="fill:#82d5bf;stroke:#4d4d4d;stroke-width:3;stroke-miterlimit:10;stroke-linecap:round;stroke-linejoin:round"/><path d="m143.5 212.6c7.4 13.6 13.4 19.1 20.7 8.4 14.8-21.7 30-4.2 38-19 2.2-4.1 4.3-13.5 5.1-23.2-26.4.3-49.7 13.6-63.8 33.8z" style="fill:#82d5bf;stroke:#4d4d4d;stroke-width:3;stroke-miterlimit:10;stroke-linecap:round;stroke-linejoin:round"/><path d="m236 430.5h-45.6c-11.6 0-20.9 9.4-20.9 20.9s9.4 20.9 20.9 20.9c8.1 0 15.1-4.6 18.6-11.4h8.4c3.5 6.8 10.5 11.4 18.6 11.4 11.6 0 20.9-9.4 20.9-20.9s-9.3-20.9-20.9-20.9z" style="fill:#e0e5e4;stroke:#4d4d4d;stroke-width:3;stroke-miterlimit:10;stroke-linecap:round;stroke-linejoin:round"/><path d="m198.7 449.4h-5.8v-6h-4.8v6h-5.5v4.8h5.5v5.3h4.8v-5.3h5.8z" style="fill:#ffadbc;stroke:#4d4d4d;stroke-width:3;stroke-miterlimit:10;stroke-linecap:round;stroke-linejoin:round"/><path d="m227.1 455.1c1.988 0 3.6-1.612 3.6-3.6s-1.612-3.6-3.6-3.6-3.6 1.612-3.6 3.6 1.612 3.6 3.6 3.6z" style="fill:#f9a94b;stroke:#4d4d4d;stroke-width:3;stroke-miterlimit:10;stroke-linecap:round;stroke-linejoin:round"/><path d="m245 455.1c1.988 0 3.6-1.612 3.6-3.6s-1.612-3.6-3.6-3.6-3.6 1.612-3.6 3.6 1.612 3.6 3.6 3.6z" style="fill:#8a95fa;stroke:#4d4d4d;stroke-width:3;stroke-miterlimit:10;stroke-linecap:round;stroke-linejoin:round"/><path d="m236.1 446.1c1.988 0 3.6-1.612 3.6-3.6s-1.612-3.6-3.6-3.6-3.6 1.612-3.6 3.6 1.612 3.6 3.6 3.6z" style="fill:#f9a94b;stroke:#4d4d4d;stroke-width:3;stroke-miterlimit:10;stroke-linecap:round;stroke-linejoin:round"/><path d="m236.1 464c1.988 0 3.6-1.612 3.6-3.6s-1.612-3.6-3.6-3.6-3.6 1.612-3.6 3.6 1.612 3.6 3.6 3.6z" style="fill:#8a95fa;stroke:#4d4d4d;stroke-width:3;stroke-miterlimit:10;stroke-linecap:round;stroke-linejoin:round"/><path d="m213 430.6v-25.3c0-4.6 3.7-8.3 8.3-8.3s8.3 3.7 8.3 8.3 3.7 8.3 8.3 8.3 8.3-3.7 8.3-8.3v-19.4c0-4.5 3.6-8.1 8.1-8.1h.6c4.5 0 8.1 3.6 8.1 8.1v30.1c0 4.5 3.6 8.1 8.1 8.1h.5c4.5 0 8.1-3.6 8.1-8.1s3.6-8.1 8.1-8.1h.3c4.5 0 8.1 3.6 8.1 8.1v30.8" stroke="#4d4d4d" stroke-linecap="round" stroke-linejoin="round" stroke-miterlimit="10" stroke-width="3"/><path d="m314.8 457.2c1.5 1.5-9.4 12.4-10.9 10.9l-6.9-17.8z" fill="#dfba97" stroke="#4d4d4d" stroke-linejoin="round" stroke-miterlimit="10" stroke-width="3"/><path d="m356.4 498.8-10.9 10.9 4.1 4.1c1.7 1.7 4.6 1.7 6.4-.2l4.3-4.3c1.8-1.8 1.9-4.7.2-6.4z" fill="#ffad9a" stroke="#4d4d4d" stroke-linejoin="round" stroke-miterlimit="10" stroke-width="3"/><path d="m314.8 457.2-10.9 10.9 41.6 41.6 10.9-10.9z" style="fill:#7eb2e2;stroke:#4d4d4d;stroke-width:3;stroke-miterlimit:10;stroke-linecap:round;stroke-linejoin:round"/><path d="m311.2 460.9-3.6 3.6 41.6 41.6 3.6-3.6z" style="fill:#7eb2e2;stroke:#4d4d4d;stroke-width:3;stroke-miterlimit:10;stroke-linecap:round;stroke-linejoin:round"/><path d="m299.4 456.5c.8-.3 1.6-.8 2.3-1.4.7-.7 1.1-1.5 1.4-2.3l-6.1-2.4z" fill="#4d4d4d"/><path d="m40.1 4.5c-6.2 6.5-6.1 11.4.5 17.6-6.6-6.2-11.4-6.1-17.6.4 6.2-6.5 6.1-11.3-.5-17.5 6.6 6.2 11.4 6 17.6-.5z" fill="#f9a94b" opacity=".6"/><path d="m37.1 1.5c-6.2 6.5-6.1 11.4.5 17.6-6.6-6.2-11.4-6.1-17.6.4 6.2-6.5 6.1-11.3-.5-17.5 6.6 6.2 11.4 6 17.6-.5z" stroke="#4d4d4d" stroke-linejoin="round" stroke-miterlimit="10" stroke-width="3"/><path d="m397.5 17.5c-5.4 0-7.5 2-7.5 7.5 0-5.4-2-7.5-7.5-7.5 5.4 0 7.5-2 7.5-7.5 0 5.5 2.1 7.5 7.5 7.5z" fill="#fff"/><path d="m400.5 20.5c-5.4 0-7.5 2-7.5 7.5 0-5.4-2-7.5-7.5-7.5 5.4 0 7.5-2 7.5-7.5 0 5.5 2.1 7.5 7.5 7.5z" fill="#f9a94b" opacity=".6"/><path d="m397.5 17.5c-5.4 0-7.5 2-7.5 7.5 0-5.4-2-7.5-7.5-7.5 5.4 0 7.5-2 7.5-7.5 0 5.5 2.1 7.5 7.5 7.5z" stroke="#4d4d4d" stroke-linejoin="round" stroke-miterlimit="10" stroke-width="3"/><path d="m393.5 286c-5.4-.1-7.5 2-7.6 7.4.1-5.4-2-7.5-7.4-7.6 5.4.1 7.5-2 7.6-7.4 0 5.5 2 7.6 7.4 7.6z" fill="#fff"/><path d="m396.5 289c-5.4-.1-7.5 2-7.6 7.4.1-5.4-2-7.5-7.4-7.6 5.4.1 7.5-2 7.6-7.4 0 5.5 2 7.6 7.4 7.6z" fill="#f9a94b" opacity=".6"/><path d="m393.5 286c-5.4-.1-7.5 2-7.6 7.4.1-5.4-2-7.5-7.4-7.6 5.4.1 7.5-2 7.6-7.4 0 5.5 2 7.6 7.4 7.6z" stroke="#4d4d4d" stroke-linejoin="round" stroke-miterlimit="10" stroke-width="3"/><path d="m16.4001 508.1v-6.7" stroke="#4d4d4d" stroke-linecap="round" stroke-linejoin="round" stroke-miterlimit="10" stroke-width="3"/><path d="m16.4001 491.4v-6.6" stroke="#4d4d4d" stroke-linecap="round" stroke-linejoin="round" stroke-miterlimit="10" stroke-width="3"/><path d="m28.1001 496.4h-6.7" stroke="#4d4d4d" stroke-linecap="round" stroke-linejoin="round" stroke-miterlimit="10" stroke-width="3"/><path d="m11.5 496.4h-6.69995" stroke="#4d4d4d" stroke-linecap="round" stroke-linejoin="round" stroke-miterlimit="10" stroke-width="3"/><path d="m16.4001 497.9c.8285 0 1.5-.672 1.5-1.5s-.6715-1.5-1.5-1.5c-.8284 0-1.5.672-1.5 1.5s.6716 1.5 1.5 1.5z" fill="#4d4d4d"/><path d="m274.1 507.1v-6.7" stroke="#4d4d4d" stroke-linecap="round" stroke-linejoin="round" stroke-miterlimit="10" stroke-width="3"/><path d="m274.1 490.5v-6.7" stroke="#4d4d4d" stroke-linecap="round" stroke-linejoin="round" stroke-miterlimit="10" stroke-width="3"/><path d="m285.8 495.4h-6.7" stroke="#4d4d4d" stroke-linecap="round" stroke-linejoin="round" stroke-miterlimit="10" stroke-width="3"/><path d="m269.2 495.4h-6.7" stroke="#4d4d4d" stroke-linecap="round" stroke-linejoin="round" stroke-miterlimit="10" stroke-width="3"/><path d="m274.1 496.9c.829 0 1.5-.672 1.5-1.5s-.671-1.5-1.5-1.5c-.828 0-1.5.672-1.5 1.5s.672 1.5 1.5 1.5z" fill="#4d4d4d"/><path d="m304.4 340.1v-6.7" stroke="#4d4d4d" stroke-linecap="round" stroke-linejoin="round" stroke-miterlimit="10" stroke-width="3"/><path d="m304.4 323.4v-6.6" stroke="#4d4d4d" stroke-linecap="round" stroke-linejoin="round" stroke-miterlimit="10" stroke-width="3"/><path d="m316.1 328.4h-6.7" stroke="#4d4d4d" stroke-linecap="round" stroke-linejoin="round" stroke-miterlimit="10" stroke-width="3"/><path d="m299.5 328.4h-6.7" stroke="#4d4d4d" stroke-linecap="round" stroke-linejoin="round" stroke-miterlimit="10" stroke-width="3"/><path d="m304.4 329.9c.829 0 1.5-.672 1.5-1.5s-.671-1.5-1.5-1.5c-.828 0-1.5.672-1.5 1.5s.672 1.5 1.5 1.5z" fill="#4d4d4d"/><path d="m13.1001 312.8v-6.7" stroke="#4d4d4d" stroke-linecap="round" stroke-linejoin="round" stroke-miterlimit="10" stroke-width="3"/><path d="m13.1001 296.1v-6.6" stroke="#4d4d4d" stroke-linecap="round" stroke-linejoin="round" stroke-miterlimit="10" stroke-width="3"/><path d="m24.8001 301.1h-6.7" stroke="#4d4d4d" stroke-linecap="round" stroke-linejoin="round" stroke-miterlimit="10" stroke-width="3"/><path d="m8.2 301.1h-6.7" stroke="#4d4d4d" stroke-linecap="round" stroke-linejoin="round" stroke-miterlimit="10" stroke-width="3"/><path d="m13.1001 302.6c.8284 0 1.5-.672 1.5-1.5s-.6716-1.5-1.5-1.5-1.5.672-1.5 1.5.6716 1.5 1.5 1.5z" fill="#4d4d4d"/><path d="m184.4 386.1v-6.7" stroke="#4d4d4d" stroke-linecap="round" stroke-linejoin="round" stroke-miterlimit="10" stroke-width="3"/><path d="m184.4 369.4v-6.6" stroke="#4d4d4d" stroke-linecap="round" stroke-linejoin="round" stroke-miterlimit="10" stroke-width="3"/><path d="m196.1 374.4h-6.7" stroke="#4d4d4d" stroke-linecap="round" stroke-linejoin="round" stroke-miterlimit="10" stroke-width="3"/><path d="m179.5 374.4h-6.7" stroke="#4d4d4d" stroke-linecap="round" stroke-linejoin="round" stroke-miterlimit="10" stroke-width="3"/><path d="m184.4 375.9c.829 0 1.5-.672 1.5-1.5s-.671-1.5-1.5-1.5c-.828 0-1.5.672-1.5 1.5s.672 1.5 1.5 1.5z" fill="#4d4d4d"/><path d="m28.1001 150.8v-6.7" stroke="#4d4d4d" stroke-linecap="round" stroke-linejoin="round" stroke-miterlimit="10" stroke-width="3"/><path d="m28.1001 134.1v-6.6" stroke="#4d4d4d" stroke-linecap="round" stroke-linejoin="round" stroke-miterlimit="10" stroke-width="3"/><path d="m39.8001 139.1h-6.7" stroke="#4d4d4d" stroke-linecap="round" stroke-linejoin="round" stroke-miterlimit="10" stroke-width="3"/><path d="m23.2 139.1h-6.7" stroke="#4d4d4d" stroke-linecap="round" stroke-linejoin="round" stroke-miterlimit="10" stroke-width="3"/><path d="m28.1001 140.6c.8284 0 1.5-.672 1.5-1.5s-.6716-1.5-1.5-1.5-1.5.672-1.5 1.5.6716 1.5 1.5 1.5z" fill="#4d4d4d"/><path d="m55.6001 463.3c5.4 0 7.5 2 7.5 7.5 0-5.4 2-7.5 7.5-7.5-5.4 0-7.5-2-7.5-7.5-.1 5.5-2.1 7.5-7.5 7.5z" fill="#fff"/><path d="m58.6001 466.3c5.4 0 7.5 2 7.5 7.5 0-5.4 2-7.5 7.5-7.5-5.4 0-7.5-2-7.5-7.5-.1 5.5-2.1 7.5-7.5 7.5z" fill="#f9a94b" opacity=".6"/><path d="m55.6001 463.3c5.4 0 7.5 2 7.5 7.5 0-5.4 2-7.5 7.5-7.5-5.4 0-7.5-2-7.5-7.5-.1 5.5-2.1 7.5-7.5 7.5z" stroke="#4d4d4d" stroke-linejoin="round" stroke-miterlimit="10" stroke-width="3"/><path d="m346.6 44c5.4 0 7.5 2 7.5 7.5 0-5.4 2-7.5 7.5-7.5-5.4 0-7.5-2-7.5-7.5-.1 5.5-2.1 7.5-7.5 7.5z" fill="#fff"/><path d="m349.6 47c5.4 0 7.5 2 7.5 7.5 0-5.4 2-7.5 7.5-7.5-5.4 0-7.5-2-7.5-7.5-.1 5.5-2.1 7.5-7.5 7.5z" fill="#f9a94b" opacity=".6"/><path d="m346.6 44c5.4 0 7.5 2 7.5 7.5 0-5.4 2-7.5 7.5-7.5-5.4 0-7.5-2-7.5-7.5-.1 5.5-2.1 7.5-7.5 7.5z" stroke="#4d4d4d" stroke-linejoin="round" stroke-miterlimit="10" stroke-width="3"/><path d="m61.6001 34c5.4 0 7.5 2 7.5 7.5 0-5.4 2-7.5 7.5-7.5-5.4 0-7.5-2-7.5-7.5-.1 5.5-2.1 7.5-7.5 7.5z" fill="#fff"/><path d="m61.6001 34c5.4 0 7.5 2 7.5 7.5 0-5.4 2-7.5 7.5-7.5-5.4 0-7.5-2-7.5-7.5-.1 5.5-2.1 7.5-7.5 7.5z" stroke="#4d4d4d" stroke-linejoin="round" stroke-miterlimit="10" stroke-width="3"/><path d="m398.6 300.4c5.4 0 7.5 2 7.5 7.5 0-5.4 2-7.5 7.5-7.5-5.4 0-7.5-2-7.5-7.5-.1 5.5-2.1 7.5-7.5 7.5z" fill="#fff"/><path d="m401.6 303.4c5.4 0 7.5 2 7.5 7.5 0-5.4 2-7.5 7.5-7.5-5.4 0-7.5-2-7.5-7.5-.1 5.5-2.1 7.5-7.5 7.5z" fill="#f9a94b" opacity=".6"/><path d="m398.6 300.4c5.4 0 7.5 2 7.5 7.5 0-5.4 2-7.5 7.5-7.5-5.4 0-7.5-2-7.5-7.5-.1 5.5-2.1 7.5-7.5 7.5z" stroke="#4d4d4d" stroke-linejoin="round" stroke-miterlimit="10" stroke-width="3"/><path d="m225.1 37.1v-6.7" stroke="#4d4d4d" stroke-linecap="round" stroke-linejoin="round" stroke-miterlimit="10" stroke-width="3"/><path d="m225.1 13.8v6.6" stroke="#4d4d4d" stroke-linecap="round" stroke-linejoin="round" stroke-miterlimit="10" stroke-width="3"/><path d="m213.5 25.4h6.7" stroke="#4d4d4d" stroke-linecap="round" stroke-linejoin="round" stroke-miterlimit="10" stroke-width="3"/><path d="m230.1 25.4h6.7" stroke="#4d4d4d" stroke-linecap="round" stroke-linejoin="round" stroke-miterlimit="10" stroke-width="3"/><path d="m225.1 26.9c.829 0 1.5-.6716 1.5-1.5s-.671-1.5-1.5-1.5c-.828 0-1.5.6716-1.5 1.5s.672 1.5 1.5 1.5z" fill="#4d4d4d"/><path d="m273.1 175.1v-6.7" stroke="#4d4d4d" stroke-linecap="round" stroke-linejoin="round" stroke-miterlimit="10" stroke-width="3"/><path d="m273.1 158.4v-6.6" stroke="#4d4d4d" stroke-linecap="round" stroke-linejoin="round" stroke-miterlimit="10" stroke-width="3"/><path d="m261.5 163.4h6.7" stroke="#4d4d4d" stroke-linecap="round" stroke-linejoin="round" stroke-miterlimit="10" stroke-width="3"/><path d="m278.1 163.4h6.7" stroke="#4d4d4d" stroke-linecap="round" stroke-linejoin="round" stroke-miterlimit="10" stroke-width="3"/><path d="m273.1 164.9c.829 0 1.5-.672 1.5-1.5s-.671-1.5-1.5-1.5c-.828 0-1.5.672-1.5 1.5s.672 1.5 1.5 1.5z" fill="#4d4d4d"/><path d="m372.3 358.5h-21.6v8h21.6z" style="fill:#e0e5e4;stroke:#4d4d4d;stroke-width:3;stroke-miterlimit:10;stroke-linecap:round;stroke-linejoin:round"/><path d="m381.8 366.8h-40.5v8h40.5z" style="fill:#e0e5e4;stroke:#4d4d4d;stroke-width:3;stroke-miterlimit:10;stroke-linecap:round;stroke-linejoin:round"/><path d="m361.5 328 5.3 30.5h-10.5z" stroke="#4d4d4d" stroke-linecap="round" stroke-linejoin="round" stroke-miterlimit="10" stroke-width="3"/><path d="m361.5 307.7 5.7 11.5 12.7 1.8-9.2 9 2.2 12.7-11.4-6-11.3 6 2.2-12.7-9.2-9 12.7-1.8z" style="fill:#f9a94b;stroke:#4d4d4d;stroke-width:3;stroke-miterlimit:10;stroke-linecap:round;stroke-linejoin:round"/><path d="m333.8 108.8c0-1.7 1.3-3 3-3v-4c-1.7 0-3-1.3-3-3s1.3-3 3-3v-4c-1.7 0-3-1.3-3-3s1.3-3 3-3v-4c-1.7 0-3-1.3-3-3s1.3-3 3-3v-4h-77v4c1.7 0 3 1.3 3 3s-1.3 3-3 3v4c1.7 0 3 1.3 3 3s-1.3 3-3 3v4c1.7 0 3 1.3 3 3s-1.3 3-3 3v4c1.7 0 3 1.3 3 3s-1.3 3-3 3v4h77v-4c-1.7 0-3-1.4-3-3z" style="fill:#ffadbc;stroke:#4d4d4d;stroke-width:3;stroke-miterlimit:10;stroke-linecap:round;stroke-linejoin:round"/><path d="m276.3 79.8v28" stroke="#4d4d4d" stroke-linecap="round" stroke-linejoin="round" stroke-miterlimit="10" stroke-width="3"/><path d="m320.3 79.8v28" stroke="#4d4d4d" stroke-linecap="round" stroke-linejoin="round" stroke-miterlimit="10" stroke-width="3"/><path d="m298.3 84.4 3.1 6.2 6.8 1-5 4.8 1.2 6.8-6.1-3.2-6.1 3.2 1.2-6.8-5-4.8 6.8-1z" style="fill:#f9a94b;stroke:#4d4d4d;stroke-width:3;stroke-miterlimit:10;stroke-linecap:round;stroke-linejoin:round"/><path d="m192.8 93.8h-76.8c-3.3 0-6 2.7-6 6v40.3c0 3.3 2.7 6 6 6h13l12.4 12.4 12.4-12.4h39c3.3 0 6-2.7 6-6v-40.3c0-3.3-2.7-6-6-6zm-26 36.5h-40c-1.7 0-3-1.3-3-3s1.3-3 3-3h40c1.7 0 3 1.3 3 3s-1.3 3-3 3zm15.1-15h-55.2c-1.7 0-3-1.3-3-3s1.3-3 3-3h55.2c1.7 0 3 1.3 3 3s-1.3 3-3 3z" fill="#8a95fa"/><path d="m192.8 93.8h-76.8c-3.3 0-6 2.7-6 6v40.3c0 3.3 2.7 6 6 6h13l12.4 12.4 12.4-12.4h39c3.3 0 6-2.7 6-6v-40.3c0-3.3-2.7-6-6-6zm-26 36.5h-40c-1.7 0-3-1.3-3-3s1.3-3 3-3h40c1.7 0 3 1.3 3 3s-1.3 3-3 3zm15.1-15h-55.2c-1.7 0-3-1.3-3-3s1.3-3 3-3h55.2c1.7 0 3 1.3 3 3s-1.3 3-3 3z" stroke="#4d4d4d" stroke-linecap="round" stroke-linejoin="round" stroke-miterlimit="10" stroke-width="3"/><path d="m147.8 390-.5-40.3c0-3.3-2.8-6-6.1-5.9l-12.8.2-12.5-12.2-12.2 12.5-39.3.4c-3.3 0-6 2.8-5.9 6.1l.5 40.3c0 3.3 2.8 6 6.1 5.9l76.8-.9c3.3 0 5.9-2.7 5.9-6.1zm-32.1-11.8-40 .5c-1.7 0-3-1.3-3-3s1.3-3 3-3l40-.5c1.7 0 3 1.3 3 3-.1 1.7-1.4 3-3 3zm14.9-15.1-55.1.7c-1.7 0-3-1.3-3-3s1.3-3 3-3l55.1-.7c1.7 0 3 1.3 3 3 0 1.6-1.3 2.9-3 3z" fill="#8a95fa"/><path d="m147.8 390-.5-40.3c0-3.3-2.8-6-6.1-5.9l-12.8.2-12.5-12.2-12.2 12.5-39.3.4c-3.3 0-6 2.8-5.9 6.1l.5 40.3c0 3.3 2.8 6 6.1 5.9l76.8-.9c3.3 0 5.9-2.7 5.9-6.1zm-32.1-11.8-40 .5c-1.7 0-3-1.3-3-3s1.3-3 3-3l40-.5c1.7 0 3 1.3 3 3-.1 1.7-1.4 3-3 3zm14.9-15.1-55.1.7c-1.7 0-3-1.3-3-3s1.3-3 3-3l55.1-.7c1.7 0 3 1.3 3 3 0 1.6-1.3 2.9-3 3z" stroke="#4d4d4d" stroke-linecap="round" stroke-linejoin="round" stroke-miterlimit="10" stroke-width="3"/><path d="m74.9001 218.8c0-10.5-8.6-19-19.2-18.9-10.2.2-18.5 8.4-18.6 18.6-.1 5.9 2.6 11.3 6.8 14.8 1.3 1 2 2.5 2 4.1v3.1c0 2.2 1.8 3.9 3.9 3.9h12.3c2.2 0 3.9-1.8 3.9-3.9v-3c0-1.6.7-3.1 1.9-4.1 4.3-3.4 7-8.7 7-14.6z" style="fill:#f9a94b;stroke:#4d4d4d;stroke-width:3;stroke-miterlimit:10;stroke-linecap:round;stroke-linejoin:round"/><path d="m58.4001 249.5v-20.8c0-1.5 1.3-2.8 2.8-2.8s2.8 1.3 2.8 2.8-1.3 2.8-2.8 2.8h-10.5c-1.5 0-2.8-1.3-2.8-2.8s1.3-2.8 2.8-2.8 2.8 1.3 2.8 2.8v20.8" fill="#ffcd33"/><path d="m58.4001 249.5v-20.8c0-1.5 1.3-2.8 2.8-2.8s2.8 1.3 2.8 2.8-1.3 2.8-2.8 2.8h-10.5c-1.5 0-2.8-1.3-2.8-2.8s1.3-2.8 2.8-2.8 2.8 1.3 2.8 2.8v20.8" stroke="#4d4d4d" stroke-linejoin="round" stroke-miterlimit="10" stroke-width="3"/><path d="m59.3001 254.2h-6.5c-.8 0-1.4.6-1.4 1.4v1.3c0 .8.6 1.4 1.4 1.4h6.5c.8 0 1.4-.6 1.4-1.4v-1.3c.1-.8-.6-1.4-1.4-1.4z" fill="#4d4d4d"/><g stroke="#4d4d4d" stroke-linejoin="round" stroke-miterlimit="10" stroke-width="3"><path d="m64.5 244.6h-17c-.9 0-1.7.7-1.7 1.7v1.3c0 .9.7 1.7 1.7 1.7h16.9001c.9 0 1.6999-.7 1.6999-1.7v-1.3c.1-1-.8-1.7-1.6-1.7z" fill="#8c8c8c"/><path d="m64.5 249.2h-17c-.9 0-1.7.7-1.7 1.7v1.3c0 .9.7 1.7 1.7 1.7h16.9001c.9 0 1.6999-.7 1.6999-1.7v-1.3c.1-1-.8-1.7-1.6-1.7z" fill="#8c8c8c"/><path d="m56 189v-7.2" stroke-linecap="round"/><path d="m75.6001 196.1 4.7-5.4" stroke-linecap="round"/><path d="m86.1001 214.3 7.1-1.2" stroke-linecap="round"/><path d="m82.5 234.9 6.3 3.6" stroke-linecap="round"/><path d="m29.5 234.9-6.2 3.6" stroke-linecap="round"/><path d="m25.8 214.3-7-1.2" stroke-linecap="round"/><path d="m36.3001 196.1-4.7-5.4" stroke-linecap="round"/><path d="m407.1 233.8h-70.3c-1.5 0-2.7-1.2-2.7-2.7v-41.9c0-1.5 1.2-2.7 2.7-2.7h70.3c1.5 0 2.7 1.2 2.7 2.7v41.9c0 1.5-1.2 2.7-2.7 2.7z" fill="#e0e5e4" stroke-linecap="round"/><path d="m408.6 195.9h-73.3c-.7 0-1.2-.5-1.2-1.2v-7.1c0-.7.5-1.2 1.2-1.2h73.3c.7 0 1.2.5 1.2 1.2v7.1c0 .7-.5 1.2-1.2 1.2z" fill="#fff"/><path d="m348.2 186.8-5.1 8.8"/><path d="m361.3 186.8-5 8.8"/><path d="m374.4 186.8-5 8.8"/><path d="m400.6 186.8-5 8.8"/><path d="m387.5 186.8-5 8.8"/><path d="m336.7 186 69.5-12.3c1.4-.2 2.3-1.6 2.1-2.9l-.8-4.3c-.2-1.4-1.6-2.3-2.9-2.1l-69.6 12.3c-1.4.2-2.3 1.6-2.1 2.9l.8 4.3c.3 1.5 1.6 2.4 3 2.1z" fill="#fff"/><path d="m393.3 166.8 6.5 7.8"/><path d="m380.4 169.1 6.4 7.7"/><path d="m367.4 171.4 6.5 7.7"/><path d="m341.6 175.9 6.5 7.8"/><path d="m354.5 173.7 6.5 7.7"/><path d="m372 204.4 3 6.2 6.8 1-4.9 4.8 1.2 6.8-6.1-3.2-6.1 3.2 1.1-6.8-4.9-4.8 6.8-1z" fill="#f9a94b" stroke-linecap="round"/></g></g></svg>