<svg width="34" height="35" viewBox="0 0 34 35" fill="none" xmlns="http://www.w3.org/2000/svg">
<path d="M31.2 4C32.3 4 33.2 3.1 33.2 2C33.2 0.9 32.3 0 31.2 0C30.1 0 29.2 0.9 29.2 2L16.4 9.7L10.2 4.3C10.2 4.2 10.2 4.1 10.2 3.9C10.2 2.8 9.3 1.9 8.2 1.9C7.1 1.9 6.2 2.8 6.2 3.9C6.2 5 7.1 5.9 8.2 5.9C8.4 5.9 8.6 5.9 8.8 5.8L13.6 9.9H5C2.2 9.9 0 12.1 0 14.9V27.5C0 30.3 2.2 32.5 5 32.5H6.5L5.6 33.8C5.4 34.1 5.6 34.6 6 34.6H8.8C8.9 34.6 9 34.6 9 34.5L12.3 32.5H20.2L23.5 34.5C23.6 34.5 23.7 34.6 23.7 34.6H26.5C26.9 34.6 27.1 34.2 26.9 33.8L26 32.6H27.5C30.3 32.6 32.5 30.4 32.5 27.6V14.9C32.5 12.1 30.3 9.9 27.5 9.9H19.8L30.1 3.7C30.5 3.9 30.8 4 31.2 4ZM30.6 14.9V27.5C30.6 29.2 29.3 30.5 27.6 30.5H5C3.3 30.5 2 29.2 2 27.5V14.9C2 13.2 3.3 11.9 5 11.9H27.6C29.2 11.9 30.6 13.3 30.6 14.9Z" fill="#54656F"/>
<path d="M10.8 19.5H8.3V17.5H15.7V19.5H13.2V25.9H10.9V19.5H10.8Z" fill="#54656F"/>
<path d="M16 17.5H18.6L20.5 22.8L22.4 17.5H25L21.6 26H19.4L16 17.5Z" fill="#54656F"/>
</svg>
