<svg fill="none" height="77" viewBox="0 0 45 77" width="45" xmlns="http://www.w3.org/2000/svg"><path d="m2.50015 27.4c-.5-10.7 2.79999-26.4 19.49995-26.4 17 0 20.7 16.4 20.2 26.6-.7 13.1-39.39995 7.3-39.69995-.2z" fill="#ffa20d" stroke="#4d4d4d" stroke-linejoin="round" stroke-miterlimit="10" stroke-width="2"/><path d="m27.4 57.2v-14.5h-10.2v14.5c0 1.1-.9 2-2 2h-1.7c0 3.4 4.7 12.8 8.8 12.8s8.8-9.4 8.8-12.8h-1.6c-1.2 0-2.1-.9-2.1-2z" fill="#fcc5af" stroke="#4d4d4d" stroke-linejoin="round" stroke-miterlimit="10" stroke-width="2"/><path d="m26.4 59.7c-1.5 0-7.8-7.1-7.8-7.8.1-1.5-.1-.9-.1-.9l7.9.2s.1 8.4 0 8.5z" fill="#f99f7a" opacity=".5"/><g stroke-linejoin="round" stroke-miterlimit="10" stroke-width="2"><path d="m4.90002 36.3c2.15392 0 3.89997-1.7461 3.89997-3.9s-1.74605-3.9-3.89997-3.9c-2.15391 0-3.90002 1.7461-3.90002 3.9s1.74611 3.9 3.90002 3.9z" fill="#fcc5af" stroke="#4d4d4d"/><path d="m39.7 36.3c2.1539 0 3.9-1.7461 3.9-3.9s-1.7461-3.9-3.9-3.9c-2.154 0-3.9001 1.7461-3.9001 3.9s1.7461 3.9 3.9001 3.9z" fill="#fcc5af" stroke="#4d4d4d"/><path d="m25.4998 8.6c-4.1-.6-5.8-3.1-6.7-3.1-7.5 0-14 4.3-14 27.4 0 12.5 9.3 19 17 19 8.8 0 18-6.5 18-20.7 0-12.6-1.9999-19.5-7.1999-23.2-.3-.3-3.1001 1.2-7.1001.6z" fill="#fcc5af" stroke="#4d4d4d"/><path d="m27.4998 13.8c-2.7.4-6.1.2-8.2-.6" opacity=".0324" stroke="#bd9483" stroke-linecap="round"/><path d="m29.3998 17.6c-4.9.8-10.2.4-13.6-1.2" opacity=".0324" stroke="#bd9483" stroke-linecap="round"/><path d="m27.9999 23.2s2.4-1.4 4.8-.6" stroke="#4d4d4d" stroke-linecap="round"/><path d="m16.6999 23.2s-2.4-1.4-4.8-.6" stroke="#4d4d4d" stroke-linecap="round"/><path d="m21.1001 37v1.7c0 .7.4999 1.3 1.1999 1.3h1.5" stroke="#4d4d4d" stroke-linecap="round"/><path d="m20.2002 46c1.5.7 2.8.7 4.2 0" stroke="#4d4d4d" stroke-linecap="round"/></g><path d="m14.7999 31.7c.8284 0 1.5-.6716 1.5-1.5s-.6716-1.5-1.5-1.5c-.8285 0-1.5001.6716-1.5001 1.5s.6716 1.5 1.5001 1.5z" fill="#4d4d4d"/><path d="m29.8999 31.7c.8285 0 1.5001-.6716 1.5001-1.5s-.6716-1.5-1.5001-1.5c-.8284 0-1.5.6716-1.5 1.5s.6716 1.5 1.5 1.5z" fill="#4d4d4d"/><path d="m35.6001 30.3 4.5-2.5" stroke="#4d4d4d" stroke-linejoin="round" stroke-miterlimit="10" stroke-width="2"/><path d="m4.5 27.8 3.90002 1.7" stroke="#4d4d4d" stroke-linejoin="round" stroke-miterlimit="10" stroke-width="2"/><path d="m14.2 35.3c-3 0-5.7-.9-5.7-5.1 0-2.1 1.2-4 5.5-4 4.9 0 6.2 1.8 6.2 4 0 2.9-2.9 5.1-6 5.1z" style="fill:#4d4d4d;fill-opacity:.9;stroke:#4d4d4d;stroke-width:2;stroke-miterlimit:10;stroke-linecap:round;stroke-linejoin:round"/><path d="m30.4 35.3c3 0 5.7-.9 5.7-5.1 0-2.1-1.2-4-5.5-4-4.9 0-6.2 1.8-6.2 4 0 2.9 3 5.1 6 5.1z" style="fill:#4d4d4d;fill-opacity:.9;stroke:#4d4d4d;stroke-width:2;stroke-miterlimit:10;stroke-linecap:round;stroke-linejoin:round"/><path d="m19.7002 29.1c1.9.7 3.7.8 5.3 0" stroke="#4d4d4d" stroke-linejoin="round" stroke-miterlimit="10" stroke-width="2"/><path d="m42.6001 65.9c0-4.4-3.6-8-8-8l-8.5.7s-3.7 4.2-3.7 16c0-11.7-4.1-16-4.1-16l-8.3-.7c-4.39998 0-7.99998 3.6-7.99998 8v1.3c5.29999 4.9 12.39998 7.8 20.19998 7.8 7.9 0 15-3 20.4-8z" fill="#5c5c5c"/><path d="m42.6001 65.9c0-4.4-3.6-8-8-8l-8.5.7s-3.7 4.2-3.7 16c0-11.7-4.1-16-4.1-16l-8.3-.7c-4.39998 0-7.99998 3.6-7.99998 8v1.3c5.29999 4.9 12.39998 7.8 20.19998 7.8 7.9 0 15-3 20.4-8z" fill="#fff"/><path d="m42.6001 65.9c0-4.4-3.6-8-8-8l-8.5.7s-3.7 4.2-3.7 16c0-11.7-4.1-16-4.1-16l-8.3-.7c-4.39998 0-7.99998 3.6-7.99998 8v1.3c5.29999 4.9 12.39998 7.8 20.19998 7.8 7.9 0 15-3 20.4-8z" stroke="#4d4d4d" stroke-linejoin="round" stroke-miterlimit="10" stroke-width="2"/><path d="m42.6001 65.9c0-4.4-3.6-8-8-8h-2.5l-9.7 17.2-9.4-17.2h-4.29998c-3.09999 0-6.7 3.6-6.7 8v1.3c5.29999 4.9 12.39998 7.8 20.19998 7.8 7.9 0 15-3.1 20.4-8z" fill="#5c5c5c"/><path d="m42.6001 65.9c0-4.4-3.6-8-8-8h-2.5l-9.7 17.2-9.4-17.2h-4.29998c-3.09999 0-6.7 3.6-6.7 8v1.3c5.29999 4.9 12.39998 7.8 20.19998 7.8 7.9 0 15-3.1 20.4-8z" stroke="#4d4d4d" stroke-linejoin="round" stroke-miterlimit="10" stroke-width="2"/><path d="m17.4998 52.2s-.8 4 .7 7.1c0 0-3.8 2.7-5.1 6.6-3.29997-4.5-1.9-12.1 4.4-13.7z" fill="#fff" stroke="#4d4d4d" stroke-linejoin="round" stroke-miterlimit="10" stroke-width="2"/><path d="m27.1998 52.2s.8 4-.7 7.1c0 0 3.8 2.7 5.1 6.6 3.3-4.5 1.9-12.1-4.4-13.7z" fill="#fff" stroke="#4d4d4d" stroke-linejoin="round" stroke-miterlimit="10" stroke-width="2"/><path d="m8.3999 66.7v4.4" stroke="#4d4d4d" stroke-linecap="round" stroke-linejoin="round" stroke-miterlimit="10" stroke-width="2"/><path d="m36.2998 66.7v4.4" stroke="#4d4d4d" stroke-linecap="round" stroke-linejoin="round" stroke-miterlimit="10" stroke-width="2"/></svg>