<svg fill="none" height="77" viewBox="0 0 48 77" width="48" xmlns="http://www.w3.org/2000/svg"><path d="m27.5 55.8v-12.8h-7.6v12.8c0 1.1-.9 2-2 2h-6.5l-1.4 13.2h27.4l-1.4-13.2h-6.6c-1 0-1.9-.9-1.9-2z" fill="#f8d3c4" stroke="#4d4d4d" stroke-linejoin="round" stroke-miterlimit="10" stroke-width="2"/><path d="m27.8998 58.3c-2.9 0-7.5-2.5-7.5-3.2.1-1.5-.1-1.2-.1-1.2 1-1.2 6.4.4 6.4.4s1.3 3.9 1.2 4z" fill="#a88c7d" opacity=".16"/><g stroke="#4d4d4d" stroke-linejoin="round" stroke-miterlimit="10" stroke-width="2"><path d="m27.5 55.8v-12.8h-7.6v12.8c0 1.1-.9 2-2 2h-6.5l-1.4 13.2h27.4l-1.4-13.2h-6.6c-1 0-1.9-.9-1.9-2z"/><path d="m35.9998 57.8h-3.1l-4.2 3.2-5 10.5-5-10.5-4.1-3.2h-3.3c-4.39999 0-8 3.6-8 8v1.9c5.30001 4.9 12.5 7.9 20.3 7.9 7.9 0 15-3 20.4-8v-1.8c0-4.4-3.5-8-8-8z" fill="#bee5e5"/><path d="m23.7002 70.9v4.7"/><path d="m10 69.1v2.6" stroke-linecap="round"/><path d="m37.3999 69.1v2.6" stroke-linecap="round"/><path d="m19.4998 53.5s-1.5 4 0 7.1c0 0-3.1 2.7-4.4 6.6-3.3-4.6-1.9-12.2 4.4-13.7z" fill="#bee5e5"/><path d="m27.7998 53.5s1.5 4 0 7.1c0 0 3.1 2.7 4.4 6.6 3.4-4.6 2-12.2-4.4-13.7z" fill="#bee5e5"/><path d="m4.9 33.8c2.15391 0 3.9-1.7461 3.9-3.9s-1.74609-3.9-3.9-3.9-3.9 1.7461-3.9 3.9 1.74609 3.9 3.9 3.9z" fill="#f8d3c4"/><path d="m42.4 33.8c2.1539 0 3.9-1.7461 3.9-3.9s-1.7461-3.9-3.9-3.9-3.9 1.7461-3.9 3.9 1.7461 3.9 3.9 3.9z" fill="#f8d3c4"/><path d="m4.8999 20.6v14.9c0 10.2 10.7 19.2 18.6 19.2 8.9 0 18.9-8.2 18.9-18.8v-15.3c0-6.6-37.5-6.6-37.5 0z" fill="#f8d3c4"/><path d="m27.3999 46.2c-1.9 2.3-5.7 2.1-7.5-.1" stroke-linecap="round"/><path d="m21.3999 31.5c1.5.4 3 .5 4.5 0"/><path d="m38.2002 32.2 4.5-8.2"/><path d="m4.6001 24 4.49998 7.4"/></g><path d="m15.6001 37.6h-1c-3.1 0-5.5-2.5-5.5-5.5 0-3.1 2.5-5.5 5.5-5.5h1c3.1 0 5.5 2.5 5.5 5.5 0 3.1-2.4 5.5-5.5 5.5z" fill="#4d4d4d" opacity=".6"/><path d="m15.6001 37.6h-1c-3.1 0-5.5-2.5-5.5-5.5 0-3.1 2.5-5.5 5.5-5.5h1c3.1 0 5.5 2.5 5.5 5.5 0 3.1-2.4 5.5-5.5 5.5z" stroke="#4d4d4d" stroke-linecap="round" stroke-linejoin="round" stroke-miterlimit="10" stroke-width="2"/><path d="m32.7002 37.6h-1c-3.1 0-5.5-2.5-5.5-5.5 0-3.1 2.5-5.5 5.5-5.5h1c3.1 0 5.5 2.5 5.5 5.5 0 3.1-2.4 5.5-5.5 5.5z" fill="#4d4d4d" opacity=".6"/><path d="m32.7002 37.6h-1c-3.1 0-5.5-2.5-5.5-5.5 0-3.1 2.5-5.5 5.5-5.5h1c3.1 0 5.5 2.5 5.5 5.5 0 3.1-2.4 5.5-5.5 5.5z" stroke="#4d4d4d" stroke-linecap="round" stroke-linejoin="round" stroke-miterlimit="10" stroke-width="2"/><path d="m15.1001 33.6c.8284 0 1.5-.6716 1.5-1.5 0-.8285-.6716-1.5-1.5-1.5s-1.5.6715-1.5 1.5c0 .8284.6716 1.5 1.5 1.5z" fill="#4d4d4d"/><path d="m32.2002 33.6c.8284 0 1.5-.6716 1.5-1.5 0-.8285-.6716-1.5-1.5-1.5s-1.5.6715-1.5 1.5c0 .8284.6716 1.5 1.5 1.5z" fill="#4d4d4d"/><path d="m43.1999 16.4c1.3001 11.4-39.09996 11.4-38.59996-.1.4-10.00001 10.89996-15.3 19.49996-15.3 8.9 0 17.9001 5.09999 19.1 15.4z" fill="#a9bdbd" stroke="#4d4d4d" stroke-linejoin="round" stroke-miterlimit="10" stroke-width="2"/><path d="m4.59973 16.7v-.4c0 5.2 38.59997 5.2 38.59997 0v.4c0 9.7-3.5 11.6-19.5 11.6-15.79997 0-19.09997-2.6-19.09997-11.6z" fill="#717e7e" stroke="#4d4d4d" stroke-linejoin="round" stroke-miterlimit="10" stroke-width="2"/><path d="m36.1998 4.70001c2.1001 4.59999 1.3 11.79999.9 14.39999" stroke="#4d4d4d" stroke-linecap="round" stroke-linejoin="round" stroke-miterlimit="10" stroke-width="2"/><path d="m10.2998 5.79999c-1.09996 4.19999-.79996 9.80001.2 13.30001" stroke="#4d4d4d" stroke-linecap="round" stroke-linejoin="round" stroke-miterlimit="10" stroke-width="2"/><path d="m9.79993 9.5c3.59997-1.69999 24.59997-1.79999 27.49997-.4" stroke="#4d4d4d" stroke-linejoin="round" stroke-miterlimit="10" stroke-width="2"/><path d="m27.9 11.4h-8v5.5h8z" fill="#c19041" stroke="#4d4d4d" stroke-linejoin="round" stroke-miterlimit="10" stroke-width="2"/><path d="m23.8999 8v-7" stroke="#4d4d4d" stroke-linejoin="round" stroke-miterlimit="10" stroke-width="2"/><path d="m22.9001 37.4-.3 3.3c0 .7.6 1.3 1.3 1.3h1.6" stroke="#4d4d4d" stroke-linecap="round" stroke-linejoin="round" stroke-miterlimit="10" stroke-width="2"/></svg>