<svg width="48" height="77" viewBox="0 0 48 77" fill="none" xmlns="http://www.w3.org/2000/svg">
<path d="M27.5 55.8V43H19.9V55.8C19.9 56.9 19 57.8 17.9 57.8H11.4L10 71H37.4L36 57.8H29.4C28.4 57.8 27.5 56.9 27.5 55.8Z" fill="#F8D3C4" stroke="#4D4D4D" stroke-width="2" stroke-miterlimit="10" stroke-linejoin="round"/>
<g opacity="0.4">
<path opacity="0.4" d="M27.8998 58.3C24.9998 58.3 20.3998 55.8 20.3998 55.1C20.4998 53.6 20.2998 53.9 20.2998 53.9C21.2998 52.7 26.6998 54.3 26.6998 54.3C26.6998 54.3 27.9998 58.2 27.8998 58.3Z" fill="#A88C7D"/>
</g>
<path d="M27.5 55.8V43H19.9V55.8C19.9 56.9 19 57.8 17.9 57.8H11.4L10 71H37.4L36 57.8H29.4C28.4 57.8 27.5 56.9 27.5 55.8Z" stroke="#4D4D4D" stroke-width="2" stroke-miterlimit="10" stroke-linejoin="round"/>
<path d="M35.9998 57.8H32.8998L28.6998 61L23.6998 71.5L18.6998 61L14.5998 57.8H11.2998C6.89981 57.8 3.2998 61.4 3.2998 65.8V67.7C8.59981 72.6 15.7998 75.6 23.5998 75.6C31.4998 75.6 38.5998 72.6 43.9998 67.6V65.8C43.9998 61.4 40.4998 57.8 35.9998 57.8Z" fill="#BEE5E5" stroke="#4D4D4D" stroke-width="2" stroke-miterlimit="10" stroke-linejoin="round"/>
<path d="M23.7002 70.9V75.6" stroke="#4D4D4D" stroke-width="2" stroke-miterlimit="10" stroke-linejoin="round"/>
<path d="M10 69.1V71.7" stroke="#4D4D4D" stroke-width="2" stroke-miterlimit="10" stroke-linecap="round" stroke-linejoin="round"/>
<path d="M37.3999 69.1V71.7" stroke="#4D4D4D" stroke-width="2" stroke-miterlimit="10" stroke-linecap="round" stroke-linejoin="round"/>
<path d="M19.4998 53.5C19.4998 53.5 17.9998 57.5 19.4998 60.6C19.4998 60.6 16.3998 63.3 15.0998 67.2C11.7998 62.6 13.1998 55 19.4998 53.5Z" fill="#BEE5E5" stroke="#4D4D4D" stroke-width="2" stroke-miterlimit="10" stroke-linejoin="round"/>
<path d="M27.7998 53.5C27.7998 53.5 29.2998 57.5 27.7998 60.6C27.7998 60.6 30.8998 63.3 32.1998 67.2C35.5998 62.6 34.1998 55 27.7998 53.5Z" fill="#BEE5E5" stroke="#4D4D4D" stroke-width="2" stroke-miterlimit="10" stroke-linejoin="round"/>
<path d="M4.9 33.8C7.05391 33.8 8.8 32.0539 8.8 29.9C8.8 27.7461 7.05391 26 4.9 26C2.74609 26 1 27.7461 1 29.9C1 32.0539 2.74609 33.8 4.9 33.8Z" fill="#F8D3C4" stroke="#4D4D4D" stroke-width="2" stroke-miterlimit="10" stroke-linejoin="round"/>
<path d="M42.4 33.8C44.5539 33.8 46.3 32.0539 46.3 29.9C46.3 27.7461 44.5539 26 42.4 26C40.2461 26 38.5 27.7461 38.5 29.9C38.5 32.0539 40.2461 33.8 42.4 33.8Z" fill="#F8D3C4" stroke="#4D4D4D" stroke-width="2" stroke-miterlimit="10" stroke-linejoin="round"/>
<path d="M4.8999 20.6V35.5C4.8999 45.7 15.5999 54.7 23.4999 54.7C32.3999 54.7 42.3999 46.5 42.3999 35.9V20.6C42.3999 14 4.8999 14 4.8999 20.6Z" fill="#F8D3C4" stroke="#4D4D4D" stroke-width="2" stroke-miterlimit="10" stroke-linejoin="round"/>
<path d="M27.3999 46.2C25.4999 48.5 21.6999 48.3 19.8999 46.1" stroke="#4D4D4D" stroke-width="2" stroke-miterlimit="10" stroke-linecap="round" stroke-linejoin="round"/>
<path d="M21.3999 31.5C22.8999 31.9 24.3999 32 25.8999 31.5" stroke="#4D4D4D" stroke-width="2" stroke-miterlimit="10" stroke-linejoin="round"/>
<path d="M38.2002 32.2L42.7002 24" stroke="#4D4D4D" stroke-width="2" stroke-miterlimit="10" stroke-linejoin="round"/>
<path d="M4.6001 24L9.10008 31.4" stroke="#4D4D4D" stroke-width="2" stroke-miterlimit="10" stroke-linejoin="round"/>
<path opacity="0.6" d="M15.6001 37.6H14.6001C11.5001 37.6 9.1001 35.1 9.1001 32.1C9.1001 29 11.6001 26.6 14.6001 26.6H15.6001C18.7001 26.6 21.1001 29.1 21.1001 32.1C21.1001 35.2 18.7001 37.6 15.6001 37.6Z" fill="#4D4D4D"/>
<path d="M15.6001 37.6H14.6001C11.5001 37.6 9.1001 35.1 9.1001 32.1C9.1001 29 11.6001 26.6 14.6001 26.6H15.6001C18.7001 26.6 21.1001 29.1 21.1001 32.1C21.1001 35.2 18.7001 37.6 15.6001 37.6Z" stroke="#4D4D4D" stroke-width="2" stroke-miterlimit="10" stroke-linecap="round" stroke-linejoin="round"/>
<path opacity="0.6" d="M32.7002 37.6H31.7002C28.6002 37.6 26.2002 35.1 26.2002 32.1C26.2002 29 28.7002 26.6 31.7002 26.6H32.7002C35.8002 26.6 38.2002 29.1 38.2002 32.1C38.2002 35.2 35.8002 37.6 32.7002 37.6Z" fill="#4D4D4D"/>
<path d="M32.7002 37.6H31.7002C28.6002 37.6 26.2002 35.1 26.2002 32.1C26.2002 29 28.7002 26.6 31.7002 26.6H32.7002C35.8002 26.6 38.2002 29.1 38.2002 32.1C38.2002 35.2 35.8002 37.6 32.7002 37.6Z" stroke="#4D4D4D" stroke-width="2" stroke-miterlimit="10" stroke-linecap="round" stroke-linejoin="round"/>
<path d="M15.1001 33.6C15.9285 33.6 16.6001 32.9284 16.6001 32.1C16.6001 31.2715 15.9285 30.6 15.1001 30.6C14.2717 30.6 13.6001 31.2715 13.6001 32.1C13.6001 32.9284 14.2717 33.6 15.1001 33.6Z" fill="#4D4D4D"/>
<path d="M32.2002 33.6C33.0286 33.6 33.7002 32.9284 33.7002 32.1C33.7002 31.2715 33.0286 30.6 32.2002 30.6C31.3718 30.6 30.7002 31.2715 30.7002 32.1C30.7002 32.9284 31.3718 33.6 32.2002 33.6Z" fill="#4D4D4D"/>
<path d="M43.1999 16.4C44.5 27.8 4.09994 27.8 4.59994 16.3C4.99994 6.29999 15.4999 1 24.0999 1C32.9999 1 42 6.09999 43.1999 16.4Z" fill="#A9BDBD" stroke="#4D4D4D" stroke-width="2" stroke-miterlimit="10" stroke-linejoin="round"/>
<path d="M4.59973 16.7V16.3C4.59973 21.5 43.1997 21.5 43.1997 16.3V16.7C43.1997 26.4 39.6997 28.3 23.6997 28.3C7.89973 28.3 4.59973 25.7 4.59973 16.7Z" fill="#717E7E" stroke="#4D4D4D" stroke-width="2" stroke-miterlimit="10" stroke-linejoin="round"/>
<path d="M36.1998 4.70001C38.2999 9.3 37.4998 16.5 37.0998 19.1" stroke="#4D4D4D" stroke-width="2" stroke-miterlimit="10" stroke-linecap="round" stroke-linejoin="round"/>
<path d="M10.2998 5.79999C9.19984 9.99998 9.49984 15.6 10.4998 19.1" stroke="#4D4D4D" stroke-width="2" stroke-miterlimit="10" stroke-linecap="round" stroke-linejoin="round"/>
<path d="M9.79993 9.5C13.3999 7.80001 34.3999 7.70001 37.2999 9.1" stroke="#4D4D4D" stroke-width="2" stroke-miterlimit="10" stroke-linejoin="round"/>
<path d="M27.9 11.4H19.9V16.9H27.9V11.4Z" fill="#C19041" stroke="#4D4D4D" stroke-width="2" stroke-miterlimit="10" stroke-linejoin="round"/>
<path d="M23.8999 8V1" stroke="#4D4D4D" stroke-width="2" stroke-miterlimit="10" stroke-linejoin="round"/>
<path d="M22.9001 37.4L22.6001 40.7C22.6001 41.4 23.2001 42 23.9001 42H25.5001" stroke="#4D4D4D" stroke-width="2" stroke-miterlimit="10" stroke-linecap="round" stroke-linejoin="round"/>
</svg>
