<svg fill="none" height="77" viewBox="0 0 45 77" width="45" xmlns="http://www.w3.org/2000/svg"><path d="m2.50003 27.4c-.5-10.7 2.8-26.4 19.49997-26.4 17 0 20.7 16.4 20.2 26.6-.7 13.1-39.39997 7.3-39.69997-.2z" fill="#e6845c" stroke="#4d4d4d" stroke-linejoin="round" stroke-miterlimit="10" stroke-width="2"/><path d="m27.4 57.2v-14.5h-10.2v14.5c0 1.1-.9 2-2 2h-1.7c0 3.4 4.7 12.8 8.8 12.8s8.8-9.4 8.8-12.8h-1.6c-1.2 0-2.1-.9-2.1-2z" fill="#fcc5af" stroke="#4d4d4d" stroke-linejoin="round" stroke-miterlimit="10" stroke-width="2"/><path d="m26.4 59.6001c-1.5 0-7.8-7.1001-7.8-7.8001.1-1.5-.1-.9-.1-.9l7.9.2s.1 8.4001 0 8.5001z" fill="#f99f7a" opacity=".5"/><g stroke-linejoin="round" stroke-miterlimit="10" stroke-width="2"><path d="m4.89998 36.2c2.1539 0 3.89998-1.7461 3.89998-3.9s-1.74608-3.9-3.89998-3.9-3.89998 1.7461-3.89998 3.9 1.74608 3.9 3.89998 3.9z" fill="#fcc5af" stroke="#4d4d4d"/><path d="m39.6999 36.2c2.1539 0 3.9-1.7461 3.9-3.9s-1.7461-3.9-3.9-3.9-3.9 1.7461-3.9 3.9 1.7461 3.9 3.9 3.9z" fill="#fcc5af" stroke="#4d4d4d"/><path d="m25.5999 8.20001c-4.1001-.6-4.6001-2.8-6.8001-2.7-7.5.1-14 4.3-14 27.39999 0 12.5 9.3 19 17 19 8.8001 0 18.0001-6.5 18.0001-20.7 0-12.6-1.9-19.6-7.2-23.19999-1.5-1.2-3 .7-7 .2z" fill="#fcc5af" stroke="#4d4d4d"/><path d="m27.4997 13.8c-2.7.4-6.1.2-8.2-.6" opacity=".0324" stroke="#bd9483" stroke-linecap="round"/><path d="m29.3003 17.4999c-4.9001.8-10.2001.4-13.6001-1.1999" opacity=".0324" stroke="#bd9483" stroke-linecap="round"/><path d="m27.8999 23.1001s2.4-1.4 4.8-.6" stroke="#4d4d4d" stroke-linecap="round"/><path d="m16.6999 23.1001s-2.4-1.4-4.8-.6" stroke="#4d4d4d" stroke-linecap="round"/><path d="m21.1001 37v1.7c0 .7.5 1.3 1.2 1.3h1.5" stroke="#4d4d4d" stroke-linecap="round"/><path d="m20.2002 46c1.5.7001 2.8.7001 4.2 0" stroke="#4d4d4d" stroke-linecap="round"/><path d="m35.6 30.3 4.4999-2.5" stroke="#4d4d4d"/><path d="m4.5 27.8 3.89996 1.7" stroke="#4d4d4d"/><path d="m14.2 35.3c-3 0-5.7-.9-5.7-5.1 0-2.1 1.2-4 5.5-4 4.9 0 6.2 1.8 6.2 4 0 2.9-3 5.1-6 5.1z" fill="#fee8df" fill-opacity=".9" stroke="#4d4d4d"/><path d="m30.4001 35.3c3 0 5.7-.9 5.7-5.1 0-2.1-1.2-4-5.5-4-4.9 0-6.2 1.8-6.2 4 0 2.9 3 5.1 6 5.1z" fill="#fee8df" fill-opacity=".9" stroke="#4d4d4d"/><path d="m19.6 29c1.9.7 3.6999.8 5.2999 0" stroke="#4d4d4d"/></g><path d="m14.7002 31.7c.8284 0 1.5-.6716 1.5-1.5 0-.8285-.6716-1.5-1.5-1.5s-1.5.6715-1.5 1.5c0 .8284.6716 1.5 1.5 1.5z" fill="#4d4d4d"/><path d="m29.8001 31.7c.8284 0 1.5-.6716 1.5-1.5 0-.8285-.6716-1.5-1.5-1.5-.8285 0-1.5001.6715-1.5001 1.5 0 .8284.6716 1.5 1.5001 1.5z" fill="#4d4d4d"/><path d="m42.6 65.9c0-4.4-3.6-8-8-8l-7.9 1.3s-4.4 3.6-4.4 15.4c0-11.7-4.7-15.4-4.7-15.4l-7.6-1.3c-4.4 0-8 3.6-8 8v1.3c5.30001 4.9 12.4 7.8 20.2 7.8 7.9 0 15-3 20.4-8z" fill="#5c5c5c"/><path d="m42.6 65.9c0-4.4-3.6-8-8-8l-7.9 1.3s-4.4 3.6-4.4 15.4c0-11.7-4.7-15.4-4.7-15.4l-7.6-1.3c-4.4 0-8 3.6-8 8v1.3c5.30001 4.9 12.4 7.8 20.2 7.8 7.9 0 15-3 20.4-8z" fill="#fff"/><path d="m42.6 65.9c0-4.4-3.6-8-8-8l-7.9 1.3s-4.4 3.6-4.4 15.4c0-11.7-4.7-15.4-4.7-15.4l-7.6-1.3c-4.4 0-8 3.6-8 8v1.3c5.30001 4.9 12.4 7.8 20.2 7.8 7.9 0 15-3 20.4-8z" stroke="#4d4d4d" stroke-linejoin="round" stroke-miterlimit="10" stroke-width="2"/><path d="m34.5997 57.9-2.6.4-3.7 16.1c3.6-.7 6.9-2.1 9.8-4 .1-.1.3-.2.4-.3.2-.1.3-.2.5-.3s.4-.3.6-.4c1.1-.8 2.1-1.6 3-2.4v-1.1c0-4.4-3.6-8-8-8z" fill="#5c5c5c" stroke="#4d4d4d" stroke-linejoin="round" stroke-miterlimit="10" stroke-width="2"/><path d="m10 57.9 2.6.4 3.7 16.1c-3.6-.7-6.89997-2.1-9.79998-4-.1-.1-.30001-.2-.40001-.3-.2-.1-.3-.2-.5-.3s-.4-.3-.6-.4c-1-.7-2.10001-1.5-3.00001-2.4v-1.1c0-4.4 3.60001-8 8-8z" fill="#5c5c5c" stroke="#4d4d4d" stroke-linejoin="round" stroke-miterlimit="10" stroke-width="2"/><path d="m19.5 75c.9.1 1.8.1 2.7.1 1 0 2-.1 3.1-.2l-1-11.3h-3.6z" fill="#99d9e1"/><path d="m19.5 75c.9.1 1.8.1 2.7.1 1 0 2-.1 3.1-.2l-1-11.3h-3.6z" stroke="#4d4d4d" stroke-linejoin="round" stroke-miterlimit="10" stroke-width="2"/><path d="m24.2001 65.5h-3.5c-.3 0-.5-.2-.6-.5l-1.4001-4.4c-.1-.3.2-.7.6-.7h6.3001c.4 0 .6.3.6.7l-1.5 4.4c0 .3-.3.5-.5.5z" fill="#99d9e1" stroke="#4d4d4d" stroke-linejoin="round" stroke-miterlimit="10" stroke-width="2"/><path d="m17.4999 52.2s-.2 4 1.3 7.1c0 0-4.5 2.7001-5.8 6.6001-3.3-4.6-1.9-12.2001 4.5-13.7001z" fill="#fff" stroke="#4d4d4d" stroke-linejoin="round" stroke-miterlimit="10" stroke-width="2"/><path d="m27.0998 52.2s.2 4-1.3 7.1c0 0 4.5 2.7001 5.8 6.6001 3.3-4.6 1.9-12.2001-4.5-13.7001z" fill="#fff" stroke="#4d4d4d" stroke-linejoin="round" stroke-miterlimit="10" stroke-width="2"/><path d="m8.3999 66.7v4.3" stroke="#4d4d4d" stroke-linecap="round" stroke-linejoin="round" stroke-miterlimit="10" stroke-width="2"/><path d="m36.2998 66.7v4.3" stroke="#4d4d4d" stroke-linecap="round" stroke-linejoin="round" stroke-miterlimit="10" stroke-width="2"/></svg>