<svg fill="none" height="77" viewBox="0 0 45 77" width="45" xmlns="http://www.w3.org/2000/svg"><path d="m2.39999 29.3c-.3-14.3 3.19999-28.09999 20.70001-28.09999 16.7 0 19.7 13.99999 19.5 28.09999-.6 13.1-40.00001 7.6-40.20001 0z" fill="#b06445" stroke="#4d4d4d" stroke-linejoin="round" stroke-miterlimit="10" stroke-width="2"/><path d="m27.4 58v-14.5h-10.2v14.5c0 1.1-.9 2-2 2h-1.7c0 3.4 4.7 6.1 8.8 6.1s8.7999-2.7 8.7999-6.1h-1.5999c-1.2 0-2.1-.9-2.1-2z" fill="#fcc5af" stroke="#4d4d4d" stroke-linejoin="round" stroke-miterlimit="10" stroke-width="2"/><path d="m27.3001 63.1c-1.7001 0-8.8001-9.7-8.7001-10.5.1-1.5-.1-.9-.1-.9l8.8001.2c.1.1.2 11.2 0 11.2z" fill="#f99f7a" opacity=".5"/><g stroke="#4d4d4d" stroke-linejoin="round" stroke-miterlimit="10" stroke-width="2"><path d="m27.4 58v-14.5h-10.2v14.5c0 1.1-.9 2-2 2h-1.7c0 3.4 4.7 6.1 8.8 6.1s8.7999-2.7 8.7999-6.1h-1.5999c-1.2 0-2.1-.9-2.1-2z"/><path d="m4.89998 37.1c2.1539 0 3.89998-1.7461 3.89998-3.9s-1.74608-3.9-3.89998-3.9-3.89998 1.7461-3.89998 3.9 1.74608 3.9 3.89998 3.9z" fill="#fcc5af"/><path d="m39.6999 37.1c2.1539 0 3.9-1.7461 3.9-3.9s-1.7461-3.9-3.9-3.9-3.9 1.7461-3.9 3.9 1.7461 3.9 3.9 3.9z" fill="#fcc5af"/><path d="m31.4002 10.7s2.3 3.6 1 6.3c-1.7-2.5-4.1-4.8-7.9-6.7-1-.49999-3.4-1.59999-5.5-1.59999-7.5 0-14.3 3.89999-14.3 24.99999 0 12.5 9.3 19 17 19 8.8 0 17.9999-6.5 17.9999-20.7.1-13.6-2.1999-18-8.2999-21.3z" fill="#fcc5af"/><path d="m20.7998 36.5v1.7c0 .7.6 1.3 1.3 1.3h1.5999" stroke-linecap="round"/><path d="m19.7002 44.8c1.8.7 3.4.7 5.1 0" stroke-linecap="round"/></g><path d="m42.5998 66.7c0-4.4-3.6-8-8-8h-5.2s-1.1 3.8-7.1 3.8c-5.7 0-7.4-3.8-7.4-3.8h-5.00001c-4.40001 0-8.00001 3.6-8.00001 8v1.3c5.3 4.9 12.40002 7.8 20.20002 7.8 7.9 0 15-3 20.4-8v-1.1z" fill="#5c5c5c"/><path d="m42.5998 66.7c0-4.4-3.6-8-8-8h-5.2s-1.1 3.8-7.1 3.8c-5.7 0-7.4-3.8-7.4-3.8h-5.00001c-4.40001 0-8.00001 3.6-8.00001 8v1.3c5.3 4.9 12.40002 7.8 20.20002 7.8 7.9 0 15-3 20.4-8v-1.1z" stroke="#4d4d4d" stroke-linejoin="round" stroke-miterlimit="10" stroke-width="2"/><path d="m8.3999 65.7v4.4" stroke="#4d4d4d" stroke-linecap="round" stroke-linejoin="round" stroke-miterlimit="10" stroke-width="2"/><path d="m36.2998 65.7v4.4" stroke="#4d4d4d" stroke-linecap="round" stroke-linejoin="round" stroke-miterlimit="10" stroke-width="2"/><path d="m16.1001 31.2c.8284 0 1.5-.6716 1.5-1.5s-.6716-1.5-1.5-1.5-1.5.6716-1.5 1.5.6716 1.5 1.5 1.5z" fill="#4d4d4d"/><path d="m28.5002 31.2c.8284 0 1.5-.6716 1.5-1.5s-.6716-1.5-1.5-1.5-1.5.6716-1.5 1.5.6716 1.5 1.5 1.5z" fill="#4d4d4d"/></svg>