<svg fill="none" height="78" viewBox="0 0 46 78" width="46" xmlns="http://www.w3.org/2000/svg"><path d="m5.28872 46.7001c-1.8-.3-3.30003-1.7-3.40003-3.6-1.199996-12.8-4.79997-42.1001 20.40001-42.1001 25 0 22.4 28.9001 21.1 41.7001-.2 2-1.7999 3.5-3.7999 3.6-9.6.5-25.4001 1.7-34.30008.4z" fill="#7e6358" stroke="#4d4d4d" stroke-linejoin="round" stroke-miterlimit="10" stroke-width="2"/><path d="m27.6886 58.5v-14.5h-10.2001v14.5c0 1.1-.9 2-2 2h-1.6999c0 3.4 4.7 12.8 8.8 12.8s8.7999-9.4 8.7999-12.8h-1.6c-1.2 0-2.0999-.9-2.0999-2z" fill="#fcc5af" stroke="#4d4d4d" stroke-linejoin="round" stroke-miterlimit="10" stroke-width="2"/><path d="m26.6886 61c-1.5 0-7.8-7.1-7.8-7.8.1-1.5-.1-.9-.1-.9l7.9.2s.1 8.4 0 8.5z" fill="#f99f7a" opacity=".5"/><g stroke-linejoin="round" stroke-miterlimit="10" stroke-width="2"><path d="m5.18858 37.6c2.15391 0 3.90001-1.7461 3.90001-3.9s-1.7461-3.9-3.90001-3.9c-2.1539 0-3.90001 1.7461-3.90001 3.9s1.74611 3.9 3.90001 3.9z" fill="#fcc5af" stroke="#4d4d4d"/><path d="m39.9886 37.6c2.1539 0 3.9-1.7461 3.9-3.9s-1.7461-3.9-3.9-3.9-3.8999 1.7461-3.8999 3.9 1.746 3.9 3.8999 3.9z" fill="#fcc5af" stroke="#4d4d4d"/><path d="m18.3888 6.09997c-7.4 1.4-13.29993 4.90003-13.29993 28.10003 0 12.5 9.30003 19 17.00003 19 8.7999 0 17.9999-6.5 17.9999-20.7 0-12.6-2.1-19.3-7.2-23.20003-4.9-3.9-12.4-3.5-14.5-3.2z" fill="#fcc5af" stroke="#4d4d4d"/><path d="m27.7888 15.1c-2.7.4001-6.0999.2-8.1999-.6" opacity=".0324" stroke="#bd9483" stroke-linecap="round"/><path d="m29.6888 18.9c-4.9.8-10.1999.4-13.5999-1.2" opacity=".0324" stroke="#bd9483" stroke-linecap="round"/><path d="m18.1887 23.8s-3.9-.8999-6.3 1" stroke="#4d4d4d" stroke-linecap="round"/><path d="m27.0887 23.8s3.9-.8999 6.3 1" stroke="#4d4d4d" stroke-linecap="round"/><path d="m21.3887 38.3v1.7c0 .6999.5 1.2999 1.2 1.2999h1.5" stroke="#4d4d4d" stroke-linecap="round"/><path d="m20.4888 47.2999c1.5.7001 2.8.7001 4.2 0" stroke="#4d4d4d" stroke-linecap="round"/><path d="m35.8887 31.6 4.5-2.5" stroke="#4d4d4d"/><path d="m4.78857 29.1 3.90006 1.7" stroke="#4d4d4d"/><path d="m14.4885 36.5999c-3 0-5.69993-.9-5.69993-5.0999 0-2.1 1.2-4 5.50003-4 4.9 0 6.1999 1.8 6.1999 4 0 2.8999-3 5.0999-6 5.0999z" fill="#fee8df" fill-opacity=".9" stroke="#4d4d4d"/><path d="m30.6886 36.5999c3 0 5.7-.9 5.7-5.0999 0-2.1-1.2-4-5.5-4-4.9 0-6.2 1.8-6.2 4 0 2.8999 3 5.0999 6 5.0999z" fill="#fee8df" fill-opacity=".9" stroke="#4d4d4d"/><path d="m19.9883 30.4c1.9.7 3.7.8 5.3 0" stroke="#4d4d4d"/></g><path d="m15.0889 33c.8284 0 1.5-.6716 1.5-1.5s-.6716-1.5-1.5-1.5c-.8285 0-1.5.6716-1.5 1.5s.6715 1.5 1.5 1.5z" fill="#4d4d4d"/><path d="m30.1888 33c.8285 0 1.5-.6716 1.5-1.5s-.6715-1.5-1.5-1.5c-.8284 0-1.5.6716-1.5 1.5s.6716 1.5 1.5 1.5z" fill="#4d4d4d"/><path d="m42.8885 67.2c0-4.4-3.6-8-8-8l-7.9 1.3s-4.3999 3.6-4.3999 15.4c0-11.7-4.7001-15.4-4.7001-15.4l-7.5999-1.3c-4.40003 0-8.00003 3.6-8.00003 8v1.3c5.3 4.9 12.39993 7.8 20.19993 7.8 7.9 0 15-3 20.4-8z" fill="#5c5c5c"/><path d="m42.8885 67.2c0-4.4-3.6-8-8-8l-7.9 1.3s-4.3999 3.6-4.3999 15.4c0-11.7-4.7001-15.4-4.7001-15.4l-7.5999-1.3c-4.40003 0-8.00003 3.6-8.00003 8v1.3c5.3 4.9 12.39993 7.8 20.19993 7.8 7.9 0 15-3 20.4-8z" fill="#fff"/><path d="m42.8885 67.2c0-4.4-3.6-8-8-8l-7.9 1.3s-4.3999 3.6-4.3999 15.4c0-11.7-4.7001-15.4-4.7001-15.4l-7.5999-1.3c-4.40003 0-8.00003 3.6-8.00003 8v1.3c5.3 4.9 12.39993 7.8 20.19993 7.8 7.9 0 15-3 20.4-8z" stroke="#4d4d4d" stroke-linejoin="round" stroke-miterlimit="10" stroke-width="2"/><path d="m34.8888 59.2-2.6.4-3.6999 16.1001c3.6-.7 6.8999-2.1 9.7999-4 .1-.1.3-.2.4-.3.2-.1.3-.2.5-.3s.4-.3.6-.4c1.1-.8 2.1-1.6 3-2.4v-1.1001c0-4.4-3.6-8-8-8z" fill="#7e6358" stroke="#4d4d4d" stroke-linejoin="round" stroke-miterlimit="10" stroke-width="2"/><path d="m10.2886 59.2 2.5999.4 3.7001 16.1001c-3.6-.7-6.90003-2.1-9.80003-4-.1-.1-.30002-.2-.40002-.3-.2-.1-.3-.2-.5-.3s-.39998-.3-.59998-.4c-1.1-.8-2.1-1.6-3-2.4v-1.1001c0-4.4 3.6-8 8.00003-8z" fill="#7e6358" stroke="#4d4d4d" stroke-linejoin="round" stroke-miterlimit="10" stroke-width="2"/><path d="m19.8887 76.3c.9.1 1.8.1 2.7.1 1 0 2-.1 3.1-.2l-1-11.3h-3.6z" fill="#cba99b"/><path d="m19.8887 76.3c.9.1 1.8.1 2.7.1 1 0 2-.1 3.1-.2l-1-11.3h-3.6z" stroke="#4d4d4d" stroke-linejoin="round" stroke-miterlimit="10" stroke-width="2"/><path d="m24.4886 66.8001h-3.5c-.3 0-.5-.2-.6-.5l-1.4-4.4001c-.1-.3.2001-.7.6001-.7h6.2999c.4 0 .6.3.6.7l-1.3999 4.4001c-.1.3-.3001.5-.6001.5z" fill="#cba99b" stroke="#4d4d4d" stroke-linejoin="round" stroke-miterlimit="10" stroke-width="2"/><path d="m17.789 53.4999s-.2 4.0001 1.3001 7.1001c0 0-4.5001 2.7-5.8001 6.6-3.2-4.5-1.8-12.1001 4.5-13.7001z" fill="#fff" stroke="#4d4d4d" stroke-linejoin="round" stroke-miterlimit="10" stroke-width="2"/><path d="m27.4889 53.4999s.2001 4.0001-1.2999 7.1001c0 0 4.4999 2.7 5.7999 6.6 3.2-4.5 1.8-12.1001-4.5-13.7001z" fill="#fff" stroke="#4d4d4d" stroke-linejoin="round" stroke-miterlimit="10" stroke-width="2"/><path d="m8.68848 68v4.4" stroke="#4d4d4d" stroke-linecap="round" stroke-linejoin="round" stroke-miterlimit="10" stroke-width="2"/><path d="m36.5884 68v4.4" stroke="#4d4d4d" stroke-linecap="round" stroke-linejoin="round" stroke-miterlimit="10" stroke-width="2"/></svg>