<svg fill="none" height="77" viewBox="0 0 60 77" width="60" xmlns="http://www.w3.org/2000/svg"><path d="m10.2242 30.7979c0-2.1-3.10002-3.1-9.10002 2.5-1.400005-12.7 9.50002-17.5 9.50002-17.5s-1.70002-3.7-9.00002-.2c8.50002-15.900015 26.50002-18.40002 32.00002-9.5 18.7-11.60002 27.8 18.4 24.6 18.1 0 0-5.9-6.1-7.5-4.5-1.4 1.5 6.4 21.9001-1.6 31.8001-6.3-9.2-13.4-13.1001-22.7-10.2-6.1 1.9-18.80002 13.5-18.80002 13.5-3.1-15.4001 2.50002-19.2001 2.60002-24.0001z" fill="#fd8f63" stroke="#4d4d4d" stroke-linejoin="round" stroke-miterlimit="10" stroke-width="2"/><path d="m34.3242 58.0979v-14.4999h-10.3v14.4999c0 1.1-.9 2-2 2h-1.7c0 3.4 4.7 6.1 8.8 6.1s8.8-2.7 8.8-6.1h-1.6c-1.1 0-2-.9-2-2z" fill="#fcc5af" stroke="#4d4d4d" stroke-linejoin="round" stroke-miterlimit="10" stroke-width="2"/><path d="m34.2244 63.1979c-1.7 0-8.8-9.7-8.7-10.5.1-1.5-.1-.9-.1-.9l8.8.2c0 .1.2 11.2 0 11.2z" fill="#f99f7a" opacity=".5"/><g stroke="#4d4d4d" stroke-linejoin="round" stroke-miterlimit="10" stroke-width="2"><path d="m34.3242 58.0979v-14.4999h-10.3v14.4999c0 1.1-.9 2-2 2h-1.7c0 3.4 4.7 6.1 8.8 6.1s8.8-2.7 8.8-6.1h-1.6c-1.1 0-2-.9-2-2z"/><path d="m11.8243 37.1979c2.1539 0 3.9-1.7461 3.9-3.9s-1.7461-3.9-3.9-3.9c-2.15389 0-3.89998 1.7461-3.89998 3.9s1.74609 3.9 3.89998 3.9z" fill="#fcc5af"/><path d="m46.6243 37.1979c2.1539 0 3.9-1.7461 3.9-3.9s-1.7461-3.9-3.9-3.9c-2.154 0-3.9001 1.7461-3.9001 3.9s1.7461 3.9 3.9001 3.9z" fill="#fcc5af"/><path d="m40.3241 13.498s1 6.6-2.1 9.9c-2.7-10.1-9.8-13.60002-16-11.5-7 2.3-10.5 8.5-10.5 21.9999 0 12.5 9.3 19 17 19 8.8 0 18-6.5 18-20.7 0-13.7999-2.8-16.2999-6.4-18.6999z" fill="#fcc5af"/></g><path d="m40.0241 36.698c1.215 0 2.2-.985 2.2-2.2s-.985-2.2-2.2-2.2-2.2.985-2.2 2.2.985 2.2 2.2 2.2z" fill="#f7b69d"/><path d="m18.324 36.698c1.215 0 2.2-.985 2.2-2.2s-.985-2.2-2.2-2.2-2.2.985-2.2 2.2.985 2.2 2.2 2.2z" fill="#f7b69d"/><path d="m27.7241 36.5979v1.7c0 .7001.6 1.3001 1.3 1.3001h1.6" stroke="#4d4d4d" stroke-linecap="round" stroke-linejoin="round" stroke-miterlimit="10" stroke-width="2"/><path d="m26.624 44.898c1.8.7 3.4.7 5.1 0" stroke="#4d4d4d" stroke-linecap="round" stroke-linejoin="round" stroke-miterlimit="10" stroke-width="2"/><path d="m49.5242 66.798c0-4.4-3.6-8-8-8h-5.2s-1.1 7-7.1 7c-5.7 0-7.4-7-7.4-7h-5c-4.4 0-7.99998 3.6-7.99998 8v1.3c5.39998 4.8999 12.49998 7.8999 20.29998 7.8999 7.9 0 15-3 20.4-7.9999z" fill="#fd8f63"/><path d="m34.4243 63.198h14.2c-.5-1-1.2-1.8-2-2.5001h-10.8c-.3.8001-.8 1.7001-1.4 2.5001z" fill="#e0e5e4"/><path d="m24.0243 63.198c-.7-.8-1.2-1.7-1.5-2.5001h-10.8c-.8001.7001-1.5001 1.6001-2.00006 2.5001z" fill="#e0e5e4"/><path d="m29.2242 65.898c-.4 0-.8 0-1.2-.1h-19.09998c0 .4-.1.7-.1 1.0999v1.3l.1.1h40.10008c.0999-.1.1999-.2.2999-.3v-1.1c0-.3999 0-.6999-.0999-1.0999h-18.7001c-.4 0-.9.1-1.3.1z" fill="#e0e5e4"/><path d="m16.7241 73.298h24.7c1.6-.7 3.1-1.6001 4.5-2.5001h-33.7c1.4.9 2.9 1.8001 4.5 2.5001z" fill="#e0e5e4"/><path d="m29.1243 76.9979c-7.7 0-15.1-2.9-20.89998-8.1-.2-.2-.3-.5-.3-.7v-1.3c0-5 3.99998-9 8.99998-9h5c.5 0 .9.3 1 .8 0 .1 1.6 6.3 6.4 6.3 5.1 0 6-5.9 6.1-6.2.1-.5.5-.8 1-.8h5.2c5 0 9 4 9 9v1c0 .3-.1.5-.3.7-5.9 5.3-13.4 8.3-21.2 8.3zm-19.19998-9.3c5.29998 4.7 12.09998 7.3 19.19998 7.3 7.2 0 14.1-2.6 19.4-7.4v-.7c0-3.9-3.1-7-7-7h-4.4c-.7 2.8-3 7-7.9 7-5.3 0-7.5-5.1-8.1-7h-4.2c-3.9 0-6.99998 3.1-6.99998 7z" fill="#4d4d4d"/><path d="m15.2241 67.7979v4.4" stroke="#4d4d4d" stroke-linecap="round" stroke-linejoin="round" stroke-miterlimit="10" stroke-width="2"/><path d="m43.2241 67.7979v4.4" stroke="#4d4d4d" stroke-linecap="round" stroke-linejoin="round" stroke-miterlimit="10" stroke-width="2"/><path d="m22.9243 31.298c.8284 0 1.5-.6716 1.5-1.5 0-.8285-.6716-1.5-1.5-1.5s-1.5.6715-1.5 1.5c0 .8284.6716 1.5 1.5 1.5z" fill="#4d4d4d"/><path d="m35.4243 31.298c.8284 0 1.5-.6716 1.5-1.5 0-.8285-.6716-1.5-1.5-1.5s-1.5.6715-1.5 1.5c0 .8284.6716 1.5 1.5 1.5z" fill="#4d4d4d"/></svg>