<svg fill="none" height="85" viewBox="0 0 44 85" width="44" xmlns="http://www.w3.org/2000/svg"><path d="m33.3999 9.90003c0 4.19997-6.5 3.49997-11.3 3.49997s-11.3.6-11.3-3.49997c0-5.80002 3-8.90003 11.3-8.90003 8.5 0 11.3 3.30001 11.3 8.90003z" fill="#efab33" stroke="#4d4d4d" stroke-linejoin="round" stroke-miterlimit="10" stroke-width="2"/><path d="m32.9999 11.3c-3.3-2.29999-7.3-3.59999-11.7-3.59999-3.8 0-7.4 1.1-10.4 3.09999.9 3.1 6.8 2.6 11.2 2.6 4.1 0 9.5.5 10.9-2.1z" fill="#ac4949" stroke="#4d4d4d" stroke-linejoin="round" stroke-miterlimit="10" stroke-width="2"/><path d="m40.4 35.6999c-2 8.4-35.70001 8.4-37.50001 0-2.999998-13.8999 6.40003-24.5999 18.40001-24.5999 12.9 0 22.4 10.9 19.1 24.5999z" fill="#efab33" stroke="#4d4d4d" stroke-linejoin="round" stroke-miterlimit="10" stroke-width="2"/><path d="m4.89995 41.8c2.1539 0 3.90001-1.7461 3.90001-3.9s-1.74611-3.9-3.90001-3.9-3.89995 1.7461-3.89995 3.9 1.74605 3.9 3.89995 3.9z" fill="#f8d3c4" stroke="#4d4d4d" stroke-linejoin="round" stroke-miterlimit="10" stroke-width="2"/><path d="m38.3999 41.8c2.154 0 3.9001-1.7461 3.9001-3.9s-1.7461-3.9-3.9001-3.9c-2.1539 0-3.8999 1.7461-3.8999 3.9s1.746 3.9 3.8999 3.9z" fill="#f8d3c4" stroke="#4d4d4d" stroke-linejoin="round" stroke-miterlimit="10" stroke-width="2"/><path d="m42 74c0-4.4-3.6-8-8-8h-24.60009c-4.40001 0-8.00001 3.6-8.00001 8v1.3c5.30001 4.9 12.4 7.9 20.2 7.9 7.9 0 15-3 20.3-8v-1.2z" fill="#ac4949" stroke="#4d4d4d" stroke-linejoin="round" stroke-miterlimit="10" stroke-width="2"/><path d="m25.5003 64v-14.5h-7.6001v14.5c0 1.1-.9 2-2 2h-1.7c0 3.4 3.3 6.1 7.4 6.1s7.4001-2.7 7.4001-6.1h-1.6001c-1 0-1.8999-.9-1.8999-2z" fill="#f8d3c4" stroke="#4d4d4d" stroke-linejoin="round" stroke-miterlimit="10" stroke-width="2"/><path d="m25.5999 64.5c-5.3 0-7.7-5-7.7-5h7.5z" fill="#b0968b" opacity=".5"/><path d="m25.5003 64v-14.5h-7.6001v14.5c0 1.1-.9 2-2 2h-1.7c0 3.4 3.3 6.1 7.4 6.1s7.4001-2.7 7.4001-6.1h-1.6001c-1 0-1.8999-.9-1.8999-2z" stroke="#4d4d4d" stroke-linejoin="round" stroke-miterlimit="10" stroke-width="2"/><path d="m8.1999 26.5c-3.89999 3.9-3.29998 14.9-3.29998 14.9 0 9.6 7.19998 17.7 16.29998 17.9 9.4.3 17.2-7.7 17.2-17.5 0 0 .6-11.3-2.7-14.6-4.5-4.5-8-2.7-13.7-2.7-6 0-9.8-2-13.8 2z" fill="#f8d3c4" stroke="#4d4d4d" stroke-linejoin="round" stroke-miterlimit="10" stroke-width="2"/><path d="m32.3999 45c1.4359 0 2.6-1.1641 2.6-2.6s-1.1641-2.6-2.6-2.6-2.6 1.1641-2.6 2.6 1.1641 2.6 2.6 2.6z" fill="#f7b69d"/><path d="m10.9999 45c1.436 0 2.6-1.1641 2.6-2.6s-1.164-2.6-2.6-2.6c-1.4359 0-2.6 1.1641-2.6 2.6s1.1641 2.6 2.6 2.6z" fill="#f7b69d"/><path d="m15.3999 39.6c.8284 0 1.5-.6716 1.5-1.5 0-.8285-.6716-1.5-1.5-1.5s-1.5.6715-1.5 1.5c0 .8284.6716 1.5 1.5 1.5z" fill="#4d4d4d"/><path d="m27.8999 39.6c.8284 0 1.5-.6716 1.5-1.5 0-.8285-.6716-1.5-1.5-1.5s-1.5.6715-1.5 1.5c0 .8284.6716 1.5 1.5 1.5z" fill="#4d4d4d"/><g stroke="#4d4d4d" stroke-linejoin="round" stroke-miterlimit="10" stroke-width="2"><path d="m7.7998 77v2.6" stroke-linecap="round"/><path d="m35.6997 77v2.6" stroke-linecap="round"/><path d="m19.6001 51.4c1.4.7 2.7.7 4.0999 0" stroke-linecap="round"/><path d="m12.1999 70.6c1.2703 0 2.3001-1.0298 2.3001-2.3 0-1.2703-1.0298-2.3-2.3001-2.3s-2.3 1.0297-2.3 2.3c0 1.2702 1.0297 2.3 2.3 2.3z" fill="#aecbd7"/><path d="m31.0998 70.6c1.2702 0 2.3-1.0298 2.3-2.3 0-1.2703-1.0298-2.3-2.3-2.3-1.2703 0-2.3 1.0297-2.3 2.3 0 1.2702 1.0297 2.3 2.3 2.3z" fill="#aecbd7"/><path d="m3.00014 44.3c1.04935 0 1.89998-.8507 1.89998-1.9s-.85063-1.9-1.89998-1.9-1.90004.8507-1.90004 1.9.85069 1.9 1.90004 1.9z" fill="#aecbd7"/><path d="m40.3 44.3c1.0494 0 1.9-.8507 1.9-1.9s-.8506-1.9-1.9-1.9c-1.0493 0-1.9.8507-1.9 1.9s.8507 1.9 1.9 1.9z" fill="#aecbd7"/><path d="m15.0002 74.5001c1.2703 0 2.3-1.0298 2.3-2.3001 0-1.2702-1.0297-2.3-2.3-2.3-1.2702 0-2.3 1.0298-2.3 2.3 0 1.2703 1.0298 2.3001 2.3 2.3001z" fill="#aecbd7"/><path d="m28.3 74.5001c1.2702 0 2.3-1.0298 2.3-2.3001 0-1.2702-1.0298-2.3-2.3-2.3-1.2703 0-2.3 1.0298-2.3 2.3 0 1.2703 1.0297 2.3001 2.3 2.3001z" fill="#aecbd7"/><path d="m24.0998 76.5001c1.2702 0 2.2999-1.0298 2.2999-2.3001 0-1.2702-1.0297-2.3-2.2999-2.3-1.2703 0-2.3 1.0298-2.3 2.3 0 1.2703 1.0297 2.3001 2.3 2.3001z" fill="#aecbd7"/><path d="m19.1999 76.5001c1.2702 0 2.3-1.0298 2.3-2.3001 0-1.2702-1.0298-2.3-2.3-2.3-1.2703 0-2.3 1.0298-2.3 2.3 0 1.2703 1.0297 2.3001 2.3 2.3001z" fill="#aecbd7"/><path d="m20.2002 42.5v1.7c0 .7.6001 1.3 1.3001 1.3h1.6" stroke-linecap="round"/></g></svg>