<svg width="52" height="78" viewBox="0 0 52 78" fill="none" xmlns="http://www.w3.org/2000/svg">
<path d="M29.5002 60.9V46.4H21.9002V60.9C21.9002 62 21.0002 62.9 19.9002 62.9H18.2002C18.2002 66.3 21.5002 69 25.6002 69C29.7002 69 33.0002 66.3 33.0002 62.9H31.4002C30.4002 62.9 29.5002 62 29.5002 60.9Z" fill="#F8D3C4" stroke="#4D4D4D" stroke-width="2" stroke-miterlimit="10" stroke-linejoin="round"/>
<path opacity="0.5" d="M29.4999 58C27.7999 58 21.9999 55 21.9999 54.2C22.0999 52.7 21.8999 53.3 21.8999 53.3L29.4999 53.5C29.4999 53.5 29.6999 57.9 29.4999 58Z" fill="#BA9E93"/>
<path d="M29.5002 60.9V46.4H21.9002V60.9C21.9002 62 21.0002 62.9 19.9002 62.9H18.2002C18.2002 66.3 21.5002 69 25.6002 69C29.7002 69 33.0002 66.3 33.0002 62.9H31.4002C30.4002 62.9 29.5002 62 29.5002 60.9Z" stroke="#4D4D4D" stroke-width="2" stroke-miterlimit="10" stroke-linejoin="round"/>
<path d="M47.8 51.7C49.2 45.2 59.5 2.30003 25.1 2.00003C-4.09999 1.70003 0.600009 39 2.50001 50C2.80001 51.7 4.40001 52.8 6.10001 52.5C10.2 51.7 17.5 49.3 25.3 49.9C34.9 50.6 41.6 52.9 44.9 53.6C46.3 53.9 47.6 53 47.8 51.7Z" fill="#666666" stroke="#4D4D4D" stroke-width="2" stroke-miterlimit="10" stroke-linejoin="round"/>
<path d="M7.0001 38C9.15401 38 10.9001 36.2539 10.9001 34.1C10.9001 31.9461 9.15401 30.2 7.0001 30.2C4.84619 30.2 3.1001 31.9461 3.1001 34.1C3.1001 36.2539 4.84619 38 7.0001 38Z" fill="#F8D3C4" stroke="#4D4D4D" stroke-width="2" stroke-miterlimit="10" stroke-linejoin="round"/>
<path d="M44.4 38C46.5539 38 48.3 36.2539 48.3 34.1C48.3 31.9461 46.5539 30.2 44.4 30.2C42.2461 30.2 40.5 31.9461 40.5 34.1C40.5 36.2539 42.2461 38 44.4 38Z" fill="#F8D3C4" stroke="#4D4D4D" stroke-width="2" stroke-miterlimit="10" stroke-linejoin="round"/>
<path d="M7 34.3C7.1 43.6 15 53.1999 25.2 53.3999C35.8 53.6999 44.4 45.2 44.4 34.7L44.2 29.1C27.8 29.7 21.4 17.3 21.4 17.3C18.6 23.3 11.4 24.9 7.7 26.5C7.3 28.5 7 31.3 7 34.3Z" fill="#F8D3C4" stroke="#4D4D4D" stroke-width="2" stroke-miterlimit="10" stroke-linejoin="round"/>
<path d="M16.7998 33.8C17.6282 33.8 18.2998 33.1284 18.2998 32.3C18.2998 31.4716 17.6282 30.8 16.7998 30.8C15.9714 30.8 15.2998 31.4716 15.2998 32.3C15.2998 33.1284 15.9714 33.8 16.7998 33.8Z" fill="#4D4D4D"/>
<path d="M34.5997 33.8C35.4282 33.8 36.0997 33.1284 36.0997 32.3C36.0997 31.4716 35.4282 30.8 34.5997 30.8C33.7713 30.8 33.0997 31.4716 33.0997 32.3C33.0997 33.1284 33.7713 33.8 34.5997 33.8Z" fill="#4D4D4D"/>
<path d="M24.2002 34.7V36.4C24.2002 37.1 24.8002 37.7 25.5002 37.7H27.1002" stroke="#4D4D4D" stroke-width="2" stroke-miterlimit="10" stroke-linecap="round" stroke-linejoin="round"/>
<path d="M5.1002 40.9C6.42568 40.9 7.5002 39.8255 7.5002 38.5C7.5002 37.1745 6.42568 36.1 5.1002 36.1C3.77471 36.1 2.7002 37.1745 2.7002 38.5C2.7002 39.8255 3.77471 40.9 5.1002 40.9Z" fill="#22D160" stroke="#4D4D4D" stroke-width="2" stroke-miterlimit="10"/>
<path d="M46.5001 40.9C47.8256 40.9 48.9001 39.8255 48.9001 38.5C48.9001 37.1745 47.8256 36.1 46.5001 36.1C45.1746 36.1 44.1001 37.1745 44.1001 38.5C44.1001 39.8255 45.1746 40.9 46.5001 40.9Z" fill="#22D160" stroke="#4D4D4D" stroke-width="2" stroke-miterlimit="10"/>
<path d="M38.3998 40.3C39.8358 40.3 40.9998 39.136 40.9998 37.7C40.9998 36.2641 39.8358 35.1 38.3998 35.1C36.9639 35.1 35.7998 36.2641 35.7998 37.7C35.7998 39.136 36.9639 40.3 38.3998 40.3Z" fill="#FCADAD"/>
<path d="M12.9999 40.3C14.4358 40.3 15.5999 39.136 15.5999 37.7C15.5999 36.2641 14.4358 35.1 12.9999 35.1C11.564 35.1 10.3999 36.2641 10.3999 37.7C10.3999 39.136 11.564 40.3 12.9999 40.3Z" fill="#FCADAD"/>
<path d="M18.5 13C18.5 13 18.8 21.3 28 26.2C36.2 30.6 46.3 28.7 46.3 28.7" fill="#666666"/>
<path d="M18.5 13C18.5 13 18.8 21.3 28 26.2C36.2 30.6 46.3 28.7 46.3 28.7" stroke="#4D4D4D" stroke-width="2" stroke-miterlimit="10" stroke-linecap="round" stroke-linejoin="round"/>
<path d="M23.8999 45C25.0999 45.4 26.3999 45.4 27.5999 45" stroke="#4D4D4D" stroke-width="2" stroke-miterlimit="10" stroke-linecap="round" stroke-linejoin="round"/>
<path d="M45.9998 67.6C45.9998 63.2 42.3998 59.6 37.9998 59.6H30.7998L25.5998 64.3L20.2998 59.6H13.2998C8.89981 59.6 5.2998 63.2 5.2998 67.6V68.9C10.5998 73.8 17.6998 76.7 25.4998 76.7C33.3998 76.7 40.4998 73.7 45.8998 68.7V67.6H45.9998Z" fill="#FD9697"/>
<path d="M45.9998 67.6C45.9998 63.2 42.3998 59.6 37.9998 59.6H30.7998L25.5998 64.3L20.2998 59.6H13.2998C8.89981 59.6 5.2998 63.2 5.2998 67.6V68.9C10.5998 73.8 17.6998 76.7 25.4998 76.7C33.3998 76.7 40.4998 73.7 45.8998 68.7V67.6H45.9998Z" stroke="#4D4D4D" stroke-width="2" stroke-miterlimit="10" stroke-linejoin="round"/>
<path d="M11.7998 70.6V73" stroke="#4D4D4D" stroke-width="2" stroke-miterlimit="10" stroke-linecap="round" stroke-linejoin="round"/>
<path d="M39.6997 70.6V73" stroke="#4D4D4D" stroke-width="2" stroke-miterlimit="10" stroke-linecap="round" stroke-linejoin="round"/>
</svg>
