<svg fill="none" height="88" viewBox="0 0 64 88" width="64" xmlns="http://www.w3.org/2000/svg"><path d="m54.3866 17.0255c1.8-8.10003-9.2-16.500046-17.9999-10.60004-2.5-7.50001-17-7.400009-19.1 1.40001-7.70001-2.10001-15.59998 6.50003-12.59999 16.50003-5.299994 5.6-5.099993 12.6 2 18.5-1.4 6.4 6.69999 16.7 14.09999 16.2 6.4-.4 18.7-.6 24-.9 9.8-.5 16.6-11.8 12.8-18.1 7.9-3.5 7.3999-20.6-3.2001-23z" fill="#5c5c5c" stroke="#4d4d4d" stroke-linejoin="round" stroke-miterlimit="10" stroke-width="1.993"/><path d="m35.7869 68.5255v-14.5h-7.5v14.4c0 1.1-.9 2-2 2h-1.7c0 3.4 3.3 9.6 7.4 9.6s7.3999-6.2 7.3999-9.6h-1.5999c-1.1.1-2-.8-2-1.9z" fill="#8e6c57" stroke="#4d4d4d" stroke-linejoin="round" stroke-miterlimit="10" stroke-width="1.993"/><path d="m35.6869 68.3256c-1.7 0-7.5-3.1001-7.5-3.8001.1-1.5-.1-.9-.1-.9l7.6.2c.1 0 .2 4.4001 0 4.5001z" fill="#6b5141" opacity=".5"/><path d="m13.2867 48.3254c2.154 0 3.9001-1.7461 3.9001-3.9s-1.7461-3.8999-3.9001-3.8999c-2.1539 0-3.89998 1.746-3.89998 3.8999s1.74608 3.9 3.89998 3.9z" fill="#8e6c57" stroke="#4d4d4d" stroke-linejoin="round" stroke-miterlimit="10" stroke-width="1.993"/><path d="m50.5865 48.3254c2.154 0 3.9001-1.7461 3.9001-3.9s-1.7461-3.8999-3.9001-3.8999c-2.1539 0-3.9 1.746-3.9 3.8999s1.7461 3.9 3.9 3.9z" fill="#8e6c57" stroke="#4d4d4d" stroke-linejoin="round" stroke-miterlimit="10" stroke-width="1.993"/><path d="m13.2866 44.7254c.1 9.2 8.0001 18.8 18.2001 19.1 10.5.3 19.2-8.2 19.2-18.7l-.1999-11.6c-4.3001 1.7-9.3002-1.2-11.1002-4.8-5.7 4.5-12.0999 2.7-15.3999-.9-2.2 5.8-5.9 8.9-9.9 9.1-.5 2-.8001 4.7-.8001 7.8z" fill="#8e6c57" stroke="#4d4d4d" stroke-linejoin="round" stroke-miterlimit="10" stroke-width="1.993"/><path d="m23.0869 44.2254c.8284 0 1.5-.6715 1.5-1.4999s-.6716-1.5-1.5-1.5-1.5.6716-1.5 1.5.6716 1.4999 1.5 1.4999z" fill="#4d4d4d"/><path d="m40.7869 44.2254c.8284 0 1.5-.6715 1.5-1.4999s-.6716-1.5-1.5-1.5-1.5.6716-1.5 1.5.6716 1.4999 1.5 1.4999z" fill="#4d4d4d"/><g stroke="#4d4d4d" stroke-linejoin="round" stroke-miterlimit="10" stroke-width="1.993"><path d="m30.4868 45.0255v1.6c0 .7.5999 1.3 1.2999 1.3h1.6" stroke-linecap="round"/><path d="m30.1865 55.3254c1.2.4001 2.4.4001 3.6 0" stroke-linecap="round"/><path d="m52.1866 77.8254c0-4.3999-3.6-7.9999-8-7.9999h-5.1999s-1.9001 9.2999-7.2001 9.2999c-5.3001 0-7.2-9.2999-7.2-9.2999h-4.9001c-4.4 0-8 3.6-8 7.9999v1.3c5.3 4.8 12.4 7.8 20.1001 7.8 7.8 0 15.0001-3 20.3001-8v-1.1z" fill="#b344e3"/><path d="m18.0869 80.8254v2.4001" stroke-linecap="round"/><path d="m45.9868 80.8254v2.4001" stroke-linecap="round"/></g></svg>