<svg fill="none" height="78" viewBox="0 0 47 78" width="47" xmlns="http://www.w3.org/2000/svg"><path d="m2.07829 43c-1.799998-9.1-4.5-42 21.30001-42 24.4 0 22.7 30.8 21.6 42-1 9.3-41.00001 10-42.90001 0z" fill="#5c5c5c" stroke="#4d4d4d" stroke-linejoin="round" stroke-miterlimit="10" stroke-width="2"/><path d="m26.9782 58v-14.5h-7.6v14.5c0 1.1-.9 2-2 2h-1.7c0 3.4 3.3 9.4 7.4 9.4s7.4-6.1 7.4-9.4h-1.5c-1.1-.1-2-.9-2-2z" fill="#b88f77" stroke="#4d4d4d" stroke-linejoin="round" stroke-miterlimit="10" stroke-width="2"/><path d="m19.4784 53.2c.1-1.5-.1-1.6-.1-1.6l7.6001.2s-.3 1.7.3 3.9c.4 1.1-7.9001-1.7-7.8001-2.5z" fill="#90674e"/><g stroke="#4d4d4d" stroke-linejoin="round" stroke-miterlimit="10" stroke-width="2"><path d="m26.9782 58v-14.5h-7.6v14.5c0 1.1-.9 2-2 2h-1.7c0 3.4 3.3 9.4 7.4 9.4s7.4-6.1 7.4-9.4h-1.5c-1.1-.1-2-.9-2-2z"/><path d="m7.07822 37.7c2.1539 0 3.89998-1.7461 3.89998-3.9s-1.74608-3.9-3.89998-3.9c-2.15391 0-3.9 1.7461-3.9 3.9s1.74609 3.9 3.9 3.9z" fill="#b88f77"/><path d="m39.2784 37.7c2.154 0 3.9001-1.7461 3.9001-3.9s-1.7461-3.9-3.9001-3.9c-2.1539 0-3.9 1.7461-3.9 3.9s1.7461 3.9 3.9 3.9z" fill="#b88f77"/><path d="m6.87842 33.4c.1 9.3 6.99998 18.9 15.89998 19.1 9.2.3 16.7-8.2 16.7-18.7 0 0-.5-8.8-1.1-10.5-2.5 1-3.8 1.5-5.5 1.6l-.3-2.6c-3 .5-7.8.7-10.4 0l-.2 2.4c-3.3-.2-11.5-.7-13.69998-1.2-.5 1.5-1.4 6.8-1.4 9.9z" fill="#b88f77"/></g><path d="m16.2783 34.1c.8284 0 1.5-.6716 1.5-1.5 0-.8285-.6716-1.5-1.5-1.5s-1.5.6715-1.5 1.5c0 .8284.6716 1.5 1.5 1.5z" fill="#4d4d4d"/><path d="m30.0783 34.1c.8284 0 1.5-.6716 1.5-1.5 0-.8285-.6716-1.5-1.5-1.5-.8285 0-1.5001.6715-1.5001 1.5 0 .8284.6716 1.5 1.5001 1.5z" fill="#4d4d4d"/><path d="m24.9783 45.2c-.8 1.3-2.9 1.1-3.7 0" stroke="#4d4d4d" stroke-linecap="round" stroke-linejoin="round" stroke-miterlimit="10" stroke-width="2"/><path d="m43.4784 67.3c0-4.4-3.6-8-8-8h-7.9v-3.3c0 .8-9.1.8-9.1 0v3.3h-7.6c-4.39998 0-7.99998 3.6-7.99998 8v1.3c5.3 4.9 12.39998 7.8 20.19998 7.8 7.9 0 15-3 20.4-8z" fill="#82d5bf" stroke="#4d4d4d" stroke-linejoin="round" stroke-miterlimit="10" stroke-width="2"/><path d="m9.27832 68.3v4.4" stroke="#4d4d4d" stroke-linecap="round" stroke-linejoin="round" stroke-miterlimit="10" stroke-width="2"/><path d="m37.1782 68.3v4.4" stroke="#4d4d4d" stroke-linecap="round" stroke-linejoin="round" stroke-miterlimit="10" stroke-width="2"/><path d="m10.3781 16.3c-.99998 2.2-1.69998 4.6-2.29998 7.6z" fill="#fcc5af"/><path d="m10.3781 16.3c-.99998 2.2-1.69998 4.6-2.29998 7.6" stroke="#4d4d4d" stroke-linecap="round" stroke-linejoin="round" stroke-miterlimit="10" stroke-width="2"/><path d="m14.1785 19.1c-.3 1.4-.6 3-.7 4.7z" fill="#fcc5af"/><path d="m14.1785 19.1c-.3 1.4-.6 3-.7 4.7" stroke="#4d4d4d" stroke-linecap="round" stroke-linejoin="round" stroke-miterlimit="10" stroke-width="1.8189"/><path d="m22.5781 18.1c-.4 1.8-.5 4.3-.5 6.4z" fill="#fcc5af"/><path d="m22.5781 18.1c-.4 1.8-.5 4.3-.5 6.4" stroke="#4d4d4d" stroke-linecap="round" stroke-linejoin="round" stroke-miterlimit="10" stroke-width="1.8189"/><path d="m31.6782 17.9c.6 2.2.9 3.8 1 6.2z" fill="#fcc5af"/><path d="m31.6782 17.9c.6 2.2.9 3.8 1 6.2" stroke="#4d4d4d" stroke-linecap="round" stroke-linejoin="round" stroke-miterlimit="10" stroke-width="1.8189"/><path d="m35.9785 15.3c.8 1.5 2.3 6.1 2.5 8.8z" fill="#fcc5af"/><path d="m35.9785 15.3c.8 1.5 2.3 6.1 2.5 8.8" stroke="#4d4d4d" stroke-linecap="round" stroke-linejoin="round" stroke-miterlimit="10" stroke-width="2"/><path d="m21.6782 35.9v1.7c0 .7.6 1.3 1.3 1.3h1" stroke="#4d4d4d" stroke-linecap="round" stroke-linejoin="round" stroke-miterlimit="10" stroke-width="2"/><path d="m5.17831 39.6c1.04934 0 1.9-.8507 1.9-1.9 0-1.0494-.85066-1.9-1.9-1.9-1.04933 0-1.89999.8506-1.89999 1.9 0 1.0493.85066 1.9 1.89999 1.9z" fill="#82d5bf" stroke="#4d4d4d" stroke-linejoin="round" stroke-miterlimit="10" stroke-width="2"/><path d="m41.1783 39.6c1.0494 0 1.9-.8507 1.9-1.9 0-1.0494-.8506-1.9-1.9-1.9-1.0493 0-1.9.8506-1.9 1.9 0 1.0493.8507 1.9 1.9 1.9z" fill="#82d5bf" stroke="#4d4d4d" stroke-linejoin="round" stroke-miterlimit="10" stroke-width="2"/></svg>