<svg fill="none" height="78" viewBox="0 0 50 78" width="50" xmlns="http://www.w3.org/2000/svg"><path d="m2.39394 51.8c-1.800004-9.1-6.39999-50.10002 22.70006-50.10002 24.4 0 24 32.10002 22.9 43.30002-.9 9.3-3.9 20.9-5.4 20.6-3.8-.8-10.5001-3.2-17.7001-2.6-8.8.7-14.89996 3-17.99996 3.7-1.2.3-2.5-4.9-4.5-14.9z" fill="#fd8f63" stroke="#4d4d4d" stroke-linejoin="round" stroke-miterlimit="10" stroke-width="2"/><path d="m28.6941 60.7v-14.5h-7.6v14.5c0 1.1-.9 2-2 2h-1.7001c0 3.4 3.3 6.1 7.4 6.1s7.4001-2.7 7.4001-6.1h-1.6c-1 0-1.9-.9-1.9-2z" fill="#fcc5af" stroke="#4d4d4d" stroke-linejoin="round" stroke-miterlimit="10" stroke-width="2"/><path d="m28.6937 59.1c-1.7 0-7.4999-3.1-7.4999-3.8.1-1.5-.1-.9-.1-.9l7.5999.2s.2 4.4 0 4.5z" fill="#f99f7a" opacity=".5"/><g stroke="#4d4d4d" stroke-linejoin="round" stroke-miterlimit="10" stroke-width="2"><path d="m28.6941 60.7v-14.5h-7.6v14.5c0 1.1-.9 2-2 2h-1.7001c0 3.4 3.3 6.1 7.4 6.1s7.4001-2.7 7.4001-6.1h-1.6c-1 0-1.9-.9-1.9-2z"/><path d="m8.79402 37.7c2.15388 0 3.89998-1.7461 3.89998-3.9s-1.7461-3.9-3.89998-3.9c-2.1539 0-3.89998 1.7461-3.89998 3.9s1.74608 3.9 3.89998 3.9z" fill="#fcc5af"/><path d="m40.9938 37.7c2.1539 0 3.9-1.7461 3.9-3.9s-1.7461-3.9-3.9-3.9c-2.154 0-3.9 1.7461-3.9 3.9s1.746 3.9 3.9 3.9z" fill="#fcc5af"/><path d="m8.59375 36.1c.1 9.3 6.99995 18.9 15.89995 19.1 9.2.3 16.7-8.2 16.7-18.7l-.8-6.6c-5.8-.7-11.6-9.9-11.5-12.5 0 0-16.4 9.3-19.59997 10.8-.4 2.1-.69998 4.8-.69998 7.9z" fill="#fcc5af"/></g><path d="m17.9941 35.6c.8285 0 1.5-.6715 1.5-1.5 0-.8284-.6715-1.5-1.5-1.5-.8284 0-1.5.6716-1.5 1.5 0 .8285.6716 1.5 1.5 1.5z" fill="#4d4d4d"/><path d="m31.7941 35.6c.8284 0 1.5-.6715 1.5-1.5 0-.8284-.6716-1.5-1.5-1.5-.8285 0-1.5.6716-1.5 1.5 0 .8285.6715 1.5 1.5 1.5z" fill="#4d4d4d"/><g fill="#fd8f63" opacity=".8"><path d="m12.6938 42c.2762 0 .5-.2239.5-.5s-.2238-.5-.5-.5c-.2761 0-.5.2239-.5.5s.2239.5.5.5z" opacity=".8"/><path d="m13.1938 35.7c.2762 0 .5-.2238.5-.5 0-.2761-.2238-.5-.5-.5-.2761 0-.5.2239-.5.5 0 .2762.2239.5.5.5z" opacity=".8"/><path d="m17.0937 41.5c.2762 0 .5-.2239.5-.5s-.2238-.5-.5-.5c-.2761 0-.4999.2239-.4999.5s.2238.5.4999.5z" opacity=".8"/><path d="m17.9937 38c.2761 0 .5-.2239.5-.5s-.2239-.5-.5-.5c-.2762 0-.5.2239-.5.5s.2238.5.5.5z" opacity=".8"/><path d="m20.3941 40.3c.2761 0 .5-.2238.5-.5 0-.2761-.2239-.5-.5-.5-.2762 0-.5001.2239-.5001.5 0 .2762.2239.5.5001.5z" opacity=".8"/><path d="m14.6939 38.9001c.2761 0 .5-.2239.5-.5001 0-.2761-.2239-.5-.5-.5-.2762 0-.5001.2239-.5001.5 0 .2762.2239.5001.5001.5001z" opacity=".8"/></g><g fill="#fd8f63" opacity=".8"><path d="m37.7939 42c.2762 0 .5-.2239.5-.5s-.2238-.5-.5-.5c-.2761 0-.5.2239-.5.5s.2239.5.5.5z" opacity=".8"/><path d="m37.2937 35.7c.2762 0 .5-.2238.5-.5 0-.2761-.2238-.5-.5-.5-.2761 0-.5.2239-.5.5 0 .2762.2239.5.5.5z" opacity=".8"/><path d="m33.4937 41.5c.2761 0 .5-.2239.5-.5s-.2239-.5-.5-.5c-.2762 0-.5.2239-.5.5s.2238.5.5.5z" opacity=".8"/><path d="m32.4936 38c.2761 0 .5-.2239.5-.5s-.2239-.5-.5-.5-.4999.2239-.4999.5.2238.5.4999.5z" opacity=".8"/><path d="m30.0938 40.3c.2761 0 .5-.2238.5-.5 0-.2761-.2239-.5-.5-.5-.2762 0-.5.2239-.5.5 0 .2762.2238.5.5.5z" opacity=".8"/><path d="m35.794 38.9001c.2761 0 .5-.2239.5-.5001 0-.2761-.2239-.5-.5-.5-.2762 0-.5001.2239-.5001.5 0 .2762.2239.5001.5001.5001z" opacity=".8"/></g><path d="m23.394 36.4v1.7c0 .7.6001 1.3 1.3001 1.3h1.6" stroke="#4d4d4d" stroke-linecap="round" stroke-linejoin="round" stroke-miterlimit="10" stroke-width="2"/><path d="m29.994 14.6c-.9 3.5-2.8 6.2-9.5 9.9-7.7 4.2-15.59996 4.3-15.59996 4.3" fill="#fd8f63"/><path d="m29.994 14.6c-.9 3.5-2.8 6.2-9.5 9.9-7.7 4.2-15.59996 4.3-15.59996 4.3" stroke="#4d4d4d" stroke-linecap="round" stroke-linejoin="round" stroke-miterlimit="10" stroke-width="2"/><path d="m23.0938 46.8c1.2.4 2.4999.4 3.6999 0" stroke="#4d4d4d" stroke-linecap="round" stroke-linejoin="round" stroke-miterlimit="10" stroke-width="2"/><path d="m45.1942 67.4c0-4.4-3.6-8-8-8h-7.2001s-1.3 3.1-5.1 3.1-5.4-3.1-5.4-3.1h-7c-4.39996 0-7.99996 3.6-7.99996 8v1.3c5.3 4.9 12.40006 7.8 20.20006 7.8 7.9 0 14.9999-3 20.3999-8v-1.1z" fill="#5c5c5c"/><path d="m45.1942 67.4c0-4.4-3.6-8-8-8h-7.2001s-1.3 3.1-5.1 3.1-5.4-3.1-5.4-3.1h-7c-4.39996 0-7.99996 3.6-7.99996 8v1.3c5.3 4.9 12.40006 7.8 20.20006 7.8 7.9 0 14.9999-3 20.3999-8v-1.1z" stroke="#4d4d4d" stroke-linejoin="round" stroke-miterlimit="10" stroke-width="2"/><path d="m10.9941 68.4v4.3" stroke="#4d4d4d" stroke-linecap="round" stroke-linejoin="round" stroke-miterlimit="10" stroke-width="2"/><path d="m38.894 68.4v4.3" stroke="#4d4d4d" stroke-linecap="round" stroke-linejoin="round" stroke-miterlimit="10" stroke-width="2"/></svg>