<svg fill="none" height="83" viewBox="0 0 50 83" width="50" xmlns="http://www.w3.org/2000/svg"><path d="m44.8998 72.1478c0-4.4-3.6-8-8-8h-24.6c-4.4 0-8 3.6-8 8v1.3c5.3 4.9 12.4 7.9 20.2 7.9 7.9 0 15-3 20.3-8v-1.2z" fill="#fff" stroke="#4d4d4d" stroke-linejoin="round" stroke-miterlimit="10" stroke-width="2"/><path d="m28.3 62.1478v-14.5h-7.6v14.5c0 1.1-.9 2-2 2h-1.7c0 3.4 3.3 6.1 7.4 6.1s7.4-2.7 7.4-6.1h-1.6c-1 0-1.9-.9-1.9-2z" fill="#ebc8ba" stroke="#4d4d4d" stroke-linejoin="round" stroke-miterlimit="10" stroke-width="2"/><path d="m31.4002 66.0478c-6.9.5-10.7-2.8001-10.6-3.6001.1-1.5-.1-.6-.1-.6l7.6.2s.4 2 1.9 2c-.1.1 2.9-1.4 1.2 2.0001z" fill="#b0968b" opacity=".5"/><g stroke="#4d4d4d" stroke-linejoin="round" stroke-miterlimit="10" stroke-width="2"><path d="m28.3 62.1478v-14.5h-7.6v14.5c0 1.1-.9 2-2 2h-1.7c0 3.4 3.3 6.1 7.4 6.1s7.4-2.7 7.4-6.1h-1.6c-1 0-1.9-.9-1.9-2z"/><path d="m5.7999 37.9477c2.15391 0 3.90001-1.7461 3.90001-3.9s-1.7461-3.8999-3.90001-3.8999-3.9 1.746-3.9 3.8999 1.74609 3.9 3.9 3.9z" fill="#ebc8ba"/><path d="m43.2999 37.9477c2.1539 0 3.9-1.7461 3.9-3.9s-1.7461-3.8999-3.9-3.8999-3.9 1.746-3.9 3.8999 1.7461 3.9 3.9 3.9z" fill="#ebc8ba"/><path d="m5.7998 20.0477v18.2c0 10.2 8 18.9 18.2 19.1 10.6.3 19.2-8.2 19.2-18.7v-18.6z" fill="#ebc8ba"/><path d="m5.7998 30.1478 2.70001 2.8h32.29999l2.5-2.8"/><path d="m37.1998 36.9478h-6.4c-1.7 0-3-1.3-3-3v-2.1c0-1.7 1.3-3 3-3h6.4c1.7 0 3 1.3 3 3v2.1c0 1.6-1.3 3-3 3z" fill="#f7e9e3"/><path d="m18.1998 36.9478h-6.4c-1.7 0-3-1.3-3-3v-2.1c0-1.7 1.3-3 3-3h6.4c1.7 0 3 1.3 3 3v2.1c0 1.6-1.3 3-3 3z" fill="#f7e9e3"/></g><path d="m15.5996 34.4478c.8284 0 1.5-.6716 1.5-1.5 0-.8285-.6716-1.5-1.5-1.5s-1.5.6715-1.5 1.5c0 .8284.6716 1.5 1.5 1.5z" fill="#4d4d4d"/><path d="m33.5 34.4478c.8284 0 1.5-.6716 1.5-1.5 0-.8285-.6716-1.5-1.5-1.5s-1.5.6715-1.5 1.5c0 .8284.6716 1.5 1.5 1.5z" fill="#4d4d4d"/><path d="m23 38.6478v1.7c0 .7.6 1.3 1.3 1.3h1.6" stroke="#4d4d4d" stroke-linecap="round" stroke-linejoin="round" stroke-miterlimit="10" stroke-width="2"/><path d="m10.6001 75.2477v2.5" stroke="#4d4d4d" stroke-linecap="round" stroke-linejoin="round" stroke-miterlimit="10" stroke-width="2"/><path d="m38.6001 75.2477v2.5" stroke="#4d4d4d" stroke-linecap="round" stroke-linejoin="round" stroke-miterlimit="10" stroke-width="2"/><path d="m48.1 22.4477c0-1-.3-1.8-.9-2.5.3-.7.5-1.4.5-2.2 0-1.1-.4-2.1-.9-2.9.4-.7-.4-3.1-1.9-4-.2-1.99995-2.2-3.39995-4.1-3.99995-.2-3.3-4.2-5.9-7.2-3.4-1.3-2.7-5.2-3.1-6.8-1.1-1.1-1.9-4.9-1.9-6.6.7-.9-.7-1.9-1.1-3.1-1.1-1.8 0-3.4 1-4.3 2.4-.5-.2-1-.2-1.5-.2-2.80001 0-5.00001 2.2-5.00001 5v.5c-2.2-.2-3.49999 2.49995-3 3.69995-1.39999.1-2.29999 1.6-2.29999 3.2 0 1.2.4 2.3 1.1 3.2-.7.7-1.1 1.7-1.1 2.8s.4 2 1.1 2.8c-.7.7-1.1 1.7-1.1 2.8 0 2.3 1.8 4.1 4.1 4.1.2 0 .4 0 .6-.1v-10.7h.3c1.1 0 2.2-.4 3-1 .7 1.9 2.5 3.3 4.7 3.3 1.7 0 3.3-.9 4.2-2.2.9.7 2 1.2 3.2 1.2 1.8 0 3.4-1 4.3-2.4.9 1.3 2.4 2.2 4.2 2.2 1.9 0 3.5-1 4.3-2.5.9 1 2.2 1.7 3.7 1.7.6 0 1.2-.1 1.7-.3.9.8 2.1 1.3 3.4 1.3h.6v9.4c.2 0 .4.1.6.1 2.3 0 4.1-1.8 4.1-4.1 0-1.1-.4-2-1.1-2.8.7-.9 1.2-1.9 1.2-2.9z" fill="#717e7e" stroke="#4d4d4d" stroke-linejoin="round" stroke-miterlimit="10" stroke-width="2"/><path d="m45.3001 41.9478c1.6-1.4.2-4.8-2.2-4.8-2.5 0-3.4 2.8-2.4 4.3-2 .1-2.4 1.6-1.6 2.8-1.5-.4-2.4 1.2-2 2.1-1.7-.6-2.9.8-2.9 2.5-.6-1.6-2.2-2.2-3.1-.9.1-2.6-3.7-3.6-4.1-2-.5-1.7-3.5-2-4.2-.1-.6-1.6-3.8-1.4-4.2 1.6 0 0-.1-1 0 0-.5-.2-2.8-.5-3.6 1.8.1-1.4-1.5-2.4-2.5-1.8 0-1.2-.8-2.1-2-2.3.4-2.1-.3-3.6-2.1-3.4.9-2.1-.8-3.2-2.5-3.2-1.8 0-3 3.5-1.1 4.5-1.8 1-1.7 4-.1 4.4-1 1.5-.1 4 1.9 3.6-1 1.8.3 4 2 3.7-1 2 .9 4.9 2.9 3.6-.3 2.7 2.9 4 4.4 2.5-.1 2.1 3.1 3 4.4 1.5.8 2.5 5 2.5 5.8.2 1.8 2.2 5.9.8 6-1.4 1.2 1 4 1.3 4.6-1.5 2.4.7 3.7-1.7 3.1-4.5 3 .4 3.4-1.2 2.6-3.7 2.1.7 3.2-2.1 1.8-4.5 2.1.3 3-3.8 1.1-5z" fill="#717e7e" stroke="#4d4d4d" stroke-linejoin="round" stroke-miterlimit="10" stroke-width="2"/><path d="m22.6001 51.3478c1.2.4 2.5.4 3.7 0" stroke="#4d4d4d" stroke-linecap="round" stroke-linejoin="round" stroke-miterlimit="10" stroke-width="2"/></svg>