<svg fill="none" height="78" viewBox="0 0 52 78" width="52" xmlns="http://www.w3.org/2000/svg"><path d="m29.5002 60.9v-14.5h-7.6v14.5c0 1.1-.9 2-2 2h-1.7c0 3.4 3.3 6.1 7.4 6.1s7.4-2.7 7.4-6.1h-1.6c-1 0-1.9-.9-1.9-2z" fill="#f8d3c4" stroke="#4d4d4d" stroke-linejoin="round" stroke-miterlimit="10" stroke-width="2"/><path d="m29.4999 58c-1.7 0-7.5-3-7.5-3.8.1-1.5-.1-.9-.1-.9l7.6.2s.2 4.4 0 4.5z" fill="#ba9e93" opacity=".5"/><g stroke="#4d4d4d" stroke-miterlimit="10" stroke-width="2"><path d="m29.5002 60.9v-14.5h-7.6v14.5c0 1.1-.9 2-2 2h-1.7c0 3.4 3.3 6.1 7.4 6.1s7.4-2.7 7.4-6.1h-1.6c-1 0-1.9-.9-1.9-2z" stroke-linejoin="round"/><path d="m47.8 51.7c1.4-6.5 11.7-49.39997-22.7-49.69997-29.19999-.3-24.499991 36.99997-22.59999 47.99997.3 1.7 1.9 2.8 3.6 2.5 4.09999-.8 11.39999-3.2 19.19999-2.6 9.6.7 16.3 3 19.6 3.7 1.4.3 2.7-.6 2.9-1.9z" fill="#666" stroke-linejoin="round"/><path d="m7.0001 38c2.15391 0 3.9-1.7461 3.9-3.9s-1.74609-3.9-3.9-3.9-3.9 1.7461-3.9 3.9 1.74609 3.9 3.9 3.9z" fill="#f8d3c4" stroke-linejoin="round"/><path d="m44.4 38c2.1539 0 3.9-1.7461 3.9-3.9s-1.7461-3.9-3.9-3.9-3.9 1.7461-3.9 3.9 1.7461 3.9 3.9 3.9z" fill="#f8d3c4" stroke-linejoin="round"/><path d="m7 34.3c.1 9.3 8 18.8999 18.2 19.0999 10.6.3 19.2-8.1999 19.2-18.6999l-.2-5.6c-16.4.6-22.8-11.8-22.8-11.8-2.8 6-10 7.6-13.7 9.2-.4 2-.7 4.8-.7 7.8z" fill="#f8d3c4" stroke-linejoin="round"/></g><path d="m16.7998 33.8c.8284 0 1.5-.6716 1.5-1.5s-.6716-1.5-1.5-1.5-1.5.6716-1.5 1.5.6716 1.5 1.5 1.5z" fill="#4d4d4d"/><path d="m34.5997 33.8c.8285 0 1.5-.6716 1.5-1.5s-.6715-1.5-1.5-1.5c-.8284 0-1.5.6716-1.5 1.5s.6716 1.5 1.5 1.5z" fill="#4d4d4d"/><path d="m24.2002 34.7v1.7c0 .7.6 1.3 1.3 1.3h1.6" stroke="#4d4d4d" stroke-linecap="round" stroke-linejoin="round" stroke-miterlimit="10" stroke-width="2"/><path d="m5.1002 40.9c1.32548 0 2.4-1.0745 2.4-2.4s-1.07452-2.4-2.4-2.4c-1.32549 0-2.4 1.0745-2.4 2.4s1.07451 2.4 2.4 2.4z" fill="#22d160" stroke="#4d4d4d" stroke-miterlimit="10" stroke-width="2"/><path d="m46.5001 40.9c1.3255 0 2.4-1.0745 2.4-2.4s-1.0745-2.4-2.4-2.4-2.4 1.0745-2.4 2.4 1.0745 2.4 2.4 2.4z" fill="#22d160" stroke="#4d4d4d" stroke-miterlimit="10" stroke-width="2"/><path d="m38.3998 40.3c1.436 0 2.6-1.164 2.6-2.6 0-1.4359-1.164-2.6-2.6-2.6-1.4359 0-2.6 1.1641-2.6 2.6 0 1.436 1.1641 2.6 2.6 2.6z" fill="#fcadad"/><path d="m12.9999 40.3c1.4359 0 2.6-1.164 2.6-2.6 0-1.4359-1.1641-2.6-2.6-2.6s-2.6 1.1641-2.6 2.6c0 1.436 1.1641 2.6 2.6 2.6z" fill="#fcadad"/><path d="m18.5 13s.3 8.3 9.5 13.2c8.2 4.4 18.3 2.5 18.3 2.5" fill="#666"/><path d="m18.5 13s.3 8.3 9.5 13.2c8.2 4.4 18.3 2.5 18.3 2.5" stroke="#4d4d4d" stroke-linecap="round" stroke-linejoin="round" stroke-miterlimit="10" stroke-width="2"/><path d="m23.8999 45c1.2.4 2.5.4 3.7 0" stroke="#4d4d4d" stroke-linecap="round" stroke-linejoin="round" stroke-miterlimit="10" stroke-width="2"/><path d="m45.9998 67.6c0-4.4-3.6-8-8-8h-7.2l-5.2 4.7-5.3-4.7h-7c-4.39999 0-8 3.6-8 8v1.3c5.3 4.9 12.4 7.8 20.2 7.8 7.9 0 15-3 20.4-8v-1.1z" fill="#fd9697"/><path d="m45.9998 67.6c0-4.4-3.6-8-8-8h-7.2l-5.2 4.7-5.3-4.7h-7c-4.39999 0-8 3.6-8 8v1.3c5.3 4.9 12.4 7.8 20.2 7.8 7.9 0 15-3 20.4-8v-1.1z" stroke="#4d4d4d" stroke-linejoin="round" stroke-miterlimit="10" stroke-width="2"/><path d="m11.7998 70.6v2.4" stroke="#4d4d4d" stroke-linecap="round" stroke-linejoin="round" stroke-miterlimit="10" stroke-width="2"/><path d="m39.6997 70.6v2.4" stroke="#4d4d4d" stroke-linecap="round" stroke-linejoin="round" stroke-miterlimit="10" stroke-width="2"/></svg>