<svg fill="none" height="81" viewBox="0 0 52 81" width="52" xmlns="http://www.w3.org/2000/svg"><path d="m35.9125 38.8033c27.9-5.9 12.3-53-18.8-32.79998-23.69997-5.899999-16.999972 28.49998-6.8 31.19998 11.2 3 24.3 1.9 25.6 1.6z" fill="#666" stroke="#4d4d4d" stroke-linejoin="round" stroke-miterlimit="10" stroke-width="2"/><path d="m30.7124 61.5033v-14.5h-10.3v14.5c0 1.1-.9 2-2 2h-1.7c0 3.4 4.7 12.8 8.8 12.8s8.8-9.4 8.8-12.8h-1.6c-1.1 0-2-.9-2-2z" fill="#fcc5af" stroke="#4d4d4d" stroke-linejoin="round" stroke-miterlimit="10" stroke-width="2"/><path d="m29.6124 63.9033c-1.5 0-7.8-7.1-7.8-7.8.1-1.5-.1-.9-.1-.9l7.9.2s.2 8.5 0 8.5z" fill="#f99f7a" opacity=".5"/><path d="m8.11241 40.6033c2.15389 0 3.89999-1.7461 3.89999-3.9s-1.7461-3.9-3.89999-3.9c-2.15391 0-3.90001 1.7461-3.90001 3.9s1.7461 3.9 3.90001 3.9z" fill="#fcc5af" stroke="#4d4d4d" stroke-linejoin="round" stroke-miterlimit="10" stroke-width="2"/><path d="m42.9123 40.6033c2.1539 0 3.9-1.7461 3.9-3.9s-1.7461-3.9-3.9-3.9-3.9 1.7461-3.9 3.9 1.7461 3.9 3.9 3.9z" fill="#fcc5af" stroke="#4d4d4d" stroke-linejoin="round" stroke-miterlimit="10" stroke-width="2"/><path d="m26.5126 16.4033c-4.9 0-9.9-4.2-14.8-1.3-4.19997 2.4-3.69997 8.4-3.69997 22 0 12.5 9.29997 19 16.99997 19 8.8 0 18-6.5 18-20.7 0-5.7.2-8.4 0-11.5-4.3-1.1-11.6-7.5-16.5-7.5z" fill="#fcc5af" stroke="#4d4d4d" stroke-linejoin="round" stroke-miterlimit="10" stroke-width="2"/><path d="m24.3125 37.9033v1.7c0 .7.5 1.3 1.2 1.3h1.5" stroke="#4d4d4d" stroke-linecap="round" stroke-linejoin="round" stroke-miterlimit="10" stroke-width="2"/><path d="m22.3125 46.8033c2.4 1.2002 4.7 1.2002 7 0" stroke="#4d4d4d" stroke-linecap="round" stroke-linejoin="round" stroke-miterlimit="10" stroke-width="2"/><path d="m19.3125 32.7033c.8284 0 1.5-.6716 1.5-1.5 0-.8285-.6716-1.5001-1.5-1.5001s-1.5.6716-1.5 1.5001c0 .8284.6716 1.5 1.5 1.5z" fill="#4d4d4d"/><path d="m31.8125 32.7033c.8284 0 1.5-.6716 1.5-1.5 0-.8285-.6716-1.5001-1.5-1.5001s-1.5.6716-1.5 1.5001c0 .8284.6716 1.5 1.5 1.5z" fill="#4d4d4d"/><path d="m45.8125 70.2033c0-4.4-3.6-7.9999-8-7.9999l-7.8 1.3s-4.4 3.5999-4.4 15.3999c0-11.7-4.7-15.3999-4.7-15.3999l-7.6-1.3c-4.4 0-8 3.5999-8 7.9999v1.3c5.3 4.9 12.4 7.8 20.2 7.8 7.9 0 15-3 20.4-8v-1.1z" fill="#5c5c5c"/><path d="m45.8125 70.2033c0-4.4-3.6-7.9999-8-7.9999l-7.8 1.3s-4.4 3.5999-4.4 15.3999c0-11.7-4.7-15.3999-4.7-15.3999l-7.6-1.3c-4.4 0-8 3.5999-8 7.9999v1.3c5.3 4.9 12.4 7.8 20.2 7.8 7.9 0 15-3 20.4-8v-1.1z" fill="#fff"/><path d="m45.8125 70.2033c0-4.4-3.6-7.9999-8-7.9999l-7.8 1.3s-4.4 3.5999-4.4 15.3999c0-11.7-4.7-15.3999-4.7-15.3999l-7.6-1.3c-4.4 0-8 3.5999-8 7.9999v1.3c5.3 4.9 12.4 7.8 20.2 7.8 7.9 0 15-3 20.4-8v-1.1z" stroke="#4d4d4d" stroke-linejoin="round" stroke-miterlimit="10" stroke-width="2"/><path d="m37.8127 62.2034-2.6.4-3.7 16.0999c3.6-.7 6.9-2.1 9.8-4 .1-.1.3-.2.4-.3.2-.1.3-.2.5-.3s.4-.3.6-.4c1.1-.8 2.1-1.6 3-2.4v-1.1c0-4.3999-3.5-7.9999-8-7.9999z" fill="#d0c8c4" stroke="#4d4d4d" stroke-linejoin="round" stroke-miterlimit="10" stroke-width="2"/><path d="m13.2124 62.2034 2.6.4 3.7 16.0999c-3.6-.7-6.9-2.1-9.8-4-.1-.1-.3-.2-.4-.3-.2-.1-.3-.2-.5-.3s-.4-.3-.6-.4c-1.1-.8-2.1-1.6-3-2.4v-1.1c.1-4.3999 3.6-7.9999 8-7.9999z" fill="#d0c8c4" stroke="#4d4d4d" stroke-linejoin="round" stroke-miterlimit="10" stroke-width="2"/><path d="m22.8125 79.3033c.9.1 1.8.1 2.7.1 1 0 2-.1 3.1-.2l-1-11.3h-3.6z" fill="#82d5bf"/><g stroke="#4d4d4d" stroke-linejoin="round" stroke-miterlimit="10" stroke-width="2"><path d="m22.8125 79.3033c.9.1 1.8.1 2.7.1 1 0 2-.1 3.1-.2l-1-11.3h-3.6z"/><path d="m27.4124 69.8033h-3.5c-.3 0-.5-.2-.6-.5l-1.4-4.3c-.1-.3.2-.7.6-.7h6.3c.4 0 .6.3.6.7l-1.4 4.3c-.1.3-.3.5-.6.5z" fill="#82d5bf"/><path d="m20.7123 56.5033s-.2 4 1.3 7.1c0 0-4.5 2.7-5.8 6.6-3.2-4.6-1.8-12.2 4.5-13.7z" fill="#fff"/><path d="m30.4123 56.5033s.2 4-1.3 7.1c0 0 4.5 2.7 5.8 6.6 3.2-4.6 1.8-12.2-4.5-13.7z" fill="#fff"/><path d="m11.6123 71.0034v4.2999" stroke-linecap="round"/><path d="m39.6123 71.0034v4.2999" stroke-linecap="round"/></g><path d="m25.9126 12.3033c1.1 2.8 3.4 6.6 8.4 9.2 4.9 2.6 9.1 2.9 11.8 2.7" fill="#666"/><path d="m25.9126 12.3033c1.1 2.8 3.4 6.6 8.4 9.2 4.9 2.6 9.1 2.9 11.8 2.7" stroke="#4d4d4d" stroke-linecap="round" stroke-linejoin="round" stroke-miterlimit="10" stroke-width="2"/></svg>