<svg fill="none" height="78" viewBox="0 0 47 78" width="47" xmlns="http://www.w3.org/2000/svg"><path d="m2.07829 43c-1.799997-9.1-4.50001-42 21.30001-42 24.4 0 22.7001 30.8 21.6001 42-.9 9.2-40.9001 9.9-42.90011 0z" fill="#5c5c5c" stroke="#4d4d4d" stroke-linejoin="round" stroke-miterlimit="10" stroke-width="2"/><path d="m27.0783 57.9v-14.5h-7.6v14.5c0 1.1-.9 2-2 2h-1.7c0 3.4 3.3 9.4 7.4 9.4s7.4-6.1 7.4-9.4h-1.6c-1.1 0-1.9-.9-1.9-2z" fill="#b88f77" stroke="#4d4d4d" stroke-linejoin="round" stroke-miterlimit="10" stroke-width="2"/><path d="m19.5786 53.2c.1-1.5-.1-1.6-.1-1.6l7.5999.2s-.3 1.7.3 3.9c.3 1.1-7.8999-1.7-7.7999-2.5z" fill="#90674e"/><g stroke="#4d4d4d" stroke-linejoin="round" stroke-miterlimit="10" stroke-width="2"><path d="m27.0783 57.9v-14.5h-7.6v14.5c0 1.1-.9 2-2 2h-1.7c0 3.4 3.3 9.4 7.4 9.4s7.4-6.1 7.4-9.4h-1.6c-1.1 0-1.9-.9-1.9-2z" fill="#f1cbbc"/><path d="m7.17827 37.7c2.1539 0 3.90003-1.7461 3.90003-3.9s-1.74613-3.9-3.90003-3.9-3.89995 1.7461-3.89995 3.9 1.74605 3.9 3.89995 3.9z" fill="#f1cbbc"/><path d="m39.2786 37.7c2.1539 0 3.9-1.7461 3.9-3.9s-1.7461-3.9-3.9-3.9-3.9001 1.7461-3.9001 3.9 1.7462 3.9 3.9001 3.9z" fill="#f1cbbc"/><path d="m6.97852 33.4c.1 9.3 6.99998 18.9 15.89998 19.1 9.2.3 16.7-8.2 16.7-18.7 0 0-.5-8.8-1.1-10.5-2.5 1-3.8 1.5-5.5 1.6l-.3-2.6c-3 .5-7.8.7-10.4 0l-.2 2.4c-3.3-.2-11.5-.7-13.70002-1.2-.5 1.5-1.39996 6.8-1.39996 9.9z" fill="#f1cbbc"/></g><path d="m16.3784 34c.8285 0 1.5-.6716 1.5-1.5s-.6715-1.5-1.5-1.5c-.8284 0-1.5.6716-1.5 1.5s.6716 1.5 1.5 1.5z" fill="#4d4d4d"/><path d="m30.1785 34c.8284 0 1.5-.6716 1.5-1.5s-.6716-1.5-1.5-1.5c-.8285 0-1.5.6716-1.5 1.5s.6715 1.5 1.5 1.5z" fill="#4d4d4d"/><path d="m25.0784 45.1c-.8 1.3-2.9 1.1-3.7 0" stroke="#4d4d4d" stroke-linecap="round" stroke-linejoin="round" stroke-miterlimit="10" stroke-width="2"/><path d="m43.5785 67.3c0-4.4-3.6-8-8-8h-7.2v-3.3c0 .8-10.5.8-10.5 0v3.3h-7c-4.39997 0-7.99996 3.6-7.99996 8v1.3c5.29999 4.9 12.39996 7.8 20.19996 7.8 7.9 0 15-3 20.4-8v-1.1z" fill="#efab33" stroke="#4d4d4d" stroke-linejoin="round" stroke-miterlimit="10" stroke-width="2"/><path d="m9.37842 68.3v4.4" stroke="#4d4d4d" stroke-linecap="round" stroke-linejoin="round" stroke-miterlimit="10" stroke-width="2"/><path d="m37.2783 68.3v4.4" stroke="#4d4d4d" stroke-linecap="round" stroke-linejoin="round" stroke-miterlimit="10" stroke-width="2"/><path d="m10.4783 16.2c-1.00003 2.2-1.70008 4.6-2.30008 7.6z" fill="#fcc5af"/><path d="m10.4783 16.2c-1.00003 2.2-1.70008 4.6-2.30008 7.6" stroke="#4d4d4d" stroke-linecap="round" stroke-linejoin="round" stroke-miterlimit="10" stroke-width="2"/><path d="m14.2782 19.1c-.3 1.4-.6001 3-.7001 4.7z" fill="#fcc5af"/><path d="m14.2782 19.1c-.3 1.4-.6001 3-.7001 4.7" stroke="#4d4d4d" stroke-linecap="round" stroke-linejoin="round" stroke-miterlimit="10" stroke-width="1.8189"/><path d="m22.5782 18.1c-.4 1.8-.5 4.3-.5 6.4z" fill="#fcc5af"/><path d="m22.5782 18.1c-.4 1.8-.5 4.3-.5 6.4" stroke="#4d4d4d" stroke-linecap="round" stroke-linejoin="round" stroke-miterlimit="10" stroke-width="1.8189"/><path d="m31.7783 17.9c.6 2.2.9 3.8 1 6.2z" fill="#fcc5af"/><path d="m31.7783 17.9c.6 2.2.9 3.8 1 6.2" stroke="#4d4d4d" stroke-linecap="round" stroke-linejoin="round" stroke-miterlimit="10" stroke-width="1.8189"/><path d="m36.0781 15.3c.8 1.5 2.3001 6.1 2.5001 8.8z" fill="#fcc5af"/><path d="m36.0781 15.3c.8 1.5 2.3001 6.1 2.5001 8.8" stroke="#4d4d4d" stroke-linecap="round" stroke-linejoin="round" stroke-miterlimit="10" stroke-width="2"/><path d="m21.7784 35.9v1.6c0 .7.6 1.3 1.3 1.3h.9001" stroke="#4d4d4d" stroke-linecap="round" stroke-linejoin="round" stroke-miterlimit="10" stroke-width="2"/><path d="m17.8785 59.3c0 1.1 10.5 1.1 10.5 0z" fill="#efab33"/><path d="m17.8785 59.3c0 1.1 10.5 1.1 10.5 0" stroke="#4d4d4d" stroke-linejoin="round" stroke-miterlimit="10" stroke-width="2"/><path d="m34.0785 38.6c1.215 0 2.2-.985 2.2-2.2s-.985-2.2-2.2-2.2c-1.2151 0-2.2001.985-2.2001 2.2s.985 2.2 2.2001 2.2z" fill="#f7b69d"/><path d="m12.3784 38.6c1.215 0 2.2-.985 2.2-2.2s-.985-2.2-2.2-2.2c-1.2151 0-2.2001.985-2.2001 2.2s.985 2.2 2.2001 2.2z" fill="#f7b69d"/></svg>