<svg fill="none" height="81" viewBox="0 0 48 81" width="48" xmlns="http://www.w3.org/2000/svg"><path d="m43.8998 70.5c0-4.4-3.6-8-8-8h-24.6c-4.4 0-8 3.6-8 8v1.3c5.3 4.9 12.4 7.9 20.2 7.9 7.9 0 15-3 20.3-8v-1.2z" fill="#fff"/><path d="m43.8998 70.5c0-4.4-3.6-8-8-8h-24.6c-4.4 0-8 3.6-8 8v1.3c5.3 4.9 12.4 7.9 20.2 7.9 7.9 0 15-3 20.3-8v-1.2z" stroke="#4d4d4d" stroke-linejoin="round" stroke-miterlimit="10" stroke-width="2"/><path d="m27.4001 60.6v-14.5h-7.6v14.5c0 1.1-.9 2-2 2h-1.7c0 3.4 3.3 6.1 7.4 6.1s7.4-2.7 7.4-6.1h-1.5c-1.1 0-2-.9-2-2z" fill="#ebc8ba" stroke="#4d4d4d" stroke-linejoin="round" stroke-miterlimit="10" stroke-width="2"/><path d="m30.4002 64.4c-6.9.5-10.7-2.8-10.6-3.6.1-1.5-.1-.6-.1-.6l7.6.2s.4 2 1.9 2c0 .1 3-1.3 1.2 2z" fill="#b0968b" opacity=".5"/><g stroke="#4d4d4d" stroke-linejoin="round" stroke-miterlimit="10" stroke-width="2"><path d="m27.4001 60.6v-14.5h-7.6v14.5c0 1.1-.9 2-2 2h-1.7c0 3.4 3.3 6.1 7.4 6.1s7.4-2.7 7.4-6.1h-1.5c-1.1 0-2-.9-2-2z"/><path d="m4.90001 36.3c2.15392 0 3.90001-1.7461 3.90001-3.9s-1.74609-3.9-3.90001-3.9-3.90001 1.7461-3.90001 3.9 1.74609 3.9 3.90001 3.9z" fill="#ebc8ba"/><path d="m42.2999 36.3c2.1539 0 3.9-1.7461 3.9-3.9s-1.7461-3.9-3.9-3.9-3.9 1.7461-3.9 3.9 1.7461 3.9 3.9 3.9z" fill="#ebc8ba"/><path d="m42.2999 16.8c0 11.3-37.49997 11.3-37.49997 0 .1-8.29998 7.59997-15.79997 18.39997-15.79997 12.9 0 19.1 6.49999 19.1 15.79997z" fill="#808080"/><path d="m4.8999 18.5v18.2c0 10.2 8 18.9 18.2 19.1 10.6.3 19.2-8.2 19.2-18.7v-18.6z" fill="#ebc8ba"/><path d="m40.0001 23.8h-32.9c-2.2 0-4-1.8-4-4v-1.4c0-2.2 1.8-4 4-4h32.9c2.2 0 4 1.8 4 4v1.4c0 2.2-1.8 4-4 4z" fill="#808080"/><path d="m40.7002 15.4v9.4"/><path d="m36.8999 15.4v9.3"/><path d="m33.1001 15.3v9.4"/><path d="m29.2998 15.3v9.4"/><path d="m25.5 15.2v9.4"/><path d="m21.7002 15.2v9.4"/><path d="m17.8999 15.2v9.4"/><path d="m14.1 15.1v9.4"/><path d="m10.2999 15.1v9.4"/><path d="m6.5 15.1v9.4"/><path d="m4.8999 28.5 2.7 2.8h32.2l2.5-2.8"/><path d="m36.2999 35.3h-6.4c-1.7 0-3-1.3-3-3v-2.1c0-1.7 1.3-3 3-3h6.4c1.7 0 3 1.3 3 3v2.1c0 1.6-1.4 3-3 3z" fill="#fff"/><path d="m17.2999 35.3h-6.4c-1.69999 0-3-1.3-3-3v-2.1c0-1.7 1.30001-3 3-3h6.4c1.7 0 3 1.3 3 3v2.1c0 1.6-1.4 3-3 3z" fill="#fff"/></g><path d="m14.6997 32.8c.8285 0 1.5-.6715 1.5-1.5 0-.8284-.6715-1.5-1.5-1.5-.8284 0-1.5.6716-1.5 1.5 0 .8285.6716 1.5 1.5 1.5z" fill="#4d4d4d"/><path d="m32.5 32.8c.8284 0 1.5-.6715 1.5-1.5 0-.8284-.6716-1.5-1.5-1.5s-1.5.6716-1.5 1.5c0 .8285.6716 1.5 1.5 1.5z" fill="#4d4d4d"/><path d="m33.7001 47.3h-2.9l-.7-1.7c-.4-1.1-1.4-1.9-2.5-1.9h-7.3c-1.2 0-2.2.8-2.5 1.9l-.7 1.7h-3.5c-1.1 0-2.1-.5-2.7-1.4l-5.89998-9.2.5 4.4c0 11.1 6.79998 19 16.99998 19 11.1 0 19.5-7.7 19.5-19l.3-5.8-5.6 10.3c-.8 1.1-1.8 1.7-3 1.7z" fill="#b06445" stroke="#4d4d4d" stroke-linejoin="round" stroke-miterlimit="10" stroke-width="2"/><path d="m22.1001 37v1.7c0 .7.6 1.3 1.3 1.3h1.6" stroke="#4d4d4d" stroke-linecap="round" stroke-linejoin="round" stroke-miterlimit="10" stroke-width="2"/><path d="m9.7002 73.6v2.5" stroke="#4d4d4d" stroke-linecap="round" stroke-linejoin="round" stroke-miterlimit="10" stroke-width="2"/><path d="m37.6001 73.6v2.5" stroke="#4d4d4d" stroke-linecap="round" stroke-linejoin="round" stroke-miterlimit="10" stroke-width="2"/><path d="m21.7002 49.7c1.2.4 2.5.4 3.7 0" stroke="#4d4d4d" stroke-linecap="round" stroke-linejoin="round" stroke-miterlimit="10" stroke-width="2"/></svg>