<?xml version="1.0" encoding="UTF-8"?>
<svg id="Layer_1" data-name="Layer 1" xmlns="http://www.w3.org/2000/svg" viewBox="0 0 1390 360">
  <path d="m510.4,15.8h-8.4l-156.1,320.3,4.5,7.2h311.7l4.5-7.2L510.4,15.8h0Zm-100.4,284.7l96.2-197.4,96.2,197.4h-192.4Z"/>
  <polygon points="337.6 16.5 19.6 16.5 14 22.1 14 55 19.6 60.6 155.3 60.6 155.3 337.6 160.9 343.2 196.3 343.2 201.9 337.6 201.9 60.6 337.6 60.6 343.2 55 343.2 22.1 337.6 16.5"/>
  <polygon points="992.8 16.5 674.9 16.5 669.2 22.1 669.2 55 674.9 60.6 810.6 60.6 810.6 337.6 816.2 343.2 851.5 343.2 857.2 337.6 857.2 60.6 992.8 60.6 998.5 55 998.5 22.1 992.8 16.5"/>
  <path d="m1208,12.4c-93,0-168.3,75.4-168.3,168.3s75.4,168.3,168.3,168.3,168.3-75.4,168.3-168.3c.1-93-75.3-168.3-168.3-168.3Zm0,292.74c-67.45,0-122.19-55.68-122.19-124.44s54.67-124.44,122.19-124.44,122.26,55.68,122.19,124.44c0,68.69-54.67,124.44-122.19,124.44Z"/>
</svg>