<svg width="67" height="67" viewBox="0 0 67 67" fill="none" xmlns="http://www.w3.org/2000/svg">
<rect width="67" height="67" rx="10" fill="#E4EEFF"/>
<path d="M52.619 45.6447V40.231L34.0954 32.3932L14.2977 38.1287V45.6146L14.3781 45.6507C14.4109 46.2372 14.7086 46.8087 15.2802 47.1485L32.0829 57.0706C33.5149 57.9158 35.2893 57.9068 36.7123 57.0466L51.7258 47.9696C52.5713 47.4583 52.8631 46.4838 52.619 45.6477V45.6447Z" fill="#2C78FD" stroke="#2C78FD"/>
<path d="M51.7258 41.419L36.7123 50.496C35.2892 51.3562 33.5149 51.3652 32.0829 50.5201L15.2802 40.5979C14.0476 39.8701 14.0715 38.0655 15.3218 37.3708L30.5527 28.9134C31.8954 28.1675 33.5238 28.1555 34.8784 28.8833L51.6395 37.8821C53.0208 38.625 53.0715 40.607 51.7288 41.419H51.7258Z" fill="#D4E5F7" stroke="#2C78FD" stroke-width="0.567627" stroke-miterlimit="10"/>
<path d="M49.0941 37.082V32.6669L33.9853 26.2757L17.8375 30.9495V37.055L17.903 37.085C17.9298 37.5633 18.171 38.0294 18.6384 38.3061L32.342 46.3996C33.509 47.0884 34.9558 47.0823 36.1169 46.3786L48.3617 38.9738C49.0524 38.5558 49.2906 37.7618 49.0911 37.079L49.0941 37.082Z" fill="#2C78FD" stroke="#2C78FD"/>
<path d="M48.3647 33.6353L36.1199 41.0401C34.9588 41.7408 33.5119 41.7499 32.3449 41.0611L18.6413 32.9676C17.6381 32.3751 17.6559 30.9014 18.6771 30.336L31.0975 23.4395C32.1931 22.832 33.5209 22.82 34.6254 23.4155L48.2962 30.754C49.4245 31.3586 49.4632 32.9767 48.3677 33.6383L48.3647 33.6353Z" fill="#EDF3F9" stroke="#2C78FD" stroke-width="0.567627" stroke-miterlimit="10"/>
<path d="M45.6346 21.0485C45.6346 18.3446 44.155 15.8634 41.7882 14.5972L32.5175 9.64363C31.8507 9.28873 31.1391 9.22557 30.4901 9.37896L30.4574 9.35791L30.371 9.40603C29.9275 9.53235 29.5196 9.76093 29.1802 10.0737L25.7982 11.9655L28.2216 19.8906V20.2304C28.2216 23.8696 30.249 27.1991 33.4613 28.8412L40.6599 32.5195L40.907 35.3076L44.0032 33.3827C44.3336 33.2654 44.6343 33.0759 44.8874 32.8323L45.0005 32.7631L44.9946 32.724C45.3846 32.297 45.6317 31.7255 45.6317 31.0698V21.0515L45.6346 21.0485Z" fill="#00B242" stroke="#00B242" stroke-width="0.546207" stroke-miterlimit="10"/>
<path d="M24.6372 14.4498V22.426C24.6372 26.0652 26.6646 29.3946 29.8769 31.0368L38.5194 35.4519C40.136 36.279 42.0473 35.091 42.0473 33.2624V23.2441C42.0473 20.5402 40.5677 18.0589 38.2009 16.7927L28.9302 11.8362C26.9832 10.7956 24.6372 12.2212 24.6372 14.4468V14.4498Z" fill="#C7EF9D" stroke="#00B242" stroke-width="0.546207" stroke-miterlimit="10"/>
<path d="M27 19.0755V23.5286C27 24.2851 27.3669 24.9844 27.9596 25.3468L35.1341 29.7458C36.3336 30.4801 37.8013 29.5392 37.8492 28.004L37.9988 23.3856C38.0242 22.5846 37.6347 21.8377 37.0025 21.469L29.6784 17.232C28.4564 16.5232 27 17.5244 27 19.0724V19.0755Z" fill="white"/>
<path d="M31.2791 20.4891V24.814L34.6164 24.7509L31.2791 20.4891Z" fill="#00B242" stroke="#00B242" stroke-width="0.546207" stroke-miterlimit="10"/>
</svg>
