<svg width="67" height="67" viewBox="0 0 67 67" fill="none" xmlns="http://www.w3.org/2000/svg">
<rect width="67" height="67" rx="10" fill="#E4EEFF"/>
<ellipse cx="35.5" cy="50" rx="25.5" ry="12" fill="#B9D2FE"/>
<path d="M56.0236 26.0768C56.5007 25.8027 56.8411 25.2998 56.8411 24.6839V16.5498C56.8411 15.3207 56.1516 14.1878 55.0432 13.5973L41.6636 6.44356C41.0846 6.13278 40.0344 6.29099 39.6446 6.71197L38.1027 7.59347L53.5246 27.3284L56.0207 26.0739L56.0236 26.0768Z" fill="#00B242" stroke="#00B242" stroke-width="0.546207" stroke-miterlimit="10"/>
<path d="M23.9958 56.5451C23.7252 56.7118 23.3936 56.757 23.0794 56.6807C19.6785 55.8303 19.6523 50.7419 19.6523 50.7419V29.8627C19.6523 29.8627 19.9432 25.9242 17.3452 23.7685C16.2834 22.887 14.9684 22.2089 13.5109 22.1411C13.1414 22.1241 13.0221 21.6551 13.3421 21.4771L33.3985 10.303C35.2487 9.57967 36.6015 9.34235 39.0017 11.7015C41.4018 14.0606 41.3087 17.7957 41.3087 17.7957V38.6749C41.3087 38.6749 41.0207 41.6132 42.7691 43.4667C43.2521 43.978 43.1357 44.7861 42.5335 45.1562L23.9987 56.5451H23.9958Z" fill="#D4E5F7" stroke="#2C78FD" stroke-width="0.546207" stroke-miterlimit="10"/>
<path d="M21.4677 27.2041V32.1597C21.4677 32.722 22.0902 33.0752 22.5935 32.7983L30.0034 28.7298C30.239 28.5998 30.3874 28.3569 30.3874 28.0913V22.9887C30.3874 22.4237 29.7532 22.0705 29.2499 22.3559L21.84 26.5741C21.6102 26.7069 21.4677 26.947 21.4677 27.2069V27.2041Z" fill="#2C78FD"/>
<path d="M30.6958 38.2568V43.2124C30.6958 43.7747 31.3184 44.1278 31.8217 43.8509L39.2315 39.7825C39.4672 39.6525 39.6155 39.4095 39.6155 39.1439V34.0414C39.6155 33.4763 38.9813 33.1232 38.478 33.4085L31.0682 37.6267C30.8384 37.7595 30.6958 37.9997 30.6958 38.2596V38.2568Z" fill="#2C78FD"/>
<path d="M39.7989 17.5245L31.9875 21.9462" stroke="#2C78FD" stroke-width="0.962264"/>
<path d="M39.7989 21.35L31.9875 25.7688" stroke="#2C78FD" stroke-width="0.962264"/>
<path d="M28.9124 39.2711L21.0981 43.6927" stroke="#2C78FD" stroke-width="0.962264"/>
<path d="M28.9124 42.9751L21.0981 47.3967" stroke="#2C78FD" stroke-width="0.962264"/>
<path d="M39.7988 27.3821L21.0981 37.898" stroke="#2C78FD" stroke-width="0.962264"/>
<path d="M46.8711 26.7888L49.4923 25.4835L52.4685 27.0713C53.5798 27.6646 54.9355 26.8848 54.9355 25.653V17.5189C54.9355 16.2899 54.246 15.1569 53.1376 14.5664L39.758 7.41267C38.8736 6.94084 37.7885 7.56242 37.7885 8.54281V17.0188C37.7885 18.5501 38.6176 19.9684 39.9704 20.7539L43.8659 23.0113L45.7452 26.4413C45.9605 26.834 46.4638 26.9865 46.8711 26.7831V26.7888Z" fill="#C7EF9D" stroke="#00B242" stroke-width="0.546207" stroke-miterlimit="10"/>
</svg>
