<svg width="67" height="67" viewBox="0 0 67 67" fill="none" xmlns="http://www.w3.org/2000/svg">
<rect width="67" height="67" rx="10" fill="#E4EEFF"/>
<path d="M56.9066 48.1865V45L35.1997 33L12 45V48.1485L12.0941 48.1908C12.1326 48.8628 12.479 49.518 13.1506 49.9068L32.8386 61.2809C34.5153 62.2488 36.594 62.2403 38.2622 61.2513L55.8544 50.8451C56.8467 50.2576 57.1889 49.1418 56.9023 48.1823L56.9066 48.1865Z" fill="#2C78FD" stroke="#2C78FD"/>
<path d="M55.8461 46.9034L38.2229 57.2566C36.5519 58.2365 34.4695 58.2491 32.7898 57.2861L13.0671 45.9699C11.6231 45.1414 11.6488 43.0809 13.1185 42.2903L30.9945 32.6477C32.5713 31.7983 34.4823 31.7815 36.072 32.6141L55.7476 42.8748C57.3715 43.7201 57.4272 45.9825 55.8504 46.9076L55.8461 46.9034Z" fill="#EDF3F9" stroke="#2C78FD" stroke-width="0.567627" stroke-miterlimit="10"/>
<path d="M42.2899 28L46 26.0807L42.8803 16L39 17.7604L42.2899 28Z" fill="#42A667" stroke="#42A667" stroke-width="0.546207" stroke-miterlimit="10"/>
<path d="M40.9974 17.1883C40.9974 17.1883 34.2314 10.3096 29.0129 11.0567C23.7943 11.8039 22 13.6249 22 13.6249L32.1928 16.3602L37.1671 21L41 17.1883H40.9974Z" fill="#42A667" stroke="#42A667" stroke-width="0.546207" stroke-miterlimit="10"/>
<path d="M19.3319 26.9181C19.3319 26.9181 17.7021 14.8413 25.1211 15.0908C32.54 15.3402 35.0695 20.9204 35.0695 20.9204L34.0901 22.2518L42 28L38.8201 17.3386L37.6787 18.5885C37.6787 18.5885 30.9924 11.0914 24.0619 12.0919C17.1314 13.0924 19.3319 26.9181 19.3319 26.9181Z" fill="#C7EF9D" stroke="#42A667" stroke-width="0.546207" stroke-miterlimit="10" stroke-linejoin="round"/>
<path d="M20 31.5671L23.7753 30L32 35.1412L28.5071 37L20 31.5671Z" fill="#42A667" stroke="#42A667" stroke-width="0.546207" stroke-miterlimit="10"/>
<path d="M30 38L29 36L26 37.5L27 40L29.5 43.5L38.5 44.5L41.5 41C39.8333 41.1667 36 41.4 34 41C32 40.6 31 39.5 30 38Z" fill="#42A667" stroke="#42A667" stroke-width="0.546207" stroke-miterlimit="10"/>
<path d="M43.8583 32.799L47.2325 31C47.2325 31 49.8325 40.0467 45.4617 44.5701C39.5 49 34.5 46.5 34.5 46.5L42.5321 42.8819L43.8583 32.799Z" fill="#42A667" stroke="#42A667" stroke-width="0.546207" stroke-miterlimit="10"/>
<path d="M28.1794 37.4174L20 32L23.1712 41.7928L24.5055 40.8024C24.5055 40.8024 31.6849 48.1463 38.7511 46.8456C45.8173 45.5448 43.704 32.7292 43.704 32.7292C43.704 32.7292 44.0382 46.2223 34.4666 43.5123C30.0716 42.5737 26.953 38.563 26.953 38.563L28.1768 37.4174H28.1794Z" fill="#C7EF9D" stroke="#42A667" stroke-width="0.546207" stroke-miterlimit="10" stroke-linejoin="round"/>
<path d="M40.5 31L25 23" stroke="#2C78FD" stroke-width="2" stroke-linecap="round"/>
<path d="M39.5 35L24 27" stroke="#2C78FD" stroke-width="2" stroke-linecap="round"/>
</svg>
