<svg width="67" height="67" viewBox="0 0 67 67" fill="none" xmlns="http://www.w3.org/2000/svg">
<rect width="67" height="67" rx="10" fill="#E4EEFF"/>
<ellipse cx="35.5" cy="50" rx="25.5" ry="12" fill="#B9D2FE"/>
<path d="M54.7348 36.0376C55.4732 35.6079 56 34.8195 56 33.8538V21.1006C56 19.1737 54.9329 17.3973 53.2175 16.4715L32.5109 5.25544C31.615 4.76817 29.9896 5.01624 29.3863 5.67627L27 7.05834L50.8673 38L54.7303 36.0332L54.7348 36.0376Z" fill="#00B242" stroke="#00B242" stroke-width="0.567627" stroke-miterlimit="10"/>
<path d="M40.1164 36.7989L43.99 34.97L44.1159 34.9105L44.2403 34.9734L49.1001 37.4318L49.1002 37.4318C50.7595 38.2717 52.715 37.1478 52.715 35.4902V22.8964C52.715 21.1095 51.6574 19.4493 49.9356 18.5796L49.9353 18.5794L28.0875 7.50363C28.0874 7.50359 28.0874 7.50355 28.0873 7.50351C26.7977 6.85139 25.285 7.73165 25.285 8.99905V22.1221C25.285 24.381 26.575 26.4853 28.7002 27.6552L40.1164 36.7989ZM40.1164 36.7989V36.7896L39.7094 36.9823C39.168 37.2387 38.5113 37.0379 38.2396 36.568C38.2396 36.568 38.2396 36.568 38.2396 36.5679L35.1707 31.2575L35.1309 31.1887L35.0612 31.1504L28.7004 27.6554L40.1164 36.7989Z" fill="#C7EF9D" stroke="#00B242" stroke-width="0.57" stroke-miterlimit="10"/>
<ellipse cx="32.5" cy="20" rx="1.5" ry="3" fill="#2C78FD"/>
<ellipse cx="37.5" cy="22.5" rx="1.5" ry="2.5" fill="#2C78FD"/>
<ellipse cx="42.5" cy="25" rx="1.5" ry="3" fill="#2C78FD"/>
<path d="M20.8384 40.2756C20.837 40.2756 20.8371 40.275 20.8359 40.2758C20.7973 40.3031 16.5839 43.2966 17.0336 49.2589C17.1136 50.3139 17.4367 51.3461 18.0629 52.1981C21.0649 56.2866 28.7874 57.0786 33.7308 54.7684C35.4033 53.9879 36.4727 52.3153 36.4812 50.4683C36.4984 46.1568 35.2375 42.8488 31.7208 41.0905C27.5537 39.0055 20.853 40.273 20.8391 40.2756C20.8387 40.2757 20.8388 40.2756 20.8384 40.2756Z" fill="#EDF3F9" stroke="#1982E0" stroke-width="0.567627" stroke-miterlimit="10"/>
<path d="M28.7274 43.0861L24.1013 52.3353C24.1013 52.3353 21.2908 45.442 22.5603 42.2684" fill="#2C78FD"/>
<path d="M26.6259 43.5893C30.3319 43.5893 33.3362 40.585 33.3362 36.879C33.3362 33.173 30.3319 30.1687 26.6259 30.1687C22.9199 30.1687 19.9156 33.173 19.9156 36.879C19.9156 40.585 22.9199 43.5893 26.6259 43.5893Z" fill="#D4E5F7" stroke="#1982E0" stroke-width="0.567627" stroke-miterlimit="10"/>
<path fill-rule="evenodd" clip-rule="evenodd" d="M21.1479 32.7648C21.7879 33.9906 23.1743 35.8085 24.815 36.2643C26.6788 36.782 28.9176 36.3232 30.0673 35.9488C30.2521 35.8886 30.4565 35.9679 30.5434 36.1417L32.4507 39.9562C32.9833 38.9943 33.2866 37.8877 33.2866 36.7103C33.2866 33.0043 30.2823 30 26.5762 30C24.3449 30 22.3679 31.0891 21.1479 32.7648Z" fill="#2C78FD"/>
</svg>
