<svg width="67" height="67" viewBox="0 0 67 67" fill="none" xmlns="http://www.w3.org/2000/svg">
<rect width="67" height="67" rx="10" fill="#E4EEFF"/>
<ellipse cx="34.5" cy="53" rx="25.5" ry="10" fill="#B9D2FE"/>
<path d="M12.5301 50.3322L12.8959 51.0428C13.1397 51.5146 13.6107 51.8097 14.1224 51.8078L49.5734 51.7495C50.2494 51.7495 50.8719 51.367 51.2044 50.7496L60.686 32.9007C60.867 32.5609 60.8577 32.1454 60.6638 31.8134L59.7476 30.6252L12.5301 50.3322Z" fill="#2C78FD"/>
<path d="M58.9145 30.1942L23.9956 30.1942C23.253 30.1942 22.5658 30.6096 22.1927 31.2853L12.314 49.1478C11.9483 49.8099 12.4027 50.6409 13.1305 50.6409L48.7532 50.6409C49.4293 50.6409 50.0518 50.2584 50.3843 49.641L59.9028 31.9746C60.3313 31.1785 59.7846 30.1942 58.9145 30.1942Z" fill="#EDF3F9" stroke="#2C78FD" stroke-width="0.567627" stroke-miterlimit="10"/>
<path d="M9.53011 42.3322L9.89585 43.0428C10.1397 43.5146 10.6107 43.8097 11.1224 43.8078L46.5734 43.7495C47.2494 43.7495 47.8719 43.367 48.2044 42.7496L57.686 24.9007C57.867 24.5609 57.8577 24.1454 57.6638 23.8134L56.7476 22.6252L9.53011 42.3322Z" fill="#2C78FD"/>
<path d="M55.9145 22.1942L20.9956 22.1942C20.253 22.1942 19.5658 22.6096 19.1927 23.2853L9.31402 41.1478C8.94828 41.8099 9.40269 42.6409 10.1305 42.6409L45.7532 42.6409C46.4293 42.6409 47.0518 42.2584 47.3843 41.641L56.9028 23.9746C57.3313 23.1785 56.7846 22.1942 55.9145 22.1942Z" fill="#D4E5F7" stroke="#2C78FD" stroke-width="0.567627" stroke-miterlimit="10"/>
<path d="M4.54097 35.3322L4.91417 36.0428C5.16297 36.5146 5.64362 36.8097 6.16573 36.8078L42.3402 36.7495C43.0301 36.7495 43.6653 36.367 44.0045 35.7496L53.6796 17.9007C53.8643 17.5609 53.8549 17.1454 53.657 16.8134L52.7221 15.6252L4.54097 35.3322Z" fill="#42A667"/>
<path d="M51.872 15.1942L16.2404 15.1942C15.4826 15.1942 14.7815 15.6096 14.4007 16.2853L4.32043 34.1478C3.94723 34.8099 4.4109 35.6409 5.15354 35.6409L41.5033 35.6409C42.1932 35.6409 42.8284 35.2584 43.1676 34.641L52.8804 16.9746C53.3177 16.1785 52.7598 15.1942 51.872 15.1942Z" fill="#C7EF9D" stroke="#42A667" stroke-width="0.567627" stroke-miterlimit="10"/>
<path d="M33.5581 29.5H21L25.7907 21H38L33.5581 29.5Z" fill="white" stroke="#42A667" stroke-width="0.567627" stroke-miterlimit="10"/>
<path d="M22 22L26.4186 28L41 19" stroke="#42A667" stroke-width="3.57" stroke-miterlimit="10" stroke-linecap="round" stroke-linejoin="round"/>
</svg>
