<svg width="67" height="67" viewBox="0 0 67 67" fill="none" xmlns="http://www.w3.org/2000/svg">
<rect width="67" height="67" rx="10" fill="#ECFFD9"/>
<ellipse cx="34" cy="47" rx="26" ry="14" fill="#00B242" fill-opacity="0.18"/>
<path d="M38.3349 56.5937C38.6544 56.8398 39.0905 56.8698 39.4408 56.6699L58.4915 45.7952C59.161 45.4131 59.1646 44.4491 58.4979 44.062L50.6945 39.531C50.5799 39.4645 50.4533 39.4214 50.322 39.4042L12.681 34.4814C11.6679 34.3489 11.1316 35.6418 11.9411 36.2652L38.3349 56.5937Z" fill="white" stroke="#00B242" stroke-width="0.567627" stroke-miterlimit="10"/>
<path d="M56.2873 39.6033C56.954 39.2221 57.7837 39.7034 57.7837 40.4714V45.1325C57.7837 45.4901 57.5928 45.8205 57.283 45.999L40.3554 55.753C39.6969 56.1324 38.8725 55.6676 38.8564 54.9077L38.7571 50.2298C38.7493 49.8635 38.9424 49.5223 39.2604 49.3405L56.2873 39.6033Z" fill="#00B242" stroke="#00B242" stroke-miterlimit="10"/>
<path d="M11.3225 35.8754C10.6559 35.4899 9.8219 35.9709 9.8219 36.7411V40.134C9.8219 40.4903 10.0115 40.8197 10.3196 40.9987L37.3899 56.7234C38.0566 57.1107 38.8922 56.6297 38.8922 55.8587V52.3962C38.8922 52.0392 38.7019 51.7093 38.3928 51.5306L11.3225 35.8754Z" fill="white" stroke="#00B242" stroke-width="0.567627" stroke-miterlimit="10"/>
<path d="M38.3873 51.5273C38.6993 51.7078 39.0843 51.7064 39.3949 51.5236L58.0762 40.5342C58.7333 40.1477 58.7336 39.1975 58.0767 38.8107L30.2706 22.4343C29.9445 22.2422 29.5378 22.2507 29.2199 22.4564L11.1934 34.1201C10.5662 34.526 10.5893 35.4513 11.236 35.8254L38.3873 51.5273Z" fill="white" stroke="#00B242" stroke-width="0.567627" stroke-miterlimit="10"/>
<path fill-rule="evenodd" clip-rule="evenodd" d="M51.7309 24.7347H20.1949V35.144H20.232C20.5837 40.0623 27.518 43.9866 36.0206 43.9866C44.7481 43.9866 51.8232 39.852 51.8232 34.7518C51.8232 34.5683 51.814 34.386 51.796 34.2052L51.7309 24.7347Z" fill="#C7EF9D"/>
<path d="M20.1949 24.7347V24.4509H19.9111V24.7347H20.1949ZM51.7309 24.7347L52.0147 24.7328L52.0127 24.4509H51.7309V24.7347ZM20.1949 35.144H19.9111V35.4279H20.1949V35.144ZM20.232 35.144L20.5151 35.1238L20.4963 34.8602H20.232V35.144ZM51.796 34.2052L51.5122 34.2072L51.5123 34.2203L51.5136 34.2334L51.796 34.2052ZM20.1949 25.0186H51.7309V24.4509H20.1949V25.0186ZM20.4788 35.144V24.7347H19.9111V35.144H20.4788ZM20.232 34.8602H20.1949V35.4279H20.232V34.8602ZM19.9489 35.1643C20.1344 37.7576 22.0484 40.0377 24.9307 41.6571C27.8201 43.2805 31.7288 44.2704 36.0206 44.2704V43.7028C31.8098 43.7028 28 42.7305 25.2087 41.1622C22.4103 39.5899 20.6814 37.4487 20.5151 35.1238L19.9489 35.1643ZM36.0206 44.2704C40.4257 44.2704 44.4276 43.2276 47.3379 41.5268C50.2414 39.8301 52.107 37.4445 52.107 34.7518H51.5394C51.5394 37.1593 49.8675 39.3911 47.0515 41.0367C44.2425 42.6783 40.3431 43.7028 36.0206 43.7028V44.2704ZM52.107 34.7518C52.107 34.5588 52.0974 34.3672 52.0784 34.177L51.5136 34.2334C51.5307 34.4049 51.5394 34.5777 51.5394 34.7518H52.107ZM51.4471 24.7367L51.5122 34.2072L52.0798 34.2032L52.0147 24.7328L51.4471 24.7367Z" fill="#00B242"/>
<path d="M30.8954 38.6862C31.408 38.6862 31.8235 38.266 31.8235 37.7476C31.8235 37.2292 31.408 36.8089 30.8954 36.8089C30.3829 36.8089 29.9673 37.2292 29.9673 37.7476C29.9673 38.266 30.3829 38.6862 30.8954 38.6862Z" fill="#2C78FD" stroke="#2C78FD" stroke-miterlimit="10"/>
<path d="M30.8954 38.6862L32.2275 47.1295C32.2275 47.1295 31.7404 47.5731 30.713 47.475C29.6857 47.377 29.7365 47.1295 29.7365 47.1295L30.8954 38.6862Z" fill="#2C78FD" stroke="#2C78FD" stroke-miterlimit="10"/>
<path d="M58.539 22.9859V21.823L36.6601 9.9754L13.2759 20.861V22.9485L13.3683 22.9905C13.4052 23.684 13.7584 24.3612 14.4349 24.7604L34.2799 36.4937C35.9721 37.493 38.066 37.4837 39.749 36.4657L57.4816 25.7318C58.479 25.127 58.8253 23.9759 58.539 22.9859Z" fill="#00B242" stroke="#00B242" stroke-miterlimit="10"/>
<path d="M57.4816 23.691L39.749 34.4249C38.0684 35.4429 35.9721 35.4546 34.2799 34.4529L14.4349 22.7197C12.9804 21.8604 13.0081 19.7239 14.4857 18.9043L32.4745 8.90598C34.0629 8.02336 35.9813 8.00935 37.5812 8.86862L57.3778 19.5091C59.01 20.387 59.0677 22.729 57.4816 23.691Z" fill="#C7EF9D" stroke="#00B242" stroke-width="0.567627" stroke-miterlimit="10"/>
<path d="M37.5212 21.0058C38.4341 21.0058 39.1742 20.573 39.1742 20.0391C39.1742 19.5052 38.4341 19.0724 37.5212 19.0724C36.6083 19.0724 35.8682 19.5052 35.8682 20.0391C35.8682 20.573 36.6083 21.0058 37.5212 21.0058Z" fill="#2C78FD" stroke="#2C78FD" stroke-miterlimit="10"/>
<path d="M36.9625 20.9614L30.9313 32.1929C30.8532 32.3383 30.8123 32.5009 30.8123 32.666V36.9093" stroke="#2C78FD" stroke-miterlimit="10"/>
</svg>
