<svg width="67" height="67" viewBox="0 0 67 67" fill="none" xmlns="http://www.w3.org/2000/svg">
<rect width="67" height="67" rx="10" fill="#ECFFD9"/>
<ellipse cx="34.5" cy="52" rx="25.5" ry="10" fill="#00B242" fill-opacity="0.18"/>
<g clip-path="url(#clip0_72_1332)">
<path d="M48.6904 10.0724C48.3895 9.81598 47.9657 9.7609 47.6093 9.93188L11.967 27.0278C11.6314 27.1888 11.4129 27.5229 11.4001 27.895L10.5534 52.4494C10.5429 52.7549 10.6726 53.0485 10.9057 53.2463L11.1784 53.4777C11.4773 53.7314 11.8969 53.7871 12.2516 53.62L48.3148 36.6361C48.6595 36.4737 48.882 36.1297 48.8886 35.7487L49.3159 11.0846C49.3211 10.7857 49.1922 10.5001 48.9647 10.3062L48.6904 10.0724Z" fill="#00B242" stroke="#00B242" stroke-width="0.567627" stroke-miterlimit="10"/>
<path d="M49.3241 10.6125L12.5496 28.2515L11.6692 53.8943L48.8778 36.3709L49.3241 10.6125Z" fill="#C7EF9D" stroke="#00B242" stroke-width="0.567627" stroke-miterlimit="10"/>
<path d="M48.8235 15.5652L43.6511 17.9926C43.2129 18.1975 42.9253 18.6414 42.9088 19.1337L42.4597 33.2506C42.429 34.2229 43.4044 34.8974 44.2669 34.5016L48.759 32.4455L48.819 15.5618L48.8235 15.5652Z" fill="#C7EF9D" stroke="#00B242" stroke-width="0.567627" stroke-miterlimit="10"/>
<path d="M40.1881 21.7064C40.1881 21.7062 40.1878 21.7062 40.1877 21.7064L39.6928 35.9489C39.6768 36.4453 39.3893 36.8892 38.9477 37.0986L23.4385 44.4686C22.5665 44.8819 21.5673 44.2065 21.592 43.2189L21.9455 28.9205C21.9566 28.4167 22.2508 27.9638 22.6963 27.7538L38.3513 20.4411C39.2272 20.0315 40.2233 20.7182 40.1884 21.7063C40.1884 21.7065 40.1881 21.7066 40.1881 21.7064Z" fill="#00B242" stroke="#00B242" stroke-width="0.567627" stroke-miterlimit="10"/>
<path d="M19.3465 31.5759L18.6771 45.9615C18.6545 46.4668 18.3558 46.9162 17.9015 47.1193L11.8687 49.8409L12.7283 32.6792L17.4487 30.2966C18.343 29.8438 19.3897 30.5493 19.3427 31.5764L19.3465 31.5759Z" fill="#C7EF9D" stroke="#00B242" stroke-width="0.567627" stroke-miterlimit="10"/>
</g>
<g clip-path="url(#clip1_72_1332)">
<path d="M57.4304 20.7697C57.1665 20.4754 56.7539 20.3642 56.3778 20.4859L18.7702 32.6643C18.416 32.779 18.1549 33.0809 18.0925 33.4479L13.9713 57.6688C13.92 57.9702 14.0094 58.2784 14.2139 58.5056L14.4532 58.7715C14.7155 59.0629 15.1239 59.1741 15.4977 59.0559L53.5075 47.0448C53.8708 46.93 54.1373 46.6187 54.1948 46.2421L57.915 21.8564C57.9601 21.5609 57.8706 21.2606 57.671 21.038L57.4304 20.7697Z" fill="#00B242" stroke="#00B242" stroke-width="0.567627" stroke-miterlimit="10"/>
<path d="M57.9862 21.3896L19.184 33.9549L14.8839 59.2499L54.1009 46.8573L57.9862 21.3896Z" fill="white" stroke="#00B242" stroke-width="0.567627" stroke-miterlimit="10"/>
<path d="M56.8281 26.2311L51.3777 27.9452C50.916 28.0898 50.5717 28.4912 50.4895 28.977L48.1575 42.9071C47.9971 43.8666 48.8736 44.6654 49.7813 44.3884L54.5079 42.9513L56.8242 26.2271L56.8281 26.2311Z" fill="#C7EF9D" stroke="#00B242" stroke-width="0.567627" stroke-miterlimit="10"/>
<path d="M46.9571 31.0768C47.0636 30.4474 46.4903 29.9707 45.9475 30.1406L45.9473 30.1406L29.4569 35.2947C29.4567 35.2947 29.4564 35.2948 29.4562 35.2949C29.1701 35.3857 28.9493 35.6388 28.9001 35.9514L28.8999 35.9528L26.6384 50.0756L26.6384 50.0758C26.5372 50.7062 27.1128 51.1782 27.6553 51.0057L46.9571 31.0768ZM46.9571 31.0768L46.9564 31.0768L44.5619 45.1274L44.5617 45.1286C44.5098 45.4375 44.2941 45.6843 44.0107 45.7747L44.0104 45.7749L27.6557 51.0055L46.9571 31.0768Z" fill="#2C78FD" stroke="#2C78FD"/>
<path d="M25.4756 38.158L22.8893 52.325C22.7993 52.8228 22.4433 53.2282 21.9659 53.3687L15.6234 55.2595L18.7692 38.3667L23.7657 36.6365C24.7126 36.3073 25.6556 37.1463 25.4717 38.158H25.4756Z" fill="#C7EF9D" stroke="#00B242" stroke-width="0.567627" stroke-miterlimit="10"/>
</g>
<defs>
<clipPath id="clip0_72_1332">
<rect width="45" height="40" fill="white" transform="translate(5 15.015) rotate(-7.68149)"/>
</clipPath>
<clipPath id="clip1_72_1332">
<rect width="45" height="40" fill="white" transform="translate(13.4714 19.828)"/>
</clipPath>
</defs>
</svg>
