<svg width="67" height="67" viewBox="0 0 67 67" fill="none" xmlns="http://www.w3.org/2000/svg">
<rect width="67" height="67" rx="10" fill="#E4EEFF"/>
<ellipse cx="35.5" cy="50" rx="25.5" ry="12" fill="#B9D2FE"/>
<path d="M47.3322 56.459L48.0429 56.0858C48.5147 55.837 48.8098 55.3564 48.8078 54.8343L48.7496 18.6598C48.7496 17.9699 48.3671 17.3347 47.7497 16.9955L29.9008 7.32042C29.561 7.1357 29.1455 7.14512 28.8135 7.34303L27.6252 8.27793L47.3322 56.459Z" fill="#42A667"/>
<path d="M27.1942 9.12801V44.7596C27.1942 45.5174 27.6097 46.2185 28.2854 46.5993L46.1479 56.6796C46.81 57.0528 47.641 56.5891 47.641 55.8465V19.4967C47.641 18.8068 47.2585 18.1716 46.641 17.8324L28.9746 8.11961C28.1786 7.68232 27.1942 8.24024 27.1942 9.12801Z" fill="#C7EF9D" stroke="#42A667" stroke-width="0.567627" stroke-miterlimit="10"/>
<path d="M29.6542 11.5331V44.0566L32.118 45.5702V12.9675L29.6542 11.5331Z" fill="white"/>
<path d="M35.238 14.5621V47.0856L37.7 48.5992V15.9965L35.238 14.5621Z" fill="white"/>
<path d="M41.8065 17.9907V50.5122L44.2704 52.0277V19.425L41.8065 17.9907Z" fill="white"/>
<path d="M37.3322 57.4699L38.0429 57.1041C38.5147 56.8603 38.8098 56.3893 38.8078 55.8776L38.7496 20.4266C38.7496 19.7506 38.3671 19.1281 37.7497 18.7956L19.9008 9.31404C19.561 9.13302 19.1455 9.14226 18.8135 9.33621L17.6252 10.2524L37.3322 57.4699Z" fill="#2C78FD"/>
<path d="M17.1942 11.0855V46.0044C17.1942 46.747 17.6097 47.4342 18.2854 47.8073L36.1479 57.686C36.81 58.0517 37.641 57.5973 37.641 56.8695V21.2468C37.641 20.5707 37.2585 19.9482 36.641 19.6157L18.9746 10.0972C18.1786 9.66867 17.1942 10.2154 17.1942 11.0855Z" fill="#D4E5F7" stroke="#2C78FD" stroke-width="0.567627" stroke-miterlimit="10"/>
<path d="M19.6542 13.4424V45.3154L22.118 46.7987V14.8481L19.6542 13.4424Z" fill="#2C78FD"/>
<path d="M25.238 16.4109V48.2839L27.7 49.7672V17.8166L25.238 16.4109Z" fill="#2C78FD"/>
<path d="M31.8065 19.7709V51.642L34.2704 53.1272V21.1766L31.8065 19.7709Z" fill="#2C78FD"/>
</svg>
