<svg width="67" height="67" viewBox="0 0 67 67" fill="none" xmlns="http://www.w3.org/2000/svg">
<rect width="67" height="67" rx="10" fill="#ECFFD9"/>
<path d="M33 30C20.8505 30 11 35.7709 11 42.8916C11 46.0324 12.9197 48.9078 16.1051 51.1432L13.7308 52.5461C12.6744 53.1696 12.7922 54.755 13.9303 55.2093L23.1888 58.8974C23.6303 59.0732 24.1241 59.0201 24.5198 58.7614L29.311 55.5974C30.5112 55.7168 31.7442 55.7798 33 55.7798C45.1495 55.7798 55 50.0089 55 42.8916C55 35.7742 45.1495 30.0033 33 30.0033V30Z" fill="#C7EF9D" stroke="#00B242" stroke-width="0.567627" stroke-miterlimit="10"/>
<path d="M51.2348 36.7734L50.5923 35.6462L50.2015 35.6297C46.7142 32.2578 40.3191 30 33.0033 30C26.6711 30 21.0278 31.6942 17.3616 34.3376L16.07 34.2882L14.6095 36.9778C13.5763 38.3654 13 39.8948 13 41.5C13 47.8515 21.9551 53 33 53C44.0449 53 53 47.8515 53 41.5C53 39.8157 52.3641 38.2138 51.2315 36.7734H51.2348Z" fill="#C7EF9D" stroke="#00B242" stroke-width="0.567627" stroke-miterlimit="10"/>
<path d="M33 49C42.9411 49 51 44.299 51 38.5C51 32.701 42.9411 28 33 28C23.0589 28 15 32.701 15 38.5C15 44.299 23.0589 49 33 49Z" fill="#C7EF9D" stroke="#00B242" stroke-width="0.567627" stroke-miterlimit="10"/>
<path d="M46.7788 38.0913C47.4933 37.6735 48 36.91 48 35.9737V23.6067C48 21.7376 46.972 20.0161 45.3134 19.1158L25.3186 8.2469C24.4546 7.77512 22.8835 8.01641 22.3039 8.65745L20 9.99715L43.0496 40L46.7825 38.0913H46.7788Z" fill="#00B242" stroke="#00B242" stroke-width="0.567627" stroke-miterlimit="10"/>
<path d="M33.3009 39.2503L37.4264 37.2254L42.1127 39.6868C43.8604 40.6039 46 39.397 46 37.4932V24.8961C46 22.9923 44.9168 21.2388 43.169 20.3217L22.0999 9.2507C20.7055 8.51703 19 9.48181 19 11.0005V24.1258C19 26.4955 20.306 28.6928 22.4379 29.9107L28.5723 33.4066L31.5301 38.7184C31.8681 39.3273 32.6594 39.5658 33.3047 39.2503H33.3009Z" fill="white" stroke="#00B242" stroke-width="0.567627" stroke-miterlimit="10"/>
<ellipse cx="27.5" cy="22" rx="1.5" ry="3" fill="#2C78FD"/>
<ellipse cx="32.5" cy="25.5" rx="1.5" ry="2.5" fill="#2C78FD"/>
<ellipse cx="37.5" cy="28" rx="1.5" ry="3" fill="#2C78FD"/>
</svg>
